<?xml version="1.0" encoding="UTF-8"?><svg id="Layer_1" xmlns="http://www.w3.org/2000/svg" xmlns:xlink="http://www.w3.org/1999/xlink" viewBox="0 0 199 199"><defs><style>.cls-1,.cls-2,.cls-3,.cls-4{stroke-width:0px;}.cls-1,.cls-3{fill:#524d56;}.cls-5{clip-path:url(#clippath);}.cls-2{fill:none;}.cls-3{fill-rule:evenodd;}.cls-4{fill:#f0eff0;}.cls-6{opacity:.5;}</style><clipPath id="clippath"><rect class="cls-2" x="31.41" y="58.47" width="139.31" height="83.95"/></clipPath></defs><rect class="cls-4" width="199" height="199"/><g class="cls-6"><g class="cls-5"><path class="cls-1" d="M148.79,118.28v-.68h.02c.28,0,.52-.04.72-.13.2-.09.37-.2.5-.35.13-.16.24-.33.31-.53.08-.2.13-.41.16-.63.03-.23.05-.46.05-.68,0-.21-.01-.43-.05-.66-.03-.22-.08-.43-.16-.63-.07-.2-.18-.38-.31-.55-.13-.16-.3-.29-.51-.38-.2-.1-.45-.14-.73-.14v-.66h.04c.86,0,1.5.26,1.93.78.43.52.65,1.27.65,2.26,0,.51-.07.95-.2,1.33-.13.38-.33.69-.57.94-.24.25-.53.44-.85.56-.31.12-.64.18-.99.19h0s0-.01,0-.01h0ZM148.79,112.23v.66c-.28,0-.52.05-.72.14-.2.1-.37.22-.51.38-.13.16-.24.34-.32.54-.08.2-.13.42-.17.65-.03.23-.05.45-.05.67,0,.3.03.6.09.88.06.28.16.53.29.74.14.22.32.39.56.52.23.12.51.19.83.19v.68h-.06c-.53,0-.98-.12-1.36-.34-.38-.23-.67-.56-.87-1.01-.2-.44-.3-.97-.3-1.61,0-.5.07-.94.2-1.33.13-.38.31-.71.55-.97.24-.26.52-.46.83-.6.31-.13.65-.2,1.02-.2h0ZM131.55,118.23v-.74c.21.03.43.04.66.04.11,0,.23,0,.37-.02.14-.02.28-.02.42-.04.14-.02.27-.03.38-.06.11-.02.2-.04.25-.06l.15.68s-.13.04-.26.06c-.12.02-.28.04-.45.07-.17.02-.35.04-.55.05-.19.01-.38.02-.56.02-.14,0-.28,0-.42-.02h.02ZM131.55,115.41v-.62h1.48c0-.4-.05-.74-.15-1.02-.1-.29-.25-.51-.45-.66-.2-.16-.45-.24-.74-.24h-.14v-.62c.08,0,.17-.01.26-.01.71,0,1.24.24,1.57.73.34.48.51,1.2.51,2.16v.3h-2.35ZM140.11,118.15v-3.74c0-.2,0-.4-.02-.61-.02-.21-.06-.4-.12-.59-.06-.19-.16-.35-.29-.51-.13-.15-.31-.26-.53-.35-.22-.09-.5-.13-.84-.13-.26,0-.49.03-.69.08-.2.05-.38.12-.53.2-.16.08-.3.16-.43.25-.13.09-.25.17-.35.24v-.62h-.81v5.77h.81v-4.44c.07-.04.16-.11.29-.19.13-.08.28-.17.45-.26.17-.09.35-.17.53-.22.18-.06.37-.1.53-.1.26,0,.48.04.64.13.16.08.28.2.36.35.08.15.14.33.16.53.03.2.04.42.04.64v3.56h.81,0ZM145.33,118.09l-.15-.66s-.04.01-.13.03c-.08.02-.19.04-.33.06s-.28.03-.43.03c-.22,0-.4-.01-.54-.03-.14-.02-.26-.07-.34-.14-.08-.07-.14-.17-.17-.3-.03-.13-.05-.3-.05-.52v-3.5h1.79v-.68h-1.79v-1.19h-.8v1.19h-.84v.68h.84v3.51c0,.34.03.61.1.83.06.21.16.38.27.5.12.12.26.2.42.26.16.06.34.08.53.1.19.01.4.02.61.01.09,0,.19,0,.29-.02.1-.01.2-.03.3-.05.1-.02.19-.04.26-.06.07-.02.13-.04.17-.05h0ZM131.55,112.25v.62c-.23.02-.44.08-.63.2-.23.14-.42.35-.57.63-.15.29-.24.65-.28,1.08h1.48v.62h-1.49c.01.37.06.67.13.92.07.25.17.45.3.61.13.16.28.28.45.37.17.08.37.15.58.17h.02v.74c-.26-.02-.49-.06-.72-.12-.34-.1-.62-.25-.85-.47-.24-.22-.42-.52-.54-.89-.12-.37-.19-.83-.19-1.38,0-.58.07-1.07.2-1.48.13-.4.31-.73.54-.97.24-.24.5-.42.81-.53.24-.08.48-.13.75-.15h0,0ZM103.23,129.14v-.67c.16-.02.3-.06.43-.11.2-.08.37-.2.5-.35.13-.16.24-.33.31-.53.08-.2.13-.41.16-.63.03-.23.04-.46.04-.69,0-.21-.02-.43-.04-.66-.03-.22-.08-.43-.16-.63-.07-.2-.18-.38-.31-.55-.13-.16-.3-.29-.5-.38-.12-.06-.27-.1-.43-.12v-.68c.72.06,1.27.3,1.65.76.43.52.65,1.27.65,2.26,0,.51-.07.95-.2,1.33-.13.38-.33.69-.57.94-.24.25-.53.44-.85.56-.21.08-.44.13-.68.16h0s0-.01,0-.01ZM103.23,118.28v-.68h.02c.28,0,.52-.05.72-.13.2-.08.37-.2.5-.35.13-.16.24-.33.31-.53.08-.2.13-.41.16-.63.03-.22.04-.45.04-.68,0-.21-.01-.43-.04-.66-.03-.22-.08-.43-.16-.63-.07-.2-.19-.38-.31-.55-.13-.16-.3-.29-.51-.38s-.45-.14-.74-.14v-.66h.04c.86,0,1.5.26,1.93.78.43.52.65,1.27.65,2.26,0,.51-.07.95-.2,1.33-.13.38-.33.69-.57.94-.24.25-.53.44-.85.56-.31.12-.64.18-.99.18h0s0-.01,0-.01h0ZM108.35,118.16v-7.98h-.81v7.98h.81ZM114.71,112.38h-.84l-1.36,3.97-.42,1.22-.37-1.2-1.22-3.99h-.89l1.88,5.77h1.2l2.02-5.77ZM117.36,110.59l-.7-.68-.68.68.68.7.7-.7ZM117.08,118.16v-5.77h-.81v5.77h.81ZM127.61,118.16v-3.74c0-.2,0-.4-.02-.61-.02-.21-.06-.4-.12-.59-.06-.19-.16-.35-.29-.51-.13-.15-.31-.26-.53-.35-.22-.09-.5-.13-.84-.13-.25,0-.48.03-.7.09-.2.06-.39.13-.56.22-.17.09-.32.18-.45.27-.13.09-.25.17-.37.25-.07-.16-.17-.3-.31-.43-.13-.12-.3-.22-.52-.29-.21-.07-.47-.11-.77-.11-.26,0-.48.03-.66.08-.18.05-.35.12-.48.2-.14.08-.26.16-.37.25-.11.09-.22.17-.33.24v-.62h-.81v5.77h.81v-4.44c.07-.04.16-.11.27-.19.11-.08.25-.17.4-.26.15-.09.31-.17.48-.23.17-.06.34-.1.51-.1.26,0,.48.04.64.13.16.08.28.2.37.35.08.15.14.33.16.53.03.2.04.42.04.64v3.56h.8v-3.74c0-.12,0-.25-.01-.37,0-.12-.02-.25-.03-.37.08-.06.18-.12.3-.2.12-.08.26-.16.42-.25.16-.08.32-.15.48-.2.16-.06.33-.08.49-.08.26,0,.48.04.63.13.16.08.28.2.36.35.08.15.13.33.16.53.03.2.04.42.04.64v3.56h.81ZM111.07,123.44c-.09-.06-.2-.11-.34-.16-.14-.05-.31-.09-.51-.12s-.43-.05-.69-.05c-.41,0-.79.07-1.12.2-.34.13-.62.33-.86.58-.24.25-.43.56-.56.93-.13.37-.2.79-.2,1.25,0,.54.05,1.01.16,1.39.11.39.28.7.51.94.24.25.53.42.91.53.38.11.83.17,1.36.17.2,0,.38-.02.56-.04.17-.02.33-.06.45-.08.13-.03.23-.06.3-.07l-.12-.65c-.07.01-.17.03-.28.05-.11.02-.24.04-.38.06-.14.02-.29.02-.44.03-.43,0-.79-.04-1.07-.14-.29-.09-.51-.23-.67-.42-.17-.19-.28-.43-.35-.72s-.1-.63-.1-1.03c0-.76.16-1.35.45-1.74.3-.39.74-.58,1.3-.58.19,0,.38.02.55.05.17.03.33.06.47.11.14.04.25.08.34.12l.32-.63h0s0,.01,0,.01ZM110.08,130.28c0-.12-.02-.24-.06-.36-.04-.12-.1-.23-.16-.34h-.78c.07.12.13.25.17.37.04.12.07.23.07.34,0,.14-.04.28-.13.4-.1.13-.25.27-.48.4l.26.47c.28-.12.5-.25.66-.38.16-.14.28-.29.35-.44.07-.16.1-.31.09-.47h0s0,.01,0,.01ZM103.22,112.24v.66c-.28,0-.52.05-.72.14-.2.1-.37.22-.51.38-.13.16-.24.34-.32.55-.08.2-.13.42-.17.65-.03.23-.05.45-.05.67,0,.3.03.6.09.88.06.28.16.53.29.74.14.22.32.39.56.52.22.12.5.19.83.19v.68h-.06c-.53,0-.99-.12-1.36-.34-.38-.23-.67-.56-.87-1.01-.2-.44-.3-.97-.3-1.61,0-.5.07-.94.2-1.33.13-.38.31-.71.55-.97.24-.26.52-.46.83-.6.31-.13.65-.2,1.02-.2h0ZM103.22,123.13v.68c-.1-.01-.2-.02-.31-.02-.28,0-.52.05-.72.14-.2.1-.37.22-.51.38-.13.16-.24.34-.32.54-.08.2-.13.42-.17.65-.03.23-.05.45-.05.67,0,.3.03.6.09.88.06.28.16.53.29.74.14.22.32.39.56.52.23.12.52.19.86.19.1,0,.2,0,.29-.02v.67c-.12.01-.25.02-.38.02-.53,0-.99-.12-1.36-.34-.38-.23-.67-.56-.87-1.01-.2-.44-.3-.97-.3-1.61,0-.5.07-.94.2-1.33s.31-.71.55-.97c.24-.26.52-.46.83-.6.32-.13.67-.2,1.06-.2.09,0,.19,0,.28.01h0ZM85.13,128.98v-.87c.08.07.17.13.27.19.23.12.52.19.86.19.28,0,.52-.04.72-.13.2-.09.37-.2.5-.35.13-.16.24-.33.31-.53.08-.2.13-.41.16-.63.03-.23.04-.46.04-.69,0-.21-.02-.43-.04-.66-.03-.22-.08-.43-.16-.63-.07-.2-.19-.38-.31-.55-.13-.16-.3-.29-.51-.38-.2-.1-.45-.14-.74-.14s-.52.05-.72.14c-.15.07-.28.16-.38.25v-.82s.06-.03.09-.04c.32-.13.67-.2,1.06-.2.86,0,1.5.26,1.93.78.43.52.65,1.27.65,2.26,0,.51-.07.95-.2,1.33-.13.38-.33.69-.57.94-.24.25-.53.44-.85.56-.33.12-.67.18-1.06.18s-.74-.06-1.04-.18h0s-.01-.01-.01-.01h0ZM85.13,118.24v-.74c.21.03.43.04.66.04.11,0,.22,0,.36-.02.14-.02.28-.02.42-.04.14-.02.27-.03.38-.06.11-.02.2-.04.25-.06l.15.68s-.13.04-.26.06c-.12.02-.28.05-.45.07-.17.02-.35.04-.55.05-.19.01-.38.02-.56.02-.14,0-.28,0-.42-.02h.02ZM85.13,115.42v-.62h1.48c0-.4-.05-.74-.15-1.02-.1-.29-.25-.51-.45-.66-.2-.16-.45-.24-.74-.24h-.14v-.62c.08,0,.17-.01.26-.01.71,0,1.23.24,1.57.72.34.48.51,1.2.51,2.16v.3h-2.35ZM93.69,118.16v-3.74c0-.2,0-.4-.02-.61-.02-.21-.06-.4-.12-.59-.06-.19-.16-.35-.29-.51-.13-.15-.31-.26-.53-.35-.22-.09-.51-.13-.84-.13-.26,0-.49.03-.69.08-.2.05-.38.12-.53.2-.16.08-.3.16-.43.25-.13.09-.25.17-.35.24v-.62h-.81v5.78h.81v-4.44c.07-.04.16-.11.29-.19.13-.08.28-.17.45-.26.17-.09.35-.17.53-.23.19-.06.36-.1.53-.1.26,0,.48.05.64.13.16.08.28.2.36.35.08.15.14.33.16.53.03.2.04.42.04.64v3.56h.81,0ZM99.89,112.39h-.84l-1.36,3.97-.42,1.22-.37-1.2-1.22-3.99h-.89l1.88,5.78h1.2l2.02-5.78ZM98.69,129.05v-3.74c0-.2,0-.4-.02-.61-.02-.21-.06-.4-.12-.59-.06-.19-.16-.35-.29-.51-.13-.15-.31-.26-.53-.35-.22-.09-.5-.13-.84-.13-.25,0-.48.03-.7.09-.2.06-.39.13-.56.22-.17.09-.32.18-.45.27-.13.09-.25.17-.36.25-.07-.16-.17-.3-.31-.43-.13-.12-.3-.22-.52-.29-.21-.07-.47-.11-.77-.11-.26,0-.48.03-.66.08-.19.05-.35.12-.48.2-.14.08-.26.16-.37.25-.11.09-.22.17-.33.24v-.62h-.81v5.78h.81v-4.44c.07-.04.16-.11.27-.19.11-.08.25-.17.4-.26.15-.09.31-.17.48-.23.17-.06.34-.1.51-.1.26,0,.48.05.64.13.16.08.28.2.36.35s.14.33.16.53c.03.2.04.42.04.64v3.56h.8v-3.74c0-.12,0-.25-.01-.37,0-.12-.02-.25-.03-.37.08-.06.18-.12.3-.2.12-.08.26-.16.42-.25s.32-.15.48-.2c.17-.06.33-.08.49-.08.26,0,.48.05.63.13.16.08.28.2.36.35.08.15.13.33.16.53.03.2.04.42.04.64v3.56h.81ZM85.13,112.26v.62c-.23.02-.44.08-.63.2-.23.14-.42.35-.57.63-.15.29-.24.65-.28,1.08h1.48v.62h-1.49c.01.37.06.67.13.92.07.25.17.45.3.61.13.16.28.28.45.37.17.08.37.15.58.17h.02v.74c-.26-.02-.49-.06-.72-.12-.34-.1-.62-.25-.85-.47-.24-.22-.42-.52-.54-.89-.12-.37-.19-.83-.19-1.38,0-.58.07-1.07.2-1.48.13-.4.31-.72.54-.97.24-.24.51-.42.81-.53.24-.08.48-.13.75-.15h0ZM85.13,123.37v.82s-.08.08-.12.12c-.13.16-.24.34-.32.54-.08.2-.13.42-.17.65-.03.22-.05.45-.05.67,0,.3.03.6.09.88.06.28.16.53.29.74.08.12.17.24.29.33v.87c-.11-.04-.21-.1-.31-.16-.38-.23-.67-.56-.87-1.01-.2-.44-.3-.97-.3-1.61,0-.5.07-.94.2-1.33.13-.38.31-.71.55-.97.21-.24.47-.42.74-.56h0ZM74.31,129.05v-7.48h2.07c.49,0,.92.08,1.28.24.36.16.63.41.83.75.2.34.29.76.3,1.29,0,.34-.06.65-.17.93-.12.29-.3.53-.54.74-.24.21-.55.38-.92.49-.37.12-.81.17-1.32.18h-.2v-.7h.26c.29-.02.56-.05.8-.11.24-.06.45-.15.63-.26.17-.12.31-.28.42-.48.1-.2.15-.45.15-.74,0-.38-.06-.7-.19-.94-.12-.24-.32-.42-.58-.53-.26-.11-.58-.17-.98-.17h-1.34v6.79h-.5s0-.01,0-.01ZM74.31,118.25v-.74c.21.03.43.04.66.04.11,0,.22,0,.36-.02.14-.02.28-.02.42-.04.14-.02.27-.03.38-.06.11-.02.2-.04.25-.06l.15.68s-.13.04-.26.06c-.12.02-.28.04-.45.07-.17.02-.35.04-.55.05-.19.01-.38.02-.56.02-.14,0-.28,0-.42-.02h.02ZM74.31,115.43v-.62h1.48c0-.4-.05-.74-.15-1.02-.1-.29-.25-.51-.45-.66-.2-.16-.45-.24-.74-.24h-.14v-.62c.08,0,.17-.01.26-.01.71,0,1.23.24,1.57.72.34.48.51,1.2.51,2.16v.3h-2.35ZM81.65,116.58c0-.26-.06-.49-.16-.67-.11-.18-.24-.34-.42-.46-.17-.12-.36-.24-.56-.32-.2-.08-.41-.17-.62-.25-.2-.08-.39-.17-.56-.26-.17-.1-.31-.21-.42-.35-.11-.13-.16-.3-.16-.5,0-.16.04-.3.11-.43.08-.12.19-.21.35-.29.16-.07.35-.1.6-.1.22,0,.42.01.58.04.17.02.31.06.44.09.12.03.22.06.3.08l.16-.66c-.06-.02-.15-.05-.29-.08-.13-.03-.3-.07-.49-.09-.19-.03-.4-.04-.62-.04-.28,0-.54.03-.78.1-.24.07-.44.17-.62.3s-.31.3-.41.51c-.1.2-.15.43-.15.7,0,.29.06.53.16.72.11.2.24.35.42.48.17.12.36.23.57.32.2.08.42.16.62.24.2.07.39.15.57.24.17.08.31.2.42.32.11.13.16.29.16.49,0,.18-.06.34-.17.47-.12.13-.29.23-.51.3-.22.07-.48.11-.78.11-.12,0-.24-.01-.38-.02-.14-.02-.28-.04-.42-.06-.14-.02-.28-.05-.4-.08-.12-.02-.22-.06-.3-.08l-.12.71s.12.04.24.07c.11.03.25.06.42.08.16.02.34.04.53.07.19.02.38.03.58.03s.38-.02.58-.05c.2-.03.38-.09.57-.17.19-.08.34-.18.49-.31.14-.13.26-.29.34-.48.08-.19.12-.42.13-.68h-.02ZM83.19,123.24s-.13-.03-.24-.05c-.11-.02-.25-.02-.43-.02-.24,0-.47.04-.69.12-.22.08-.41.19-.57.32-.17.13-.3.28-.38.43v-.78h-.81v5.78h.81v-4.22c.09-.15.21-.29.35-.42.15-.13.31-.24.51-.33.19-.08.4-.13.65-.13.17,0,.3,0,.42.02.11.01.2.03.26.06l.14-.79h-.01ZM70.79,114.41c0-.65-.11-1.2-.31-1.67-.2-.47-.49-.85-.86-1.16-.37-.3-.81-.53-1.31-.67-.19-.06-.38-.1-.59-.13v.74c.09.02.17.04.26.07.41.12.76.32,1.06.57.29.25.52.58.68.97.16.39.24.86.24,1.39,0,.65-.13,1.2-.38,1.64-.25.43-.61.76-1.07.98-.24.11-.49.2-.78.25v.71c.24-.04.47-.09.68-.15.5-.15.93-.38,1.29-.68.35-.31.63-.7.83-1.17.19-.47.29-1.03.29-1.68h-.02ZM74.31,112.27v.62c-.23.02-.44.08-.63.2-.23.14-.42.35-.57.63-.15.29-.24.65-.28,1.08h1.48v.62h-1.49c.01.37.06.67.13.92.07.25.17.45.3.61.13.16.28.28.45.37.17.08.37.15.58.17h.02v.74c-.26-.02-.49-.06-.72-.12-.34-.1-.62-.25-.85-.47-.24-.22-.42-.52-.54-.89-.12-.37-.19-.83-.19-1.38,0-.58.07-1.07.2-1.48.13-.4.31-.73.54-.97.24-.24.51-.42.81-.53.24-.08.48-.13.75-.15h0ZM74.31,121.57v7.48h-.36v-7.48h.36ZM67.71,129.09v-.7h.06c.14-.02.27-.04.38-.06.11-.02.2-.04.25-.06l.15.68s-.13.04-.26.06c-.12.02-.28.04-.45.07h-.12ZM67.71,126.31v-.62h.08c0-.3-.03-.57-.08-.8v-1.46c.17.11.32.25.44.43.34.48.51,1.2.51,2.16v.3h-.95ZM67.71,110.78c-.34-.06-.7-.08-1.08-.08h-1.99v7.48h2.05c.36,0,.7-.02,1.02-.07v-.71c-.28.06-.58.08-.9.08h-1.33v-6.07h1.12c.4,0,.77.04,1.11.12v-.74h0ZM67.71,123.43v1.45c-.02-.08-.04-.15-.07-.23-.1-.29-.25-.51-.45-.66-.2-.16-.45-.24-.74-.24s-.54.07-.77.21c-.23.14-.42.35-.57.63-.15.29-.24.65-.28,1.08h2.87v.62h-2.89c.01.37.06.67.13.92.07.25.17.45.3.61.13.16.28.28.45.37.17.08.37.15.58.17.21.03.44.04.68.04.11,0,.22,0,.36-.02.12-.01.24-.02.36-.03v.7c-.14.02-.28.02-.43.04-.19.02-.38.02-.56.02-.42,0-.79-.04-1.13-.14-.34-.1-.62-.25-.85-.47-.24-.22-.42-.52-.54-.89-.12-.37-.19-.83-.19-1.38,0-.58.07-1.07.2-1.48.13-.4.31-.73.54-.97.24-.24.51-.42.81-.53.31-.11.65-.16,1.01-.16.45,0,.83.1,1.13.29h0Z"/><path class="cls-1" d="M168,129.07v-.68l.06-.02c.16-.06.31-.12.47-.19.16-.08.3-.16.43-.24.13-.08.24-.14.32-.19.08-.05.12-.08.12-.08v-1.31l-1.38.07h-.04v-.66h.02l1.38-.03v-.8c0-.24-.03-.44-.08-.58-.06-.15-.15-.26-.27-.34-.12-.07-.28-.12-.47-.16-.17-.02-.37-.03-.59-.04v-.7h.16c.29,0,.56.02.81.07.25.05.46.13.65.25.18.12.33.28.43.47.1.2.15.45.16.75v3.22c0,.16.03.27.08.35.06.08.12.13.2.16.08.03.17.04.25.04l-.06.66c-.12.01-.25,0-.4-.01-.14-.02-.28-.05-.4-.1-.12-.06-.24-.13-.32-.23-.08-.1-.13-.24-.15-.4-.07.04-.15.11-.25.2-.1.08-.24.17-.39.25-.16.08-.34.16-.56.22-.07.02-.13.03-.21.04h0ZM168,123.12v.7h-.08c-.13,0-.27.01-.42.03-.15.02-.28.05-.4.08-.13.03-.25.06-.35.09-.11.03-.18.05-.25.07l-.17-.63c.08-.04.21-.08.39-.13.17-.05.39-.1.63-.14.2-.03.42-.06.64-.06ZM168,125.76v.67c-.33.02-.59.07-.8.15-.21.08-.37.2-.47.34-.1.14-.15.3-.15.49,0,.25.04.46.14.61s.21.26.37.33c.16.07.34.1.54.1.11,0,.24-.02.36-.06v.68c-.17.03-.35.05-.56.05-.34,0-.63-.06-.88-.19-.24-.12-.43-.31-.56-.55-.13-.24-.2-.54-.2-.89,0-.28.05-.52.14-.72.09-.2.21-.37.37-.49.16-.13.33-.23.52-.3.19-.07.39-.12.59-.16.19-.03.38-.04.56-.05h0ZM120.79,129.15v-.68h.02c.28,0,.52-.04.72-.13.2-.08.37-.2.5-.35.13-.16.24-.33.31-.53.08-.2.13-.41.16-.63.03-.23.04-.46.04-.69,0-.21-.01-.43-.04-.66-.03-.22-.08-.43-.16-.63-.07-.2-.18-.38-.31-.55-.13-.16-.3-.29-.5-.38-.2-.1-.45-.14-.74-.14v-.66h.04c.86,0,1.5.26,1.93.78.43.52.65,1.27.65,2.26,0,.51-.07.95-.2,1.33-.13.38-.33.69-.57.94-.24.25-.53.44-.85.56-.31.12-.64.18-.99.19h0s0-.01,0-.01h0ZM133.17,122.26v-.72h-5.96v.72h2.56v6.76h.84v-6.76h2.56ZM138.27,129.02v-5.77h-.78v4.39c-.06.03-.13.08-.24.15-.11.06-.23.13-.37.2-.14.07-.29.15-.44.21-.15.07-.3.12-.44.17-.15.05-.28.07-.39.07-.26,0-.48-.04-.63-.13-.16-.08-.28-.2-.35-.36-.08-.16-.12-.33-.15-.53-.02-.2-.03-.42-.03-.65v-3.52h-.8v3.69c0,.2,0,.4.03.61.02.2.06.4.12.59.07.19.16.37.29.52.13.15.3.27.52.36.22.09.48.13.8.13.24,0,.45-.03.66-.08.2-.06.39-.12.56-.21.17-.08.33-.17.47-.26.14-.09.27-.17.38-.25v.68h.79,0ZM143.51,123.21s-.13-.03-.24-.05c-.11-.02-.25-.02-.43-.02-.24,0-.47.04-.69.12-.22.08-.41.19-.57.32-.17.13-.3.28-.38.43v-.78h-.81v5.77h.81v-4.22c.09-.15.21-.29.35-.42.15-.13.31-.24.5-.33.19-.08.4-.13.65-.13.17,0,.3,0,.42.02.11.01.2.03.26.06l.14-.79h-.01ZM146.95,121.19l-.44-.68-2.08,1.45.35.54,2.18-1.31h0ZM145.7,129.02v-5.77h-.81v5.77h.81ZM151.5,127.43c0-.26-.06-.49-.16-.67-.11-.19-.24-.34-.42-.46-.17-.12-.36-.24-.56-.32-.2-.08-.41-.17-.62-.25-.2-.08-.39-.17-.56-.26-.17-.09-.31-.21-.42-.35-.11-.13-.16-.3-.16-.5,0-.16.04-.3.11-.43.08-.12.2-.21.35-.29.16-.07.35-.1.6-.1.22,0,.42.01.58.04.17.02.31.06.44.09.12.03.23.06.3.08l.16-.66c-.06-.02-.15-.05-.29-.08s-.3-.07-.49-.09c-.19-.03-.4-.04-.62-.04-.28,0-.54.03-.78.1-.24.07-.44.17-.62.3-.17.13-.31.3-.41.51-.1.2-.15.43-.15.7,0,.29.06.53.16.73.11.2.24.35.42.48.17.12.36.23.57.32.2.08.42.16.62.24.2.07.39.15.57.24.17.08.31.19.42.32.11.13.16.29.16.49,0,.19-.06.34-.17.47-.12.13-.29.23-.51.3-.22.07-.48.11-.78.11-.12,0-.24-.01-.38-.02-.14-.02-.28-.04-.42-.06-.14-.02-.28-.05-.4-.08-.12-.02-.22-.06-.3-.08l-.12.71s.12.04.24.07c.11.03.25.06.42.08.16.02.34.05.53.07.19.02.38.03.58.03s.38-.02.58-.05c.2-.03.38-.09.57-.17.18-.08.34-.18.49-.31.14-.13.26-.29.34-.48.08-.19.12-.42.13-.68h-.02ZM156.27,128.96l-.15-.66s-.04.01-.13.03c-.08.02-.2.04-.33.06-.13.02-.28.03-.43.03-.22,0-.4-.01-.54-.03-.14-.02-.26-.07-.34-.14-.08-.07-.14-.17-.17-.3-.03-.13-.05-.3-.05-.52v-3.5h1.79v-.68h-1.79v-1.19h-.8v1.19h-.84v.68h.84v3.51c0,.34.03.61.09.83.06.21.16.38.27.5.12.12.26.2.42.26.16.06.34.08.53.1.2.01.4.02.61.01.09,0,.18,0,.29-.02.1-.01.2-.03.3-.05.1-.02.18-.04.26-.06.07-.02.13-.04.17-.05h0ZM158.95,121.44l-.7-.68-.68.68.68.7.7-.7ZM158.66,129.02v-5.77h-.81v5.77h.81ZM164.92,123.42c-.09-.06-.2-.11-.34-.16s-.31-.09-.51-.12c-.2-.03-.43-.05-.69-.05-.41,0-.79.07-1.12.2-.34.13-.62.33-.86.58-.24.25-.43.56-.56.93-.13.37-.2.79-.2,1.25,0,.54.05,1.01.16,1.39.11.39.28.7.51.94.24.24.53.42.91.53.38.11.83.17,1.36.17.2,0,.38-.02.56-.04.17-.02.33-.06.45-.08.13-.03.23-.06.3-.07l-.12-.65c-.07.01-.17.03-.28.05-.11.02-.24.04-.38.06-.14.02-.29.02-.44.03-.43,0-.79-.04-1.07-.14-.29-.09-.51-.23-.67-.42-.16-.19-.28-.43-.35-.72-.07-.29-.1-.63-.1-1.03,0-.76.16-1.35.45-1.74.3-.39.73-.58,1.3-.58.19,0,.38.02.55.04.17.03.33.06.47.11.14.04.25.08.34.12l.32-.63h0s0,.01,0,.01ZM116.23,121.78l-.3-.52s-.02.02-.06.05c-.04.03-.1.07-.16.11-.07.04-.16.08-.25.11-.1.03-.2.05-.32.05-.1,0-.2-.02-.3-.07-.1-.04-.2-.1-.3-.16s-.21-.11-.33-.16c-.02,0-.03-.01-.06-.02v.81c.08.04.17.08.25.13.11.06.21.11.33.16.11.04.23.07.35.07.13,0,.26-.02.37-.06.11-.04.22-.09.31-.15.1-.06.17-.11.24-.17.07-.06.12-.11.16-.15.03-.04.06-.06.06-.06h-.01ZM120.79,123.1v.66c-.28,0-.52.05-.72.14-.2.1-.37.22-.51.38-.13.16-.24.34-.32.54-.08.2-.13.42-.17.65-.03.22-.05.45-.05.67,0,.3.03.6.09.88.06.28.16.53.29.74.14.22.32.39.56.52.23.12.51.19.83.19v.68h-.06c-.53,0-.99-.12-1.36-.34-.38-.23-.67-.56-.87-1.01-.2-.44-.3-.97-.3-1.61,0-.5.07-.94.2-1.33.13-.38.31-.71.55-.97.24-.26.52-.46.83-.6.31-.13.65-.2,1.02-.2h0ZM114.16,129.06v-.68l.06-.02c.16-.06.31-.12.47-.19.16-.08.3-.16.43-.24.13-.08.24-.14.32-.19.08-.05.12-.08.12-.08v-1.31l-1.38.07h-.04v-.66h.02l1.38-.03v-.8c0-.24-.03-.44-.08-.58-.06-.15-.15-.26-.27-.34-.12-.07-.28-.12-.47-.16-.17-.02-.36-.03-.59-.04v-.7h.16c.29,0,.56.02.81.07.25.05.46.13.65.25.18.12.33.28.43.47s.15.45.16.75v3.22c0,.16.03.27.08.35.06.08.12.13.2.16.08.03.17.04.25.04l-.06.66c-.12.01-.25,0-.4-.01-.14-.02-.28-.05-.4-.1-.12-.06-.24-.13-.32-.23-.08-.1-.13-.24-.15-.4-.07.04-.15.11-.25.2-.1.08-.24.17-.39.25-.16.08-.34.16-.56.22-.07.02-.13.03-.21.04h0ZM114.16,121.19c-.1-.03-.21-.05-.32-.05-.17,0-.33.03-.47.08-.14.05-.26.11-.37.19-.1.07-.18.13-.24.19-.06.06-.08.08-.08.08l.26.56c.09-.08.18-.14.26-.19.08-.04.17-.08.27-.1.1-.02.2-.03.31-.03s.21.02.31.07l.06.02v-.81h0s0-.01,0-.01ZM114.16,123.11v.7h-.08c-.13,0-.27.01-.42.03-.15.02-.28.05-.4.08-.13.03-.25.06-.35.09-.11.03-.18.05-.25.07l-.17-.63c.08-.04.21-.08.39-.13.17-.05.39-.1.63-.14.2-.03.42-.06.64-.06ZM114.16,125.75v.67c-.33.02-.59.07-.8.15-.21.08-.37.2-.47.34-.1.14-.15.3-.15.49,0,.25.04.46.14.61.1.15.21.26.37.33.16.07.34.1.54.1.11,0,.24-.02.37-.06v.68c-.17.03-.35.04-.56.04-.34,0-.63-.06-.88-.18-.24-.12-.43-.31-.56-.55-.13-.24-.2-.54-.2-.89,0-.28.05-.52.14-.72.09-.2.21-.37.37-.49.16-.13.33-.23.52-.3.19-.07.39-.12.6-.16.19-.03.38-.05.56-.05h0ZM98.88,139.93v-.68l.06-.02c.16-.06.31-.12.47-.2s.3-.16.43-.24c.13-.08.24-.14.32-.19.08-.05.12-.08.12-.08v-1.31l-1.38.07h-.04v-.66h.02l1.38-.03v-.8c0-.24-.03-.44-.08-.58-.06-.15-.15-.26-.27-.34-.12-.07-.28-.12-.47-.16-.17-.02-.36-.03-.59-.04v-.7h.16c.29,0,.56.02.81.07.25.05.46.13.65.25.19.12.33.28.43.47.1.2.15.45.16.75v3.22c0,.16.03.27.08.35s.12.13.2.16c.08.03.17.04.25.04l-.06.66c-.12.01-.25,0-.4-.01-.14-.02-.27-.05-.4-.1-.12-.06-.24-.13-.32-.23-.08-.1-.13-.24-.15-.4-.07.05-.15.11-.25.2-.1.08-.24.17-.39.25-.16.08-.34.16-.56.22-.07.02-.13.03-.21.04h0s0,.01,0,.01ZM107.19,134.3c-.09-.06-.2-.11-.34-.16-.14-.05-.31-.09-.51-.12-.2-.03-.43-.04-.69-.05-.41,0-.79.07-1.12.2-.34.13-.62.33-.86.58-.24.25-.43.56-.56.93-.13.37-.2.79-.2,1.25,0,.54.05,1.01.16,1.39.11.39.28.7.51.94.24.25.53.42.92.53.38.11.83.17,1.36.17.2,0,.38-.02.56-.04.17-.02.33-.06.45-.08.13-.03.23-.06.3-.07l-.12-.65c-.07.01-.17.03-.28.05-.11.02-.24.04-.38.06-.14.02-.29.02-.44.03-.43,0-.79-.04-1.07-.14-.29-.09-.5-.23-.67-.42-.17-.19-.28-.43-.35-.72-.07-.29-.1-.63-.09-1.03,0-.76.16-1.35.45-1.74.3-.39.73-.58,1.3-.58.19,0,.38.02.55.04.17.03.33.06.47.11.14.04.25.08.34.12l.32-.63h0s0,.01,0,.01ZM106.2,141.13c0-.12-.02-.24-.06-.37-.04-.12-.1-.23-.16-.34h-.78c.07.12.13.25.17.37.04.12.07.23.07.34,0,.14-.04.28-.13.4-.1.13-.25.27-.48.4l.26.47c.28-.12.5-.25.66-.38.16-.14.28-.29.35-.44.07-.16.1-.31.1-.47h0s0,.01,0,.01ZM113.24,139.9v-5.77h-.78v4.39c-.06.03-.13.08-.24.15-.11.06-.23.13-.37.2-.14.07-.29.15-.44.21-.15.07-.3.12-.44.17-.15.05-.28.07-.39.07-.26,0-.48-.05-.63-.13-.16-.08-.28-.2-.35-.36-.08-.16-.12-.33-.15-.53-.02-.2-.03-.42-.03-.65v-3.52h-.8v3.69c0,.2,0,.4.03.61.02.2.06.4.12.6.07.19.16.37.29.52.13.15.3.27.52.36.21.09.48.13.81.13.24,0,.45-.03.66-.08.2-.06.39-.12.56-.21.17-.08.33-.17.47-.26.14-.09.27-.17.38-.25v.68h.79,0ZM98.88,133.99v.7h-.08c-.13,0-.27.01-.42.03-.15.02-.28.05-.4.08-.13.03-.25.06-.35.09-.11.03-.19.05-.25.07l-.17-.63c.08-.04.21-.08.39-.13.17-.05.39-.1.63-.14.2-.03.42-.06.64-.06ZM98.88,136.63v.67c-.33.02-.6.07-.8.15-.21.08-.37.2-.47.34-.1.14-.15.3-.15.49,0,.25.04.46.14.61.09.15.21.26.37.33.16.07.34.1.54.1.11,0,.24-.02.36-.06v.68c-.17.03-.35.04-.56.04-.34,0-.63-.06-.88-.18-.24-.12-.43-.31-.56-.55-.13-.24-.2-.54-.2-.89,0-.28.05-.52.14-.72.09-.2.21-.37.37-.49.16-.13.33-.23.52-.3.19-.07.39-.12.6-.16.19-.03.38-.05.56-.05h0ZM86.12,142.34v-.71c.16,0,.31-.02.45-.05.22-.04.42-.11.58-.22.16-.11.29-.26.38-.47.09-.2.14-.47.14-.79v-.61c-.12.09-.25.17-.38.25-.14.07-.29.13-.45.18-.16.04-.34.07-.53.07h-.19v-.7c.07,0,.16.01.24.01.15,0,.29-.02.43-.06.13-.04.25-.1.37-.16.11-.06.21-.12.3-.19.09-.07.16-.12.22-.17v-3.84c-.1-.02-.2-.03-.31-.04-.11-.01-.24-.02-.38-.03-.14-.01-.31-.01-.49-.01-.13,0-.25.01-.36.02v-.7c.12-.02.25-.02.38-.02.33,0,.66.02.99.06.34.04.67.08.99.14v5.98c0,.3-.04.56-.14.79-.09.23-.21.43-.37.58-.16.16-.34.29-.54.4-.2.11-.42.17-.65.23-.22.04-.44.07-.66.07ZM95.17,139.9v-5.77h-.78v4.39c-.06.03-.13.08-.24.15-.11.06-.22.13-.36.2-.14.07-.29.15-.44.21-.15.07-.3.12-.44.17-.15.05-.28.07-.39.07-.26,0-.48-.05-.63-.13-.16-.08-.28-.2-.35-.36-.08-.16-.12-.33-.15-.53-.02-.2-.03-.42-.03-.65v-3.52h-.8v3.69c0,.2,0,.4.03.61.02.2.06.4.12.6.07.19.16.37.29.52s.3.27.52.36c.21.09.48.13.81.13.24,0,.45-.03.66-.08.2-.06.39-.12.56-.21.17-.08.33-.17.47-.26.14-.09.27-.17.38-.25v.68h.79,0ZM86.12,134.11v.7c-.2.03-.37.08-.53.16-.25.12-.44.29-.6.5-.15.21-.26.45-.33.72-.07.28-.1.56-.1.87,0,.52.07.95.21,1.28.14.33.34.57.61.73.21.12.45.2.72.22v.7c-.18,0-.36-.02-.54-.06-.24-.04-.47-.12-.68-.24-.22-.11-.41-.28-.58-.5-.17-.22-.3-.51-.4-.86-.1-.35-.15-.79-.15-1.3,0-.48.07-.92.22-1.28.14-.37.34-.67.59-.92.25-.25.54-.43.86-.56.22-.08.44-.13.68-.16h.01ZM86.12,141.63v.71h-.04c-.21,0-.42-.01-.61-.03-.2-.02-.38-.04-.54-.07-.17-.02-.31-.06-.43-.08-.12-.02-.21-.05-.26-.07l.12-.63c.06.01.15.03.27.05.12.02.25.04.4.06.15.02.29.03.44.04.15.01.28.02.39.02h.27,0ZM73.01,140.03v-.68h.02c.28,0,.52-.05.72-.13.2-.08.37-.2.5-.35.13-.16.24-.33.31-.53.08-.2.13-.41.16-.63.03-.22.04-.45.04-.68,0-.21-.02-.43-.04-.66-.03-.22-.08-.43-.16-.63-.07-.2-.19-.38-.31-.55-.13-.16-.3-.29-.51-.38-.2-.1-.45-.14-.74-.14h0v-.66h.04c.86,0,1.5.26,1.93.78.43.52.65,1.27.65,2.26,0,.51-.07.95-.2,1.33-.13.38-.33.69-.57.94-.24.25-.53.44-.85.56-.31.12-.64.18-.99.18h0s0-.01,0-.01ZM81.87,139.9v-7.48h-.84v7.48h.84ZM73.01,133.98v.66c-.28,0-.52.05-.72.14-.2.1-.37.22-.51.38-.13.16-.24.34-.32.54-.08.2-.13.42-.17.65-.03.23-.05.45-.05.67,0,.3.03.59.09.88.06.28.16.53.29.74.14.22.32.39.56.52.22.12.51.19.83.2v.68h-.06c-.53,0-.98-.12-1.36-.34-.38-.23-.67-.56-.87-1.01-.2-.44-.3-.97-.3-1.61,0-.5.07-.94.2-1.33.13-.38.31-.71.55-.97.24-.26.52-.46.83-.6.31-.13.65-.2,1.02-.2h0ZM66.36,139.99v-.69h.11c.15,0,.3-.03.44-.08.15-.05.28-.11.41-.19.12-.07.24-.15.34-.23.1-.07.18-.13.24-.18v-3.71c-.13-.04-.3-.07-.49-.09-.2-.02-.43-.02-.71-.02-.12,0-.24.01-.34.02v-.72c.12-.02.25-.02.38-.02.16,0,.29,0,.39.01.11,0,.2.01.28.02.08.01.16.03.24.05.08.02.17.04.27.07v-2.3h.81v7.98h-.81v-.53c-.13.11-.28.21-.43.3-.16.09-.32.16-.5.22-.17.06-.36.08-.56.08h-.06v.02ZM66.36,134.09v.73c-.2.03-.38.08-.54.16-.24.12-.44.29-.58.5-.15.21-.25.45-.33.72-.07.28-.1.56-.1.87,0,.52.07.95.21,1.28.14.33.34.57.58.73.22.14.47.21.75.22v.69c-.19,0-.39-.02-.59-.06-.22-.04-.44-.12-.65-.24-.21-.11-.4-.28-.56-.5-.17-.22-.3-.51-.4-.86-.1-.35-.15-.79-.15-1.3,0-.48.07-.92.22-1.28.14-.37.34-.68.59-.93.25-.25.54-.43.86-.56.22-.08.44-.14.68-.17h0Z"/><path class="cls-1" d="M45.43,74.3h-14.03v14.59h14.03v-14.59Z"/><path class="cls-1" d="M45.43,90.07h-14.03v14.59h14.03v-14.59Z"/><path class="cls-1" d="M45.43,58.47h-14.03v14.59h14.03v-14.59Z"/><path class="cls-1" d="M60.69,74.3h-14.03v14.59h14.03v-14.59Z"/><path class="cls-1" d="M60.69,58.47h-14.03v14.59h14.03v-14.59Z"/><path class="cls-3" d="M120.1,91.49h5.19v6.75c0,1.85.4,2.45,2.05,2.45s2.09-.6,2.09-2.45v-6.75h3.5v6.8c0,4.2-2.85,5.25-5.59,5.25s-5.54-1.05-5.54-5.25v-4.25h-1.7v-2.55ZM101.95,100.68v-2.65h1.42l-1.4-4.3-.02.07v-2.32h2.27l4.5,11.74h-3.6l-.95-2.55h-2.22ZM116.26,104.03c0-.2-.05-.4-.05-.6,1-.05,1.75-.25,2.85-.7l-.6-2.55c-.95.2-1.65.35-2.75.35-2,0-3.4-.75-3.4-3.3,0-2.4,1.5-3.25,3.04-3.25,1.15,0,2,.2,2.85.45l.6-2.6c-1-.35-2.05-.55-3.55-.55-4.45,0-6.49,2.25-6.49,6.15,0,3.3,1.6,5.54,5.04,5.89v.25c0,.95-1.4,1.45-2.05,1.65l1.8,2.2c1.2-.55,2.7-1.75,2.7-3.4v.02h0ZM101.95,91.49v2.32l-1.43,4.22h1.43v2.65h-2.22l-.9,2.55h-3.6l4.5-11.74h2.22ZM89.29,100.68c1.65,0,2.05-.6,2.05-2.45v-6.75h3.5v6.8c0,4.2-2.85,5.25-5.54,5.25s-5.59-1.05-5.59-5.25v-6.8h3.5v6.75c0,1.85.4,2.45,2.09,2.45h0ZM68.83,103.23v-11.74h-5.19v2.55h1.75v9.19h3.45ZM81.75,96.24h-4.74v2.45h1.65v1.9h-.85c-2.05,0-3.5-1.05-3.5-3.25,0-2.35,1.35-3.35,3.4-3.35,1,0,1.9.15,3.09.45h.05l.55-2.55c-1.05-.4-2.14-.65-3.69-.65-4.45,0-6.79,1.95-6.79,6.25,0,3.99,2.55,5.99,6.69,5.99,1.5,0,2.65-.25,4.14-.8v-6.44Z"/><path class="cls-1" d="M126.62,88.09v-2.69c.77-.01,1.39-.17,1.86-.46.48-.29.84-.71,1.06-1.24.22-.53.32-1.14.32-1.84s-.11-1.29-.34-1.81c-.23-.52-.57-.93-1.04-1.22-.47-.29-1.07-.45-1.81-.45h-.04v-2.69h.2c1.12,0,2.09.15,2.92.44.81.29,1.49.71,2.02,1.25.53.54.91,1.19,1.17,1.95.25.76.38,1.61.38,2.53,0,1.33-.26,2.45-.79,3.38-.52.92-1.3,1.61-2.31,2.09-.98.47-2.18.71-3.59.72h0ZM126.62,75.73v2.69c-.76,0-1.38.16-1.85.44-.48.29-.84.7-1.06,1.21s-.33,1.12-.33,1.8c0,.51.06.98.18,1.41.12.43.31.8.56,1.12.25.32.58.57.97.74.4.17.88.27,1.43.27h.09v2.69h-.13c-1.45,0-2.66-.26-3.63-.76-.97-.5-1.69-1.22-2.18-2.14-.49-.92-.73-2.02-.72-3.3,0-1.01.16-1.9.48-2.67.32-.77.77-1.42,1.37-1.93.6-.52,1.32-.91,2.16-1.17.79-.25,1.67-.38,2.65-.39h0ZM111.97,87.84v-2.68c.4-.06.74-.16,1.03-.29.52-.24.9-.6,1.14-1.08.24-.48.34-1.07.34-1.78,0-.77-.13-1.42-.4-1.93-.27-.52-.7-.9-1.27-1.16-.25-.11-.53-.2-.84-.26v-2.72c.56.06,1.08.15,1.57.28.88.24,1.65.59,2.3,1.07.65.48,1.15,1.11,1.5,1.87.35.76.54,1.66.54,2.7s-.17,1.94-.5,2.7-.81,1.38-1.43,1.88c-.62.5-1.38.86-2.26,1.1-.53.15-1.11.25-1.73.3h0ZM73.56,78.54v-2.66h-8.89v12.02h3.41v-3.83h5.1v-2.51h-5.1v-3.02h5.48ZM111.97,75.94v2.72c-.41-.08-.87-.12-1.39-.12h-1.12v6.69h1.45c.38,0,.73-.02,1.06-.07v2.68c-.4.04-.82.06-1.25.06h-4.64v-12.02h4.55c.47,0,.91.02,1.34.07h0ZM87.67,82.9v-7.02h-3.37v6.98c0,.63-.08,1.12-.25,1.48-.17.35-.43.61-.79.75-.35.15-.81.21-1.36.21-.57,0-1.03-.06-1.39-.19-.35-.13-.61-.35-.77-.65-.16-.31-.25-.72-.24-1.25v-7.33h-3.43v7.42c0,.79.12,1.45.34,2.02.22.56.52,1.02.91,1.38.38.37.83.65,1.32.86.5.2,1.02.35,1.58.43.56.09,1.12.13,1.68.12.56,0,1.11-.05,1.66-.13.54-.1,1.07-.25,1.56-.48.49-.22.93-.54,1.31-.94.38-.4.68-.89.9-1.5.22-.6.33-1.32.34-2.16h0ZM102.78,87.9v-12.02h-3.41v6.1l.09,1.28-4.95-7.38h-3.76v12.02h3.41v-5.68l-.17-1.5,4.95,7.18h3.85,0Z"/></g></g></svg>