<?xml version="1.0" encoding="UTF-8"?><svg id="Layer_1" xmlns="http://www.w3.org/2000/svg" xmlns:xlink="http://www.w3.org/1999/xlink" viewBox="0 0 199 199"><defs><style>.cls-1,.cls-2,.cls-3,.cls-4{stroke-width:0px;}.cls-1,.cls-3{fill:#524d56;}.cls-5{clip-path:url(#clippath);}.cls-2{fill:none;}.cls-3{fill-rule:evenodd;}.cls-4{fill:#f0eff0;}.cls-6{opacity:.5;}</style><clipPath id="clippath"><rect class="cls-2" x="46.67" y="57.79" width="105.65" height="83.41"/></clipPath></defs><rect class="cls-4" width="199" height="199"/><g class="cls-6"><g class="cls-5"><path class="cls-1" d="M142.6,124.2c6.84,0,9.72-2.47,9.72-9.61v-12h-6.97v13.65c0,1.69-.73,3.04-2.75,3.04s-2.76-1.35-2.76-3.04v-13.65h-6.96v12c0,7.14,2.89,9.61,9.72,9.61ZM89.21,118.94h-7.66l-1.75,4.79h-7.18l6.93-18.43c.74-2,1.91-2.76,4.15-2.76h3.37c2.24,0,3.42.76,4.15,2.76l6.93,18.43h-7.18l-1.75-4.79h0ZM82.61,114.62h5.53l-2.11-6.99c-.1-.28-.22-.43-.65-.43s-.56.15-.64.43l-2.12,6.99ZM75.06,102.6v4.75h-5.95v16.39h-6.99v-16.39h-5.95v-4.75h18.88ZM46.67,102.6h6.99v21.15h-6.99v-21.15ZM123.4,110.07c0,1.45-.51,2.88-3.55,2.88h-2.19v-5.87h2.19c3.04,0,3.55,1.43,3.55,2.88v.11ZM117.7,117.59h3.71c6.12,0,8.85-2.49,8.85-7.46s-2.73-7.53-8.85-7.53h-10.71v21.15h6.99v-6.16ZM99.91,102.6h6.99v21.15h-6.99v-21.15Z"/><path class="cls-1" d="M119.37,57.79h-17.19v15.86h17.19v-15.86Z"/><path class="cls-3" d="M102.1,77.63h18.59l19.83,19.83h-26.44l-11.98-19.83Z"/><path class="cls-1" d="M96.85,57.79h-17.19v15.86h17.19v-15.86Z"/><path class="cls-3" d="M96.93,77.63h-18.59l-19.83,19.83h26.44l11.98-19.83Z"/><path class="cls-1" d="M61.76,137.45c0,2.33-1.43,3.49-4.29,3.49h-4.15v-11.77h4.14c2.49,0,3.74,1.01,3.74,3.04,0,1.12-.45,1.9-1.34,2.35-.1.05-.25.09-.44.1.17,0,.31.02.44.06,1.26.44,1.89,1.35,1.89,2.73M59.89,132.2c0-.74-.23-1.26-.69-1.55-.37-.23-.94-.34-1.73-.34h-2.86v3.85h3.04c1.51,0,2.26-.65,2.26-1.96h0ZM60.46,137.45c0-1.41-.94-2.13-2.83-2.13h-3.04v4.48h2.86c1.11,0,1.89-.18,2.33-.53.45-.35.67-.96.67-1.82h0ZM65.31,140.94h-1.28v-11.77h1.28v11.77ZM77.46,140.94h-1.21l-7.09-9.78c.08.26.12.5.12.72v9.06h-1.28v-11.77h1.21l7.06,9.75c-.06-.29-.1-.51-.1-.64v-9.11h1.28v11.78h0ZM89.42,140.94h-1.36l-1.36-3.66h-4.85l-1.36,3.66h-1.31l4.36-11.77h1.51l4.34,11.77h0ZM86.27,136.09l-1.63-4.45c-.13-.36-.24-.75-.34-1.18-.1.44-.21.84-.34,1.18l-1.65,4.45h3.97,0ZM99.51,138.84c-.69,1.58-2.03,2.36-4.02,2.36-1.82,0-3.12-.6-3.9-1.78-.64-.98-.95-2.43-.95-4.37,0-2.04.34-3.55,1.01-4.52.75-1.08,2-1.62,3.72-1.62,1.32,0,2.34.34,3.06,1.02.59.56.91,1.26.98,2.11h-1.18c-.18-1.32-1.14-1.97-2.87-1.97-1.41,0-2.35.47-2.84,1.4-.37.69-.55,1.89-.55,3.58,0,1.59.19,2.74.58,3.47.53,1.01,1.52,1.52,2.94,1.52s2.49-.6,3.02-1.81l1,.61ZM103.16,140.94h-1.28v-11.77h1.28v11.77ZM115.25,134.91c0,2.03-.33,3.55-.98,4.54-.77,1.17-2.07,1.76-3.91,1.76s-3.11-.59-3.87-1.76c-.64-.98-.96-2.49-.96-4.54,0-1.87.32-3.29.96-4.25.77-1.17,2.07-1.76,3.87-1.76s3.12.59,3.91,1.76c.65.96.98,2.38.98,4.25ZM113.94,134.91c0-1.64-.25-2.83-.74-3.58-.55-.85-1.5-1.27-2.84-1.27s-2.28.42-2.82,1.28c-.47.73-.7,1.92-.7,3.57,0,1.79.23,3.08.71,3.84.53.86,1.47,1.29,2.81,1.29s2.3-.43,2.84-1.29c.49-.77.74-2.05.74-3.84h0ZM127.08,140.94h-1.21l-7.09-9.78c.08.26.12.5.12.72v9.06h-1.28v-11.77h1.21l7.06,9.75c-.06-.29-.1-.51-.1-.64v-9.11h1.28v11.78h0ZM139.04,140.94h-1.36l-1.36-3.66h-4.85l-1.36,3.66h-1.31l4.36-11.77h1.51l4.34,11.77h0ZM135.89,136.09l-1.63-4.45c-.13-.36-.24-.75-.34-1.18-.1.44-.21.84-.34,1.18l-1.65,4.45h3.97,0ZM147.44,140.94h-6.66v-11.77h1.28v10.63h5.39v1.14h0Z"/></g></g></svg>