<?xml version="1.0" encoding="UTF-8"?><svg id="Layer_1" xmlns="http://www.w3.org/2000/svg" xmlns:xlink="http://www.w3.org/1999/xlink" viewBox="0 0 199 199"><defs><style>.cls-1{fill:#524d56;}.cls-1,.cls-2,.cls-3{stroke-width:0px;}.cls-4{clip-path:url(#clippath);}.cls-2{fill:none;}.cls-3{fill:#f0eff0;}.cls-5{opacity:.5;}</style><clipPath id="clippath"><rect class="cls-2" x="42.8" y="60.98" width="113.41" height="77.05"/></clipPath></defs><rect class="cls-3" y="0" width="199" height="199"/><g class="cls-5"><g class="cls-4"><path class="cls-1" d="M89.48,76.01c-3.14,6.13-.5,10.69-.5,10.69,2.16,5.54,8.39,9.43,8.39,9.43,0,0-6.13.12-13.86-2.45,0,0-8.87-2.72-9.04-8.05,0,0-.35-3.2,4.79-6.11,3.98-2.38,10.22-3.51,10.22-3.51Z"/><path class="cls-1" d="M97.37,96.12s.3-1.77,2.01-3.98c1-1.3,2.46-2.87,4.16-4.5l2.91-2.53c6.04-4.41,10.63-8.62,9.07-15.93-.92-4.34-5.41-8.2-5.41-8.2,0,0,.42,2.64-6.79,7.38-3.91,2.29-6.89,4.56-8.67,6.79-2.69,3.37-3.05,6.3-3.05,6.3-1.24,8.1,5.78,14.68,5.78,14.68h0Z"/><path class="cls-1" d="M122.24,80c-1.67-1.41-7.56-3.19-7.56-3.19h-.02c-1.59,3.16-4.65,5.7-8.21,8.3l-2.91,2.53c-1.7,1.62-3.16,3.19-4.16,4.5-1.7,2.22-2.01,3.98-2.01,3.98,0,0,9.81.6,17.16-1.66,0,0,9.2-2.07,11.32-7.03,0,0,2-3.69-3.6-7.43Z"/><path class="cls-1" d="M46.49,104.5h-3.7v25.37h3.7v-25.37Z"/><path class="cls-1" d="M53.73,112.41h-3.7v17.42h3.7v-17.42Z"/><path class="cls-1" d="M51.83,109.12c1.33,0,2.41-1.04,2.41-2.31s-1.08-2.31-2.41-2.31-2.41,1.04-2.41,2.31,1.08,2.31,2.41,2.31Z"/><path class="cls-1" d="M65.24,111.96c-3.75-.02-5.72,1.95-5.72,1.95-2.56,2.33-2.86,5.44-2.86,5.44-.61,4.49,1.3,7.08,1.3,7.08,1.73,2.87,4.56,3.51,4.56,3.51,2.52.76,4.89,0,4.89,0,2.02-.54,3.59-2.74,3.59-2.74l-.02,10.45h3.7v-25.27h-3.33l-.35,2.69s-1.24-2.66-4.98-3.07c-.26-.02-.52-.03-.78-.03h0ZM65.72,115.15c1.02.01,3.85.36,4.97,3.84,0,0,1.36,4.48-2,7.09,0,0-2.64,1.9-5.82.17,0,0-2.98-1.48-2.65-6.12,0,0,.48-4.72,5.12-4.98,0,0,.14-.01.37-.01h0Z"/><path class="cls-1" d="M90.46,129.89h3.24v-17.53h-3.7v8.64c.18,3.1-1.19,4.53-1.19,4.53-1.58,1.82-3.55,1.59-3.55,1.59-2.55.01-3.29-1.72-3.29-1.72-.7-.83-.7-3.06-.7-3.06v-9.92h-3.7v8.72c-.5,9.17,5.68,9.09,5.68,9.09,3.52.61,5.8-1.78,5.8-1.78.77-.81,1.13-1.57,1.13-1.57l.29,3.02h0Z"/><path class="cls-1" d="M100.89,112.46h-3.7v17.42h3.7v-17.42Z"/><path class="cls-1" d="M98.99,109.17c1.33,0,2.41-1.04,2.41-2.31s-1.08-2.31-2.41-2.31-2.41,1.04-2.41,2.31,1.08,2.31,2.41,2.31Z"/><path class="cls-1" d="M129.75,111.95c-3.75-.02-5.72,1.95-5.72,1.95-2.56,2.33-2.86,5.44-2.86,5.44-.61,4.49,1.3,7.08,1.3,7.08,1.73,2.87,4.56,3.51,4.56,3.51,2.52.76,4.89,0,4.89,0,2.02-.54,3.59-2.74,3.59-2.74l.27,2.72h3.41v-17.54h-3.33l-.35,2.69s-1.24-2.66-4.98-3.07c-.26-.02-.52-.03-.78-.03ZM130.27,115.21c1.02.01,3.85.36,4.97,3.84,0,0,1.36,4.48-2,7.09,0,0-2.64,1.9-5.82.17,0,0-2.98-1.49-2.64-6.12,0,0,.48-4.72,5.12-4.98,0,0,.14-.02.37-.02Z"/><path class="cls-1" d="M141.51,124.36h3.73s.55,2.33,2.73,2.77c0,0,2.48.62,3.88-.67,0,0,1.31-1.44.12-2.86-1.07-1.04-3.55-1.13-5.1-1.72,0,0-4.48-1-4.62-4.03,0,0-.5-3.42,2.9-5.14,2.44-1.21,5.55-.58,5.55-.58,2.89.55,3.98,2.53,3.98,2.53.6.77.92,2.69.92,2.69h-3.53s-.15-2.06-2.91-2.36c0,0-2.24-.25-3.08,1.18-1.04,2.16,1.94,2.77,1.94,2.77.31.34,5.8,1.09,7.19,2.8,0,0,1.24,1.11.93,3.81,0,0-.16,2.17-2.34,3.58,0,0-1.82,1.34-5.15,1.13,0,0-3.12,0-5.17-2,0,0-1.66-1.19-1.97-3.92h0Z"/><path class="cls-1" d="M128.47,108.34v2.73l7.55-3.97v-3.12l-7.55,4.36Z"/><path class="cls-1" d="M111.1,111.95h-.16c-2.97.2-4.18,1.43-4.18,1.43-2.13,1.63-2.32,4.09-2.32,4.09-.3,3.66,1.94,5.39,1.94,5.39l-2.92,3.11v.88c1.31,1.11,2.23,1.4,2.23,1.4-1.63,1.17-2.11,2.66-2.11,2.66-1.1,3.45,1.43,5.41,1.43,5.41,2.45,1.72,5.16,1.64,5.16,1.64,4.48.39,6.37-1.23,6.37-1.23,2.79-1.82,2.54-4.87,2.54-4.87.02-3.15-2.75-4.32-2.75-4.32,0,0-1.76-.8-4.19-.9-4.05-.28-4.73-.97-4.73-.97l1.48-1.45s2.12.59,4.29.13c2.11-.41,3.49-1.84,3.49-1.84,1.47-1.64,1.55-3.36,1.55-3.36.31-2.04-.72-4.09-.72-4.09l2.99-.17v-2.52h-6.42s-1.24-.4-2.82-.42h-.16ZM111.42,114.91c.68,0,2.58.2,3.33,2.18,0,0,.92,2.54-1.34,4.03,0,0-1.77,1.08-3.91.1,0,0-2-.84-1.77-3.47,0,0,.32-2.68,3.43-2.82,0,0,.09,0,.25,0h0ZM108.91,129.12c.25.13,3.04.32,3.04.32,2.38.2,2.94.99,2.94.99,1.29,1.19.48,2.81.48,2.81-.64,1.29-2.25,1.64-2.25,1.64-2.42.62-4.53-.24-4.53-.24-1.75-.73-1.81-2.12-1.81-2.12-.16-1.43.68-2.29.68-2.29.72-.83,1.45-1.11,1.45-1.11h0Z"/></g></g></svg>