<?xml version="1.0" encoding="UTF-8"?><svg id="Layer_1" xmlns="http://www.w3.org/2000/svg" viewBox="0 0 199 199"><defs><style>.cls-1,.cls-2{fill:#524d56;}.cls-1,.cls-2,.cls-3{stroke-width:0px;}.cls-2{fill-rule:evenodd;}.cls-3{fill:#f0eff0;}.cls-4{opacity:.5;}</style></defs><rect class="cls-3" y="0" width="199" height="199"/><g class="cls-4"><path class="cls-1" d="M63.6,117.13c-.67-.63-1.89-.95-3.62-.95h-4.98v14.18h3.38v-5.61h1.8c1.02,0,1.74-.07,2.19-.21s.86-.39,1.19-.73c.35-.34.61-.8.79-1.37.18-.56.26-1.22.26-1.95,0-1.58-.34-2.7-1.01-3.34M58.34,118.59h1.16c.71,0,1.19.13,1.44.38s.38.74.38,1.43c0,.74-.14,1.24-.41,1.49s-.83.4-1.68.4h-.89s0-3.71,0-3.71Z"/><path class="cls-1" d="M75.96,116.18h-4.03l-4.11,14.05-.04.14h3.27l.77-3.1h4.03l.77,3.1h3.41l-4.09-14.18h0ZM75.26,124.9h-2.82l1.45-5.51s1.37,5.51,1.37,5.51Z"/><path class="cls-1" d="M94.51,130.22c-.13-.36-.23-.77-.29-1.22h0c-.06-.45-.09-1-.09-1.63,0-.08,0-.19.02-.35,0-.16.02-.28.02-.36,0-1.23-.16-2.05-.5-2.49-.28-.38-.77-.65-1.45-.84.59-.21,1.03-.55,1.31-1.01.33-.55.5-1.37.5-2.46,0-1.38-.33-2.36-.99-2.89-.65-.53-1.89-.8-3.69-.8h-4.42v14.18h3.26v-5.76h1.16c.55,0,.94.13,1.16.39.23.26.36.74.38,1.4,0,.26.02.62.02,1.1.02,1.41.09,2.33.23,2.79l.02.08h3.39l-.05-.14h0v.02ZM88.19,118.57h.7c.8,0,1.34.13,1.61.36.26.24.4.71.4,1.39s-.15,1.2-.44,1.48-.84.41-1.62.41h-.64v-3.64h0Z"/><path class="cls-1" d="M106.93,116.18h-4.03l-4.11,14.05-.04.14h3.27l.77-3.1h4.03l.77,3.1h3.41l-4.09-14.18h0ZM106.23,124.9h-2.82l1.45-5.51s1.37,5.51,1.37,5.51Z"/><path class="cls-1" d="M123.85,116.18l.18,8.16c0,.77.02,1.49.06,2.16,0,.17.02.33.03.5-.09-.33-.2-.67-.29-1.01-.25-.8-.55-1.64-.87-2.48l-2.8-7.32h-4.26v14.18h3l-.17-8.43c0-.47-.03-1.04-.07-1.71-.02-.37-.05-.78-.08-1.22.16.56.32,1.09.47,1.58.25.8.48,1.49.7,2.07l2.97,7.71h4.15v-14.18h-3.02,0Z"/><path class="cls-1" d="M139.91,116.18h-4.03l-4.11,14.05-.04.14h3.27l.77-3.1h4.03l.77,3.1h3.41l-4.09-14.18h0ZM139.21,124.9h-2.82l1.45-5.51s1.37,5.51,1.37,5.51Z"/><polygon class="cls-1" points="141 111.47 138.16 111.47 136.11 115.17 137.74 115.17 141 111.47"/><polygon class="cls-2" points="84.92 110.17 102.51 68.63 120.09 110.17 84.92 110.17"/><path class="cls-2" d="M121.79,68.74v41.44h19.64c11-2.98,15.05-17.69.35-23.68,7.1-8.38-1.92-17.75-6.02-17.75h-13.96Z"/><path class="cls-2" d="M70.76,82.5c7.52,2.28,15.1,7.14,18.2,9.28.09-.78.14-1.58.14-2.38,0-11.45-9.27-20.71-20.71-20.71s-20.71,9.28-20.71,20.71,9.28,20.71,20.71,20.71c9.46,0,17.45-6.35,19.92-15.03-1.57-1.13-10.22-7.15-18.43-9.65h0c-7.99-2.43-19.21-1.99-21.35-1.87.32-1.08.72-2.13,1.2-3.12,3.06-.17,13.02-.4,21.04,2.04v.02ZM74.71,81.99l.33-.71.35.7.77.09-.56.55.16.77-.69-.36-.68.38.14-.77-.58-.53s.77-.11.77-.11ZM68.92,106.37l-.34-.12-.28.23v-.36l-.29-.2.35-.11.1-.35.2.29.35-.02-.21.29.13.33h0ZM69.07,100.24l-.69-.4-.71.38.16-.79-.57-.56.8-.09.35-.72.33.73.79.11-.59.54.14.79h0ZM79.26,106.19l-.47-.25-.46.26.09-.52-.38-.36.52-.07.22-.48.23.47.52.06-.38.36.11.52h.02ZM85.65,96.75l.2-.44.21.43.48.06-.35.33.09.47-.42-.23-.42.23.08-.47-.35-.33.47-.06h0ZM84.57,98.71l-.46.44.13.62-.56-.29-.56.31.11-.62-.47-.43.62-.08.26-.57.28.56.63.08ZM82.53,96.36l.32-.68.33.68.75.09-.55.52.14.74-.67-.36-.67.37.14-.74-.55-.52.75-.11h0ZM82.33,100.23l.26-.57.28.56.63.08-.46.44.12.62-.56-.3-.55.31.11-.62-.47-.43.62-.08h0ZM80.45,101.1l.2-.47.25.45.51.04-.35.37.13.5-.47-.21-.43.27.06-.5-.39-.33.5-.1h0ZM78.44,101.05l.22-.5.25.48.54.06-.39.38.11.53-.48-.25-.47.27.08-.53-.4-.36.53-.08h0ZM78.49,103.07l.29-.63.3.62.68.08-.5.48.13.68-.61-.33-.6.34.12-.68-.5-.47s.68-.09.68-.09ZM75.97,101.59l.23-.5.24.48.54.06-.38.38.11.53-.48-.25-.47.28.09-.53-.4-.36.53-.08-.02-.02ZM74.38,103.01l.26.53.58.06-.41.41.12.56-.52-.26-.5.29.09-.57-.44-.39.58-.09.24-.53h0ZM72.92,87.9l.25-.5.23.51.55.08-.41.37.09.55-.48-.28-.49.26.11-.55-.4-.38.55-.06h0ZM72.42,101.03l.25-.5.23.51.56.08-.41.38.09.55-.48-.28-.5.26.11-.55-.4-.39.56-.06h0ZM70.05,94.62l.3-.57.25.59.64.11-.49.43.09.64-.55-.33-.59.29.14-.63-.45-.47.65-.06h0ZM68.22,92.88l.29-.59.27.59.64.09-.47.44.11.63-.56-.32-.57.3.13-.63-.47-.45.64-.08v.02ZM66.91,96.11l.2-.38.18.39.42.06-.32.29.08.42-.37-.21-.38.2.09-.41-.31-.3.42-.05h0ZM65.39,94.97l.24-.49.23.5.54.08-.41.37.09.54-.47-.27-.49.26.11-.53-.4-.38.55-.06h0ZM59.95,90.12l.29-.59.27.59.64.09-.47.44.11.63-.56-.32-.57.3.13-.63-.47-.45.64-.08v.02ZM59.31,100.57l.32-.67.32.67.74.09-.54.51.14.73-.65-.36-.65.36.14-.73-.53-.51.74-.09h0ZM57,96.31l.29-.62.29.62.68.09-.5.47.13.67-.6-.33-.6.33.13-.67-.5-.47.68-.09h0ZM56.4,98.51l.23-.49.23.49.53.08-.39.37.1.53-.47-.26-.47.26.1-.53-.4-.38.54-.07h.02ZM54.87,93.16l.15-.32.14.32.34.05-.26.23.06.35-.3-.17-.31.16.07-.34-.25-.25.35-.04v.02ZM52.84,94.34l.34-.68.31.69.75.11-.56.51.13.74-.65-.38-.68.35.16-.74-.54-.53s.75-.08.75-.08ZM51.14,85.7l.36-.71.32.73.79.12-.59.53.13.79-.69-.4-.71.36.17-.78-.56-.56s.79-.08.79-.08ZM50.79,96.23l.29-.59.27.6.65.1-.49.44.11.65-.56-.33-.59.3.14-.65-.47-.47.65-.07h-.02Z"/><path class="cls-1" d="M49.88,81.98c.02-.14.07-.26.14-.36.05-.08.11-.14.18-.2.08-.06.14-.11.23-.14.11-.05.22-.07.35-.08.23-.02.4.04.52.16.11.12.15.29.11.52s-.14.4-.3.53c-.16.14-.35.21-.58.23s-.4-.03-.52-.14c-.11-.11-.15-.28-.11-.5M50.21,81.95c-.02.16,0,.27.06.35s.16.11.29.1c.13,0,.23-.06.33-.14.09-.08.16-.21.19-.37.03-.16,0-.27-.05-.35s-.16-.11-.29-.09-.24.06-.33.14-.16.21-.18.36"/><path class="cls-1" d="M51.51,82.54c.11-.55.15-.83.26-1.38.26-.02.4-.02.66-.03.17,0,.29,0,.35.02.08.02.13.06.16.13.03.06.05.14.02.21-.02.11-.08.19-.15.26-.08.07-.2.11-.33.14.06.03.11.07.14.11s.08.11.14.22c.06.11.08.16.14.26-.15,0-.23,0-.38,0-.07-.11-.1-.18-.17-.29-.06-.11-.11-.17-.13-.2s-.05-.05-.08-.05-.08,0-.16,0h-.06c-.05.23-.06.35-.11.58-.13,0-.19,0-.32.02M51.97,81.73c.09,0,.14,0,.23,0,.15,0,.25-.02.29-.02.05,0,.08-.03.1-.06.02-.02.05-.06.05-.11,0-.05,0-.08-.02-.11s-.06-.05-.11-.05h-.23c-.1,0-.14,0-.25,0-.02.14-.05.21-.07.35"/><path class="cls-1" d="M53.33,81.11c.23,0,.35,0,.57,0,.13,0,.23,0,.29.02.09.02.16.07.21.13.05.06.09.14.11.23s0,.2-.02.33c-.02.11-.06.21-.11.29-.06.1-.13.18-.21.25-.06.05-.14.08-.24.11-.08.02-.17.03-.28.03-.23,0-.35,0-.59,0,.11-.55.16-.83.26-1.38M53.59,81.34c-.08.36-.11.55-.18.91h.23c.09,0,.15,0,.2-.02.05,0,.1-.03.14-.06.04-.02.08-.08.11-.14.03-.06.06-.14.08-.26.02-.11.02-.19.02-.25s-.03-.1-.06-.14c-.03-.03-.08-.05-.13-.06-.05,0-.13,0-.26,0h-.14"/><path class="cls-1" d="M54.62,82.47c.11-.55.17-.83.28-1.38.46,0,.69,0,1.15.02-.02.09-.03.14-.05.23-.33,0-.5,0-.83-.02-.02.12-.04.18-.06.31.32,0,.47,0,.77.02-.02.09-.03.14-.05.23-.32,0-.47,0-.77-.02-.03.15-.05.23-.08.38.35,0,.52,0,.86.02-.02.09-.03.14-.05.23-.47,0-.7-.02-1.17-.02"/><path class="cls-1" d="M56.04,82.5c.11-.55.17-.83.29-1.38.19,0,.28,0,.47.02.03.38.05.57.08.95.2-.37.29-.56.48-.92.19,0,.28.02.47.02-.12.55-.18.83-.3,1.38-.11,0-.17,0-.29-.02.09-.43.14-.65.23-1.08-.22.43-.32.64-.54,1.07-.12,0-.18,0-.29-.02-.03-.44-.05-.65-.08-1.1-.09.43-.14.65-.23,1.08-.11,0-.17,0-.29,0"/><path class="cls-1" d="M58.73,81.25c.23.02.35.02.56.05.13,0,.23.02.29.05.08.03.15.08.2.14.05.07.08.14.09.24.02.09,0,.2-.02.33-.02.11-.06.21-.11.29-.06.1-.14.17-.22.23-.06.05-.14.08-.24.09-.08.02-.17.02-.28,0-.23-.02-.35-.03-.59-.05.13-.55.18-.83.31-1.38M58.99,81.51c-.08.36-.13.55-.2.91.09,0,.14,0,.23.02.09,0,.15,0,.19,0,.05,0,.1-.02.14-.05s.08-.07.11-.13c.04-.06.06-.14.09-.25.02-.11.03-.19.02-.25,0-.06-.02-.11-.06-.14-.03-.04-.08-.06-.13-.08-.05,0-.13-.02-.25-.04-.06,0-.08,0-.14,0"/><path class="cls-1" d="M60.07,82.08c.03-.14.08-.26.15-.35.05-.07.11-.13.19-.17s.15-.08.23-.11c.11-.02.22-.03.35-.02.23.02.39.11.5.26s.13.33.08.55-.16.38-.32.5c-.16.11-.35.15-.58.13-.23-.02-.39-.11-.5-.25-.11-.14-.13-.32-.08-.53M60.38,82.1c-.04.16-.02.28.04.37.06.09.15.14.28.16s.23-.02.33-.08c.1-.08.17-.19.2-.35s.02-.28-.03-.36c-.06-.09-.15-.14-.28-.15s-.24.02-.33.08c-.1.07-.16.18-.2.35"/><path class="cls-1" d="M61.65,82.5c.12,0,.18,0,.31.02,0,.09.02.17.06.21.05.05.11.08.21.09.1.02.18,0,.23-.02s.09-.08.11-.12c0-.03,0-.06,0-.09-.02-.02-.05-.05-.09-.08-.03-.02-.11-.05-.23-.09-.16-.06-.26-.12-.32-.18-.08-.09-.1-.19-.08-.29.02-.07.06-.13.11-.19.06-.06.14-.09.23-.11.09-.02.2-.02.32,0,.2.02.33.09.41.18.08.09.11.2.08.33-.13-.02-.19-.02-.32-.04,0-.08,0-.13-.05-.17s-.1-.06-.18-.08c-.09,0-.16,0-.23.02-.04.02-.06.05-.07.08,0,.03,0,.06.02.09.03.04.12.08.26.13s.25.11.31.14c.06.05.11.1.14.17s.02.14,0,.23c-.02.08-.06.15-.13.21-.07.06-.14.11-.25.12-.09.02-.21.02-.35,0-.2-.02-.33-.09-.41-.18-.08-.09-.11-.22-.1-.38"/><path class="cls-1" d="M64.89,83.49c-.13-.02-.2-.04-.33-.06-.02-.14-.03-.2-.05-.34-.24-.05-.36-.07-.6-.11-.08.11-.12.17-.2.29-.13-.02-.2-.03-.32-.05.38-.51.56-.77.94-1.27.13.02.2.04.32.06.11.59.15.89.25,1.48M64.47,82.84c-.03-.22-.05-.33-.08-.55-.14.19-.2.28-.33.47.17.03.25.05.41.08"/><path class="cls-1" d="M65.41,82.15c.23.05.33.07.56.11.13.02.22.06.28.09.08.05.14.1.2.18.05.08.08.16.08.26,0,.09,0,.21-.04.33-.03.11-.08.21-.13.28-.06.09-.14.16-.23.21-.06.04-.14.06-.24.06-.08,0-.16,0-.28-.02-.23-.05-.35-.08-.56-.11.14-.55.21-.82.35-1.37M65.65,82.44c-.09.36-.14.55-.24.91.09.02.14.02.23.05.08.02.14.02.19.02.05,0,.1,0,.14-.03.05-.02.08-.06.11-.11.04-.06.07-.14.1-.25.02-.11.05-.19.04-.25,0-.06-.02-.11-.05-.15-.02-.05-.07-.08-.13-.09-.05-.02-.12-.05-.25-.06-.05,0-.08-.02-.14-.02"/><path class="cls-1" d="M66.93,83.92c-.06-.6-.1-.89-.17-1.49.13.03.2.05.33.08.05.44.06.66.11,1.1.26-.37.38-.56.64-.92.13.03.2.05.32.08-.36.5-.55.74-.91,1.23-.13-.03-.2-.05-.32-.08"/><path class="cls-1" d="M68.07,83.48c.04-.14.09-.25.17-.33.05-.06.11-.11.2-.15.08-.05.15-.06.23-.08.11,0,.21,0,.33.03.22.06.38.17.47.33.09.16.11.35.05.57s-.18.38-.34.47c-.17.09-.35.11-.57.05s-.38-.17-.47-.32c-.09-.16-.11-.35-.05-.56M68.37,83.56c-.05.16-.04.28.02.38.06.1.14.17.26.2s.23.02.33-.05c.1-.06.17-.17.21-.32.05-.16.05-.28,0-.38-.05-.1-.14-.16-.26-.2-.13-.03-.23-.02-.33.04s-.17.17-.21.32"/><path class="cls-1" d="M70.37,84.3c.02-.09.05-.14.07-.23.26.08.38.11.64.2-.06.22-.09.32-.16.54-.08.04-.18.06-.32.06s-.26,0-.38-.05c-.15-.05-.28-.11-.38-.21-.1-.09-.16-.2-.18-.33-.02-.13-.02-.26.02-.38.05-.14.11-.26.2-.35.09-.09.21-.15.35-.17.11-.02.23,0,.38.04.18.06.32.14.4.23.08.11.12.22.11.35-.13-.02-.19-.02-.31-.05,0-.08-.02-.14-.08-.2s-.11-.1-.2-.13c-.13-.04-.25-.03-.35.02s-.17.16-.21.31c-.05.16-.05.29,0,.4s.14.17.27.21c.06.02.13.02.2.02s.13-.02.18-.03c.02-.07.03-.11.05-.17-.14-.05-.2-.06-.34-.11"/><path class="cls-1" d="M72.44,85.52c-.13-.05-.2-.07-.32-.11-.02-.14-.02-.21-.03-.35-.23-.08-.35-.11-.59-.2-.08.11-.13.16-.21.27-.13-.05-.19-.06-.32-.1.38-.47.59-.71.98-1.18.13.05.19.06.32.11.08.62.11.93.17,1.55M72.06,84.8c-.02-.23-.03-.35-.05-.57-.14.18-.21.26-.35.44.16.05.24.08.4.13"/><path class="cls-1" d="M72.99,84.22c.21.08.32.11.53.19.12.05.21.08.26.13.08.05.14.13.18.2.05.08.06.17.07.27,0,.1,0,.21-.05.34-.04.11-.08.2-.14.27-.07.08-.14.14-.23.18-.06.02-.14.04-.24.03-.07,0-.16-.02-.26-.06-.22-.08-.33-.12-.55-.2.17-.54.25-.81.41-1.35M73.22,84.55c-.11.36-.17.53-.28.89.09.03.13.05.22.08.08.03.14.05.18.05.05,0,.09,0,.14-.02s.08-.05.11-.11c.04-.05.08-.13.11-.24.03-.11.05-.19.05-.25s-.02-.11-.05-.16c-.02-.05-.06-.08-.11-.11-.04-.02-.11-.06-.23-.1-.05-.02-.08-.02-.13-.05"/><path class="cls-1" d="M74.18,85.41c.05-.14.1-.25.17-.32.05-.06.12-.1.2-.14.08-.03.14-.05.23-.05.1,0,.21.02.33.07.21.08.36.21.45.38.09.17.09.37.02.59-.07.22-.19.36-.35.43-.16.08-.35.07-.56-.02s-.36-.21-.45-.38c-.09-.17-.1-.36-.03-.58M74.48,85.52c-.05.15-.05.28,0,.39.05.11.13.18.25.23s.22.05.32,0,.17-.15.23-.31c.05-.16.05-.29,0-.39-.05-.11-.13-.18-.25-.23s-.23-.05-.32,0-.17.15-.22.31"/><path class="cls-1" d="M75.64,86.24c.11.04.17.05.29.09,0,.09,0,.18.04.24s.1.11.19.15c.09.05.17.05.23.03.06-.02.09-.05.11-.1,0-.03,0-.06,0-.09s-.05-.07-.08-.11c-.03-.02-.1-.08-.21-.16-.14-.1-.23-.2-.28-.27-.06-.11-.08-.22-.05-.33.02-.07.06-.13.13-.17.06-.05.14-.06.23-.06s.19.02.29.08c.18.08.29.17.36.29s.08.23.05.36c-.11-.05-.17-.07-.29-.11,0-.08,0-.14-.03-.18s-.08-.09-.17-.13-.15-.05-.21-.04c-.04,0-.06.03-.08.06,0,.03,0,.07.02.1.02.05.11.11.23.2s.22.17.28.23.09.13.11.2c.02.08.02.16-.02.24-.02.08-.08.14-.14.19s-.14.07-.24.07-.2-.03-.32-.08c-.18-.08-.3-.17-.37-.29-.08-.12-.09-.26-.06-.41"/><path class="cls-1" d="M77.87,86.18c.21.09.32.14.52.24.11.06.2.11.26.15.08.06.13.14.17.23s.06.18.06.28-.02.21-.06.34c-.04.11-.08.2-.14.26-.07.08-.14.14-.23.17-.06.02-.14.02-.23,0-.07,0-.15-.05-.26-.09-.21-.1-.32-.15-.53-.25.18-.53.27-.8.45-1.34M78.08,86.54c-.12.35-.18.53-.29.89.08.05.13.06.21.1.08.04.14.06.17.07.05,0,.09,0,.13,0s.08-.05.11-.09c.05-.05.08-.13.11-.23.04-.11.05-.19.05-.25s0-.12-.04-.17-.06-.09-.11-.13c-.04-.02-.11-.07-.23-.12-.05-.02-.08-.04-.13-.06"/><path class="cls-1" d="M78.99,87.5c.05-.14.11-.24.18-.32.05-.05.12-.09.2-.12s.14-.04.22-.03c.1,0,.2.05.32.1.2.11.35.25.42.43.08.19.08.38,0,.6-.08.21-.2.35-.35.41s-.35.04-.54-.06c-.2-.11-.35-.25-.42-.43s-.08-.38,0-.59M79.28,87.63c-.05.15-.06.29,0,.4.05.11.12.2.23.26.11.06.21.06.32.02.1-.05.17-.14.23-.29s.06-.29.02-.4-.12-.2-.23-.26-.22-.07-.32-.02-.17.14-.23.29"/><path class="cls-1" d="M81.3,87.9c.22.12.33.18.54.29.11.06.19.11.23.14s.09.08.12.14.05.11.06.17c0,.06,0,.12-.02.18-.02.06-.06.11-.11.14s-.11.05-.18.04c.08.07.12.14.14.23s.02.16,0,.24c-.02.06-.06.11-.11.15s-.11.06-.17.07c-.06,0-.13,0-.2-.05-.05-.02-.16-.08-.33-.17-.18-.11-.28-.15-.46-.26.19-.53.29-.8.47-1.33M81.49,88.27l-.11.31c.08.05.11.06.18.1.11.06.17.09.2.11.05.02.09.02.13.02s.06-.04.08-.08.02-.08,0-.12-.05-.08-.08-.11c-.02-.02-.11-.06-.23-.14-.06-.04-.09-.05-.16-.09M81.3,88.8c-.05.14-.08.21-.13.35.1.06.15.08.25.14s.16.09.19.09c.05.02.08.02.12,0s.06-.05.08-.09c.02-.05.02-.08,0-.12,0-.04-.03-.08-.06-.11-.03-.03-.11-.08-.23-.16-.09-.05-.13-.08-.22-.12"/><path class="cls-1" d="M82.18,89.98c.2-.53.29-.79.48-1.32.23.13.34.2.56.33.14.08.24.16.29.23s.09.14.11.22c.02.08,0,.17-.02.25-.04.1-.1.16-.18.2-.08.03-.18.02-.31-.04.05.07.08.14.11.2.02.06.05.17.08.31s.04.21.06.35c-.13-.08-.19-.11-.32-.2-.04-.16-.05-.25-.09-.41-.03-.14-.05-.23-.07-.28-.02-.05-.04-.08-.06-.11s-.07-.06-.13-.09c-.02,0-.03-.02-.05-.03-.08.22-.12.33-.2.55-.11-.06-.16-.09-.26-.16M82.72,89.38c.08.05.12.08.2.12.13.08.21.12.25.13s.07,0,.09,0c.02-.02.05-.05.06-.08.02-.05.02-.09,0-.13s-.05-.08-.08-.11c-.02-.02-.08-.06-.2-.12-.08-.05-.13-.08-.21-.13-.05.14-.08.2-.13.33"/><path class="cls-1" d="M84.68,91.53c-.11-.08-.17-.11-.29-.19v-.37c-.21-.14-.32-.2-.52-.33-.09.09-.13.14-.22.23-.11-.07-.17-.11-.28-.17.4-.4.6-.6,1.01-1,.11.08.17.11.28.18,0,.66.02.99.02,1.65M84.39,90.7v-.6c-.14.15-.22.23-.36.38.14.09.21.14.35.23"/><path class="cls-1" d="M84.91,91.15c.11.06.16.08.26.14-.02.1,0,.18.02.25.03.08.08.14.17.19.08.06.15.08.21.08.06,0,.09-.04.11-.08,0-.03.02-.06,0-.1,0-.04-.03-.08-.08-.12-.02-.03-.09-.1-.19-.2-.13-.13-.21-.24-.25-.33-.05-.13-.06-.24-.02-.35.02-.07.07-.11.13-.15.06-.03.13-.05.21-.02.08.02.17.06.27.13.16.11.27.23.32.35.05.13.06.26.02.38-.11-.07-.16-.1-.26-.17.02-.08,0-.14-.02-.2s-.08-.11-.14-.16c-.08-.05-.14-.08-.2-.08-.04,0-.06.02-.08.05,0,.03,0,.07,0,.11.02.05.09.13.2.25.11.11.2.21.25.29.05.08.08.15.09.23,0,.08,0,.16-.03.25-.03.08-.08.13-.14.17-.07.04-.14.05-.23.02-.09-.02-.19-.07-.29-.14-.16-.11-.27-.23-.33-.36s-.07-.28-.02-.44"/><path class="cls-1" d="M85.99,92.43c.2-.52.31-.78.51-1.31.11.08.16.11.26.18-.21.52-.31.78-.52,1.3-.11-.08-.15-.11-.26-.18"/><path class="cls-1" d="M86.5,92.79c.2-.52.31-.77.51-1.29.11.08.15.11.26.18-.17.43-.26.64-.43,1.07.26.18.38.28.63.47-.04.09-.05.13-.09.22-.35-.26-.53-.39-.88-.65"/></g></svg>