<?xml version="1.0" encoding="UTF-8"?><svg id="Layer_1" xmlns="http://www.w3.org/2000/svg" xmlns:xlink="http://www.w3.org/1999/xlink" viewBox="0 0 199 199"><defs><style>.cls-1,.cls-2,.cls-3,.cls-4{stroke-width:0px;}.cls-1,.cls-3{fill:#524d56;}.cls-5{clip-path:url(#clippath);}.cls-2{fill:none;}.cls-3{fill-rule:evenodd;}.cls-4{fill:#f0eff0;}.cls-6{opacity:.5;}</style><clipPath id="clippath"><rect class="cls-2" x="42.88" y="61.62" width="113.24" height="75.75"/></clipPath></defs><rect class="cls-4" y="0" width="199" height="199"/><g class="cls-6"><g class="cls-5"><path class="cls-3" d="M97.75,119.75h-5.49v17.22h5.49v-17.22ZM114.1,119.74h-14.56v4.18h4.54v13.05h5.49v-13.05h4.54v-4.18s0,0,0,0ZM73.65,121.47c-1.05-1.23-2.53-1.37-4.29-1.56-.72-.08-1.44-.13-2.14-.15-.7.03-1.42.08-2.14.15-1.76.19-3.24.32-4.29,1.56-2.27,2.65-2.11,12.55.61,14.61,1.13.85,3.49,1.29,5.82,1.3,2.33-.02,4.69-.44,5.82-1.3,2.72-2.05,2.87-11.96.61-14.61M69.05,132.89c-.47.51-1.14.78-1.83.75-.69.04-1.36-.24-1.83-.75-.85-1.18-.9-6.88-.19-8.4.24-.54.77-.88,1.35-.89.22-.05.45-.08.68-.09.23.02.45.05.68.09.58.01,1.11.36,1.35.89.72,1.52.67,7.22-.19,8.4ZM154.55,121.47c-1.05-1.23-2.53-1.37-4.29-1.56-.72-.08-1.44-.13-2.14-.15-.7.03-1.42.08-2.14.15-1.76.19-3.24.32-4.29,1.56-2.27,2.65-2.11,12.55.61,14.61,1.13.85,3.49,1.29,5.82,1.3,2.33-.02,4.69-.44,5.82-1.3,2.72-2.05,2.88-11.96.61-14.61M149.94,132.88c-.47.51-1.14.78-1.83.75-.69.04-1.36-.24-1.83-.75-.85-1.18-.9-6.88-.19-8.4.24-.54.77-.89,1.36-.89.22-.05.45-.08.68-.09.23.02.45.05.68.09.58.01,1.11.36,1.35.89.71,1.52.66,7.22-.19,8.4M58.19,125.41c.07-1.73-.6-3.4-1.83-4.59-1.19-.82-2.63-1.2-4.06-1.07h-9.42v17.22h5.49v-5.61h.02s3.89-.01,3.89-.01c1.21.04,2.4-.25,3.46-.84,1.45-.73,2.43-2.93,2.44-5.09M52.36,126.54c-.61.14-1.24.21-1.87.21h-2.13v-3.09h2.13c.74-.04,1.47.06,2.17.28.54.25.85.82.78,1.42-.07.6-.51,1.08-1.1,1.19M89.47,120.06s-6.27-.82-9.13.02c-2.85.84-3.97,2.36-3.97,4.81s.58,3.28,1.81,4.17c1.28.73,2.69,1.2,4.15,1.39.73.12,3.24.18,3.19,1.75-.04,1.57-4.07,1.19-4.07,1.19l-4.64-.24v3.84s7.02.82,9.88-.02c2.86-.84,3.97-2.42,3.97-4.81v-.07c0-2.46-.58-3.28-1.81-4.17-1.28-.73-2.69-1.2-4.15-1.39-.73-.12-3.24-.18-3.19-1.75.04-1.57,4.07-1.19,4.07-1.19l3.75.2.14-3.74h0ZM122.68,119.75h5.52c.93,4.79,2.32,9.08,2.91,14.22.84-4.92,1.97-9.55,3.07-14.22h5.51c-1.51,5.76-3.07,11.47-4.6,17.22h-7.81c-1.53-5.74-3.14-11.4-4.6-17.22ZM121.35,136.97h-5.49v-17.22h5.49v17.22Z"/><path class="cls-1" d="M92.46,103.85c2.56-.05,5.1-.31,7.66-.32-.14.42-.19.87-.17,1.31-1.27-.01-2.53.07-3.79.25-4.42.53-10.87,1.84-13.69-2.65-.49-.49-.48-1.29,0-1.78.05-.05.11-.1.16-.14,1.26.76,2.35,2.02,3.74,2.52,1.97.61,4.02.89,6.08.81"/><path class="cls-1" d="M100.36,92.03c.2.35.39.7.55,1.06-.23.35-.55.63-.91.82-.15.12-.28.27-.37.44.35.44.84.94.41,1.51-.43.57-1.05.66-1.19,1.44.38.58.61,1.25.7,1.93.08,1.92-2.58,2.24-3.95,2.3-1.83.08-3.67-.12-5.45-.57-1.09-.3-2.13-.79-3.07-1.45-.81-.54-2.08-1.47-1.49-2.61.42-.37.68-.46,1.15-.11.73.56,1.28,1.37,1.98,1.97.46.33.96.6,1.5.77,1.36.51,2.78.83,4.22.93,1.27.08,3.89,0,3.61-1.93-.09-.59-.47-1-.57-1.56-.08-.32.08-.64.38-.77.4-.25.82-.45,1.2-.73.14-.1.27-.22.42-.32-.17-.2-.34-.39-.52-.57-.39-.36-.91-.67-.94-1.27l1.71-.68c-.65-1.07-1.24-2.16-1.78-3.29-.97.53-1.98.99-3.02,1.37-1.1.3-1.46-.54-1.65-1.5.94-.74,2.03-1.27,3.18-1.56.65-.16,1.72-.19,1.99.63.08.25.16.5.26.75.48,1.04,1.03,2.03,1.65,2.98"/><path class="cls-1" d="M110.59,86.99c1.11-.29,2.25-.43,3.39-.41.03.16.11.38-.04.5-.42.22-.83.47-1.26.64-2.21.87-4.61,1.15-6.84,1.96-1.25.45-2.67,1.08-2.4,2.7.19,1.18,1,1.5,2.03,1.54,2.07.01,4.13-.25,6.13-.77.58-.18,1.19-.26,1.8-.24-.54,1.75-2.96,2.13-4.51,2.4-1.46.13-2.89.49-4.25,1.06-.42.24-.77.58-1.01,1-.49.91-.24,2.04.59,2.64.59.29,1.25.42,1.91.37,1.69-.05,3.32-.6,5-.78.16-.02.32-.03.49-.03-.13.5-.42.95-.83,1.27-1.85.64-3.84.87-5.63,1.7-.77.29-1.41.85-1.81,1.58-.17.36-.19.77-.04,1.14.14.37.43.66.8.8,1.19.35,2.45.38,3.65.08,1.01-.16,2.03-.39,3.06-.47.46-.08.94-.02,1.37.17.7.65-.54,1.05-1,1.16-.93.22-1.88.37-2.84.43-.93.07-1.87.12-2.81.12-.71.01-1.42-.1-2.08-.34-1.44-.44-2.25-1.98-1.81-3.44.11-.36.28-.69.52-.97.46-.51,1.01-.93,1.61-1.25-.87-.4-1.74-.71-2.01-1.77-.1-.45-.15-.92-.16-1.39-.08-.73.13-1.46.56-2.04.45-.47.96-.87,1.53-1.2-.91-.36-1.61-.63-1.83-1.75-.26-1.29-.27-2.92.85-3.81.44-.32.9-.61,1.39-.86-.7-.15-1.35-.49-1.86-.98-.44-.67-.63-1.47-.57-2.27-.04-.69.13-1.37.47-1.96.56-.82,1.37-1.43,2.31-1.74.55-.09,1.11-.15,1.68-.18,2.82-.11,5.63-.56,8.34-1.36.21.07.34.27.33.49-.2.84-.93,1.19-1.7,1.43-.87.24-1.76.41-2.66.49-.83.1-1.68.19-2.51.29-1.3.08-2.56.45-3.69,1.1-.98.87-.89,1.67-.49,2.82.49.42,1.11.63,1.74.6,1.71.02,3.42-.13,5.09-.46"/><path class="cls-1" d="M99.27,83.02c-.05.72-.4,1.39-.96,1.83-1.18.72-2.43,1.3-3.73,1.73-1.13.54-2.23,1.16-3.27,1.87-2.66,1.68-4.88,3.98-6.48,6.71.07.39.26.67-.12.97-.52.28-1.14.25-1.64-.07-.36-.54-.33-1.25.07-1.76.29-.51.61-1,.97-1.47,2.53-3.22,5.94-5.61,9.81-6.89,1.58-.58,3.73-1.45,4.02-3.39.02-.13.03-.26.05-.39-.72-.46-1.52-.77-2.36-.94-3.15-.78-6.32-1.52-9.56-.89-3.04.59-6.21,2.48-7.07,5.67-.31,1.34-.23,2.74.23,4.03.61,1.78,1.01,3.63,1.21,5.51.09.95-.26,1.89-.93,2.55-1.31,1.25-3.36,1.19-4.97.74v-1.32s.1,0,.12-.03c1.44.39,3.39.86,3.73-1.16.09-1.17-.06-2.34-.43-3.45-.5-1.95-1.4-3.93-1.15-5.99.67-5.53,6.7-7.97,11.52-8.09,2.06-.02,4.11.25,6.11.79,1.27.3,2.5.74,3.67,1.31.37.19.7.42,1,.7.27.43.33.96.17,1.44"/><path class="cls-1" d="M120.67,84.19c-.78.75-1.72,1.37-1.68,2.57.57.42,1,1,1.25,1.67.25,1.1-.08,2.26-.88,3.06-.74.78-1.71,1.2-1.06,2.48.41.59.73,1.24.96,1.92.3,1.51-1.47,2.8-2.4,3.66-.27.57,0,1.23-.07,1.84-.14,1.5-.98,2.82-2.65,2.77-.27.04-.53-.15-.57-.43-.16-.6.23-.74.69-.95.11-.14.21-.28.3-.43.65-1.36-.41-2.51.87-3.74.68-.66,1.52-1.1,1.79-2.03.24-.88-.4-1.47-.82-2.18-1.21-2,.94-2.84,1.74-4.29.2-.61.19-1.27-.03-1.87-.61-.53-1.24-.96-1.14-1.87.18-1.49,1.49-2.1,2.3-3.17,1.44-1.9-.78-3.89-2.58-4.12-2.06-.19-4.12-.13-6.17.16-1.08.08-2.17.04-3.24-.14-.3-.02-.55-.24-.59-.55-.05-.3.12-.6.4-.71.36-.09.74-.07,1.09.06,1.75.29,3.52-.26,5.27-.28,1.45-.02,2.9.09,4.33.34.93.29,1.81.75,2.59,1.37,1.39.97,1.75,2.9.79,4.31-.14.21-.3.39-.48.56"/><path class="cls-1" d="M105.09,72.52c-.42.85-.77,1.74-1.06,2.64-.23.76-.63,1.98.43,2.29.52.15.8.09,1.03.66-.03.37-.06.62-.45.74-.71,0-1.42-.17-2.05-.51-.94-.42-1.46-1.47-1.2-2.48.06-.24.14-.47.2-.71.54-2.09,1.95-3.96,1.91-6.19.13-2.12-.64-4.2-2.12-5.71-.22-.18-.48-.29-.76-.32-.41,2.6-.7,5.65-2.3,7.86-1.54,2.36-3.59,4.34-6,5.78-1.69.82-3.53,1.3-5.39,1.4-3.19.32-6.41-.16-9.38-1.39-.58-.26-.89-.45-.58-1.08.32-.41.48-.24.93-.29,1.38.65,2.84,1.1,4.34,1.33,2.41.39,4.88.27,7.25-.36,1.07-.31,2.08-.82,2.97-1.51,1.88-1.47,3.45-3.31,4.6-5.42.75-1.64,1.21-3.41,1.35-5.22.14-.8.24-2.16,1.27-2.34,1.58-.29,3.18.36,4.13,1.66,1.84,2.57,2.22,5.91,1.03,8.84-.05.11-.11.22-.16.32"/></g></g></svg>