<?xml version="1.0" encoding="UTF-8"?><svg id="Layer_1" xmlns="http://www.w3.org/2000/svg" xmlns:xlink="http://www.w3.org/1999/xlink" viewBox="0 0 199 199"><defs><style>.cls-1{fill:#524d56;}.cls-1,.cls-2,.cls-3{stroke-width:0px;}.cls-4{clip-path:url(#clippath);}.cls-2{fill:none;}.cls-3{fill:#f0eff0;}.cls-5{opacity:.5;}</style><clipPath id="clippath"><rect class="cls-2" x="51.5" y="30.68" width="96" height="128"/></clipPath></defs><rect class="cls-3" width="199" height="199"/><g class="cls-5"><g class="cls-4"><path class="cls-1" d="M118.65,92.37l-18.57,10.71v20.95l18.57-10.7v-20.96Z"/><path class="cls-1" d="M98.88,124.03l-18.57-10.7v-20.96l18.57,10.71"/><path class="cls-1" d="M110.13,84.15l-10.05,5.79v11.34l10.05-5.79v-11.34Z"/><path class="cls-1" d="M98.88,101.29l-10.02-5.78v-11.32l10.02,5.78"/><path class="cls-1" d="M75.66,109.61v-29.58h47.33v29.58c-.04,16.21-15.68,23.33-23.66,23.34-7.93-.01-23.62-7.57-23.66-23.34h0ZM76.57,109.61c.02,15.08,15.26,22.42,22.77,22.44,7.59-.02,22.74-6.92,22.77-22.44v-28.69h-45.53v28.69Z"/><path class="cls-1" d="M122.97,80.41l-.23-.38,3.17-1.88,3.29,5.51-3.16,1.87-3.08-5.12ZM126.35,84.3l1.61-.95-2.38-3.97-1.62.97,2.38,3.97h0ZM118.83,73.34l2.72-1.63.39-.23,3.16,5.28-3.1,1.84-3.16-5.26ZM120.06,73.65l2.24,3.73,1.56-.92-2.24-3.74-1.56.94h0ZM135.57,72.23l2.49-1.48.38-.23,3.31,5.51-2.89,1.72-3.29-5.51h0ZM136.8,72.55l2.37,3.98,1.35-.8-2.39-3.97-1.33.79ZM131.72,65.61l2.44-1.48.39-.23,3.14,5.21-2.96,1.75-3.01-5.25ZM132.93,65.92l2.13,3.7,1.4-.82-2.21-3.68-1.31.79h0Z"/><path class="cls-1" d="M118.34,67.21l11.31-6.65,12.91,21.61-2.65,1.56-1.49-2.5-.65.38,1.5,2.5-2.27,1.34-1.5-2.52-.64.38,1.51,2.52-2.41,1.42-1.5-2.51-.64.38,1.5,2.51-2.07,1.21-12.91-21.61h0ZM119.56,67.53l11.99,20.08.52-.3-1.27-2.13-.23-.38,2.18-1.29,1.5,2.51.86-.51-1.51-2.52,2.19-1.28,1.5,2.52.72-.42-1.49-2.5,2.19-1.29,1.49,2.5,1.09-.64-11.99-20.08-9.76,5.74h.01Z"/><path class="cls-1" d="M70.4,83.89l-.39-.23,3.29-5.51,3.17,1.88-3.31,5.51-2.76-1.64h0ZM72.86,84.3l2.39-3.97-1.63-.96-2.37,3.97,1.61.95h0ZM74.13,76.77l2.93-4.9.24-.38,3.1,1.86-3.16,5.26-3.1-1.84h0ZM75.36,76.46l1.56.92,2.24-3.73-1.56-.93-2.24,3.74ZM57.85,76.25l-.39-.23,3.31-5.5,2.88,1.7-3.29,5.51-2.51-1.48h0ZM60.04,76.51l2.38-3.97-1.33-.79-2.39,3.97,1.35.8h0ZM61.91,69.34l-.39-.23,3.14-5.21,2.84,1.71-3.01,5.26-2.57-1.52h0ZM64.15,69.63l2.12-3.71-1.31-.79-2.21,3.68,1.4.82h0Z"/><path class="cls-1" d="M65.91,87.62l1.5-2.51-.65-.38-1.5,2.51-2.41-1.41,1.51-2.52-.65-.38-1.5,2.52-2.27-1.34,1.49-2.5-.64-.38-1.49,2.5-2.64-1.56,12.68-21.23.23-.38,11.3,6.65-12.91,21.61-2.06-1.21h0s0,.01,0,.01ZM68.64,84.79l-1.5,2.51.52.3,11.99-20.08-9.76-5.74-11.99,20.08,1.1.64,1.49-2.5,2.19,1.29-1.5,2.5.73.42,1.5-2.52,2.19,1.28-1.51,2.53.86.51,1.5-2.51,2.19,1.29h0s0-.01,0-.01Z"/><path class="cls-1" d="M63.78,79.9l2.77-4.83-1.98-1.19,1.71-3.03,1.93,1.15,1.25-2.19,3.03,1.65-1.27,2.37,2.16,1.17-1.82,2.96-1.94-1.07-2.55,4.41-.23.4-3.06-1.79h0ZM65.78,73.56l1.99,1.19-2.77,4.83,1.51.89,2.76-4.79,1.96,1.08.88-1.43-2.11-1.14,1.27-2.38-1.47-.8-1.26,2.22-1.93-1.15-.83,1.47h0Z"/><path class="cls-1" d="M78.1,76.01l.68-.58c1.22,1.39,2.29,3.03,4.71,4.68l-.51.73c-2.55-1.73-3.73-3.52-4.88-4.83Z"/><path class="cls-1" d="M129.6,76.88l-1.93,1.07-1.82-2.96,2.16-1.17-1.27-2.37,3.03-1.65,1.25,2.2,1.93-1.15,1.71,3.02-1.98,1.19,2.77,4.84-2.66,1.56-.4.23-2.78-4.81h0ZM132.71,80.46l1.51-.89-2.76-4.82,1.99-1.19-.83-1.47-1.93,1.15-1.26-2.22-1.47.8,1.27,2.38-2.11,1.14.88,1.43,1.95-1.08,2.77,4.79h0Z"/><path class="cls-1" d="M115.72,80.11c2.42-1.65,3.5-3.29,4.71-4.68l.68.58c-1.15,1.32-2.34,3.1-4.88,4.84l-.51-.74Z"/><path class="cls-1" d="M96.93,43.17v-3.79h-3.44v-4.9h3.44v-3.79h4.72v3.79h3.67v4.91h-3.67v3.79h-4.72ZM94.39,38.49h3.44v3.79h2.92v-3.79h3.67v-3.12h-3.67v-3.79h-2.92v3.79h-3.44v3.12Z"/><path class="cls-1" d="M80.63,69.85l.05-.49c1.1-10.21,9.08-23.31,16.5-27.03l.09-.05h4.06l.12.08c6.81,4.81,15.03,13.79,16.59,26.99l.06.5h-37.48,0ZM117.09,68.96c-1.65-12.53-9.48-21.12-16.04-25.79h-3.57c-6.83,3.43-14.65,16.04-15.85,25.79h35.46Z"/><path class="cls-1" d="M87.81,52.73v-.89h22.97v.89h-22.97Z"/><path class="cls-1" d="M83.3,61.44v-.89h32.21v.89h-32.21Z"/><path class="cls-1" d="M95.4,51.02c-2.24-.03-4.36-1.19-5.01-2.58l.82-.35c.33.87,2.27,2.06,4.18,2.04,1.36,0,2.67-.52,3.57-2.02l.37-.62.4.6c.99,1.5,2.38,2,3.77,2.01,1.94.05,3.86-1.16,3.96-1.63l.84.31c-.51,1.16-2.53,2.17-4.8,2.22-1.44,0-3-.5-4.14-1.88-1.05,1.37-2.54,1.91-3.95,1.91h-.03Z"/><path class="cls-1" d="M99.39,57.11c-1.65,1.36-4.44,1.89-7.19,1.91-3.01-.01-5.93-.64-7.34-1.99l.63-.64c1,1.04,3.84,1.74,6.7,1.73,2.79.01,5.61-.65,6.85-1.91l.29-.28.31.25c1.85,1.49,4.37,2.04,6.83,2.04,2.72,0,5.36-.67,6.85-1.34l.37.81c-1.63.73-4.35,1.41-7.21,1.41-2.47,0-5.05-.51-7.1-2h0Z"/><path class="cls-1" d="M99.41,65.03c-1.89,1.6-5.12,2.22-8.36,2.23-3.76-.02-7.51-.85-9.22-2.51l.63-.63c1.31,1.34,4.97,2.26,8.58,2.24,3.28.01,6.53-.75,8.02-2.24l.29-.29.31.25c2.18,1.76,5.11,2.39,8,2.39,3.44,0,6.82-.91,8.71-1.75l.37.81c-2.02.91-5.48,1.83-9.08,1.84-2.89,0-5.89-.6-8.27-2.36h0Z"/><path class="cls-1" d="M102.16,79.43c-1.12-1.63-3.14-5.01-3.13-10.03v-.44h10.22v.44c0,1.66.42,3.45,1.67,4.7l.41.4-8.94,5.27-.24-.34h0ZM102.67,78.58l7.23-4.27c-1.08-1.31-1.48-2.94-1.55-4.46h-8.43c.1,4.22,1.68,7.12,2.74,8.73h0Z"/><path class="cls-1" d="M87.62,74.5l.41-.4c1.26-1.25,1.67-3.04,1.67-4.7v-.45h10.23v.45c0,5.03-2.01,8.4-3.13,10.03l-.24.34-8.93-5.27h0ZM96.29,78.58c1.06-1.61,2.63-4.51,2.74-8.73h-8.43c-.07,1.52-.46,3.15-1.55,4.46l7.24,4.27Z"/><path class="cls-1" d="M123.22,109.42c0-3.08,1.93-5.69,4.63-6.76l-5.76-4.03v-5.55l7.89,5.51c-.09-.43-.13-.87-.13-1.33,0-4.03,3.3-7.31,7.36-7.31s7.36,3.27,7.36,7.31c0,1.19-.3,2.29-.8,3.26,2.21,1.26,3.72,3.6,3.72,6.32,0,4.04-3.3,7.31-7.37,7.31-1.22,0-2.36-.31-3.36-.83-1.3,2.03-3.57,3.4-6.18,3.4-4.07,0-7.36-3.27-7.37-7.31h0ZM122.99,98.17l6.91,4.82-.93.24c-2.78.72-4.83,3.2-4.83,6.19,0,3.55,2.89,6.41,6.47,6.42,2.43,0,4.52-1.34,5.63-3.32l.22-.4.4.24c.97.57,2.08.92,3.29.92,3.57,0,6.46-2.87,6.46-6.42,0-2.53-1.48-4.69-3.63-5.74l-.43-.21.24-.41c.56-.96.9-2.04.9-3.22,0-3.55-2.9-6.41-6.47-6.42-3.57,0-6.47,2.87-6.47,6.42,0,.8.16,1.55.44,2.26l.52,1.37-8.72-6.1v3.37h0ZM62.22,113.34c-1.01.52-2.14.84-3.36.83-4.07,0-7.36-3.27-7.36-7.31,0-2.72,1.51-5.07,3.72-6.32-.5-.98-.8-2.08-.8-3.26,0-4.03,3.3-7.31,7.36-7.31s7.36,3.27,7.36,7.31c0,.45-.05.9-.13,1.33l7.54-5.27v5.54l-5.42,3.78c2.71,1.08,4.63,3.68,4.63,6.76,0,4.04-3.3,7.31-7.36,7.31-2.61,0-4.89-1.37-6.19-3.4ZM62.78,112.52c1.11,1.98,3.2,3.32,5.63,3.32,3.57,0,6.46-2.87,6.46-6.42,0-2.98-2.06-5.47-4.84-6.19l-.93-.25,6.55-4.57v-3.37l-8.38,5.85.54-1.37c.27-.71.43-1.47.44-2.26,0-3.55-2.89-6.41-6.47-6.42-3.57,0-6.46,2.87-6.47,6.42,0,1.18.34,2.26.9,3.22l.24.41-.43.21c-2.14,1.05-3.63,3.22-3.63,5.75,0,3.55,2.89,6.41,6.47,6.42,1.2,0,2.32-.35,3.29-.92l.4-.23.23.4h0Z"/><path class="cls-1" d="M57.94,97.27c0-2.1,1.72-3.81,3.84-3.81s3.84,1.71,3.84,3.81-1.72,3.81-3.84,3.81-3.84-1.71-3.84-3.81ZM58.84,97.27c0,1.61,1.31,2.92,2.93,2.92s2.94-1.31,2.94-2.92-1.31-2.92-2.94-2.92-2.93,1.31-2.93,2.92Z"/><path class="cls-1" d="M55.02,106.86c0-2.1,1.72-3.81,3.84-3.81s3.84,1.71,3.84,3.81-1.72,3.81-3.84,3.81c-2.12,0-3.84-1.71-3.84-3.81ZM55.92,106.86c0,1.61,1.32,2.92,2.94,2.92s2.94-1.31,2.94-2.92-1.32-2.91-2.94-2.92c-1.62,0-2.93,1.3-2.94,2.92Z"/><path class="cls-1" d="M64.57,109.43c0-2.1,1.72-3.81,3.84-3.81s3.84,1.71,3.84,3.81-1.72,3.81-3.84,3.81-3.84-1.71-3.84-3.81ZM65.47,109.43c0,1.61,1.31,2.92,2.94,2.92s2.94-1.31,2.94-2.92-1.31-2.92-2.94-2.92-2.94,1.3-2.94,2.92Z"/><path class="cls-1" d="M126.75,109.42c0-2.11,1.72-3.81,3.83-3.81s3.84,1.71,3.84,3.81-1.72,3.81-3.84,3.81-3.83-1.71-3.83-3.81ZM127.65,109.42c0,1.62,1.32,2.92,2.94,2.92s2.94-1.31,2.94-2.92-1.31-2.92-2.94-2.92-2.94,1.31-2.94,2.92Z"/><path class="cls-1" d="M136.3,106.86c0-2.1,1.72-3.81,3.84-3.81s3.84,1.71,3.84,3.81-1.72,3.81-3.84,3.81-3.84-1.71-3.84-3.81ZM137.2,106.86c0,1.61,1.31,2.92,2.94,2.92s2.94-1.31,2.94-2.92-1.31-2.92-2.94-2.92-2.94,1.31-2.94,2.92Z"/><path class="cls-1" d="M133.38,97.27c0-2.11,1.72-3.81,3.84-3.81s3.84,1.71,3.84,3.81-1.72,3.81-3.84,3.81-3.84-1.71-3.84-3.81ZM134.29,97.27c0,1.61,1.31,2.92,2.94,2.92s2.94-1.31,2.94-2.92-1.31-2.91-2.94-2.92c-1.62,0-2.94,1.31-2.94,2.92Z"/><path class="cls-1" d="M100.32,80.92h-1.64l1.41-.83c4.29-2.52,12.1-7.11,19.55-11.56l.39-.23,2.37,3.96-.38.23c-4.85,2.91-9.89,5.92-14.01,8.38l-.11.06h-7.57ZM107.64,80.03c3.98-2.38,8.82-5.27,13.51-8.08l-1.44-2.43c-6.57,3.92-13.38,7.93-17.75,10.51h5.68,0ZM129.72,62.46l.38-.23c3.05-1.87,5.52-3.41,6.87-4.33.4-.28.84-.41,1.25-.41,1.33.02,2.38,1.19,2.39,2.47,0,.71-.36,1.46-1.14,1.96-.69.45-3.35,2.06-7,4.26l-.39.23-2.37-3.97h0ZM132.4,65.2c3.44-2.07,5.95-3.6,6.58-4.01.56-.38.73-.79.74-1.22,0-.78-.74-1.58-1.5-1.58-.24,0-.48.07-.74.25l-.26-.36.26.37c-1.32.89-3.65,2.35-6.54,4.12l1.46,2.44h0Z"/><path class="cls-1" d="M57.59,140.3h8.07c1.59,0,2.88.45,3.87,1.35.99.9,1.47,2.16,1.47,3.79,0,1.39-.44,2.61-1.31,3.65-.88,1.04-2.22,1.56-4.02,1.56h-5.63v7.57h-2.44v-17.9h0ZM67.07,142.76c-.54-.25-1.27-.38-2.21-.38h-4.83v6.2h4.83c1.09,0,1.97-.23,2.65-.69.68-.46,1.02-1.28,1.02-2.45,0-1.32-.49-2.21-1.46-2.68Z"/><path class="cls-1" d="M76.77,140.3v11.06c0,1.3.25,2.38.74,3.24.73,1.3,1.97,1.95,3.71,1.95,2.09,0,3.51-.7,4.26-2.11.41-.77.61-1.79.61-3.08v-11.06h2.47v10.05c0,2.21-.3,3.9-.9,5.08-1.1,2.16-3.18,3.24-6.23,3.24s-5.13-1.08-6.22-3.24c-.6-1.19-.9-2.88-.9-5.08v-10.05h2.47,0Z"/><path class="cls-1" d="M105.05,141.6c1.25,1.19,1.94,2.55,2.08,4.07h-2.38c-.27-1.15-.8-2.07-1.59-2.74-.79-.67-1.9-1.01-3.33-1.01-1.74,0-3.16.62-4.23,1.86-1.07,1.24-1.61,3.14-1.61,5.7,0,2.1.48,3.8,1.45,5.1.97,1.3,2.41,1.96,4.34,1.96,1.77,0,3.12-.69,4.04-2.06.49-.72.86-1.67,1.1-2.85h2.39c-.21,1.89-.91,3.46-2.09,4.74-1.42,1.54-3.33,2.3-5.73,2.3-2.07,0-3.81-.63-5.22-1.89-1.86-1.67-2.78-4.24-2.78-7.72,0-2.64.7-4.8,2.09-6.5,1.5-1.84,3.58-2.76,6.23-2.76,2.26,0,4.01.6,5.25,1.79Z"/><path class="cls-1" d="M110.69,140.3h8.07c1.59,0,2.88.45,3.86,1.35.98.9,1.47,2.16,1.47,3.79,0,1.39-.44,2.61-1.31,3.65-.88,1.04-2.21,1.56-4.02,1.56h-5.63v7.57h-2.44v-17.9h0ZM120.17,142.76c-.54-.25-1.28-.38-2.21-.38h-4.83v6.2h4.83c1.09,0,1.97-.23,2.65-.69.68-.46,1.02-1.28,1.02-2.45,0-1.32-.49-2.21-1.46-2.68Z"/><path class="cls-1" d="M127.52,140.3h8.2c1.35,0,2.46.2,3.34.6,1.67.76,2.5,2.17,2.5,4.23,0,1.07-.22,1.95-.67,2.63-.44.68-1.07,1.23-1.88,1.65.71.29,1.24.66,1.59,1.12.36.46.56,1.21.6,2.26l.09,2.4c.03.68.08,1.19.17,1.52.15.57.41.93.78,1.1v.4h-3c-.08-.15-.15-.36-.2-.6-.05-.24-.09-.71-.12-1.41l-.14-2.98c-.06-1.17-.48-1.95-1.28-2.35-.45-.22-1.16-.33-2.14-.33h-5.4v7.68h-2.44v-17.9h.02ZM135.46,148.5c1.12,0,1.99-.23,2.65-.68.65-.45.97-1.28.97-2.46,0-1.28-.45-2.15-1.36-2.61-.48-.25-1.14-.36-1.95-.36h-5.8v6.12h5.5,0Z"/><path class="cls-1" d="M91.32,80.92l-.1-.06c-4.11-2.45-9.15-5.47-14-8.38l-.38-.23,2.13-3.57.23-.38.39.23c7.45,4.44,15.26,9.05,19.55,11.56l1.42.83h-9.23ZM97.26,80.03c-4.38-2.57-11.18-6.58-17.75-10.5l-1.44,2.43c4.69,2.81,9.53,5.7,13.51,8.08h5.69,0ZM66.73,66.19c-3.65-2.2-6.31-3.81-7-4.27l.25-.37.25-.38c.63.42,3.14,1.94,6.58,4.01l1.46-2.44c-2.89-1.77-5.21-3.23-6.53-4.12-.27-.18-.52-.25-.75-.25-.75,0-1.49.79-1.5,1.58,0,.42.18.84.74,1.21l-.25.38-.25.37c-.78-.51-1.15-1.25-1.14-1.96.01-1.28,1.06-2.45,2.39-2.47.42,0,.86.13,1.25.4,1.35.91,3.82,2.46,6.87,4.33l.38.23-2.37,3.97-.39-.23h0Z"/></g></g></svg>