<?xml version="1.0" encoding="UTF-8"?><svg id="Layer_1" xmlns="http://www.w3.org/2000/svg" xmlns:xlink="http://www.w3.org/1999/xlink" viewBox="0 0 199 199"><defs><style>.cls-1{fill:#524d56;}.cls-1,.cls-2,.cls-3{stroke-width:0px;}.cls-4{clip-path:url(#clippath);}.cls-2{fill:none;}.cls-3{fill:#f0eff0;}.cls-5{opacity:.5;}</style><clipPath id="clippath"><rect class="cls-2" x="32.87" y="57.95" width="132.26" height="83.11"/></clipPath></defs><rect class="cls-3" width="199" height="199"/><g class="cls-5"><g class="cls-4"><path class="cls-1" d="M70.4,137.75c-1.25,0-1.43-.63-1.43-1.79v-6.79h2.77v-3.22h-2.77v-4.29l-4.38,1.43v2.95h-2.23v3.22h2.14v7.42c0,2.86,1.34,4.38,4.29,4.38s2.23-.18,3.13-.54l-.18-3.04c-.45.18-.89.27-1.34.27h0ZM79.79,125.68c-4.29,0-6.88,3.49-6.88,7.6s2.23,7.77,6.88,7.77,6.88-3.57,6.88-7.77-2.23-7.6-6.88-7.6ZM79.79,137.93c-1.97,0-2.23-3.04-2.23-4.65s.27-4.47,2.23-4.47,2.23,2.95,2.23,4.47-.27,4.65-2.23,4.65ZM44.31,121.3l-3.13,14.3-3.22-14.3h-5.09l5.54,19.48h5.27l5.54-19.48h-4.91ZM55.12,125.68c-4.29,0-6.88,3.49-6.88,7.6s2.23,7.77,6.88,7.77,6.88-3.57,6.88-7.77-2.23-7.6-6.88-7.6ZM55.12,137.93c-1.97,0-2.23-3.04-2.23-4.65s.27-4.47,2.23-4.47,2.23,2.95,2.23,4.47-.27,4.65-2.23,4.65ZM134.66,137.75c-1.25,0-1.43-.63-1.43-1.79v-6.79h2.77v-3.22h-2.77v-4.29l-4.38,1.43v2.95h-2.23v3.22h2.14v7.42c0,2.86,1.34,4.38,4.29,4.38s2.23-.18,3.13-.54l-.18-3.04c-.45.18-.89.27-1.34.27h0ZM138.14,124.16h4.47v-3.75h-4.47v3.75ZM160.93,125.68c-1.79,0-3.04.89-3.93,2.5-.54-1.52-1.88-2.5-3.75-2.5s-3.22.89-4.02,2.5l-.18-2.23h-4.02c0,.98.09,2.06.09,3.13v11.62h4.47v-9.2c0-1.07.54-2.59,1.79-2.59s1.61,1.25,1.61,2.32v9.38h4.38v-9.2c0-1.07.54-2.59,1.79-2.59s1.61,1.25,1.61,2.32v9.38h4.38v-9.83c0-2.86-1.16-5.18-4.2-5.18h0v.18ZM138.14,140.7h4.47v-14.74h-4.47v14.74ZM120.98,125.68c-1.88,0-3.31.89-4.11,2.5v-2.23h-4.2c0,1.07.09,2.06.09,3.13v11.62h4.47v-9.2c0-1.16.54-2.59,1.88-2.59s1.7,1.16,1.7,2.32v9.38h4.47v-9.74c0-2.95-1.16-5.27-4.38-5.27l.09.09ZM110.17,131.04c0-3.31-1.43-5.36-5.9-5.36s-3.57.36-4.91.89v3.31c1.34-.8,2.86-1.25,4.11-1.25,1.88,0,2.5,1.07,2.5,2.41v.54h-.98c-3.31,0-7.33,1.25-7.33,5.09s1.7,4.38,4.47,4.38,3.04-.71,3.93-2.32v1.97h4.29c0-.89-.09-1.79-.09-3.22v-6.43h-.09ZM105.97,134.71c0,1.52-.45,3.49-2.32,3.49s-1.79-.71-1.79-1.88c0-1.97,1.88-2.41,3.66-2.41h.54v.89l-.09-.09ZM92.57,128.54v-2.59h-4.11c0,1.07.09,2.06.09,3.13v11.62h4.47v-6.52c0-1.97.45-4.56,2.86-4.56s.89,0,1.25.18v-4.02h-.54c-1.97,0-3.22,1.07-4.02,2.86h0v-.09Z"/><path class="cls-1" d="M111.69,61.34c.98-1.97,3.04-3.4,5.45-3.4h14.3l-27.97,55.49c-.89,1.7-2.5,2.95-4.56,2.95s-3.75-1.34-4.65-3.04l-7.6-15.1c.45,0,.89.09,1.34.09,1.16,0,2.32-.27,3.31-.8h0c1.88-.98,3.4-2.5,4.38-4.47l16-31.72h0Z"/><path class="cls-1" d="M88.19,61.25c.98-1.88,2.95-3.22,5.18-3.31h13.67l-16.26,32.35c-.8,1.52-2.23,2.77-4.11,2.77s-3.31-1.16-4.11-2.77l-7.51-14.92c.45,0,.8.09,1.25.09.98,0,1.88-.18,2.68-.54h0c.09,0,.18-.09.27-.18,1.7-.89,3.13-2.32,3.93-4.02h0l4.74-9.47h.27Z"/><path class="cls-1" d="M84.34,57.95l-5.36,10.63c-.63,1.34-2.06,2.23-3.57,2.23s-2.95-.89-3.57-2.23l-5.36-10.63h17.96-.09Z"/></g></g></svg>