<?xml version="1.0" encoding="UTF-8"?><svg id="Layer_1" xmlns="http://www.w3.org/2000/svg" viewBox="0 0 1080 1080"><defs><style>.cls-1{fill:#38353b;}.cls-1,.cls-2{stroke-width:0px;}.cls-2{fill:#f7f7f8;}</style></defs><rect class="cls-2" width="1080" height="1080"/><path class="cls-1" d="M862.07,424.77h-43.88l31.03-31.03c3.6-3.6,3.6-9.44,0-13.04l-149.92-149.92c-3.6-3.6-9.44-3.6-13.04,0l-31.03,31.03v-43.88c0-5.09-4.13-9.22-9.22-9.22h-212.02c-5.09,0-9.22,4.13-9.22,9.22v43.88l-31.03-31.03c-3.6-3.6-9.44-3.6-13.04,0l-149.92,149.92c-3.6,3.6-3.6,9.44,0,13.04l31.03,31.03h-43.88c-5.09,0-9.22,4.13-9.22,9.22v212.02c0,5.09,4.13,9.22,9.22,9.22h43.88l-31.03,31.03c-3.6,3.6-3.6,9.44,0,13.04l149.92,149.92c3.6,3.6,9.44,3.6,13.04,0l31.03-31.03v43.88c0,5.09,4.13,9.22,9.22,9.22h212.02c5.09,0,9.22-4.13,9.22-9.22v-43.88l31.03,31.03c3.6,3.6,9.44,3.6,13.04,0l149.92-149.92c3.6-3.6,3.6-9.44,0-13.04l-31.03-31.03h43.88c5.09,0,9.22-4.13,9.22-9.22v-212.02c0-5.09-4.13-9.22-9.22-9.22ZM692.77,265l122.22,122.22-37.55,37.55h-244.44c45.39-45.39,114.18-114.18,159.76-159.77ZM453.58,237.52h172.84v53.1c-49.97,49.97-123.51,123.51-172.84,172.84v-225.94ZM387.22,265l37.54,37.54v244.44c-48.37-48.37-111.48-111.48-159.76-159.76l122.22-122.22ZM237.52,626.42v-172.84h53.1c49.34,49.34,124.08,124.08,172.84,172.84h-225.94ZM387.22,814.99l-122.22-122.22,37.54-37.54h244.44l-6.99,6.99-152.78,152.78ZM626.42,842.48h-172.84v-53.1c49.34-49.34,124.08-124.08,172.84-172.84v225.94ZM625.23,554.4c-2.12,12.77-7.26,25.15-14.78,35.68h0c-5.55,7.79-12.57,14.82-20.37,20.37l.84.84-.84-.84c-33.87,24.4-81.88,20.4-111.19-9.34-29.74-29.3-33.74-77.34-9.34-111.19l-.84-.84.84.84c27.4-38.78,81.94-48.03,120.53-20.37h0c7.79,5.55,14.82,12.58,20.37,20.37h0l.84-.84h0s-.84.84-.84.84c13.24,18.39,18.6,42.17,14.78,64.49ZM692.78,814.99l-37.55-37.55v-244.44c48.25,48.25,111.63,111.63,159.77,159.77l-122.22,122.22ZM842.48,626.42h-53.1c-43.08-43.08-129.77-129.77-172.84-172.84h225.94v172.84Z"/></svg>