<?xml version="1.0" encoding="UTF-8"?><svg id="Layer_1" xmlns="http://www.w3.org/2000/svg" viewBox="0 0 1080 1080"><defs><style>.cls-1{fill:#38353b;}.cls-1,.cls-2{stroke-width:0px;}.cls-2{fill:#f7f7f8;}</style></defs><rect class="cls-2" width="1080" height="1080"/><path class="cls-1" d="M226.78,558.14c0,172.99,140.24,313.23,313.23,313.23h2.45c171.88-1.31,310.78-141.04,310.78-313.23H226.78ZM707.62,601.59h98.69c-4.5,27.89-13.3,54.7-26.1,79.6h-84.52c5.79-25.02,9.84-51.72,11.93-79.6ZM564.19,601.89h99.56c-2.24,27.74-6.62,54.43-13,79.31h-86.55v-79.31ZM515.81,601.89v79.31h-85.9c-6.38-24.93-10.83-51.72-13.12-79.31h99.02ZM372.86,601.59c2.09,27.86,6.14,54.58,11.93,79.6h-85c-12.8-24.9-21.59-51.72-26.1-79.6h99.17ZM349.24,748.9c-7.72-7.72-14.91-15.81-21.53-24.25h69.37c10.95,32.3,25.02,60.63,41.4,83.57-32.99-13.39-63.29-33.37-89.24-59.32ZM515.81,821.47c-20.07-9.9-39.88-31.61-56.64-62.75-5.7-10.56-10.89-21.95-15.54-34.06h72.18v96.81ZM621.84,757.7c-17,31.91-37.19,54.1-57.65,64.03v-97.08h72.74c-4.53,11.66-9.57,22.7-15.09,33.05ZM731.45,748.21c-25.89,26.07-56.19,46.23-89.21,59.74,16.29-22.88,30.3-51.12,41.19-83.3h68.87c-6.44,8.2-13.39,16.05-20.85,23.56Z"/><rect class="cls-1" x="226.77" y="456.76" width="626.45" height="43.45"/><rect class="cls-1" x="226.77" y="355.38" width="626.45" height="43.45"/><rect class="cls-1" x="226.77" y="254" width="626.45" height="43.45"/></svg>