<?xml version="1.0" encoding="UTF-8"?><svg id="Layer_1" xmlns="http://www.w3.org/2000/svg" viewBox="0 0 1080 1080"><defs><style>.cls-1{fill:#38353b;}.cls-1,.cls-2{stroke-width:0px;}.cls-2{fill:#f7f7f8;}</style></defs><rect class="cls-2" width="1080" height="1080"/><polygon class="cls-1" points="853.9 576.41 853.9 668.27 668.86 668.27 668.86 854.26 576.32 854.26 576.32 576.41 853.9 576.41"/><polygon class="cls-1" points="853.9 412.44 853.9 504.3 576.32 504.3 576.56 225.74 669.09 225.74 668.86 412.44 853.9 412.44"/><polygon class="cls-1" points="503.65 576.41 503.65 854.26 411.14 854.26 411.14 733.24 364.87 779.14 299.46 844.08 234.02 779.14 299.46 714.2 345.7 668.27 226.1 668.27 226.1 576.41 503.65 576.41"/><polygon class="cls-1" points="503.89 225.74 503.65 504.3 226.1 504.3 226.1 412.44 411.14 412.44 411.38 225.74 503.89 225.74"/></svg>