<?xml version="1.0" encoding="UTF-8"?><svg id="Layer_1" xmlns="http://www.w3.org/2000/svg" viewBox="0 0 1080 1080"><defs><style>.cls-1{fill:#38353b;}.cls-1,.cls-2{stroke-width:0px;}.cls-2{fill:#f7f7f8;}</style></defs><rect class="cls-2" x="0" y="0" width="1080" height="1080"/><path class="cls-1" d="M787.56,307.31h-225.71c-12.65,0-24.22-7.15-29.88-18.47l-15.22-30.44c-6.89-13.73-20.91-22.36-36.24-22.36h-188.13c-30.46,0-55.16,24.7-55.16,55.16v426.29c0,30.49,24.72,55.21,55.21,55.21h225.97c12.52,0,23.97,7.07,29.56,18.27l15.31,30.63c6.84,13.73,20.86,22.36,36.19,22.36h188.13c30.46,0,55.16-24.7,55.16-55.16v-426.29c0-30.49-24.72-55.21-55.21-55.21ZM766.12,526.29c0,6.06-4.96,11.01-11.01,11.01h-210.08c-4.09,0-6.75,4.3-4.92,7.96l23.18,46.32c6.84,13.73,20.86,22.36,36.19,22.36h155.63c6.06,0,11.01,4.95,11.01,11.06v131.28c0,6.06-4.96,11.01-11.01,11.01h-193.47c-12.52,0-23.97-7.07-29.56-18.27l-15.31-30.63c-6.89-13.73-20.91-22.36-36.24-22.36h-155.58c-6.11,0-11.06-4.95-11.06-11.06v-361.28c0-6.06,4.95-11.01,11.06-11.01h193.25c12.65,0,24.22,7.15,29.88,18.47l15.22,30.44c6.84,13.73,20.86,22.36,36.19,22.36h155.63c6.06,0,11.01,4.95,11.01,11.06v131.28Z"/></svg>