<?xml version="1.0" encoding="UTF-8"?><svg id="Layer_1" xmlns="http://www.w3.org/2000/svg" viewBox="0 0 1080 1080"><defs><style>.cls-1{fill:#38353b;}.cls-1,.cls-2{stroke-width:0px;}.cls-2{fill:#f7f7f8;}</style></defs><rect class="cls-2" x="0" width="1080" height="1080"/><path class="cls-1" d="M873.86,431.98l-180.51-203.64c-5.55-6.26-16.75-1.83-17.75,7.02l-17.5,154.04c-1.01,8.85-12.21,13.28-17.75,7.02l-157.76-178.02c-3.44-3.88-9.73-3.88-14.05,0l-226.79,203.63c-6.97,6.26-3.75,16.96,5.1,16.96h154.04c8.85.01,12.06,10.71,5.1,16.97l-198.24,177.99c-4.32,3.88-5.03,10.17-1.6,14.05l180.49,203.66c5.55,6.26,16.75,1.83,17.75-7.02l17.51-154.03c1.01-8.85,12.21-13.28,17.75-7.02l157.79,178.01c3.44,3.88,9.73,3.88,14.05,0l226.78-203.64c6.97-6.26,3.75-16.96-5.1-16.96h-154.03c-8.85,0-12.07-10.7-5.1-16.96l198.23-178.01c4.32-3.88,5.03-10.17,1.6-14.05ZM429.17,626.63l19.7-173.26c.9-7.93,8.06-14.36,15.99-14.36h173.25c7.93.01,13.63,6.44,12.73,14.37l-19.68,173.25c-.9,7.93-8.06,14.36-15.99,14.36h-173.26c-7.93,0-13.63-6.43-12.73-14.36Z"/></svg>