<?xml version="1.0" encoding="UTF-8"?><svg id="Layer_1" xmlns="http://www.w3.org/2000/svg" viewBox="0 0 1080 1080"><defs><style>.cls-1{fill:#38353b;}.cls-1,.cls-2{stroke-width:0px;}.cls-2{fill:#f7f7f8;}</style></defs><rect class="cls-2" y="0" width="1080" height="1080"/><path class="cls-1" d="M490.47,207.15l12.15,37.4c.17.53.67.9,1.23.9h39.33c1.26,0,1.78,1.61.76,2.35l-31.81,23.11c-.45.33-.65.92-.47,1.45l12.15,37.4c.39,1.2-.98,2.19-2,1.45l-31.81-23.11c-.45-.33-1.07-.33-1.53,0l-31.81,23.11c-1.02.74-2.39-.26-2-1.45l12.15-37.4c.17-.53-.02-1.12-.47-1.45l-31.81-23.11c-1.02-.74-.49-2.35.76-2.35h39.33c.56,0,1.06-.36,1.23-.9l12.15-37.4c.39-1.2,2.08-1.2,2.47,0Z"/><path class="cls-1" d="M734.7,482.77c89.44,89.44,89.44,234.45,0,323.89-89.44,89.44-234.45,89.44-323.89,0l-115.68-115.68c-25.55-25.55-25.55-66.99,0-92.54h0s161.95,161.95,161.95,161.95c63.89,63.89,167.47,63.89,231.35,0,63.88-63.89,63.88-167.47,0-231.35l-.07-.07-.12-.12-92.29-92.29s-11.73-13.43-15.93-20.75c-21.5-37.5-16.23-86.16,15.79-118.19,38.33-38.33,100.48-38.33,138.81,0,20.56,20.56,30.09,47.96,28.6,74.87l40.81,40.81c-12.78,12.78-33.49,12.78-46.27,0l-69.41-69.41c-12.78-12.78-33.49-12.78-46.27,0-12.78,12.78-12.78,33.49,0,46.27l65.46,65.46h0s27.16,27.16,27.16,27.16Z"/><path class="cls-1" d="M642.16,714.12c-38.33,38.33-100.48,38.33-138.81,0l-208.22-208.22c-25.55-25.55-25.55-66.99,0-92.54h0s254.49,254.49,254.49,254.49c12.78,12.78,33.49,12.78,46.27,0,12.78-12.78,12.78-33.49,0-46.27l-300.76-300.76c-25.55-25.55-25.55-66.99,0-92.54h0s347.03,347.03,347.03,347.03c38.33,38.33,38.33,100.48,0,138.81Z"/></svg>