<?xml version="1.0" encoding="UTF-8"?><svg id="Layer_1" xmlns="http://www.w3.org/2000/svg" viewBox="0 0 1080 1080"><defs><style>.cls-1{fill:#38353b;}.cls-1,.cls-2{stroke-width:0px;}.cls-2{fill:#f7f7f8;}</style></defs><rect class="cls-2" x="0" width="1080" height="1080"/><path class="cls-1" d="M643.74,810.19c-1.35-1.2-3.25-1.55-4.94-.92-34.95,12.85-72.96,19.14-112.5,17.24-158.24-7.57-280.38-141.98-272.81-300.23,3.89-81.29,41.28-153.03,98.16-202.58,1.18-1.03,1.44-2.77.59-4.09l-13.56-21.12c-.99-1.55-3.1-1.92-4.57-.82-.63.47-1.24.92-1.67,1.18-9.33,5.87-20.74,6.59-30.54,2.55-2.32-.96-5.01-.32-6.76,1.48-4.13,4.26-8.17,8.64-12.08,13.12-1.65,1.9-1.88,4.61-.74,6.86,5.45,10.67,4.98,23.91-2.39,34.4-7.38,10.51-19.7,15.42-31.6,13.9-2.49-.31-4.97.8-6.2,3.01-2.94,5.26-5.74,10.6-8.4,16.05-1.08,2.2-.58,4.79,1.06,6.6,8.1,8.91,11.12,21.87,6.69,33.97-4.41,12.04-15,19.98-26.88,21.61-2.49.33-4.59,2.07-5.2,4.51-1.46,5.86-2.77,11.77-3.93,17.75-.46,2.4.68,4.77,2.73,6.09,10.09,6.51,16.32,18.23,15.18,31.02-1.14,12.76-9.3,23.16-20.33,27.81-2.31.97-3.89,3.18-3.85,5.69.09,6.1.34,12.16.75,18.18.16,2.44,1.88,4.43,4.2,5.18,11.44,3.67,20.5,13.38,22.72,26.04,2.2,12.64-3.01,24.82-12.49,32.17-2,1.54-2.95,4.09-2.26,6.51,1.65,5.78,3.45,11.51,5.4,17.17.82,2.38,3.05,3.93,5.56,4.05,11.97.63,23.2,7.65,28.6,19.27,5.39,11.62,3.53,24.71-3.7,34.25-1.52,2.01-1.78,4.71-.48,6.88,3.09,5.16,6.33,10.24,9.69,15.23,1.4,2.08,3.95,2.99,6.41,2.48,11.7-2.47,24.33,1.41,32.54,11.23,8.22,9.81,9.8,22.93,5.3,34.01-.95,2.32-.5,5,1.31,6.74,4.35,4.24,8.82,8.35,13.4,12.35,1.84,1.6,4.46,1.81,6.63.69,10.68-5.47,23.94-5.01,34.45,2.37,10.52,7.39,15.44,19.73,13.9,31.65-.31,2.42.76,4.82,2.9,6.01,5.28,2.94,10.63,5.75,16.09,8.43,2.26,1.11,4.93.61,6.8-1.07,8.91-8.02,21.81-10.99,33.85-6.59,12.03,4.4,19.95,14.97,21.59,26.83.35,2.49,2.08,4.59,4.51,5.19,5.82,1.46,11.7,2.76,17.64,3.92,2.46.48,4.91-.68,6.29-2.78,6.53-10.02,18.2-16.2,30.94-15.06,12.75,1.14,23.14,9.29,27.79,20.3.98,2.31,3.19,3.89,5.69,3.85,6.1-.09,12.17-.34,18.2-.75,2.44-.16,4.43-1.88,5.18-4.2,3.69-11.43,13.39-20.47,26.04-22.68,12.63-2.21,24.8,3,32.15,12.47,1.54,1.99,4.1,2.94,6.52,2.26,5.79-1.66,11.53-3.47,17.21-5.42,2.37-.82,3.89-3.04,4.03-5.54.46-8.63,4.24-16.87,10.67-22.81,1.42-1.32,1.46-3.54.01-4.83l-21.5-19.09Z"/><path class="cls-1" d="M880.06,516.77c-.17-2.51-1.93-4.59-4.32-5.37-11.4-3.7-20.42-13.39-22.62-26.02-2.21-12.65,3.02-24.83,12.52-32.18,1.99-1.54,2.95-4.09,2.26-6.52-1.65-5.77-3.45-11.49-5.39-17.14-.82-2.39-3.05-3.93-5.57-4.06-11.98-.6-23.22-7.63-28.63-19.27-5.42-11.67-3.5-24.81,3.8-34.37,1.48-1.94,1.75-4.56.5-6.66-3.14-5.25-6.42-10.4-9.83-15.45-1.37-2.02-3.85-2.89-6.24-2.38-11.74,2.53-24.45-1.35-32.69-11.2-8.25-9.86-9.81-23.05-5.23-34.17.93-2.26.52-4.86-1.24-6.56-4.33-4.21-8.79-8.32-13.35-12.31-1.9-1.66-4.61-1.89-6.86-.74-10.67,5.45-23.92,4.98-34.41-2.39-10.51-7.39-15.43-19.71-13.9-31.62.32-2.49-.8-4.97-3-6.2-5.21-2.91-10.52-5.69-15.9-8.33-2.27-1.12-4.95-.63-6.82,1.07-8.91,8.05-21.84,11.05-33.91,6.63-12.05-4.41-19.99-15.02-21.61-26.9-.34-2.5-2.07-4.61-4.51-5.22-5.8-1.45-11.66-2.76-17.58-3.91-2.47-.48-4.92.68-6.29,2.79-6.53,10.06-18.22,16.27-31,15.13-12.77-1.14-23.18-9.32-27.83-20.38-.97-2.31-3.18-3.9-5.71-3.85-6.02.08-12.01.32-17.98.73-2.51.17-4.59,1.93-5.37,4.33-3.7,11.41-13.39,20.44-26.03,22.66-12.69,2.22-24.92-3.06-32.25-12.62-1.49-1.94-3.95-2.89-6.31-2.22-5.83,1.65-11.58,3.46-17.28,5.42-2.39.82-3.93,3.06-4.05,5.57-.61,11.99-7.64,23.25-19.28,28.65-5.93,2.75-12.24,3.61-18.27,2.83l-82.81-73.56c-6.43-5.84-15.91,2.31-11.1,9.54l206.28,321.78c3.26,4.9-.25,11.45-6.14,11.46l-122.08.09c-6.74,0-9.94,8.31-4.95,12.84l407.84,362.28c6.43,5.84,15.91-2.31,11.1-9.54l-53.84-83.99c.98-8.12,4.93-15.9,11.71-21.57,9.81-8.21,22.93-9.79,34.01-5.29,2.33.94,5,.49,6.76-1.31,4.19-4.32,8.27-8.74,12.24-13.28,1.65-1.9,1.88-4.6.74-6.84-5.42-10.67-4.95-23.88,2.42-34.37,7.37-10.48,19.66-15.41,31.55-13.9,2.5.31,4.97-.82,6.2-3,2.92-5.24,5.71-10.55,8.35-15.95,1.11-2.27.63-4.95-1.06-6.82-8.04-8.9-11.02-21.81-6.61-33.85,4.41-12.04,15-19.98,26.86-21.61,2.49-.35,4.59-2.07,5.2-4.51,1.45-5.81,2.76-11.68,3.91-17.61.48-2.47-.68-4.92-2.78-6.29-10.04-6.53-16.23-18.21-15.1-30.97,1.14-12.76,9.31-23.16,20.34-27.81,2.31-.97,3.89-3.18,3.85-5.69-.08-6.04-.32-12.04-.73-18.01ZM585.9,556.21l122.08-.09c6.74,0,9.94-8.31,4.95-12.84l-231.91-206c21.23-6.18,43.8-9.11,67.09-8.21,116.83,4.51,208.33,104.23,202.74,221.01-3.07,64.26-34.57,120.42-81.76,156.92l-89.32-139.34c-3.26-4.9.25-11.45,6.14-11.46ZM826.52,553.7c-4.29,89.72-49.38,167.8-116.46,217.24l-21.39-33.36c56.71-42.69,94.72-109.32,98.37-185.77,6.53-136.44-98.79-252.34-235.23-258.87-35.95-1.72-70.48,4.34-101.95,16.68l-32.57-28.93c41.21-19.55,87.68-29.54,136.42-27.21,158.24,7.57,280.38,141.98,272.81,300.23Z"/><path class="cls-1" d="M393.33,388.28c1.08-1.04,1.28-2.68.47-3.94l-16.47-25.64c-1.05-1.63-3.33-1.95-4.76-.63-46.88,43.13-77.27,104.22-79.75,173.1-4.66,129.43,92.59,241.44,221.41,254.83,30.31,3.15,59.73.66,87.38-6.45,2.51-.65,3.29-3.82,1.35-5.55l-27.18-24.13c-1.12-.99-2.62-1.43-4.1-1.2-13.58,2.06-27.54,2.85-41.78,2.17-116.44-5.57-206.32-104.48-200.75-220.92,2.67-55.88,26.88-105.61,64.17-141.64Z"/></svg>