<?xml version="1.0" encoding="UTF-8"?><svg id="Layer_1" xmlns="http://www.w3.org/2000/svg" viewBox="0 0 1080 1080"><defs><style>.cls-1{fill:#38353b;}.cls-1,.cls-2{stroke-width:0px;}.cls-2{fill:#f7f7f8;}</style></defs><rect class="cls-2" x="0" width="1080" height="1080"/><path class="cls-1" d="M857.51,405.87c-17.36-41.04-42.2-77.89-73.84-109.53-31.64-31.64-68.49-56.49-109.53-73.84-42.49-17.97-87.62-27.08-134.14-27.08s-91.65,9.11-134.13,27.08c-41.04,17.36-77.89,42.2-109.53,73.84-31.64,31.64-56.49,68.5-73.84,109.53-17.97,42.49-27.08,87.62-27.08,134.13s9.11,91.64,27.08,134.13c17.36,41.03,42.2,77.89,73.84,109.53,31.64,31.64,68.49,56.49,109.53,73.85,42.49,17.97,87.62,27.08,134.13,27.08s91.64-9.11,134.14-27.08c41.04-17.36,77.89-42.2,109.53-73.85,31.64-31.64,56.49-68.49,73.84-109.53,17.97-42.49,27.08-87.62,27.08-134.13s-9.11-91.64-27.08-134.13ZM789.29,540c0-8.69-.47-17.54-1.38-26.34h.14c1.08-.02,2.15-.03,3.22-.03,23.14,0,46.33,2.15,68.94,6.38.42,6.84.63,13.56.63,19.99,0,42.14-7.98,83.02-23.72,121.51-1,.02-2.01.03-3,.03-24.1,0-47.79-3.78-70.44-11.22,16.99-34.36,25.61-71.47,25.61-110.32ZM238.68,429.34c12.21-33.3,29.83-64.19,52.39-91.82,24.55,6.7,48.49,16,71.22,27.65-28.27,28.73-49.29,63.98-60.86,102.09-24.03-6.58-45.7-19.67-62.76-37.92ZM627.02,525.44c-12.24-28.23-18.44-58.31-18.44-89.44,0-35.25,8.36-70.39,24.19-101.71,24.78,11.19,47.22,26.74,66.71,46.22,30.57,30.57,51.56,68.78,60.76,110.57-46.32,3.57-91.12,15.12-133.22,34.35ZM616.26,557.26c12.83,23.03,29.11,43.77,48.39,61.64,19.23,17.83,41.06,32.44,64.9,43.46-8.64,13.33-18.75,25.81-30.06,37.12-31.71,31.72-71.45,53.03-115,61.69,3.31-20.76,4.98-41.99,4.98-63.12,0-38.71-5.55-76.97-16.49-113.74,13.77-9.97,28.33-19.07,43.29-27.05ZM681.88,602.48c-17.63-16.13-32.52-34.88-44.29-55.75,39.99-18.17,82.55-28.97,126.54-32.12.94,8.45,1.42,16.98,1.42,25.39,0,35.87-8.11,70.08-24.11,101.68-21.86-9.85-41.89-23.04-59.55-39.2ZM442.76,420.8c-12.41,15.73-28.44,28.69-46.41,37.49-18.32,8.98-38.83,13.73-59.31,13.73-3.96,0-8-.18-12.03-.54,10.8-34,29.97-65.43,55.5-90.96,1.11-1.11,2.25-2.23,3.41-3.34,20.92,12.53,40.7,27.2,58.83,43.62ZM402.84,360.91c20.55-15.81,43.42-27.81,68.02-35.7.41,4.29.62,8.59.62,12.8,0,21.83-5.39,43.46-15.59,62.65-16.51-14.67-34.34-28.03-53.05-39.75ZM552.74,600.05c8.61,31.82,12.97,64.78,12.97,98.01,0,22.35-1.99,44.76-5.92,66.62-6.64.57-13.29.87-19.79.87-32.79,0-64.34-6.83-93.78-20.31,23.02-56.09,59.83-106.24,106.52-145.19ZM495.23,338.02c0-6.25-.38-12.6-1.14-18.89,15.05-3.1,30.49-4.66,45.91-4.66,24.15,0,47.87,3.77,70.54,11.2-16.82,34.07-25.7,72.2-25.7,110.34,0,34.8,7.02,68.43,20.88,99.96-13.87,7.37-27.51,15.7-40.58,24.8-19.63-53.33-51.22-102.84-91.45-143.27,14.1-24.05,21.54-51.51,21.54-79.47ZM314.51,545.06c-.37-16.91,1.13-33.83,4.47-50.31,6,.68,12.07,1.02,18.05,1.02,47.98,0,92.69-21.28,122.87-58.42,38.04,39.14,67.5,86.89,85.28,138.2-52.76,41.84-94.27,96.65-120.11,158.6-15.28-9.08-29.52-20.01-42.35-32.49-21.07-20.51-37.73-44.6-49.5-71.61-11.78-27.03-18.08-55.63-18.73-85ZM622.3,304.56c-26.36-9.19-54.04-13.85-82.3-13.85-16.97,0-33.96,1.72-50.52,5.11-6.7-24.04-19.21-46.4-36.26-64.83,28.12-7.85,57.31-11.83,86.78-11.83,45.89,0,90.1,9.42,131.43,27.99-19.24,16.62-35.76,35.93-49.14,57.41ZM466.46,301.68c-31.36,9.63-60.15,25.25-85.6,46.42-23.01-12.45-47.34-22.62-72.36-30.25,1.55-1.62,3.1-3.2,4.62-4.72,32.97-32.97,71.57-57.83,114.73-73.9,18.49,16.91,31.82,38.47,38.6,62.44ZM297.24,597.7c6.42,28.29,17.83,54.82,33.9,78.83,22.54,33.68,51.26,60.65,85.36,80.15-8.06,23.22-13.97,47.31-17.58,71.64-31.69-15.54-60.55-36.21-85.79-61.45-60.6-60.6-93.97-141.17-93.97-226.87,0-28.98,3.84-57.68,11.42-85.34,18.55,16.82,41,29.12,65.07,35.63-7.11,35.31-6.58,71.44,1.59,107.4ZM421.5,838.32c3.14-24.06,8.65-47.87,16.37-70.78,32.12,14.44,66.47,21.75,102.13,21.75,4.69,0,9.6-.15,14.61-.44-6.16,24.72-14.89,48.86-25.96,71.77-37.04-1.28-73.08-8.78-107.14-22.31ZM579.66,786.16c51.91-8.25,99.14-32.4,136.61-69.88,13.58-13.58,25.57-28.67,35.65-44.86,23.9,8.35,48.91,12.98,74.36,13.76-15.28,30.06-35.27,57.54-59.42,81.69-28.58,28.58-61.59,51.18-98.11,67.18-35.95,15.75-74.25,24.64-113.87,26.43,10.69-23.87,19.01-48.86,24.77-74.32ZM791.27,489.88c-2.11,0-4.4.02-6.97.07-9.68-47.77-33.19-91.4-68.02-126.23-20.95-20.95-45.04-37.8-71.62-50.11,13.41-20.67,30.66-39.6,50-54.86,26.4,14.57,50.69,32.86,72.21,54.38,49.91,49.91,81.32,112.93,90.9,182.32-21.86-3.7-44.23-5.57-66.5-5.57Z"/></svg>