<?xml version="1.0" encoding="UTF-8"?><svg id="Layer_1" xmlns="http://www.w3.org/2000/svg" viewBox="0 0 1080 1080"><defs><style>.cls-1{fill:#38353b;}.cls-1,.cls-2{stroke-width:0px;}.cls-2{fill:#f7f7f8;}</style></defs><rect class="cls-2" x="0" y="0" width="1080" height="1080"/><path class="cls-1" d="M692.52,608.86l125.3,125.3,22.69-22.69c2.52-2.52,2.52-6.61,0-9.14l-100.72-100.72c-2.42-2.42-5.71-3.79-9.14-3.79h-33.57c-5.76,0-8.64,6.96-4.57,11.03Z"/><path class="cls-1" d="M387.48,471.13l-125.3-125.3-22.69,22.69c-2.52,2.52-2.52,6.61,0,9.14l100.72,100.72c2.42,2.42,5.71,3.78,9.14,3.78h33.57c5.76,0,8.64-6.96,4.57-11.03Z"/><path class="cls-1" d="M377.66,840.51l100.72-100.72c2.42-2.42,3.78-5.71,3.78-9.14v-33.57c0-5.76-6.96-8.64-11.03-4.57l-125.3,125.3,22.69,22.69c2.52,2.52,6.61,2.52,9.14,0Z"/><path class="cls-1" d="M702.34,239.49l-100.72,100.72c-2.42,2.42-3.79,5.71-3.79,9.14v33.57c0,5.76,6.96,8.64,11.03,4.57l125.3-125.3-22.69-22.69c-2.52-2.52-6.61-2.52-9.14,0Z"/><path class="cls-1" d="M599.15,873.74h32.1c3.57,0,6.46-2.89,6.46-6.46v-142.44c0-3.43-1.36-6.71-3.79-9.14l-23.74-23.74c-4.07-4.07-11.03-1.19-11.03,4.57v177.21Z"/><path class="cls-1" d="M480.85,206.25h-32.1c-3.57,0-6.46,2.89-6.46,6.46v142.44c0,3.43,1.36,6.71,3.78,9.14l23.74,23.74c4.07,4.07,11.03,1.19,11.03-4.57v-177.21Z"/><path class="cls-1" d="M383.47,599.15h-177.21v32.1c0,3.57,2.89,6.46,6.46,6.46h142.44c3.43,0,6.71-1.36,9.14-3.78l23.74-23.74c4.07-4.07,1.19-11.03-4.57-11.03Z"/><path class="cls-1" d="M655.64,451.63l115.72-115.72c10.09-10.09,10.09-26.46,0-36.56l-8.99-8.99-133.98,133.99c-25.5,25.5-69.1,7.44-69.1-28.62v-163.64c0-14.27-11.57-25.85-25.85-25.85h-12.71v189.48c0,36.06-43.6,54.12-69.1,28.62l-115.71-115.71c-10.09-10.09-26.46-10.09-36.55,0l-8.99,8.99,133.99,134c25.5,25.5,7.44,69.1-28.62,69.1h-163.65c-14.27,0-25.85,11.57-25.85,25.85v12.71h189.49c36.06,0,54.12,43.6,28.62,69.1l-115.71,115.71c-10.09,10.09-10.09,26.46,0,36.55l8.99,8.99,133.98-133.98c25.5-25.5,69.1-7.44,69.1,28.62v163.64c0,14.27,11.57,25.85,25.85,25.85h12.71v-189.49c0-36.06,43.6-54.12,69.1-28.62l115.71,115.71c10.09,10.09,26.45,10.09,36.55,0l9-8.99-133.99-133.98c-25.5-25.5-7.44-69.1,28.62-69.1h163.64c14.27,0,25.85-11.57,25.85-25.85v-12.71h-189.49c-36.06,0-54.12-43.6-28.62-69.1Z"/><path class="cls-1" d="M715.71,446.08l-23.74,23.74c-4.07,4.07-1.19,11.03,4.57,11.03h177.21v-32.1c0-3.57-2.89-6.46-6.46-6.46h-142.44c-3.43,0-6.71,1.36-9.14,3.79Z"/></svg>