<?xml version="1.0" encoding="UTF-8"?><svg id="Layer_1" xmlns="http://www.w3.org/2000/svg" viewBox="0 0 1080 1080"><defs><style>.cls-1{fill:#38353b;}.cls-1,.cls-2{stroke-width:0px;}.cls-2{fill:#f7f7f8;}</style></defs><rect class="cls-2" x="0" width="1080" height="1080"/><path class="cls-1" d="M473.55,446.49c13.82-9.84,29.9-16.65,47.33-19.58v-38.74s-.01,0-.02,0v-230.79h-38.28v81.94c-41.91,7.9-80.62,24.36-114.55,47.49h-.07c-10.66,7.18-20.8,15.08-30.45,23.63l136.04,136.04ZM482.58,278.41v122.96l-2.32-2.32-84.68-84.68c26.25-16.75,55.61-29.15,87-35.96Z"/><path class="cls-1" d="M633.82,660.86l-27.36-27.36c-13.82,9.84-29.9,16.65-47.33,19.58v38.74s0,0,0,0v230.79h38.21v-81.94c41.91-7.9,80.77-24.36,114.7-47.49,10.66-7.25,20.81-15.15,30.45-23.64l-108.68-108.68s0,0,0,0ZM684.43,765.56c-26.25,16.82-55.61,29.22-87.08,36.11v-123.18l2.47,2.46,84.61,84.61Z"/><path class="cls-1" d="M840.6,482.58c-7.9-41.83-24.29-80.7-47.42-114.63-7.25-10.66-15.15-20.81-23.64-30.45l-64.92,64.92-71.12,71.13c9.84,13.82,16.65,29.9,19.58,47.33h38.74s0,0,0-.01h230.79v-38.28h-82.01ZM678.55,482.58l87-87c16.89,26.17,29.22,55.54,36.03,87h-123.04Z"/><path class="cls-1" d="M559.13,426.92c17.42,2.93,33.5,9.74,47.32,19.58l71.13-71.13h0s119.43-119.42,119.43-119.42l-27.05-27.12-57.91,57.92c-33.93-23.06-72.79-39.59-114.7-47.42-12.47-2.47-25.23-4.06-38.21-4.86v153.71h0v38.74ZM597.35,278.34c31.39,6.89,60.76,19.21,87,36.03l-84.61,84.68-2.39,2.39v-123.11Z"/><path class="cls-1" d="M310.46,742.43l108.61-108.61s.02.02.03.04l27.4-27.4c-9.84-13.82-16.65-29.9-19.58-47.33h-38.74s0,.01,0,.02h-230.79v38.21h81.87c7.98,41.91,24.43,80.69,47.56,114.63,7.25,10.66,15.15,20.81,23.64,30.45ZM401.45,597.35l-2.39,2.39-84.68,84.61c-16.82-26.17-29.22-55.54-36.03-87h123.11Z"/><path class="cls-1" d="M520.88,653.08c-17.43-2.93-33.51-9.74-47.33-19.58l-71.11,71.11h0l-119.46,119.46,27.04,27.04,57.93-57.93c33.93,23.13,72.72,39.59,114.63,47.49,12.47,2.47,25.3,4.06,38.28,4.86v-153.71s.01,0,.02,0v-38.74ZM482.58,801.59c-31.39-6.81-60.76-19.21-87-36.03l84.61-84.61,2.39-2.39v123.04Z"/><path class="cls-1" d="M239.33,482.58c-2.46,12.47-4.06,25.23-4.86,38.28h153.71s0,0,0,.01h38.74c2.93-17.43,9.74-33.51,19.59-47.33l-27.4-27.4s-.02.03-.04.04l-163.17-163.17-27.04,27.04,57.9,57.9c-23.06,33.93-39.51,72.79-47.42,114.63ZM401.38,482.58h-122.96c6.81-31.47,19.14-60.83,35.96-87l87,87Z"/><path class="cls-1" d="M793.18,711.98c23.13-33.93,39.59-72.72,47.49-114.63,2.39-12.47,3.99-25.23,4.79-38.21h-153.63s0-.01,0-.02h-38.74c-2.93,17.43-9.74,33.51-19.58,47.33l186.9,186.9h0s3.67,3.68,3.67,3.68l27.04-27.04-57.93-57.93v-.07ZM680.95,599.81l-2.47-2.46h123.18c-6.81,31.47-19.21,60.83-36.11,87.08l-84.61-84.61Z"/></svg>