<?xml version="1.0" encoding="UTF-8"?><svg id="Layer_1" xmlns="http://www.w3.org/2000/svg" viewBox="0 0 1080 1080"><defs><style>.cls-1{fill:#38353b;}.cls-1,.cls-2{stroke-width:0px;}.cls-2{fill:#f7f7f8;}</style></defs><rect class="cls-2" width="1080" height="1080"/><path class="cls-1" d="M451.68,735.21c.19-13.24-2.1-25.93-6.43-37.62-6.73-18.14-1.82-38.56,11.86-52.23l9.85-9.85c6.96-6.96,17.4-9.34,26.57-5.76,8.29,3.24,17.31,5.02,26.75,5.02s18.63-1.81,26.98-5.11c9.18-3.62,19.65-1.24,26.62,5.74l10.06,10.06c13.67,13.67,18.58,34.07,11.87,52.2-4.33,11.69-6.61,24.36-6.41,37.6.82,54.19,44.17,99.22,98.29,101.97,61.53,3.12,112.07-47.41,108.98-108.93-2.72-54.02-47.57-97.35-101.65-98.33-13.19-.24-25.83,1.99-37.49,6.25-18.08,6.61-38.37,1.66-51.98-11.94l-10.58-10.58c-6.93-6.93-9.29-17.28-5.81-26.43,3.1-8.13,4.8-16.95,4.8-26.18s-1.78-18.46-5.02-26.75c-3.58-9.17-1.21-19.61,5.76-26.57l9.84-9.84c13.68-13.68,34.11-18.59,52.24-11.85,12.85,4.78,26.91,7.08,41.59,6.34,52.76-2.68,95.62-45.55,98.3-98.31.74-14.67-1.56-28.72-6.33-41.57-6.74-18.14-1.83-38.56,11.85-52.25l3.76-3.76c11.82-11.82,28.8-17.29,45.15-13.78,5.92,1.27,12.13,1.77,18.52,1.4,34.37-2,62.35-29.84,64.48-64.21,2.57-41.4-31.56-75.52-72.97-72.95-34.36,2.14-62.2,30.11-64.19,64.49-.37,6.38.13,12.58,1.4,18.5,3.5,16.35-1.96,33.33-13.78,45.15l-4.03,4.03c-13.6,13.6-33.89,18.56-51.96,11.95-12.82-4.68-26.81-6.91-41.43-6.11-52.45,2.87-95.01,45.44-97.86,97.89-.79,14.6,1.43,28.59,6.11,41.39,6.6,18.07,1.65,38.36-11.95,51.97l-10.25,10.25c-6.94,6.94-17.33,9.31-26.49,5.79-8.2-3.15-17.1-4.89-26.41-4.89s-18.04,1.7-26.18,4.8c-9.15,3.49-19.51,1.12-26.43-5.81l-10.74-10.74c-13.63-13.63-18.54-33.96-11.92-52.06,4.24-11.59,6.47-24.16,6.24-37.27-.92-53.9-44.09-98.63-97.92-101.34-61.26-3.08-111.57,47.24-108.48,108.5,2.72,53.83,47.46,96.99,101.35,97.9,13.11.22,25.67-2,37.26-6.24,18.11-6.62,38.43-1.72,52.06,11.91l10.43,10.43c6.98,6.98,9.36,17.44,5.74,26.62-3.29,8.36-5.1,17.46-5.1,26.98s1.73,18.21,4.89,26.41c3.53,9.16,1.16,19.55-5.79,26.49l-10.25,10.25c-13.6,13.6-33.88,18.55-51.95,11.96-11.65-4.25-24.29-6.47-37.47-6.22-54.06,1.01-98.88,44.33-101.6,98.33-3.1,61.52,47.44,112.04,108.96,108.93,54.14-2.74,97.51-47.81,98.3-102.02Z"/></svg>