<?xml version="1.0" encoding="UTF-8"?><svg id="Layer_1" xmlns="http://www.w3.org/2000/svg" viewBox="0 0 1080 1080"><defs><style>.cls-1{fill:#38353b;}.cls-1,.cls-2{stroke-width:0px;}.cls-2{fill:#f7f7f8;}</style></defs><rect class="cls-2" x="0" y="0" width="1080" height="1080"/><path class="cls-1" d="M540,206.25c-50.95,0-92.25,41.3-92.25,92.25h0c0,26.05-21.12,47.17-47.16,47.17-8.55,0-16.56-2.27-23.47-6.25-.13-.07-.25-.14-.38-.22-13.52-7.78-29.2-12.22-45.92-12.22-50.95,0-92.25,41.3-92.25,92.25s41.3,92.25,92.25,92.25,92.17-41.22,92.25-92.1v-.15c0-.05,0-.1,0-.15.08-25.98,21.17-47,47.18-47,8.55,0,16.57,2.27,23.48,6.25,13.6,7.9,29.4,12.42,46.26,12.42,50.95,0,92.25-41.3,92.25-92.25s-41.3-92.25-92.25-92.25ZM330.82,476.24c-31.49,0-57.01-25.53-57.01-57.01s25.53-57.01,57.01-57.01,57.01,25.53,57.01,57.01-25.53,57.01-57.01,57.01ZM540,355.52c-31.49,0-57.01-25.53-57.01-57.01s25.53-57.01,57.01-57.01,57.01,25.53,57.01,57.01-25.53,57.01-57.01,57.01ZM749.18,326.98c-50.95,0-92.25,41.3-92.25,92.25h0c0,26.05-21.12,47.17-47.16,47.17-8.55,0-16.56-2.27-23.47-6.25-.13-.07-.25-.14-.38-.22-13.52-7.78-29.2-12.22-45.92-12.22-50.58,0-91.64,40.7-92.24,91.13,0,.37,0,.74,0,1.11v.09c0,26.05-21.12,47.16-47.16,47.16-8.55,0-16.56-2.27-23.47-6.25-.13-.07-.25-.14-.38-.22-13.52-7.78-29.2-12.22-45.92-12.22-50.95,0-92.25,41.3-92.25,92.25s41.3,92.25,92.25,92.25,92.17-41.22,92.25-92.1v-.15c0-.05,0-.1,0-.15.08-25.98,21.17-47,47.18-47,8.55,0,16.57,2.27,23.48,6.25,13.6,7.9,29.4,12.42,46.26,12.42,50.41,0,91.37-40.43,92.23-90.64,0-.14,0-.28,0-.42,0-.37,0-.75,0-1.12v-.15c0-.05,0-.1,0-.15.08-25.98,21.17-47,47.18-47,8.55,0,16.57,2.27,23.48,6.25,13.6,7.9,29.4,12.42,46.26,12.42,50.95,0,92.25-41.3,92.25-92.25s-41.3-92.25-92.25-92.25ZM330.82,717.78c-31.49,0-57.01-25.53-57.01-57.01s25.53-57.01,57.01-57.01,57.01,25.53,57.01,57.01-25.53,57.01-57.01,57.01ZM597.01,540.7c-.35,31.19-25.74,56.36-57.01,56.36s-56.66-25.17-57.01-56.36c0-.24,0-.49,0-.74,0-.22,0-.44,0-.66.35-31.18,25.74-56.36,57.01-56.36s56.66,25.17,57.01,56.36c0,.22,0,.44,0,.66,0,.24,0,.49,0,.74ZM749.18,476.25c-31.49,0-57.01-25.53-57.01-57.01s25.53-57.01,57.01-57.01,57.01,25.53,57.01,57.01-25.53,57.01-57.01,57.01ZM749.18,568.52c-50.95,0-92.25,41.3-92.25,92.25h0c0,26.05-21.12,47.17-47.16,47.17-8.55,0-16.56-2.27-23.47-6.25-.13-.07-.25-.14-.38-.22-13.52-7.78-29.2-12.22-45.92-12.22-50.95,0-92.25,41.3-92.25,92.25s41.3,92.25,92.25,92.25,92.17-41.22,92.25-92.1v-.15c0-.05,0-.1,0-.15.08-25.98,21.17-47,47.18-47,8.55,0,16.57,2.27,23.48,6.25,13.6,7.9,29.4,12.42,46.26,12.42,50.95,0,92.25-41.3,92.25-92.25s-41.3-92.25-92.25-92.25ZM540,838.51c-31.49,0-57.01-25.53-57.01-57.01s25.53-57.01,57.01-57.01,57.01,25.53,57.01,57.01-25.53,57.01-57.01,57.01ZM749.18,717.78c-31.49,0-57.01-25.53-57.01-57.01s25.53-57.01,57.01-57.01,57.01,25.53,57.01,57.01-25.53,57.01-57.01,57.01Z"/></svg>