<?xml version="1.0" encoding="UTF-8"?><svg id="Layer_1" xmlns="http://www.w3.org/2000/svg" viewBox="0 0 1080 1080"><defs><style>.cls-1{fill:#38353b;}.cls-1,.cls-2{stroke-width:0px;}.cls-2{fill:#f7f7f8;}</style></defs><rect class="cls-2" x="0" y="0" width="1080" height="1080"/><path class="cls-1" d="M229.62,342.47v121.6c0,4.45,1.77,8.72,4.92,11.87l130.06,130.06c1.64,1.64,1.64,4.3,0,5.93l-127.06,127.06c-4.37,4.37-4.37,11.46,0,15.83l18.66,18.66c4.37,4.37,11.46,4.37,15.83,0l217.59-217.59c8.78-8.78,8.78-23.01,0-31.79l-217.59-217.59c-4.37-4.37-11.46-4.37-15.83,0l-19.94,19.94c-4.25,4.25-6.64,10.01-6.64,16.02ZM433.57,542.97l-28.55,28.55c-1.64,1.64-4.3,1.64-5.93,0l-118.63-118.63c-1.32-1.32-2.06-3.12-2.06-4.99v-59.3c0-2.49,3.01-3.74,4.78-1.98l150.4,150.4c1.64,1.64,1.64,4.3,0,5.93Z"/><path class="cls-1" d="M342.47,850.38h121.6c4.45,0,8.72-1.77,11.87-4.92l130.06-130.06c1.64-1.64,4.3-1.64,5.93,0l127.06,127.06c4.37,4.37,11.46,4.37,15.83,0l18.66-18.66c4.37-4.37,4.37-11.46,0-15.83l-217.59-217.59c-8.78-8.78-23.01-8.78-31.79,0l-217.59,217.59c-4.37,4.37-4.37,11.46,0,15.83l19.94,19.94c4.25,4.25,10.01,6.64,16.02,6.64ZM542.97,646.43l28.55,28.55c1.64,1.64,1.64,4.3,0,5.93l-118.63,118.63c-1.32,1.32-3.12,2.06-4.99,2.06h-59.3c-2.49,0-3.74-3.01-1.98-4.78l150.4-150.4c1.64-1.64,4.3-1.64,5.93,0Z"/><path class="cls-1" d="M850.38,737.53v-121.6c0-4.45-1.77-8.72-4.92-11.87l-130.06-130.06c-1.64-1.64-1.64-4.3,0-5.93l127.06-127.06c4.37-4.37,4.37-11.46,0-15.83l-18.66-18.66c-4.37-4.37-11.46-4.37-15.83,0l-217.59,217.59c-8.78,8.78-8.78,23.01,0,31.79l217.59,217.59c4.37,4.37,11.46,4.37,15.83,0l19.94-19.94c4.25-4.25,6.64-10.01,6.64-16.02ZM646.43,537.03l28.55-28.55c1.64-1.64,4.3-1.64,5.93,0l118.63,118.63c1.32,1.32,2.06,3.12,2.06,4.99v59.3c0,2.49-3.01,3.74-4.78,1.98l-150.4-150.4c-1.64-1.64-1.64-4.3,0-5.93Z"/><path class="cls-1" d="M737.53,229.62h-121.6c-4.45,0-8.72,1.77-11.87,4.92l-130.06,130.06c-1.64,1.64-4.3,1.64-5.93,0l-127.06-127.06c-4.37-4.37-11.46-4.37-15.83,0l-18.66,18.66c-4.37,4.37-4.37,11.46,0,15.83l217.59,217.59c8.78,8.78,23.01,8.78,31.79,0l217.59-217.59c4.37-4.37,4.37-11.46,0-15.83l-19.94-19.94c-4.25-4.25-10.01-6.64-16.02-6.64ZM537.03,433.57l-28.55-28.55c-1.64-1.64-1.64-4.3,0-5.93l118.63-118.63c1.32-1.32,3.12-2.06,4.99-2.06h59.3c2.49,0,3.74,3.01,1.98,4.78l-150.4,150.4c-1.64,1.64-4.3,1.64-5.93,0Z"/></svg>