<?xml version="1.0" encoding="UTF-8"?><svg id="Layer_1" xmlns="http://www.w3.org/2000/svg" viewBox="0 0 99.43 21.15"><defs><style>.cls-1{fill:#524d56;stroke-width:0px;}</style></defs><path class="cls-1" d="M88.08,21.13c-.19,0-.35-.06-.48-.19-.13-.13-.2-.28-.2-.47,0-.18.06-.33.2-.46.13-.13.29-.19.48-.19s.34.06.47.19c.13.13.2.28.2.46,0,.12-.03.23-.1.33-.07.1-.14.18-.25.24-.1.06-.21.09-.33.09"/><path class="cls-1" d="M92.45,14.95h1.13v4.3c0,.4-.09.73-.26,1.02-.17.28-.41.5-.71.65-.3.15-.66.23-1.06.23-.37,0-.7-.07-1-.19-.29-.13-.53-.32-.7-.57-.17-.25-.26-.57-.26-.94h1.13c0,.17.04.31.11.43.07.12.17.21.3.27.13.06.28.1.45.1.18,0,.34-.04.46-.11.13-.07.22-.19.29-.33.07-.15.1-.33.1-.54v-4.3h0Z"/><path class="cls-1" d="M98.24,16.63c-.03-.26-.15-.46-.36-.61-.21-.15-.49-.22-.83-.22-.24,0-.44.03-.61.1-.17.07-.3.17-.39.28s-.13.25-.14.41c0,.13.03.24.09.33.06.09.14.17.25.24.1.07.22.12.35.16.13.04.26.08.39.11l.59.14c.24.05.47.13.69.22.22.09.42.21.59.35.18.14.31.31.42.5.1.2.15.43.15.69,0,.36-.09.67-.28.94-.19.27-.46.48-.82.64-.35.15-.79.23-1.29.23s-.92-.07-1.27-.22c-.36-.15-.64-.36-.84-.64-.2-.28-.31-.63-.33-1.03h1.12c.02.21.09.39.2.53.12.14.28.24.47.32.19.07.41.1.64.1s.46-.04.65-.11c.19-.07.33-.17.44-.3.11-.13.16-.28.16-.46,0-.16-.05-.29-.14-.4-.1-.1-.23-.19-.4-.26-.17-.07-.37-.13-.59-.19l-.72-.18c-.52-.13-.93-.33-1.23-.59-.3-.26-.45-.61-.45-1.05,0-.36.1-.68.3-.95.2-.27.48-.48.82-.63.35-.15.74-.22,1.18-.22s.84.07,1.17.22c.34.15.6.36.8.62.19.27.29.57.3.92h-1.1Z"/><polygon class="cls-1" points="69.26 0 87.41 0 87.41 3.36 80.21 3.36 80.21 20.98 76.61 20.98 76.61 3.36 69.26 3.36 69.26 0"/><polygon class="cls-1" points="39.41 0 39.41 3.36 24.87 3.36 24.87 8.75 36.57 8.75 36.57 12.1 24.87 12.1 24.87 17.63 39.41 17.63 39.41 20.98 21.27 20.98 21.27 3.36 21.27 3.36 21.27 0 39.41 0"/><polygon class="cls-1" points="48.48 .02 43.76 .02 60.64 20.99 65.36 20.99 56.92 10.51 65.35 .03 60.64 .04 54.56 7.58 48.48 .02"/><polygon class="cls-1" points="53.31 15 50.95 12.07 43.75 21 48.48 21 53.31 15"/><polygon class="cls-1" points="21.39 20.98 4.5 0 0 0 0 20.97 3.6 20.97 3.6 4.48 16.87 20.98 21.39 20.98"/></svg>