<?xml version="1.0" encoding="UTF-8"?><svg id="Layer_1" xmlns="http://www.w3.org/2000/svg" viewBox="0 0 1080 1080"><defs><style>.cls-1{fill:#4c5967;}.cls-1,.cls-2,.cls-3{stroke-width:0px;}.cls-2{fill:#fbb800;}.cls-3{fill:#f7f7f8;}</style></defs><rect class="cls-3" width="1080" height="1080"/><path class="cls-1" d="M549.88,524.03l-6.03,15.97h-13.57l27.23-69.43h12.66l27.23,69.43h-14.27l-6.03-15.97h-27.23ZM573.9,513.58l-10.35-28.03-10.45,28.03h20.8Z"/><path class="cls-1" d="M626.45,470.67c12.06,0,21,3.92,26.32,8.74,5.43,4.72,11.05,12.66,11.05,25.82s-5.63,21.4-11.05,26.12c-5.32,4.72-14.27,8.64-26.32,8.64h-22.21v-69.33h22.21ZM643.43,523.22c3.31-3.22,6.93-8.54,6.93-17.89s-3.62-14.87-6.93-18.09c-3.42-3.11-8.94-5.63-16.48-5.63h-9.65v47.32h9.65c7.53,0,13.06-2.51,16.48-5.73Z"/><path class="cls-1" d="M687.25,470.67v69.33h-13.06v-69.33h13.06Z"/><path class="cls-1" d="M723.62,470.67c6.93,0,12.96,1.41,17.38,5.12,4.52,3.72,7.23,8.64,7.23,15.67s-2.71,12.06-7.23,15.77c-4.42,3.72-10.45,5.43-17.38,5.43h-9.14v27.33h-13.16v-69.33h22.31ZM730.96,499.81c2.21-1.61,3.82-4.42,3.82-8.34s-1.91-6.63-4.12-8.24-4.92-2.31-8.94-2.31h-7.34v21.5h7.64c4.02,0,6.73-1,8.94-2.61Z"/><path class="cls-1" d="M769.94,511.87v28.13h-13.06v-69.33h22.31c7.33,0,13.16,1.61,17.48,4.92,4.32,3.32,7.44,8.64,7.44,15.27,0,11.96-6.53,16.78-14.97,19.39l18.69,29.74h-15.27l-16.38-28.13h-6.23ZM786.62,499.41c2.61-1.91,4.02-4.22,4.02-8.14s-1.4-6.33-4.02-8.14c-2.51-1.91-5.73-2.21-9.95-2.21h-6.83v20.7h6.83c4.22,0,7.44-.3,9.95-2.21Z"/><path class="cls-1" d="M552.31,592.36l-2.89-7.33h-12.05l-2.89,7.33h-4.15l11.44-28.18h3.46l11.48,28.18h-4.4ZM543.39,569.11l-4.93,12.62h9.85l-4.93-12.62Z"/><path class="cls-1" d="M565.13,592.8c-3.26,0-5.9-1.34-7.53-3.46l1.87-2.28c1.63,1.71,3.91,2.77,5.7,2.77s3.71-.65,3.71-2.77-3.05-2.77-4.36-3.22c-2.85-.98-5.7-2-5.7-5.66s3.09-5.54,6.51-5.54,5.37,1.22,6.6,2.52l-1.63,2.4c-1.14-1.18-3.01-2.08-4.88-2.08s-3.09.81-3.09,2.4,1.87,2.28,3.78,2.89c1.06.37,1.79.61,2.61.94,2.16.89,3.79,2.44,3.79,4.97,0,4.15-3.62,6.11-7.37,6.11Z"/><path class="cls-1" d="M581.98,592.8c-3.26,0-5.9-1.34-7.53-3.46l1.87-2.28c1.63,1.71,3.91,2.77,5.7,2.77s3.71-.65,3.71-2.77-3.05-2.77-4.36-3.22c-2.85-.98-5.7-2-5.7-5.66s3.09-5.54,6.51-5.54,5.37,1.22,6.6,2.52l-1.63,2.4c-1.14-1.18-3.01-2.08-4.88-2.08s-3.1.81-3.1,2.4,1.87,2.28,3.79,2.89c1.06.37,1.79.61,2.61.94,2.16.89,3.79,2.44,3.79,4.97,0,4.15-3.62,6.11-7.37,6.11Z"/><path class="cls-1" d="M602.12,592.8c-5.78,0-10.26-4.03-10.26-10.06s4.48-10.1,10.26-10.1,10.22,4.11,10.22,10.1-4.48,10.06-10.22,10.06ZM602.12,575.82c-3.91,0-6.31,3.01-6.31,6.8s2.4,6.84,6.31,6.84,6.27-3.01,6.27-6.84-2.4-6.8-6.27-6.8Z"/><path class="cls-1" d="M624.88,592.8c-5.21,0-9.77-3.91-9.77-10.1s4.76-10.06,9.89-10.06,7.29,2.52,7.49,2.77l-1.38,2.85c-.65-.65-2.36-2.36-5.78-2.36s-6.27,2.61-6.27,6.68,2.52,6.88,6.27,6.88,5.9-2.44,5.9-2.44l1.38,2.85c-.57.57-2.57,2.93-7.74,2.93Z"/><path class="cls-1" d="M637.86,569.07c-1.51,0-2.57-1.02-2.57-2.4s1.06-2.4,2.57-2.4,2.52,1.02,2.52,2.4-1.06,2.4-2.52,2.4ZM635.91,592.36v-19.34h3.91v19.34h-3.91Z"/><path class="cls-1" d="M656.59,592.36l-.04-2.44c-.77.81-2.61,2.89-6.15,2.89s-6.68-2.24-6.68-5.99,3.1-5.7,7.57-5.9l5.17-.2v-.77c0-2.93-1.99-4.4-4.8-4.4s-5.17,1.26-5.82,1.67l-1.18-2.61c1.43-.81,4.03-1.95,7.25-1.95,5.66,0,8.47,2.85,8.47,8.47v11.24h-3.78ZM651.98,583.36c-3.13.16-4.4,1.51-4.4,3.34s1.42,3.34,3.99,3.34,4.19-1.71,4.93-2.81v-4.15l-4.52.28Z"/><path class="cls-1" d="M675.31,592.72l-3.01,5.54h-3.83l3.87-5.58c-4.56-.65-8.27-4.4-8.27-9.98,0-6.23,4.76-10.06,9.89-10.06s7.29,2.52,7.49,2.77l-1.38,2.85c-.65-.65-2.36-2.36-5.78-2.36s-6.27,2.61-6.27,6.68,2.57,6.88,6.31,6.88,5.86-2.44,5.86-2.44l1.38,2.85c-.53.49-2.16,2.44-6.27,2.85Z"/><path class="cls-1" d="M695.94,592.36l-.04-2.44c-.77.81-2.61,2.89-6.15,2.89s-6.68-2.24-6.68-5.99,3.1-5.7,7.57-5.9l5.17-.2v-.77c0-2.93-1.99-4.4-4.8-4.4s-5.17,1.26-5.82,1.67l-1.18-2.61c1.43-.81,4.03-1.95,7.25-1.95,5.66,0,8.47,2.85,8.47,8.47v11.24h-3.78ZM694.76,569.27c-1.51,0-2.4-.65-2.89-.9-.49-.28-1.42-1.02-2.4-1.02s-1.59.81-1.79,1.75l-1.91-.41c.16-2.24,1.91-3.79,3.75-3.79,1.55,0,2.44.69,2.93.94.45.25,1.42.98,2.36.98s1.63-.81,1.79-1.71l1.91.41c-.16,2.24-1.91,3.75-3.75,3.75ZM691.34,583.36c-3.14.16-4.4,1.51-4.4,3.34s1.42,3.34,3.99,3.34,4.19-1.71,4.93-2.81v-4.15l-4.52.28Z"/><path class="cls-1" d="M713.69,592.8c-5.78,0-10.26-4.03-10.26-10.06s4.48-10.1,10.26-10.1,10.22,4.11,10.22,10.1-4.48,10.06-10.22,10.06ZM713.69,575.82c-3.91,0-6.31,3.01-6.31,6.8s2.4,6.84,6.31,6.84,6.27-3.01,6.27-6.84-2.4-6.8-6.27-6.8Z"/><path class="cls-1" d="M752.68,592.36v-3.09h-.08c-1.59,2.36-3.99,3.54-6.8,3.54-5.74,0-9.4-4.4-9.4-10.14s3.66-10.02,9.32-10.02c3.14,0,5.41,1.38,6.76,3.38h.08v-11.77h3.87v28.09h-3.75ZM746.53,575.82c-3.87,0-6.15,2.93-6.15,6.8s2.28,6.84,6.15,6.84,6.15-2.97,6.15-6.84-2.28-6.8-6.15-6.8Z"/><path class="cls-1" d="M770.96,592.8c-5.78,0-10.26-4.03-10.26-10.06s4.48-10.1,10.26-10.1,10.22,4.11,10.22,10.1-4.48,10.06-10.22,10.06ZM770.96,575.82c-3.91,0-6.31,3.01-6.31,6.8s2.4,6.84,6.31,6.84,6.27-3.01,6.27-6.84-2.4-6.8-6.27-6.8Z"/><path class="cls-1" d="M790.9,592.8c-3.26,0-5.9-1.34-7.53-3.46l1.87-2.28c1.63,1.71,3.91,2.77,5.7,2.77s3.71-.65,3.71-2.77-3.05-2.77-4.36-3.22c-2.85-.98-5.7-2-5.7-5.66s3.09-5.54,6.51-5.54,5.37,1.22,6.6,2.52l-1.63,2.4c-1.14-1.18-3.01-2.08-4.88-2.08s-3.09.81-3.09,2.4,1.87,2.28,3.78,2.89c1.06.37,1.79.61,2.61.94,2.16.89,3.79,2.44,3.79,4.97,0,4.15-3.62,6.11-7.37,6.11Z"/><path class="cls-1" d="M814.91,598.22c-.85,1.18-2.36,2.28-4.52,2.28-1.63,0-2.81-.41-3.05-.57l.08-3.01c.41.16,1.18.41,2.16.41,2.36,0,2.65-2.28,2.65-4.93v-28.13h3.95v28.01c0,2.77-.45,4.68-1.26,5.94Z"/><path class="cls-1" d="M830.91,592.8c-5.78,0-10.26-4.03-10.26-10.06s4.48-10.1,10.26-10.1,10.22,4.11,10.22,10.1-4.48,10.06-10.22,10.06ZM830.91,575.82c-3.91,0-6.31,3.01-6.31,6.8s2.4,6.84,6.31,6.84,6.27-3.01,6.27-6.84-2.4-6.8-6.27-6.8Z"/><path class="cls-1" d="M855.41,576.6h-.16c-.36-.16-1.06-.41-2.12-.41-3.5,0-4.36,3.71-4.36,6.51v9.65h-3.91v-19.34h3.91l-.04,2.97h.12c.94-2.2,2.69-3.34,4.76-3.34,1.3,0,2.04.33,2.04.33l-.25,3.62Z"/><path class="cls-1" d="M871.41,592.36v-10.79c0-3.26-.57-5.7-4.03-5.7s-4.97,3.05-4.97,6.76v9.73h-3.91v-19.34h3.91l-.04,3.05h.12c1.02-1.91,3.09-3.42,5.9-3.42,5.5,0,6.92,3.62,6.92,8.27v11.44h-3.91Z"/><path class="cls-1" d="M891.6,592.36l-.04-2.44c-.77.81-2.61,2.89-6.15,2.89s-6.68-2.24-6.68-5.99,3.1-5.7,7.57-5.9l5.17-.2v-.77c0-2.93-1.99-4.4-4.8-4.4s-5.17,1.26-5.82,1.67l-1.18-2.61c1.43-.81,4.03-1.95,7.25-1.95,5.66,0,8.47,2.85,8.47,8.47v11.24h-3.78ZM886.99,583.36c-3.13.16-4.4,1.51-4.4,3.34s1.42,3.34,3.99,3.34,4.19-1.71,4.93-2.81v-4.15l-4.52.28Z"/><path class="cls-1" d="M901.69,569.07c-1.51,0-2.57-1.02-2.57-2.4s1.06-2.4,2.57-2.4,2.52,1.02,2.52,2.4-1.06,2.4-2.52,2.4ZM899.73,592.36v-19.34h3.91v19.34h-3.91Z"/><path class="cls-1" d="M914.35,592.8c-3.26,0-5.9-1.34-7.53-3.46l1.87-2.28c1.63,1.71,3.91,2.77,5.7,2.77s3.71-.65,3.71-2.77-3.05-2.77-4.36-3.22c-2.85-.98-5.7-2-5.7-5.66s3.09-5.54,6.51-5.54,5.37,1.22,6.6,2.52l-1.63,2.4c-1.14-1.18-3.01-2.08-4.88-2.08s-3.1.81-3.1,2.4,1.87,2.28,3.79,2.89c1.06.37,1.79.61,2.61.94,2.16.89,3.79,2.44,3.79,4.97,0,4.15-3.62,6.11-7.37,6.11Z"/><path class="cls-1" d="M548.59,628.83h-14.9c.2,3.83,2.65,6.15,6.23,6.15s5.94-1.95,6.39-2.24l1.63,2.24c-.24.2-2.73,3.05-8.51,3.05s-9.69-3.99-9.69-10.14,4.44-10.02,9.81-10.02,9.16,3.83,9.16,9.24c0,.73-.12,1.71-.12,1.71ZM539.43,620.68c-3.87,0-5.58,3.22-5.7,5.54h11.28c-.04-2.16-1.67-5.54-5.58-5.54Z"/><path class="cls-1" d="M569.47,625.53h-3.95v12.05h-3.95v-28.09h7.9c2.73,0,5.09.53,6.8,2,1.75,1.51,2.73,3.34,2.73,6.02,0,5.66-4.4,8.02-9.53,8.02ZM569.15,612.7h-3.62v9.61h3.62c3.13,0,5.78-1.26,5.78-4.81s-2.65-4.8-5.78-4.8Z"/><path class="cls-1" d="M589.46,638.03c-5.78,0-10.26-4.03-10.26-10.06s4.48-10.1,10.26-10.1,10.22,4.11,10.22,10.1-4.48,10.06-10.22,10.06ZM589.46,621.05c-3.91,0-6.31,3.01-6.31,6.8s2.4,6.84,6.31,6.84,6.27-3.01,6.27-6.84-2.4-6.8-6.27-6.8Z"/><path class="cls-1" d="M613.47,621.82h-.16c-.36-.16-1.06-.41-2.12-.41-3.5,0-4.36,3.71-4.36,6.51v9.65h-3.91v-19.34h3.91l-.04,2.97h.12c.94-2.2,2.69-3.34,4.76-3.34,1.3,0,2.04.33,2.04.33l-.25,3.62Z"/><path class="cls-1" d="M623.4,638.03c-4.84,0-5.09-3.99-5.09-7.78v-8.84h-2.85v-3.13h2.85v-5.78h3.91v5.78h4.64v3.13h-4.64v8.75c0,1.63.04,2.73.49,3.54.37.61.9.98,2,.98s1.99-.45,1.99-.45l.25,3.14c-1.02.45-2.2.65-3.54.65Z"/><path class="cls-1" d="M641.43,637.58l-.04-2.44c-.77.81-2.61,2.89-6.15,2.89s-6.68-2.24-6.68-5.99,3.1-5.7,7.57-5.9l5.17-.2v-.77c0-2.93-1.99-4.4-4.8-4.4s-5.17,1.26-5.82,1.67l-1.18-2.61c1.43-.81,4.03-1.95,7.25-1.95,5.66,0,8.47,2.85,8.47,8.47v11.24h-3.78ZM636.83,628.58c-3.14.16-4.4,1.51-4.4,3.34s1.42,3.34,3.99,3.34,4.19-1.71,4.93-2.81v-4.15l-4.52.28Z"/><path class="cls-1" d="M651.69,614.29c-1.51,0-2.57-1.02-2.57-2.4s1.06-2.4,2.57-2.4,2.52,1.02,2.52,2.4-1.06,2.4-2.52,2.4ZM649.73,637.58v-19.34h3.91v19.34h-3.91Z"/><path class="cls-1" d="M664.84,638.03c-3.26,0-5.9-1.34-7.53-3.46l1.87-2.28c1.63,1.71,3.91,2.77,5.7,2.77s3.71-.65,3.71-2.77-3.05-2.77-4.36-3.22c-2.85-.98-5.7-2-5.7-5.66s3.09-5.54,6.51-5.54,5.37,1.22,6.6,2.52l-1.63,2.4c-1.14-1.18-3.01-2.08-4.88-2.08s-3.09.81-3.09,2.4,1.87,2.28,3.78,2.89c1.06.37,1.79.61,2.61.94,2.16.89,3.79,2.44,3.79,4.97,0,4.15-3.62,6.11-7.37,6.11Z"/><path class="cls-1" d="M698.62,637.58v-3.09h-.08c-1.59,2.36-3.99,3.54-6.8,3.54-5.74,0-9.4-4.4-9.4-10.14s3.66-10.02,9.32-10.02c3.14,0,5.41,1.38,6.76,3.38h.08v-11.77h3.87v28.09h-3.75ZM692.47,621.05c-3.87,0-6.15,2.93-6.15,6.8s2.28,6.84,6.15,6.84,6.15-2.97,6.15-6.84-2.28-6.8-6.15-6.8Z"/><path class="cls-1" d="M716.89,638.03c-5.78,0-10.26-4.03-10.26-10.06s4.48-10.1,10.26-10.1,10.22,4.11,10.22,10.1-4.48,10.06-10.22,10.06ZM716.89,621.05c-3.91,0-6.31,3.01-6.31,6.8s2.4,6.84,6.31,6.84,6.27-3.01,6.27-6.84-2.4-6.8-6.27-6.8Z"/><path class="cls-1" d="M746.61,625.53h-3.95v12.05h-3.95v-28.09h7.9c2.73,0,5.09.53,6.8,2,1.75,1.51,2.73,3.34,2.73,6.02,0,5.66-4.4,8.02-9.53,8.02ZM746.28,612.7h-3.62v9.61h3.62c3.13,0,5.78-1.26,5.78-4.81s-2.65-4.8-5.78-4.8Z"/><path class="cls-1" d="M771.15,637.58l-.04-2.44c-.77.81-2.61,2.89-6.15,2.89s-6.68-2.24-6.68-5.99,3.1-5.7,7.57-5.9l5.17-.2v-.77c0-2.93-1.99-4.4-4.8-4.4s-5.17,1.26-5.82,1.67l-1.18-2.61c1.43-.81,4.03-1.95,7.25-1.95,5.66,0,8.47,2.85,8.47,8.47v11.24h-3.78ZM766.55,628.58c-3.14.16-4.4,1.51-4.4,3.34s1.42,3.34,3.99,3.34,4.19-1.71,4.93-2.81v-4.15l-4.52.28Z"/><path class="cls-1" d="M790.16,621.82h-.16c-.36-.16-1.06-.41-2.12-.41-3.5,0-4.36,3.71-4.36,6.51v9.65h-3.91v-19.34h3.91l-.04,2.97h.12c.94-2.2,2.69-3.34,4.76-3.34,1.3,0,2.04.33,2.04.33l-.25,3.62Z"/><path class="cls-1" d="M804.48,637.58l-.04-2.44c-.77.81-2.61,2.89-6.15,2.89s-6.68-2.24-6.68-5.99,3.1-5.7,7.57-5.9l5.17-.2v-.77c0-2.93-1.99-4.4-4.8-4.4s-5.17,1.26-5.82,1.67l-1.18-2.61c1.43-.81,4.03-1.95,7.25-1.95,5.66,0,8.47,2.85,8.47,8.47v11.24h-3.78ZM799.88,628.58c-3.13.16-4.4,1.51-4.4,3.34s1.42,3.34,3.99,3.34,4.19-1.71,4.93-2.81v-4.15l-4.52.28Z"/><path class="cls-1" d="M825.85,637.58v-10.79c0-3.26-.57-5.7-4.03-5.7s-4.97,3.05-4.97,6.76v9.73h-3.91v-19.34h3.91l-.04,3.05h.12c1.02-1.91,3.09-3.42,5.9-3.42,5.5,0,6.92,3.62,6.92,8.27v11.44h-3.91Z"/><path class="cls-1" d="M846.2,637.58l-.04-2.44c-.77.81-2.61,2.89-6.15,2.89s-6.68-2.24-6.68-5.99,3.1-5.7,7.57-5.9l5.17-.2v-.77c0-2.93-1.99-4.4-4.8-4.4s-5.17,1.26-5.82,1.67l-1.18-2.61c1.43-.81,4.03-1.95,7.25-1.95,5.66,0,8.47,2.85,8.47,8.47v11.24h-3.78ZM841.6,628.58c-3.14.16-4.4,1.51-4.4,3.34s1.42,3.34,3.99,3.34,4.19-1.71,4.93-2.81v-4.15l-4.52.28ZM842.34,615.39h-2.93l3.62-5.9h3.78l-4.48,5.9Z"/><path class="cls-2" d="M455.13,487.65h-19.94l14.1-14.1c1.64-1.64,1.64-4.29,0-5.92l-68.12-68.12c-1.64-1.64-4.29-1.64-5.92,0l-14.1,14.1v-19.94c0-2.31-1.87-4.19-4.19-4.19h-96.33c-2.31,0-4.19,1.88-4.19,4.19v19.94l-14.1-14.1c-1.64-1.64-4.29-1.64-5.92,0l-68.12,68.12c-1.64,1.64-1.64,4.29,0,5.92l14.1,14.1h-19.94c-2.31,0-4.19,1.87-4.19,4.19v96.33c0,2.31,1.87,4.19,4.19,4.19h19.94l-14.1,14.1c-1.64,1.64-1.64,4.29,0,5.92l68.12,68.12c1.64,1.64,4.29,1.64,5.92,0l14.1-14.1v19.94c0,2.31,1.88,4.19,4.19,4.19h96.33c2.31,0,4.19-1.88,4.19-4.19v-19.94l14.1,14.1c1.64,1.64,4.29,1.64,5.92,0l68.12-68.12c1.64-1.64,1.64-4.29,0-5.92l-14.1-14.1h19.94c2.31,0,4.19-1.88,4.19-4.19v-96.33c0-2.31-1.88-4.19-4.19-4.19ZM378.21,415.06l55.53,55.53-17.06,17.06h-111.06c20.62-20.62,51.88-51.88,72.59-72.59ZM269.54,402.57h78.53v24.13c-22.7,22.7-56.12,56.12-78.53,78.53v-102.66ZM239.39,415.06l17.06,17.06v111.06c-21.98-21.98-50.65-50.65-72.59-72.59l55.53-55.53ZM171.37,579.27v-78.53h24.12c22.42,22.42,56.37,56.37,78.53,78.53h-102.65ZM239.39,664.94l-55.53-55.53,17.06-17.06h111.06l-3.17,3.17-69.41,69.41ZM348.07,677.43h-78.53v-24.12c22.42-22.42,56.37-56.37,78.53-78.53v102.65ZM347.53,546.54c-.96,5.8-3.3,11.43-6.72,16.21h0c-2.52,3.54-5.71,6.73-9.25,9.25l.38.38-.38-.38c-15.39,11.09-37.2,9.27-50.52-4.24-13.51-13.31-15.33-35.14-4.24-50.52l-.38-.38.38.38c12.45-17.62,37.23-21.82,54.76-9.25h0c3.54,2.52,6.73,5.71,9.25,9.25h0l.38-.38h0s-.38.38-.38.38c6.02,8.35,8.45,19.16,6.72,29.3ZM378.21,664.94l-17.06-17.06v-111.06c21.92,21.92,50.72,50.72,72.59,72.59l-55.53,55.53ZM446.23,579.27h-24.12c-19.57-19.57-58.96-58.96-78.53-78.53h102.65v78.53Z"/></svg>