<?xml version="1.0" encoding="UTF-8"?><svg id="Layer_1" xmlns="http://www.w3.org/2000/svg" viewBox="0 0 1080 1080"><defs><style>.cls-1{fill:#343d40;}.cls-1,.cls-2,.cls-3{stroke-width:0px;}.cls-4{stroke:#c67937;stroke-miterlimit:10;stroke-width:.49px;}.cls-4,.cls-2{fill:#c67937;}.cls-3{fill:#f7f7f8;}</style></defs><rect class="cls-3" y="0" width="1080" height="1080"/><path class="cls-2" d="M391.7,372.23c0,81.9,66.4,148.3,148.3,148.3h1.16c81.38-.62,147.14-66.78,147.14-148.3h-296.59ZM619.36,392.81h46.73c-2.13,13.2-6.3,25.9-12.36,37.69h-40.02c2.74-11.85,4.66-24.49,5.65-37.69ZM551.45,392.95h47.14c-1.06,13.13-3.14,25.77-6.16,37.55h-40.98v-37.55ZM528.55,392.95v37.55h-40.67c-3.02-11.81-5.13-24.49-6.21-37.55h46.88ZM460.87,392.81c.99,13.19,2.91,25.84,5.65,37.69h-40.24c-6.06-11.79-10.22-24.49-12.36-37.69h46.95ZM449.68,462.55c-3.66-3.66-7.06-7.48-10.2-11.48h32.85c5.18,15.29,11.85,28.71,19.6,39.57-15.62-6.34-29.96-15.8-42.25-28.09ZM528.55,496.91c-9.5-4.69-18.88-14.97-26.82-29.71-2.7-5-5.15-10.39-7.36-16.13h34.17v45.84ZM578.75,466.72c-8.05,15.11-17.61,25.62-27.3,30.32v-45.96h34.44c-2.15,5.52-4.53,10.75-7.14,15.65ZM630.64,462.23c-12.26,12.34-26.6,21.89-42.24,28.28,7.71-10.83,14.35-24.2,19.5-39.44h32.61c-3.05,3.88-6.34,7.6-9.87,11.16ZM391.7,324.24h296.59v20.57h-296.59v-20.57ZM688.3,296.81h-296.59s0-20.57,0-20.57h296.59s0,20.57,0,20.57ZM688.3,248.81h-296.59s0-20.57,0-20.57h296.59s0,20.57,0,20.57Z"/><path class="cls-1" d="M335.21,582.69c8.39,0,14.78,2.02,19.17,6.05s6.59,9.64,6.59,16.82c0,3.75-.94,7.14-2.82,10.18-1.88,3.03-4.38,5.23-7.49,6.59v.48c8.39,3.51,12.58,10.02,12.58,19.52,0,7.66-2.32,13.61-6.95,17.84-4.63,4.23-11.74,6.35-21.33,6.35h-28.04v-83.82h28.28ZM321.91,617.42h12.82c7.35,0,11.03-3.59,11.03-10.78s-3.68-10.78-11.03-10.78h-12.82v21.55ZM321.91,653.34h11.62c5.03,0,8.69-.86,10.97-2.58,2.28-1.72,3.42-4.73,3.42-9.04s-1.12-7.24-3.35-9.04c-2.24-1.8-5.63-2.69-10.19-2.69h-12.46v23.35Z"/><path class="cls-1" d="M389.25,647.95l-5.87,18.56h-15.22l27.08-83.82h14.14l27.08,83.82h-15.34l-5.75-18.56h-26.12ZM411.9,634.66l-9.35-30.77h-.48l-9.35,30.77h19.17Z"/><path class="cls-1" d="M446.29,582.69h25.29c20.05,0,30.08,8.86,30.08,26.58,0,12.21-4.87,20.24-14.62,24.07l18.1,33.17h-16.78l-15.7-30.77h-11.38v30.77h-14.98v-83.82ZM461.27,622.57h10.79c4.79,0,8.39-1.02,10.78-3.05,2.4-2.04,3.59-5.45,3.59-10.24,0-5.03-1.26-8.52-3.77-10.48-2.52-1.96-6.45-2.93-11.81-2.93h-9.59v26.7Z"/><path class="cls-1" d="M517.71,582.69h25.29c20.05,0,30.08,8.86,30.08,26.58,0,12.21-4.87,20.24-14.62,24.07l18.1,33.17h-16.78l-15.7-30.77h-11.38v30.77h-14.98v-83.82ZM532.69,622.57h10.79c4.79,0,8.39-1.02,10.78-3.05,2.4-2.04,3.59-5.45,3.59-10.24,0-5.03-1.26-8.52-3.77-10.48-2.52-1.96-6.45-2.93-11.81-2.93h-9.59v26.7Z"/><path class="cls-1" d="M603.75,653.34h32v13.17h-47.09v-83.82h47.09v13.17h-32v21.31h29.36v13.17h-29.36v22.99Z"/><path class="cls-1" d="M647.48,582.69h59.44v13.17h-22.17v70.65h-15.1v-70.65h-22.17v-13.17Z"/><path class="cls-1" d="M721.12,659.56c-5.07-5.27-7.61-12.53-7.61-21.79v-26.22c0-9.26,2.54-16.54,7.61-21.85,5.07-5.31,12.48-7.96,22.23-7.96s17.14,2.65,22.17,7.96c5.03,5.31,7.55,12.59,7.55,21.85v26.22c0,9.26-2.52,16.52-7.55,21.79-5.03,5.27-12.42,7.9-22.17,7.9s-17.16-2.63-22.23-7.9ZM754.62,649.45c2.24-2.83,3.36-7.16,3.36-12.99v-23.71c0-5.83-1.12-10.16-3.36-12.99-2.24-2.83-5.99-4.25-11.26-4.25s-9.05,1.44-11.32,4.31c-2.28,2.87-3.42,7.18-3.42,12.93v23.71c0,5.83,1.14,10.16,3.42,12.99,2.28,2.83,6.05,4.25,11.32,4.25s9.03-1.42,11.26-4.25Z"/><path class="cls-1" d="M310.62,704.83c-1.72,1.48-2.58,3.33-2.58,5.57,0,2.4,1.36,5.15,4.07,8.26l23.01,26.82c2.4-4.95,3.87-10.78,4.43-17.48h13.42c-.32,9.82-3.12,19.2-8.39,28.14l14.74,17.84h-17.5l-5.51-6.59c-5.43,5.03-12.82,7.54-22.17,7.54-8.15,0-14.66-2.22-19.53-6.65-4.87-4.43-7.31-10.56-7.31-18.38,0-5.03,1.1-9.34,3.29-12.93,2.2-3.59,5.93-6.63,11.21-9.1l-2.88-3.47c-3.6-4.47-5.39-9.38-5.39-14.73,0-6.15,2.22-11.1,6.65-14.85,4.43-3.75,10.29-5.63,17.56-5.63s14.58,2.15,21.45,6.47l-5.75,11.02c-4.71-2.71-9.67-4.07-14.86-4.07-3.59,0-6.25.74-7.97,2.22ZM305.05,758.77c2.16,2.24,5.23,3.35,9.23,3.35,5.83,0,10.26-1.68,13.3-5.03l-17.14-19.52c-5.75,1.6-8.63,5.71-8.63,12.33,0,3.67,1.08,6.63,3.24,8.86Z"/><path class="cls-1" d="M387.02,690.16h51.41v11.26l-35.47,59.39h35.47v13.17h-53.21v-11.38l35.47-59.27h-33.67v-13.17Z"/><path class="cls-1" d="M465.26,755.42l-5.87,18.56h-15.22l27.08-83.82h14.14l27.08,83.82h-15.34l-5.75-18.56h-26.12ZM487.91,742.13l-9.35-30.77h-.48l-9.35,30.77h19.17Z"/><path class="cls-1" d="M521.46,690.16h12.94l33.67,55.2h.48v-55.2h14.26v83.82h-13.18l-33.43-55.2h-.48v55.2h-14.26v-83.82Z"/><path class="cls-1" d="M606.72,767.03c-5.07-5.27-7.61-12.53-7.61-21.79v-26.22c0-9.26,2.54-16.54,7.61-21.85,5.07-5.31,12.48-7.96,22.23-7.96s17.14,2.65,22.17,7.96c5.03,5.31,7.55,12.59,7.55,21.85v26.22c0,9.26-2.52,16.52-7.55,21.79-5.03,5.27-12.42,7.9-22.17,7.9s-17.16-2.63-22.23-7.9ZM640.21,756.92c2.24-2.83,3.36-7.16,3.36-12.99v-23.71c0-5.83-1.12-10.16-3.36-12.99-2.24-2.83-5.99-4.25-11.26-4.25s-9.05,1.44-11.32,4.31c-2.28,2.87-3.42,7.18-3.42,12.93v23.71c0,5.83,1.14,10.16,3.42,12.99,2.28,2.83,6.05,4.25,11.32,4.25s9.03-1.42,11.26-4.25Z"/><path class="cls-1" d="M666.34,690.16h59.44v13.17h-22.17v70.65h-15.1v-70.65h-22.17v-13.17Z"/><path class="cls-1" d="M740.73,767.03c-5.07-5.27-7.61-12.53-7.61-21.79v-26.22c0-9.26,2.54-16.54,7.61-21.85,5.07-5.31,12.48-7.96,22.23-7.96s17.14,2.65,22.17,7.96c5.03,5.31,7.55,12.59,7.55,21.85v26.22c0,9.26-2.52,16.52-7.55,21.79-5.03,5.27-12.42,7.9-22.17,7.9s-17.16-2.63-22.23-7.9ZM774.23,756.92c2.24-2.83,3.36-7.16,3.36-12.99v-23.71c0-5.83-1.12-10.16-3.36-12.99-2.24-2.83-5.99-4.25-11.26-4.25s-9.05,1.44-11.32,4.31c-2.28,2.87-3.42,7.18-3.42,12.93v23.71c0,5.83,1.14,10.16,3.42,12.99,2.28,2.83,6.05,4.25,11.32,4.25s9.03-1.42,11.26-4.25Z"/><path class="cls-4" d="M306.24,832.1c0-10.31-16.16-3.81-16.16-15.81,0-5.78,3.42-9.01,9.74-9.01,3.33,0,6.51,1.01,9.16,3.04l-1.83,3.08c-2.65-1.73-5.21-2.31-7.33-2.31-4.73,0-5.74,2.46-5.74,5.16,0,7.71,16.16,2.65,16.16,15.52,0,5.49-2.99,10.02-10.66,10.02-3.57,0-7.33-1.11-10.23-3.23l1.88-3.23c2.41,1.3,4.87,2.55,8.34,2.55,5.02,0,6.66-2.55,6.66-5.78Z"/><path class="cls-4" d="M315.82,824.53c0-6.17,3.09-10.02,9.65-10.02s9.65,3.71,9.65,10.02v7.23c0,6.31-2.94,10.02-9.65,10.02s-9.65-3.85-9.65-10.02v-7.23ZM319.68,831.47c0,4.53,1.54,6.75,5.79,6.75s5.79-2.22,5.79-6.75v-6.65c0-4.53-1.54-6.75-5.79-6.75s-5.79,2.22-5.79,6.75v6.65Z"/><path class="cls-4" d="M340.38,831.76v-7.23c0-6.17,3.09-10.02,9.65-10.02,3.42,0,6.22,1.3,8.15,4.14l-2.56,2.31c-1.45-1.73-2.7-2.89-5.59-2.89-4.24,0-5.79,2.22-5.79,6.75v6.65c0,4.53,1.54,6.75,5.79,6.75,2.17,0,3.86-.67,5.69-2.79l2.51,2.12c-1.83,2.65-4.15,4.24-8.2,4.24-6.56,0-9.65-3.85-9.65-10.02Z"/><path class="cls-4" d="M363.31,806.02h4.24v4.92h-4.24v-4.92ZM363.51,814.89h3.86v26.51h-3.86v-26.51Z"/><path class="cls-4" d="M392.14,829.49h-14.95v3.95c0,2.6,1.54,4.77,5.84,4.77,3.04,0,5.64-1.45,6.85-2.26l1.59,2.94c-1.93,1.73-5.31,2.89-8.44,2.89-6.46,0-9.69-3.42-9.69-9.16v-8.1c0-6.12,3.09-10.02,9.45-10.02s9.36,3.76,9.36,10.02v4.96ZM388.37,826.31v-1.49c0-4.53-1.54-6.75-5.59-6.75s-5.59,2.22-5.59,6.75v1.49h11.19Z"/><path class="cls-4" d="M416.57,841.4h-2.99l-.77-2.55c-1.3,1.4-3.76,2.94-6.75,2.94-5.74,0-8.78-3.71-8.78-10.02v-7.23c0-6.31,3.04-10.02,8.78-10.02,2.99,0,5.35,1.54,6.66,2.94v-12.19h3.86v36.14ZM412.71,820.63c-1.3-1.25-3.18-2.55-5.79-2.55-4.2,0-5.79,2.22-5.79,6.75v6.65c0,4.53,1.59,6.75,5.79,6.75,2.6,0,4.49-1.3,5.79-2.55v-15.04Z"/><path class="cls-4" d="M437.38,822.6c0-2.6-1.3-4.53-5.59-4.53-2.31,0-5.02.82-7.14,1.78l-1.16-3.18c3.23-1.73,6.32-2.17,8.3-2.17,6.46,0,9.45,3.18,9.45,8.92v17.98h-3.09l-.43-2.79c-1.54,1.83-3.67,3.18-7.23,3.18-5.21,0-8.2-3.28-8.2-7.61,0-7.81,8.73-9.98,15.1-9.98v-1.59ZM437.43,834.84v-7.57c-5.21,0-11.29,1.35-11.29,6.89,0,2.89,2.27,4.48,4.97,4.48,3.43,0,5.69-2.07,6.32-3.81Z"/><path class="cls-4" d="M466.42,841.4h-2.99l-.77-2.55c-1.3,1.4-3.76,2.94-6.75,2.94-5.74,0-8.78-3.71-8.78-10.02v-7.23c0-6.31,3.04-10.02,8.78-10.02,2.99,0,5.35,1.54,6.66,2.94v-12.19h3.86v36.14ZM462.56,820.63c-1.3-1.25-3.18-2.55-5.79-2.55-4.2,0-5.79,2.22-5.79,6.75v6.65c0,4.53,1.59,6.75,5.79,6.75,2.6,0,4.49-1.3,5.79-2.55v-15.04Z"/><path class="cls-4" d="M491.18,829.49h-14.95v3.95c0,2.6,1.54,4.77,5.84,4.77,3.04,0,5.64-1.45,6.85-2.26l1.59,2.94c-1.93,1.73-5.31,2.89-8.44,2.89-6.46,0-9.69-3.42-9.69-9.16v-8.1c0-6.12,3.09-10.02,9.45-10.02s9.36,3.76,9.36,10.02v4.96ZM487.42,826.31v-1.49c0-4.53-1.54-6.75-5.59-6.75s-5.59,2.22-5.59,6.75v1.49h11.19Z"/><path class="cls-4" d="M526.68,841.4h-2.99l-.77-2.55c-1.3,1.4-3.76,2.94-6.75,2.94-5.74,0-8.78-3.71-8.78-10.02v-7.23c0-6.31,3.04-10.02,8.78-10.02,2.99,0,5.35,1.54,6.66,2.94v-12.19h3.86v36.14ZM522.82,820.63c-1.3-1.25-3.18-2.55-5.79-2.55-4.2,0-5.79,2.22-5.79,6.75v6.65c0,4.53,1.59,6.75,5.79,6.75,2.6,0,4.49-1.3,5.79-2.55v-15.04Z"/><path class="cls-4" d="M551.45,829.49h-14.95v3.95c0,2.6,1.54,4.77,5.84,4.77,3.04,0,5.64-1.45,6.85-2.26l1.59,2.94c-1.93,1.73-5.31,2.89-8.44,2.89-6.46,0-9.69-3.42-9.69-9.16v-8.1c0-6.12,3.09-10.02,9.45-10.02s9.36,3.76,9.36,10.02v4.96ZM547.69,826.31v-1.49c0-4.53-1.54-6.75-5.59-6.75s-5.59,2.22-5.59,6.75v1.49h11.19Z"/><path class="cls-4" d="M572.72,833.01l-2.65,8.39h-4.29l11.14-33.73h3.57l11.19,33.73h-4.34l-2.65-8.39h-11.96ZM578.61,813.97l-4.87,15.23h9.94l-4.87-15.23h-.19Z"/><path class="cls-4" d="M614.91,841.4h-2.99l-.77-2.55c-1.3,1.4-3.76,2.94-6.75,2.94-5.74,0-8.78-3.71-8.78-10.02v-7.23c0-6.31,3.04-10.02,8.78-10.02,2.99,0,5.35,1.54,6.66,2.94v-12.19h3.86v36.14ZM611.05,820.63c-1.3-1.25-3.18-2.55-5.79-2.55-4.2,0-5.79,2.22-5.79,6.75v6.65c0,4.53,1.59,6.75,5.79,6.75,2.6,0,4.49-1.3,5.79-2.55v-15.04Z"/><path class="cls-4" d="M628.06,841.4l-8.15-26.51h4.24l6.17,21.98h.19l6.17-21.98h4.24l-8.15,26.51h-4.73Z"/><path class="cls-4" d="M644.44,824.53c0-6.17,3.09-10.02,9.65-10.02s9.65,3.71,9.65,10.02v7.23c0,6.31-2.94,10.02-9.65,10.02s-9.65-3.85-9.65-10.02v-7.23ZM648.3,831.47c0,4.53,1.54,6.75,5.79,6.75s5.79-2.22,5.79-6.75v-6.65c0-4.53-1.54-6.75-5.79-6.75s-5.79,2.22-5.79,6.75v6.65Z"/><path class="cls-4" d="M688.3,840.62c0,5.16-1.83,10.89-9.74,10.89-2.94,0-5.98-1.11-7.91-1.98l1.16-2.99c1.3.53,3.86,1.49,6.75,1.49,4.1,0,5.88-2.65,5.88-7.52v-1.69c-1.3,1.4-3.67,2.94-6.66,2.94-5.74,0-8.78-3.71-8.78-10.02v-7.23c0-6.31,3.04-10.02,8.78-10.02,2.99,0,5.45,1.54,6.75,2.94l.77-2.55h2.99v25.73ZM684.44,820.63c-1.3-1.25-3.18-2.55-5.79-2.55-4.2,0-5.79,2.22-5.79,6.75v6.65c0,4.53,1.59,6.75,5.79,6.75,2.6,0,4.49-1.3,5.79-2.55v-15.04Z"/><path class="cls-4" d="M709,822.6c0-2.6-1.3-4.53-5.59-4.53-2.31,0-5.02.82-7.14,1.78l-1.16-3.18c3.23-1.73,6.32-2.17,8.3-2.17,6.46,0,9.45,3.18,9.45,8.92v17.98h-3.09l-.43-2.79c-1.54,1.83-3.67,3.18-7.23,3.18-5.21,0-8.2-3.28-8.2-7.61,0-7.81,8.73-9.98,15.1-9.98v-1.59ZM709.04,834.84v-7.57c-5.21,0-11.29,1.35-11.29,6.89,0,2.89,2.27,4.48,4.97,4.48,3.43,0,5.69-2.07,6.32-3.81Z"/><path class="cls-4" d="M738.03,841.4h-2.99l-.77-2.55c-1.3,1.4-3.76,2.94-6.75,2.94-5.74,0-8.78-3.71-8.78-10.02v-7.23c0-6.31,3.04-10.02,8.78-10.02,2.99,0,5.35,1.54,6.66,2.94v-12.19h3.86v36.14ZM734.18,820.63c-1.3-1.25-3.18-2.55-5.79-2.55-4.2,0-5.79,2.22-5.79,6.75v6.65c0,4.53,1.59,6.75,5.79,6.75,2.6,0,4.49-1.3,5.79-2.55v-15.04Z"/><path class="cls-4" d="M743.99,824.53c0-6.17,3.09-10.02,9.65-10.02s9.65,3.71,9.65,10.02v7.23c0,6.31-2.94,10.02-9.65,10.02s-9.65-3.85-9.65-10.02v-7.23ZM747.85,831.47c0,4.53,1.54,6.75,5.79,6.75s5.79-2.22,5.79-6.75v-6.65c0-4.53-1.54-6.75-5.79-6.75s-5.79,2.22-5.79,6.75v6.65Z"/><path class="cls-4" d="M781.7,833.73c0-2.99-2.12-3.71-5.4-4.58-3.86-1.01-7.91-2.17-7.91-7.13s3.62-7.52,8.49-7.52c2.7,0,5.35.82,7.52,2.07l-1.3,3.04c-1.64-.87-4.05-1.69-6.22-1.69-2.8,0-4.77.96-4.77,3.81,0,2.65,2.56,3.37,5.59,4.19,4.15,1.16,7.62,2.31,7.62,7.52s-2.94,8.34-9.02,8.34c-3.67,0-7.14-1.64-8.59-2.55l1.4-2.89c1.78.87,4.82,2.02,7.19,2.02,4.1,0,5.4-1.93,5.4-4.63Z"/></svg>