<?xml version="1.0" encoding="UTF-8"?><svg id="Layer_1" xmlns="http://www.w3.org/2000/svg" viewBox="0 0 1080 1080"><defs><style>.cls-1{fill:#00513b;}.cls-1,.cls-2,.cls-3{stroke-width:0px;}.cls-2{fill:#dd590a;}.cls-3{fill:#f7f7f8;}</style></defs><rect class="cls-3" y="0" width="1080" height="1080"/><path class="cls-1" d="M698.07,551.06h8.76v8.31c-.72.69-3.39,3.45-8.94,3.45-5.88,0-10.74-3.72-10.74-10.68s4.86-10.68,10.68-10.68c5.34,0,7.74,2.85,8.46,3.6l-2.61,2.31c-1.05-1.2-2.82-2.61-5.85-2.61-3.78,0-6.66,2.7-6.66,7.35s2.97,7.35,6.81,7.35,5.07-1.56,5.07-1.56v-3.81h-4.98v-3.03Z"/><path class="cls-1" d="M723.62,541.76v3.24h-8.88v5.13h8.37v3.21h-8.37v5.88h9.12v3.24h-13.02v-20.7h12.78Z"/><path class="cls-1" d="M740.59,556.43c0,3.84-2.82,6.39-7.2,6.39-3.54,0-5.97-1.65-7.32-3.21l1.86-2.82c1.62,1.77,3.57,2.73,5.52,2.73s3.24-.93,3.24-2.73c0-1.62-1.08-2.16-2.85-2.88l-3.24-1.29c-2.25-.9-3.75-2.49-3.75-5.01,0-3.6,2.82-6.09,7.17-6.09,2.94,0,5.07,1.23,6.3,2.49l-1.86,2.79c-1.32-1.2-2.91-2.07-4.68-2.07s-3.06.84-3.06,2.37,1.29,2.07,2.37,2.52l3.45,1.41c2.91,1.2,4.05,2.82,4.05,5.4Z"/><path class="cls-1" d="M742.16,544.91v-3.15h15.24v3.15h-5.67v17.55h-3.87v-17.55h-5.7Z"/><path class="cls-1" d="M761.73,557.69l-1.8,4.77h-4.05l8.13-20.73h3.78l8.13,20.73h-4.26l-1.8-4.77h-8.13ZM767.91,539.96c-1.2,0-1.83-.45-2.22-.66-.42-.21-1.05-.72-1.74-.72s-1.17.54-1.35,1.29l-1.74-.3c.09-1.77,1.53-3.12,3.09-3.12,1.2,0,1.83.45,2.22.66.39.24,1.05.72,1.74.72s1.17-.54,1.35-1.26l1.71.3c-.09,1.77-1.5,3.09-3.06,3.09ZM768.91,554.57l-3.09-8.37-3.12,8.37h6.21Z"/><path class="cls-1" d="M776.17,552.14c0-6.66,4.86-10.68,10.83-10.68s10.83,4.02,10.83,10.68-4.83,10.68-10.83,10.68-10.83-4.02-10.83-10.68ZM787,544.85c-3.84,0-6.81,2.76-6.81,7.26s3,7.29,6.81,7.29,6.81-2.79,6.81-7.29-2.97-7.26-6.81-7.26Z"/><path class="cls-1" d="M701.04,572.69v3.24h-8.88v5.13h8.37v3.21h-8.37v5.88h9.12v3.24h-13.02v-20.7h12.78Z"/><path class="cls-1" d="M711.55,572.69c3.6,0,6.27,1.17,7.86,2.61,1.62,1.41,3.3,3.78,3.3,7.71s-1.68,6.39-3.3,7.8c-1.59,1.41-4.26,2.58-7.86,2.58h-6.63v-20.7h6.63ZM716.62,588.38c.99-.96,2.07-2.55,2.07-5.34s-1.08-4.44-2.07-5.4c-1.02-.93-2.67-1.68-4.92-1.68h-2.88v14.13h2.88c2.25,0,3.9-.75,4.92-1.71Z"/><path class="cls-1" d="M742.36,584.84c0,2.76-.39,4.77-1.83,6.42-1.41,1.59-3.57,2.49-6.45,2.49s-5.04-.9-6.45-2.49c-1.44-1.65-1.83-3.66-1.83-6.42v-12.15h3.93v12.03c0,1.59.06,3,.87,4.05.75.96,1.92,1.56,3.48,1.56s2.73-.6,3.48-1.56c.81-1.05.9-2.46.9-4.05v-12.03h3.9v12.15Z"/><path class="cls-1" d="M756.18,593.75c-6.06,0-10.74-4.11-10.74-10.68s4.74-10.68,10.74-10.68c4.05,0,6.39,1.71,7.23,2.55l-1.38,3.18c-.6-.78-2.94-2.37-5.88-2.37-3.6,0-6.69,2.37-6.69,7.26,0,4.47,2.79,7.38,6.93,7.38,2.76,0,4.68-1.2,5.91-2.52l1.38,2.94c-1.17,1.26-3.42,2.94-7.5,2.94Z"/><path class="cls-1" d="M770.53,588.62l-1.8,4.77h-4.05l8.13-20.73h3.78l8.13,20.73h-4.26l-1.8-4.77h-8.13ZM777.7,585.5l-3.09-8.37-3.12,8.37h6.21Z"/><path class="cls-1" d="M795.72,593.75c-6.06,0-10.74-4.11-10.74-10.68s4.74-10.68,10.74-10.68c4.05,0,6.39,1.71,7.23,2.55l-1.38,3.18c-.6-.78-2.94-2.37-5.88-2.37-3.6,0-6.69,2.37-6.69,7.26,0,4.47,2.79,7.38,6.93,7.38,2.76,0,4.68-1.2,5.91-2.52l1.38,2.94c-1.17,1.26-3.42,2.94-7.5,2.94Z"/><path class="cls-1" d="M809.9,572.69v20.7h-3.9v-20.7h3.9Z"/><path class="cls-1" d="M813.17,583.07c0-6.66,4.86-10.68,10.83-10.68s10.83,4.02,10.83,10.68-4.83,10.68-10.83,10.68-10.83-4.02-10.83-10.68ZM824,575.78c-3.84,0-6.81,2.76-6.81,7.26s3,7.29,6.81,7.29,6.81-2.79,6.81-7.29-2.97-7.26-6.81-7.26Z"/><path class="cls-1" d="M841.96,583.22v10.17h-3.81v-20.7h4.14l10.29,15.09s-.06-2.43-.06-4.89v-10.2h3.81v20.7h-3.93l-10.5-15.27s.06,2.64.06,5.1Z"/><path class="cls-1" d="M864.41,588.62l-1.8,4.77h-4.05l8.13-20.73h3.78l8.13,20.73h-4.26l-1.8-4.77h-8.13ZM871.58,585.5l-3.09-8.37-3.12,8.37h6.21Z"/><path class="cls-1" d="M884.7,572.69v17.46h7.23v3.24h-11.1v-20.7h3.87Z"/><path class="cls-1" d="M701.04,603.63v3.24h-8.88v5.13h8.37v3.21h-8.37v5.88h9.12v3.24h-13.02v-20.7h12.78Z"/><path class="cls-1" d="M716.95,603.63c3.6,0,6.27,1.17,7.86,2.61,1.62,1.41,3.3,3.78,3.3,7.71s-1.68,6.39-3.3,7.8c-1.59,1.41-4.26,2.58-7.86,2.58h-6.63v-20.7h6.63ZM722.03,619.32c.99-.96,2.07-2.55,2.07-5.34s-1.08-4.44-2.07-5.4c-1.02-.93-2.67-1.68-4.92-1.68h-2.88v14.13h2.88c2.25,0,3.9-.75,4.92-1.71Z"/><path class="cls-1" d="M744.18,603.63v3.24h-8.88v5.13h8.37v3.21h-8.37v5.88h9.12v3.24h-13.02v-20.7h12.78Z"/><path class="cls-1" d="M766.78,618.3c0,3.84-2.82,6.39-7.2,6.39-3.54,0-5.97-1.65-7.32-3.21l1.86-2.82c1.62,1.77,3.57,2.73,5.52,2.73s3.24-.93,3.24-2.73c0-1.62-1.08-2.16-2.85-2.88l-3.24-1.29c-2.25-.9-3.75-2.49-3.75-5.01,0-3.6,2.82-6.09,7.17-6.09,2.94,0,5.07,1.23,6.3,2.49l-1.86,2.79c-1.32-1.2-2.91-2.07-4.68-2.07s-3.06.84-3.06,2.37,1.29,2.07,2.37,2.52l3.45,1.41c2.91,1.2,4.05,2.82,4.05,5.4Z"/><path class="cls-1" d="M773.43,619.56l-1.8,4.77h-4.05l8.13-20.73h3.78l8.13,20.73h-4.26l-1.8-4.77h-8.13ZM780.6,616.44l-3.09-8.37-3.12,8.37h6.21Z"/><path class="cls-1" d="M805.47,615.78c0,2.76-.39,4.77-1.83,6.42-1.41,1.59-3.57,2.49-6.45,2.49s-5.04-.9-6.45-2.49c-1.44-1.65-1.83-3.66-1.83-6.42v-12.15h3.93v12.03c0,1.59.06,3,.87,4.05.75.96,1.92,1.56,3.48,1.56s2.73-.6,3.48-1.56c.81-1.05.9-2.46.9-4.05v-12.03h3.9v12.15ZM801.33,597.9l-3.21,4.35h-2.79l2.52-4.35h3.48Z"/><path class="cls-1" d="M816.41,603.63c3.6,0,6.27,1.17,7.86,2.61,1.62,1.41,3.3,3.78,3.3,7.71s-1.68,6.39-3.3,7.8c-1.59,1.41-4.26,2.58-7.86,2.58h-6.63v-20.7h6.63ZM821.48,619.32c.99-.96,2.07-2.55,2.07-5.34s-1.08-4.44-2.07-5.4c-1.02-.93-2.67-1.68-4.92-1.68h-2.88v14.13h2.88c2.25,0,3.9-.75,4.92-1.71Z"/><path class="cls-1" d="M843.63,603.63v3.24h-8.88v5.13h8.37v3.21h-8.37v5.88h9.12v3.24h-13.02v-20.7h12.78Z"/><path class="cls-1" d="M188.07,469.09h24.52v59.26c3.27-4.91,7.63-8.79,13.08-11.65,5.45-2.86,11.58-4.29,18.39-4.29,13.62,0,24.42,5.11,32.39,15.33,7.97,10.22,11.95,24.25,11.95,42.09,0,11.72-1.81,21.87-5.42,30.45-3.61,8.58-8.72,15.19-15.33,19.82-6.61,4.63-14.41,6.95-23.4,6.95-7.08,0-13.42-1.53-19-4.6-5.59-3.06-10.01-7.25-13.28-12.57v14.51h-23.91v-155.3ZM256.22,541.94c-4.57-6.74-10.87-10.12-18.9-10.12-5.45,0-10.39,1.47-14.82,4.39-4.43,2.93-7.73,6.92-9.91,11.96v42.91c2.18,5.18,5.48,9.23,9.91,12.16,4.43,2.93,9.37,4.39,14.82,4.39,8.03,0,14.34-3.37,18.9-10.12,4.56-6.74,6.85-15.97,6.85-27.69s-2.28-21.15-6.85-27.89Z"/><path class="cls-1" d="M297.9,515.07h23.91v14.51c3.54-5.72,8.07-10.01,13.59-12.87,5.52-2.86,11.61-4.29,18.29-4.29,7.22,0,13.45,1.73,18.7,5.21,5.24,3.47,9.23,8.41,11.95,14.81,3.95-6.67,8.96-11.68,15.02-15.02,6.06-3.34,12.77-5.01,20.13-5.01,10.22,0,18.49,3.54,24.83,10.62,6.33,7.09,9.5,16.96,9.5,29.63v71.72h-24.52v-70.09c0-6.81-1.57-12.22-4.7-16.24-3.14-4.02-7.49-6.03-13.08-6.03s-10.01,1.5-14.1,4.5c-4.09,3-7.22,6.88-9.4,11.65v76.22h-24.52v-70.09c0-6.81-1.53-12.22-4.6-16.24-3.07-4.02-7.46-6.03-13.18-6.03-5.18,0-9.81,1.5-13.9,4.5-4.09,3-7.22,6.88-9.4,11.65v76.22h-24.52v-109.32Z"/><path class="cls-1" d="M477.83,611.62c-9.4-10.28-14.1-24.15-14.1-41.58,0-11.58,2.21-21.66,6.64-30.24,4.42-8.58,10.63-15.29,18.59-20.13,7.97-4.83,17.27-7.25,27.89-7.25,5.99,0,11.78.75,17.37,2.25,5.58,1.5,10.28,3.47,14.1,5.93l-6.33,19.82c-6.68-5.58-14.17-8.38-22.48-8.38-9.27,0-16.65,3.34-22.17,10.01-5.52,6.67-8.28,15.87-8.28,27.58s2.79,20.95,8.38,27.69c5.58,6.74,13.35,10.12,23.29,10.12,4.36,0,8.82-.78,13.38-2.35,4.56-1.56,8.28-3.85,11.14-6.85l2.45,22.07c-3.54,1.91-7.94,3.51-13.18,4.8-5.25,1.29-11,1.94-17.27,1.94-16.89,0-30.04-5.14-39.44-15.43Z"/><path class="cls-1" d="M643.45,605.18c0,3.14.2,6.57.61,10.32.41,3.75.88,6.71,1.43,8.89h-22.89c-.55-1.5-1.02-3.47-1.43-5.93-.41-2.45-.75-4.9-1.02-7.36-3.68,5.31-8.35,9.3-14,11.95-5.65,2.66-11.82,3.98-18.49,3.98-9.67,0-17.64-2.96-23.91-8.89-6.27-5.93-9.4-13.79-9.4-23.6,0-10.9,4.5-19.68,13.49-26.36,8.99-6.67,22.27-10.9,39.84-12.67l11.24-1.23c-.14-6.95-2.32-12.46-6.54-16.55-4.22-4.09-10.35-6.13-18.39-6.13-5.04,0-10.32.89-15.84,2.66-5.52,1.77-10.66,4.63-15.43,8.58l-2.04-21.25c5.04-2.86,10.86-5.11,17.47-6.74,6.61-1.63,13.25-2.45,19.92-2.45,14.71,0,25.95,3.88,33.72,11.65,7.76,7.76,11.65,18.73,11.65,32.9v48.22ZM583.37,604.47c2.99,2.93,7.01,4.39,12.06,4.39,4.63,0,9.06-1.19,13.28-3.58,4.22-2.38,7.63-5.75,10.22-10.12v-25.34l-8.99,1.02c-10.76,1.23-18.63,3.71-23.6,7.46-4.97,3.75-7.46,8.62-7.46,14.61,0,4.77,1.5,8.62,4.5,11.54Z"/><polygon class="cls-1" points="802.53 440.27 802.53 463.88 754.96 463.88 754.96 511.11 731.17 511.11 731.17 440.27 802.53 440.27"/><polygon class="cls-1" points="802.53 398.12 802.53 421.73 731.17 421.73 731.17 350.89 754.96 350.89 754.96 398.12 802.53 398.12"/><polygon class="cls-2" points="712.49 440.27 712.49 511.11 688.71 511.11 688.71 480.58 676.82 492.39 660 509.08 643.18 492.39 660 475.69 671.89 463.88 641.14 463.88 641.14 440.27 712.49 440.27"/><polygon class="cls-1" points="712.49 350.89 712.49 421.73 641.14 421.73 641.14 398.12 688.71 398.12 688.71 350.89 712.49 350.89"/></svg>