<?xml version="1.0" encoding="UTF-8"?><svg id="Layer_1" xmlns="http://www.w3.org/2000/svg" viewBox="0 0 1080 1080"><defs><style>.cls-1{fill:#5481ab;}.cls-1,.cls-2{stroke-width:0px;}.cls-2{fill:#f7f7f8;}</style></defs><rect class="cls-2" y="0" width="1080" height="1080"/><path class="cls-1" d="M417.16,438.9h-98.07c-5.5,0-10.52-3.11-12.98-8.02l-6.61-13.22c-2.99-5.97-9.08-9.72-15.75-9.72h-81.74c-13.24,0-23.97,10.73-23.97,23.97v185.22c0,13.25,10.74,23.99,23.99,23.99h98.18c5.44,0,10.41,3.07,12.85,7.94l6.65,13.31c2.97,5.97,9.06,9.72,15.72,9.72h81.74c13.24,0,23.97-10.73,23.97-23.97v-185.22c0-13.25-10.74-23.99-23.99-23.99ZM407.84,534.05c0,2.63-2.15,4.78-4.78,4.78h-91.28c-1.78,0-2.93,1.87-2.14,3.46l10.07,20.13c2.97,5.97,9.06,9.72,15.72,9.72h67.62c2.63,0,4.78,2.15,4.78,4.81v57.04c0,2.63-2.15,4.78-4.78,4.78h-84.06c-5.44,0-10.41-3.07-12.85-7.94l-6.65-13.31c-2.99-5.97-9.08-9.72-15.75-9.72h-67.6c-2.65,0-4.81-2.15-4.81-4.81v-156.97c0-2.63,2.15-4.78,4.81-4.78h83.97c5.5,0,10.52,3.11,12.98,8.02l6.61,13.22c2.97,5.97,9.06,9.72,15.72,9.72h67.62c2.63,0,4.78,2.15,4.78,4.81v57.04Z"/><path class="cls-1" d="M515.51,549.56h-6.55v-35.07h6.55v35.07Z"/><path class="cls-1" d="M562.04,514.5v35.07h-5.75v-22.65c0-.91.05-1.88.15-2.93l-10.6,19.91c-.5.95-1.27,1.43-2.3,1.43h-.92c-1.03,0-1.8-.48-2.3-1.43l-10.72-19.98c.05.53.09,1.06.12,1.58.03.52.05.99.05,1.43v22.65h-5.75v-35.07h4.92c.29,0,.54,0,.75.02.21.02.4.06.57.12.17.06.32.17.46.32.14.15.27.34.4.58l10.5,19.47c.27.52.53,1.05.76,1.6.23.55.46,1.12.69,1.7.23-.6.46-1.18.7-1.73s.5-1.1.78-1.61l10.35-19.42c.13-.24.27-.44.41-.58.15-.15.3-.25.47-.32.17-.06.36-.1.57-.12.21-.02.46-.02.75-.02h4.92Z"/><path class="cls-1" d="M604.79,532.03c0,2.57-.42,4.95-1.27,7.14-.85,2.19-2.05,4.09-3.6,5.69-1.55,1.6-3.42,2.85-5.6,3.75-2.18.9-4.61,1.35-7.28,1.35s-5.07-.45-7.25-1.35c-2.18-.9-4.05-2.15-5.61-3.75-1.56-1.6-2.77-3.5-3.63-5.69-.86-2.19-1.29-4.57-1.29-7.14s.43-4.95,1.29-7.14c.86-2.19,2.07-4.09,3.63-5.69,1.56-1.6,3.43-2.85,5.61-3.75,2.18-.9,4.6-1.35,7.25-1.35,1.78,0,3.45.21,5.02.62,1.57.41,3.01.99,4.32,1.75,1.31.75,2.49,1.67,3.53,2.74,1.04,1.08,1.93,2.28,2.66,3.6.73,1.33,1.28,2.76,1.66,4.32.38,1.55.57,3.19.57,4.9ZM598.12,532.03c0-1.92-.26-3.65-.78-5.18-.52-1.53-1.25-2.83-2.21-3.89-.95-1.07-2.11-1.88-3.48-2.45-1.37-.57-2.91-.85-4.62-.85s-3.25.28-4.62.85c-1.37.57-2.53,1.38-3.49,2.45-.96,1.07-1.7,2.36-2.22,3.89-.52,1.53-.78,3.25-.78,5.18s.26,3.65.78,5.18c.52,1.53,1.26,2.82,2.22,3.88.96,1.06,2.13,1.87,3.49,2.44,1.37.57,2.91.85,4.62.85s3.25-.28,4.62-.85c1.37-.57,2.53-1.38,3.48-2.44.95-1.06,1.69-2.35,2.21-3.88.52-1.53.78-3.25.78-5.18Z"/><path class="cls-1" d="M595.58,504.43c.26,0,.4.32.21.51l-5.5,5.55c-.32.29-.63.47-.92.53-.29.06-.66.1-1.12.1h-4.34l4.19-5.7c.16-.23.32-.41.48-.55.16-.14.34-.24.53-.3.19-.06.41-.1.64-.12.23-.02.51-.02.84-.02h4.98Z"/><path class="cls-1" d="M641.23,514.5l-14.16,35.07h-5.89l-14.16-35.07h5.24c.57,0,1.03.14,1.38.41.36.28.62.63.8,1.07l8.27,21.39c.27.7.54,1.46.79,2.29.25.83.49,1.7.72,2.61.19-.91.4-1.77.63-2.61.23-.83.48-1.6.75-2.29l8.22-21.39c.13-.37.38-.71.76-1.02.38-.31.84-.46,1.39-.46h5.26Z"/><path class="cls-1" d="M653.72,519.68v9.72h12.27v5.02h-12.27v9.92h15.57v5.21h-22.12v-35.07h22.12v5.19h-15.57Z"/><path class="cls-1" d="M683.77,549.56h-6.55v-35.07h6.55v35.07Z"/><path class="cls-1" d="M712.59,520.87c-.19.34-.4.59-.62.74-.22.15-.49.23-.81.23-.34,0-.71-.13-1.1-.38-.4-.25-.87-.53-1.42-.84-.55-.31-1.19-.59-1.93-.84-.74-.25-1.6-.38-2.61-.38-.91,0-1.7.11-2.38.33-.68.22-1.25.52-1.71.91-.46.39-.8.85-1.03,1.39-.23.54-.34,1.14-.34,1.78,0,.82.23,1.51.69,2.06.46.55,1.07,1.02,1.83,1.41.76.39,1.62.74,2.59,1.04.97.31,1.96.63,2.98.98,1.02.35,2.01.75,2.98,1.21.97.46,1.83,1.04,2.59,1.75.76.7,1.37,1.56,1.83,2.58s.69,2.26.69,3.71c0,1.58-.27,3.07-.81,4.45-.54,1.38-1.33,2.59-2.38,3.61-1.04,1.03-2.32,1.84-3.82,2.42-1.5.59-3.23.89-5.17.89-1.12,0-2.22-.11-3.3-.33-1.08-.22-2.12-.53-3.12-.93-.99-.4-1.93-.89-2.8-1.46-.87-.57-1.65-1.2-2.33-1.89l1.92-3.13c.16-.23.37-.42.63-.57.26-.15.53-.23.82-.23.4,0,.84.17,1.31.5.47.33,1.03.7,1.67,1.1.65.4,1.4.77,2.27,1.1.86.33,1.9.5,3.12.5,1.86,0,3.3-.44,4.32-1.32,1.02-.88,1.53-2.15,1.53-3.8,0-.92-.23-1.67-.69-2.26s-1.07-1.07-1.83-1.47c-.76-.4-1.62-.73-2.59-1.01-.97-.27-1.96-.57-2.96-.9-1-.32-1.99-.71-2.96-1.16-.97-.45-1.84-1.04-2.59-1.77-.76-.73-1.37-1.64-1.83-2.73-.46-1.09-.69-2.44-.69-4.04,0-1.28.25-2.52.76-3.73s1.25-2.29,2.22-3.23c.97-.94,2.17-1.69,3.59-2.26,1.42-.57,3.06-.85,4.9-.85,2.07,0,3.98.32,5.72.97,1.75.65,3.23,1.55,4.46,2.72l-1.62,3.08Z"/><path class="cls-1" d="M535.34,606.14h-5.87c-.61,0-1.11-.07-1.49-.22-.38-.15-.78-.45-1.2-.92l-2.42-2.5c-1.54,1.26-3.26,2.25-5.17,2.96-1.91.71-3.97,1.07-6.18,1.07-1.34,0-2.66-.23-3.96-.69-1.3-.46-2.46-1.13-3.48-2-1.02-.87-1.84-1.93-2.46-3.16-.62-1.24-.93-2.63-.93-4.18,0-1.1.18-2.14.53-3.12.36-.98.85-1.89,1.48-2.73.63-.84,1.38-1.6,2.26-2.27.87-.67,1.83-1.25,2.86-1.73-.87-1.21-1.5-2.4-1.89-3.55-.39-1.16-.58-2.31-.58-3.46,0-1.21.22-2.36.67-3.46.44-1.09,1.09-2.04,1.93-2.85.84-.81,1.88-1.45,3.1-1.93,1.23-.48,2.62-.72,4.17-.72,1.42,0,2.7.22,3.82.65,1.12.44,2.09,1.02,2.89,1.75.8.73,1.43,1.56,1.89,2.5.46.94.73,1.91.81,2.91l-3.81.8c-.71.15-1.23-.16-1.55-.92-.15-.42-.34-.82-.57-1.2-.23-.38-.51-.71-.84-.99-.32-.28-.7-.51-1.14-.68-.44-.17-.94-.25-1.5-.25-.68,0-1.29.12-1.82.35-.53.23-.98.55-1.35.95-.36.4-.64.86-.84,1.38-.19.53-.29,1.08-.29,1.66,0,.48.05.95.15,1.41.1.45.26.91.48,1.36.23.45.52.92.89,1.39.36.48.81.99,1.35,1.54l9.31,9.68c.53-1.02.96-2.09,1.29-3.23.32-1.13.53-2.28.63-3.44.05-.37.18-.67.39-.9.21-.23.5-.34.87-.34h3.73c-.02,2.13-.32,4.17-.92,6.11-.6,1.94-1.46,3.73-2.57,5.36l7.35,7.61ZM511.99,589.75c-1.29.84-2.24,1.79-2.83,2.85-.59,1.06-.89,2.19-.89,3.41,0,.89.15,1.69.46,2.4.31.71.72,1.31,1.25,1.81.53.49,1.14.87,1.84,1.14s1.45.4,2.24.4c1.42,0,2.72-.22,3.9-.67,1.18-.44,2.25-1.06,3.2-1.86l-9.19-9.48Z"/><path class="cls-1" d="M570.64,597.88c.36,0,.67.14.95.41l2.57,2.79c-1.42,1.76-3.17,3.11-5.25,4.05-2.08.94-4.57,1.41-7.48,1.41-2.6,0-4.94-.44-7.02-1.33-2.08-.89-3.85-2.13-5.32-3.71-1.47-1.58-2.6-3.48-3.38-5.67-.78-2.2-1.18-4.6-1.18-7.2s.42-5.05,1.26-7.24c.84-2.19,2.02-4.08,3.55-5.66,1.53-1.58,3.35-2.82,5.47-3.7,2.12-.88,4.46-1.32,7.03-1.32s4.82.42,6.8,1.26c1.98.84,3.67,1.94,5.06,3.3l-2.18,3.03c-.13.19-.3.36-.5.51-.2.15-.48.22-.84.22-.24,0-.49-.07-.75-.21-.26-.14-.54-.31-.85-.51-.31-.2-.66-.42-1.07-.67-.4-.24-.87-.46-1.41-.67-.53-.2-1.15-.37-1.86-.51-.7-.14-1.52-.21-2.44-.21-1.57,0-3,.28-4.3.84-1.3.56-2.42,1.37-3.36,2.43-.94,1.06-1.67,2.35-2.18,3.88-.52,1.53-.78,3.27-.78,5.23s.28,3.73.84,5.26c.56,1.54,1.31,2.83,2.27,3.88.95,1.05,2.08,1.86,3.37,2.41,1.29.56,2.68.84,4.17.84.89,0,1.69-.05,2.41-.15.72-.1,1.38-.25,1.99-.46.61-.21,1.18-.48,1.72-.81.54-.33,1.08-.74,1.61-1.22.16-.15.33-.26.51-.35.18-.09.36-.13.56-.13Z"/><path class="cls-1" d="M613.45,588.61c0,2.57-.42,4.95-1.27,7.14-.85,2.19-2.05,4.09-3.6,5.69-1.55,1.6-3.42,2.85-5.6,3.75-2.18.9-4.61,1.35-7.28,1.35s-5.07-.45-7.25-1.35c-2.18-.9-4.05-2.15-5.61-3.75-1.56-1.6-2.77-3.5-3.63-5.69-.86-2.19-1.29-4.57-1.29-7.14s.43-4.95,1.29-7.14c.86-2.19,2.07-4.09,3.63-5.69,1.56-1.6,3.43-2.85,5.61-3.75,2.18-.9,4.6-1.35,7.25-1.35,1.78,0,3.45.21,5.02.62,1.57.41,3.01.99,4.32,1.75,1.31.75,2.49,1.67,3.53,2.74,1.04,1.08,1.93,2.28,2.66,3.6.73,1.33,1.28,2.76,1.66,4.32.38,1.55.57,3.19.57,4.9ZM606.78,588.61c0-1.92-.26-3.65-.78-5.18-.52-1.53-1.25-2.83-2.21-3.89-.95-1.07-2.11-1.88-3.48-2.45-1.37-.57-2.91-.85-4.62-.85s-3.25.28-4.62.85c-1.37.57-2.53,1.38-3.49,2.45-.96,1.07-1.7,2.36-2.22,3.89-.52,1.53-.78,3.25-.78,5.18s.26,3.65.78,5.18c.52,1.53,1.26,2.82,2.22,3.88.96,1.06,2.13,1.87,3.49,2.44,1.37.57,2.91.85,4.62.85s3.25-.28,4.62-.85c1.37-.57,2.53-1.38,3.48-2.44.95-1.06,1.69-2.35,2.21-3.88.52-1.53.78-3.25.78-5.18Z"/><path class="cls-1" d="M650.21,571.08v35.07h-3.35c-.52,0-.95-.08-1.3-.25-.35-.17-.68-.46-1.01-.86l-18.31-23.38c.1,1.07.15,2.05.15,2.96v21.53h-5.75v-35.07h3.42c.27,0,.51.01.72.04.2.02.38.07.53.15.15.07.3.18.45.32.15.14.31.32.49.55l18.38,23.47c-.05-.57-.09-1.12-.12-1.67-.03-.55-.05-1.06-.05-1.53v-21.32h5.75Z"/><path class="cls-1" d="M679.06,577.46c-.19.34-.4.59-.62.74-.22.15-.49.23-.81.23-.34,0-.71-.13-1.1-.38-.4-.25-.87-.53-1.42-.84-.55-.31-1.19-.59-1.93-.84-.74-.25-1.6-.38-2.61-.38-.91,0-1.7.11-2.38.33-.68.22-1.25.52-1.71.91-.46.39-.8.85-1.03,1.39-.23.54-.34,1.14-.34,1.78,0,.82.23,1.51.69,2.06.46.55,1.07,1.02,1.83,1.41.76.39,1.62.74,2.59,1.04.97.31,1.96.63,2.98.98,1.02.35,2.01.75,2.98,1.21.97.46,1.83,1.04,2.59,1.75.76.7,1.37,1.56,1.83,2.58.46,1.02.69,2.26.69,3.71,0,1.58-.27,3.07-.81,4.45-.54,1.38-1.33,2.59-2.38,3.61-1.04,1.03-2.32,1.84-3.82,2.42-1.5.59-3.23.89-5.17.89-1.12,0-2.22-.11-3.3-.33-1.08-.22-2.12-.53-3.12-.93-.99-.4-1.93-.89-2.8-1.46-.87-.57-1.65-1.2-2.33-1.89l1.92-3.13c.16-.23.37-.42.63-.57.26-.15.53-.23.82-.23.4,0,.84.17,1.31.5.47.33,1.03.7,1.67,1.1.65.4,1.4.77,2.27,1.1.86.33,1.9.5,3.12.5,1.86,0,3.3-.44,4.32-1.32,1.02-.88,1.53-2.15,1.53-3.8,0-.92-.23-1.67-.69-2.26s-1.07-1.07-1.83-1.47c-.76-.4-1.62-.73-2.59-1.01-.97-.27-1.96-.57-2.96-.9-1-.32-1.99-.71-2.96-1.16-.97-.45-1.84-1.04-2.59-1.77-.76-.73-1.37-1.64-1.83-2.73-.46-1.09-.69-2.44-.69-4.04,0-1.28.25-2.52.76-3.73s1.25-2.29,2.22-3.23c.97-.94,2.17-1.69,3.59-2.26,1.42-.57,3.06-.85,4.9-.85,2.07,0,3.98.32,5.72.97,1.75.65,3.23,1.55,4.46,2.72l-1.62,3.08Z"/><path class="cls-1" d="M703.34,600.88c1.26,0,2.39-.21,3.38-.63.99-.42,1.83-1.01,2.51-1.77.68-.76,1.2-1.68,1.56-2.76.36-1.08.55-2.3.55-3.64v-21h6.52v21c0,2.09-.34,4.01-1.01,5.78-.67,1.77-1.63,3.3-2.89,4.58-1.25,1.29-2.78,2.29-4.57,3.01-1.79.72-3.82,1.08-6.06,1.08s-4.29-.36-6.09-1.08c-1.79-.72-3.32-1.72-4.57-3.01-1.25-1.29-2.22-2.81-2.89-4.58-.67-1.77-1.01-3.7-1.01-5.78v-21h6.52v20.98c0,1.34.18,2.55.55,3.64.36,1.08.89,2.01,1.58,2.78.69.77,1.53,1.36,2.52,1.78.99.42,2.12.63,3.38.63Z"/><path class="cls-1" d="M748.12,600.76v5.38h-20.54v-35.07h6.52v29.68h14.02Z"/><path class="cls-1" d="M774.9,576.44h-10.57v29.71h-6.52v-29.71h-10.57v-5.36h27.67v5.36Z"/><path class="cls-1" d="M813.78,588.61c0,2.57-.42,4.95-1.27,7.14-.85,2.19-2.05,4.09-3.6,5.69-1.55,1.6-3.42,2.85-5.6,3.75-2.18.9-4.61,1.35-7.28,1.35s-5.07-.45-7.25-1.35c-2.18-.9-4.05-2.15-5.61-3.75-1.56-1.6-2.77-3.5-3.63-5.69-.86-2.19-1.29-4.57-1.29-7.14s.43-4.95,1.29-7.14c.86-2.19,2.07-4.09,3.63-5.69,1.56-1.6,3.43-2.85,5.61-3.75,2.18-.9,4.6-1.35,7.25-1.35,1.78,0,3.45.21,5.02.62,1.57.41,3.01.99,4.32,1.75,1.31.75,2.49,1.67,3.53,2.74,1.04,1.08,1.93,2.28,2.66,3.6.73,1.33,1.28,2.76,1.66,4.32.38,1.55.57,3.19.57,4.9ZM807.11,588.61c0-1.92-.26-3.65-.78-5.18-.52-1.53-1.25-2.83-2.21-3.89-.95-1.07-2.11-1.88-3.48-2.45-1.37-.57-2.91-.85-4.62-.85s-3.25.28-4.62.85c-1.37.57-2.53,1.38-3.49,2.45-.96,1.07-1.7,2.36-2.22,3.89-.52,1.53-.78,3.25-.78,5.18s.26,3.65.78,5.18c.52,1.53,1.26,2.82,2.22,3.88.96,1.06,2.13,1.87,3.49,2.44,1.37.57,2.91.85,4.62.85s3.25-.28,4.62-.85c1.37-.57,2.53-1.38,3.48-2.44.95-1.06,1.69-2.35,2.21-3.88.52-1.53.78-3.25.78-5.18Z"/><path class="cls-1" d="M849.23,606.14h-5.89c-1.12,0-1.92-.44-2.42-1.31l-7.37-11.23c-.27-.42-.58-.72-.91-.9-.33-.18-.82-.27-1.47-.27h-2.79v13.7h-6.52v-35.07h10.69c2.38,0,4.42.25,6.12.74,1.71.49,3.1,1.18,4.2,2.07,1.09.89,1.9,1.95,2.41,3.19.52,1.24.78,2.6.78,4.09,0,1.18-.17,2.3-.52,3.35-.35,1.05-.85,2-1.5,2.86-.65.86-1.46,1.61-2.42,2.26-.96.65-2.06,1.16-3.29,1.53.42.24.81.53,1.16.86.36.33.68.72.97,1.18l8.78,12.95ZM832.45,587.76c1.23,0,2.3-.15,3.21-.46.91-.31,1.66-.73,2.26-1.27.59-.54,1.03-1.18,1.32-1.93.29-.74.44-1.56.44-2.45,0-1.78-.59-3.14-1.76-4.1-1.17-.95-2.96-1.43-5.37-1.43h-4.17v11.64h4.07Z"/><path class="cls-1" d="M861.8,606.14h-6.55v-35.07h6.55v35.07Z"/><path class="cls-1" d="M901.96,606.14h-5.04c-.57,0-1.03-.14-1.38-.42-.36-.28-.62-.63-.8-1.05l-2.62-7.15h-14.53l-2.62,7.15c-.13.37-.38.71-.75,1.02-.37.31-.83.46-1.38.46h-5.09l13.8-35.07h6.64l13.77,35.07ZM890.44,592.9l-4.27-11.66c-.21-.52-.43-1.13-.65-1.84-.23-.71-.45-1.48-.68-2.3-.21.82-.43,1.6-.65,2.32-.23.72-.44,1.35-.65,1.88l-4.24,11.62h11.15Z"/></svg>