<?xml version="1.0" encoding="UTF-8"?><svg id="Layer_1" xmlns="http://www.w3.org/2000/svg" viewBox="0 0 1080 1080"><defs><style>.cls-1{fill:#6f6f6e;}.cls-1,.cls-2,.cls-3,.cls-4{stroke-width:0px;}.cls-2{fill:#0082ca;}.cls-3{fill:#ec6a06;}.cls-4{fill:#f7f7f8;}</style></defs><rect class="cls-4" y="0" width="1080" height="1080"/><path class="cls-3" d="M697.39,371.01l-81.62-92.08c-2.51-2.83-7.57-.83-8.03,3.18l-7.91,69.65c-.45,4-5.52,6-8.03,3.18l-71.33-80.49c-1.55-1.75-4.4-1.75-6.35,0l-102.54,92.07c-3.15,2.83-1.7,7.67,2.3,7.67h69.65c4,0,5.45,4.84,2.3,7.67l-89.63,80.48c-1.95,1.75-2.28,4.6-.72,6.35l81.61,92.08c2.51,2.83,7.57.83,8.03-3.17l7.92-69.64c.45-4,5.52-6,8.03-3.18l71.34,80.49c1.55,1.75,4.4,1.75,6.35,0l102.54-92.08c3.15-2.83,1.7-7.67-2.3-7.67h-69.64c-4,0-5.46-4.84-2.3-7.67l89.63-80.48c1.95-1.75,2.28-4.6.72-6.35ZM496.33,459.02l8.91-78.34c.41-3.59,3.65-6.49,7.23-6.49h78.33c3.59,0,6.16,2.91,5.76,6.5l-8.9,78.33c-.41,3.59-3.64,6.49-7.23,6.49h-78.34c-3.59,0-6.16-2.91-5.76-6.49Z"/><path class="cls-2" d="M279.62,657.64c-6.83-4.36-15.1-7.01-23.82-7.01-16.83,0-29.03,11.37-31.12,29.76s6.85,30.23,24.46,30.23c9.5,0,18.74-3.12,26.61-7.95l2.65,21.97c-8.11,4.21-21.36,7.01-32.74,7.01-31.16,0-49.69-17.92-45.98-50.64,3.58-31.47,26.25-51.42,58.35-51.42,11.84,0,23.04,2.96,31.42,7.32l-9.83,20.72Z"/><path class="cls-2" d="M342.55,702.05c.74-6.54-6.02-8.73-18.55-12.31-13.74-3.9-30.13-10.44-27.92-29.92,2.05-18.07,16.66-30.07,40.81-30.07,15.27,0,26.72,3.43,35.49,8.57l-7.15,20.41c-9.08-5.14-20.84-8.57-30.5-8.57-8.57,0-13.11,2.96-13.71,8.26-.73,6.39,7.87,8.88,19.19,12.15,14.5,4.05,29.3,10.91,27.19,29.45-2.11,18.54-17.93,31.63-43.48,31.63-14.49,0-28.09-3.74-36.54-8.88l7.01-20.57c9.08,5.14,20.32,9.04,32.32,9.04,8.73,0,15.17-3.27,15.85-9.19Z"/><path class="cls-2" d="M477.07,657.64c-6.83-4.36-15.1-7.01-23.82-7.01-16.83,0-29.03,11.37-31.12,29.76-2.11,18.54,6.85,30.23,24.46,30.23,9.5,0,18.74-3.12,26.61-7.95l2.65,21.97c-8.11,4.21-21.36,7.01-32.74,7.01-31.16,0-49.69-17.92-45.98-50.64,3.58-31.47,26.25-51.42,58.35-51.42,11.84,0,23.04,2.96,31.42,7.32l-9.83,20.72Z"/><path class="cls-2" d="M580.02,729.32h-24.62l-4.81-20.72h-36.15l-9.37,20.72h-24.62l45.65-97.38h31.01l22.9,97.38ZM539.2,651.1l-17.27,38.17h25.4l-8.13-38.17Z"/><path class="cls-2" d="M610.71,729.32h-24.77l11.06-97.38s40.04,0,39.11,0c25.87,0,38.06,12,35.92,30.85-1.49,13.09-9.48,23.06-23.13,28.05l20.56,38.49h-27.89l-15.76-32.72-11.48.94-3.61,31.79ZM628.44,678.83c10.68-.78,16.94-5.14,18.01-14.49.97-8.57-4.47-12.78-16.93-12.78h-10.44l-3.13,27.58,12.5-.31Z"/><path class="cls-2" d="M724.09,731.65c-31.16,0-50.25-18.54-46.6-50.64,3.63-31.94,26.41-51.42,58.35-51.42,12.46,0,26.95,2.8,35.66,8.41l-10.14,20.72c-8.59-5.3-17.78-8.1-27.13-8.1-17.45,0-30,11.69-32.05,29.76-2.21,19.48,6.29,31.01,24.84,31.01,5.61,0,11.67-1.25,15.92-2.96l1.63-14.33h-24l2.23-19.63h46.43l-5.47,48.15c-11.25,5.76-25.49,9.04-39.67,9.04Z"/><path class="cls-2" d="M823.24,731.65c-28.83,0-48.76-17.92-45.02-50.79,3.5-30.85,27.95-51.26,56.93-51.26s48.93,17.76,45.2,50.64c-3.5,30.85-28.12,51.42-57.1,51.42ZM832.57,649.54c-16.52,0-27.28,12.46-29.35,30.69-2.12,18.7,6.08,31.47,22.76,31.47s27.3-12.62,29.37-30.85c2.12-18.7-6.26-31.32-22.77-31.32Z"/><path class="cls-1" d="M285.45,771.74v23.03h-5.38v-23.03h-9.29v-4.76h23.97v4.76h-9.29Z"/><path class="cls-1" d="M304.56,794.78h-5.43v-27.79s9.83,0,9.74,0c7.03,0,10.76,3.34,10.76,8.45,0,3.96-2.22,6.72-6,8l7.29,11.34h-6.18l-6.18-10.18-4,.27v9.92ZM308.56,780.5c3.33-.18,5.51-1.69,5.51-4.71s-2.18-4.27-6.05-4.27h-3.51v9.07l4.05-.09Z"/><path class="cls-1" d="M348.35,794.78h-5.47l-2.31-6.58h-11.21l-2.27,6.58h-5.47l10.14-27.79h6.58l10.01,27.79ZM335.01,771.65l-4.22,12.05h8.4l-4.18-12.05Z"/><path class="cls-1" d="M371.49,766.98h5.16v28.06h-5.78l-13.3-20.46v20.19h-5.16v-27.79h5.91l13.16,20.23v-20.23Z"/><path class="cls-1" d="M397.39,787.17c0-2.31-2.09-3.16-6.18-4.27-4-1.11-8.63-2.89-8.63-8.36,0-4.94,3.78-8.23,9.96-8.23,3.78,0,6.89.93,9.56,2.45l-1.33,4.58c-2.45-1.47-5.56-2.4-8.18-2.4-3.25,0-4.67,1.38-4.67,3.29,0,2.27,2.49,3.16,6.32,4.18,4.18,1.16,8.49,3.07,8.49,8.36s-4.05,8.67-10.58,8.67c-3.69,0-7.38-.98-10.01-2.58l1.25-4.67c2.58,1.56,5.51,2.67,8.85,2.67,3.02,0,5.16-1.47,5.16-3.69Z"/><path class="cls-1" d="M416.92,786.1l-3.16.04v8.63h-5.43v-27.79h8.98c7.69,0,11.47,3.87,11.47,9.29,0,6.4-4.4,9.78-11.87,9.83ZM416.97,771.52h-3.29v10.14l3.47-.09c4.14-.09,6.23-1.87,6.23-5.11s-2.13-4.94-6.4-4.94Z"/><path class="cls-1" d="M446.99,795.44c-8.23,0-14.27-5.38-14.27-14.5,0-8.58,6.09-14.63,14.32-14.63s14.23,5.34,14.23,14.45c0,8.58-6.05,14.67-14.27,14.67ZM446.9,770.85c-5.29,0-8.72,4-8.72,9.92s3.47,10.14,8.89,10.14,8.76-4.05,8.76-9.96-3.51-10.09-8.94-10.09Z"/><path class="cls-1" d="M472.37,794.78h-5.43v-27.79s9.83,0,9.74,0c7.03,0,10.76,3.34,10.76,8.45,0,3.96-2.22,6.72-6,8l7.29,11.34h-6.18l-6.18-10.18-4,.27v9.92ZM476.37,780.5c3.33-.18,5.51-1.69,5.51-4.71s-2.18-4.27-6.05-4.27h-3.51v9.07l4.05-.09Z"/><path class="cls-1" d="M505.7,771.74v23.03h-5.38v-23.03h-9.29v-4.76h23.97v4.76h-9.29Z"/><path class="cls-1" d="M519.39,794.78v-27.79h18.94v4.58h-13.61v6.98h11.16v4.58h-11.16v7.07h13.61v4.58h-18.94Z"/><path class="cls-1" d="M557.68,787.17c0-2.31-2.09-3.16-6.18-4.27-4-1.11-8.63-2.89-8.63-8.36,0-4.94,3.78-8.23,9.96-8.23,3.78,0,6.89.93,9.56,2.45l-1.33,4.58c-2.45-1.47-5.56-2.4-8.18-2.4-3.25,0-4.67,1.38-4.67,3.29,0,2.27,2.49,3.16,6.32,4.18,4.18,1.16,8.49,3.07,8.49,8.36s-4.05,8.67-10.58,8.67c-3.69,0-7.38-.98-10.01-2.58l1.25-4.67c2.58,1.56,5.51,2.67,8.85,2.67,3.02,0,5.16-1.47,5.16-3.69Z"/><path class="cls-1" d="M579.91,794.78v-27.79h18.94v4.58h-13.61v6.98h11.16v4.58h-11.16v7.07h13.61v4.58h-18.94Z"/><path class="cls-1" d="M629.54,787.17c0-2.31-2.09-3.16-6.18-4.27-4-1.11-8.63-2.89-8.63-8.36,0-4.94,3.78-8.23,9.96-8.23,3.78,0,6.89.93,9.56,2.45l-1.33,4.58c-2.45-1.47-5.56-2.4-8.18-2.4-3.25,0-4.67,1.38-4.67,3.29,0,2.27,2.49,3.16,6.32,4.18,4.18,1.16,8.49,3.07,8.49,8.36s-4.05,8.67-10.58,8.67c-3.69,0-7.38-.98-10.01-2.58l1.25-4.67c2.58,1.56,5.51,2.67,8.85,2.67,3.02,0,5.16-1.47,5.16-3.69Z"/><path class="cls-1" d="M640.49,794.78v-27.79h18.94v4.58h-13.61v6.98h11.16v4.58h-11.16v7.07h13.61v4.58h-18.94Z"/><path class="cls-1" d="M670.77,794.78h-5.43v-27.79s9.83,0,9.74,0c7.03,0,10.76,3.34,10.76,8.45,0,3.96-2.22,6.72-6,8l7.29,11.34h-6.18l-6.18-10.18-4,.27v9.92ZM674.77,780.5c3.33-.18,5.51-1.69,5.51-4.71s-2.18-4.27-6.05-4.27h-3.51v9.07l4.05-.09Z"/><path class="cls-1" d="M704.68,794.78h-6.58l-9.87-27.79h5.6l7.6,22.32,7.6-22.32h5.6l-9.96,27.79Z"/><path class="cls-1" d="M718.72,794.78v-27.79h5.38v27.79h-5.38Z"/><path class="cls-1" d="M729.81,780.95c0-8.89,5.83-14.63,14.5-14.63,3.25,0,6.58.85,8.98,2.18l-1.69,4.71c-2.22-1.47-4.63-2.22-7.29-2.22-5.43,0-9.03,3.74-9.03,9.78s3.51,10.01,9.12,10.01c2.85,0,5.56-1.07,7.6-2.49l1.02,4.98c-2.05,1.25-5.16,2.05-8.09,2.18-.98.89-1.91,1.78-2.13,1.96,3.29.09,5.56,1.56,5.56,4.05,0,2.76-2.31,4.71-8.05,5.42l-.31-2.71c3.56-.22,4.94-1.07,4.94-2.4,0-1.51-1.69-2.13-5.25-1.69l-.4-2.09,2.8-2.67c-7.38-.8-12.27-6-12.27-14.36Z"/><path class="cls-1" d="M770.71,795.44c-8.23,0-14.27-5.38-14.27-14.5,0-8.58,6.09-14.63,14.32-14.63s14.23,5.34,14.23,14.45c0,8.58-6.05,14.67-14.27,14.67ZM770.62,770.85c-5.29,0-8.72,4-8.72,9.92s3.47,10.14,8.89,10.14,8.76-4.05,8.76-9.96-3.51-10.09-8.94-10.09Z"/><path class="cls-1" d="M803.89,787.17c0-2.31-2.09-3.16-6.18-4.27-4-1.11-8.63-2.89-8.63-8.36,0-4.94,3.78-8.23,9.96-8.23,3.78,0,6.89.93,9.56,2.45l-1.33,4.58c-2.45-1.47-5.56-2.4-8.18-2.4-3.25,0-4.67,1.38-4.67,3.29,0,2.27,2.49,3.16,6.32,4.18,4.18,1.16,8.49,3.07,8.49,8.36s-4.05,8.67-10.58,8.67c-3.69,0-7.38-.98-10.01-2.58l1.25-4.67c2.58,1.56,5.51,2.67,8.85,2.67,3.02,0,5.16-1.47,5.16-3.69Z"/></svg>