<?xml version="1.0" encoding="UTF-8"?><svg id="Layer_1" xmlns="http://www.w3.org/2000/svg" viewBox="0 0 1080 1080"><defs><style>.cls-1{fill:#38353b;stroke-width:0px;}</style></defs><path class="cls-1" d="M505.28,70.14l8.52,26.22c.12.37.47.63.87.63h27.57c.88,0,1.25,1.13.53,1.65l-22.3,16.2c-.32.23-.45.64-.33,1.02l8.52,26.22c.27.84-.69,1.53-1.4,1.02l-22.3-16.2c-.32-.23-.75-.23-1.07,0l-22.3,16.2c-.71.52-1.67-.18-1.4-1.02l8.52-26.22c.12-.37-.01-.79-.33-1.02l-22.3-16.2c-.71-.52-.35-1.65.53-1.65h27.57c.39,0,.74-.25.87-.63l8.52-26.22c.27-.84,1.46-.84,1.73,0Z"/><path class="cls-1" d="M676.48,263.34c62.69,62.69,62.69,164.34,0,227.04-62.69,62.69-164.34,62.69-227.04,0l-81.09-81.09c-17.91-17.91-17.91-46.96,0-64.87h0s113.52,113.52,113.52,113.52c44.78,44.78,117.39,44.78,162.17,0,44.78-44.78,44.78-117.39,0-162.17l-.05-.05-.08-.08-64.69-64.69s-8.22-9.41-11.16-14.55c-15.07-26.28-11.38-60.39,11.07-82.85,26.87-26.87,70.43-26.87,97.3,0,14.41,14.41,21.09,33.62,20.05,52.48l28.6,28.61c-8.96,8.96-23.48,8.96-32.43,0l-48.65-48.65c-8.96-8.96-23.48-8.96-32.43,0-8.96,8.96-8.96,23.48,0,32.43l45.88,45.88h0s19.04,19.04,19.04,19.04Z"/><path class="cls-1" d="M611.61,425.51c-26.87,26.87-70.43,26.87-97.3,0l-145.95-145.95c-17.91-17.91-17.91-46.96,0-64.87h0s178.39,178.39,178.39,178.39c8.96,8.96,23.48,8.96,32.43,0,8.96-8.96,8.96-23.48,0-32.43l-210.82-210.82c-17.91-17.91-17.91-46.96,0-64.87h0s243.25,243.25,243.25,243.25c26.87,26.87,26.87,70.43,0,97.3Z"/><path class="cls-1" d="M8.45,1009.68v-51.98h10.77v51.98h-10.77Z"/><path class="cls-1" d="M66.97,957.69h10.25l25.84,33.64v-33.64h10.1v51.98h-9.51l-26.51-34.75v34.75h-10.17v-51.98Z"/><path class="cls-1" d="M177.02,1009.68l-21.09-51.98h11.66l15.89,41.07,16.26-41.07h11.14l-21.39,51.98h-12.48Z"/><path class="cls-1" d="M253.58,1009.68v-51.98h39.95v9.36h-29.19v11.88h19.23v9.06h-19.23v12.33h29.48v9.36h-40.25Z"/><path class="cls-1" d="M335.34,1001.43l6.16-7.72c3.02,2.62,5.93,4.54,8.73,5.76,2.8,1.21,5.75,1.82,8.87,1.82s5.79-.59,7.72-1.78,2.9-2.77,2.9-4.75c0-1.78-.66-3.17-1.97-4.16s-3.5-1.73-6.57-2.23l-10.32-1.78c-4.45-.74-7.83-2.3-10.14-4.68s-3.45-5.44-3.45-9.21c0-4.85,1.84-8.69,5.53-11.51,3.69-2.82,8.68-4.23,14.96-4.23,3.76,0,7.56.64,11.4,1.93,3.84,1.28,7.19,3.07,10.06,5.34l-5.79,8.02c-2.77-2.13-5.49-3.7-8.17-4.71-2.67-1.01-5.42-1.52-8.24-1.52s-5.17.53-6.91,1.6c-1.73,1.06-2.6,2.49-2.6,4.27,0,1.58.57,2.82,1.71,3.71,1.14.89,3.04,1.54,5.72,1.93l9.8,1.64c5.15.84,9.02,2.49,11.62,4.94,2.6,2.45,3.9,5.68,3.9,9.69,0,5.05-1.99,9.09-5.98,12.1-3.99,3.02-9.29,4.53-15.93,4.53-4.16,0-8.26-.79-12.29-2.37-4.04-1.59-7.61-3.79-10.73-6.61Z"/><path class="cls-1" d="M420.22,967.2v-9.5h45.74v9.5h-17.45v42.48h-10.77v-42.48h-17.52Z"/><path class="cls-1" d="M510.3,1009.68v-51.98h10.77v51.98h-10.77Z"/><path class="cls-1" d="M596.73,1005.96l-17.97-34.53v38.24h-9.95v-51.98h13.81l14.26,27.92,14.26-27.92h13.81v51.98h-10.17v-38.17l-18.05,34.46Z"/><path class="cls-1" d="M672.63,1009.68v-51.98h39.95v9.36h-29.19v11.88h19.23v9.06h-19.23v12.33h29.48v9.36h-40.25Z"/><path class="cls-1" d="M758.84,957.69h10.25l25.84,33.64v-33.64h10.1v51.98h-9.51l-26.51-34.75v34.75h-10.17v-51.98Z"/><path class="cls-1" d="M849.44,967.2v-9.5h45.74v9.5h-17.45v42.48h-10.77v-42.48h-17.52Z"/><path class="cls-1" d="M989.34,983.69c0,3.71-.72,7.22-2.15,10.51-1.44,3.3-3.38,6.14-5.83,8.54-2.45,2.4-5.36,4.3-8.73,5.68-3.37,1.39-6.98,2.08-10.84,2.08s-7.4-.69-10.77-2.08-6.27-3.28-8.72-5.68c-2.45-2.4-4.39-5.24-5.83-8.54-1.44-3.29-2.15-6.79-2.15-10.51s.72-7.22,2.15-10.51c1.44-3.3,3.38-6.14,5.83-8.54,2.45-2.4,5.36-4.29,8.72-5.68,3.37-1.39,6.96-2.08,10.77-2.08s7.47.69,10.84,2.08c3.37,1.39,6.27,3.28,8.73,5.68,2.45,2.4,4.39,5.25,5.83,8.54,1.44,3.29,2.15,6.79,2.15,10.51ZM978.28,983.69c0-2.43-.42-4.66-1.26-6.72-.84-2.05-1.99-3.84-3.45-5.35-1.46-1.51-3.21-2.7-5.24-3.56-2.03-.87-4.21-1.3-6.53-1.3s-4.49.43-6.5,1.3c-2,.86-3.74,2.05-5.2,3.56-1.46,1.51-2.61,3.3-3.45,5.35-.84,2.06-1.26,4.29-1.26,6.72s.42,4.6,1.26,6.68,1.99,3.87,3.45,5.38c1.46,1.51,3.19,2.7,5.2,3.57,2,.87,4.17,1.3,6.5,1.3s4.5-.43,6.53-1.3c2.03-.86,3.78-2.05,5.24-3.57,1.46-1.51,2.61-3.3,3.45-5.38.84-2.08,1.26-4.31,1.26-6.68Z"/><path class="cls-1" d="M1030.55,1001.43l6.16-7.72c3.02,2.62,5.93,4.54,8.73,5.76,2.8,1.21,5.75,1.82,8.87,1.82s5.79-.59,7.72-1.78,2.9-2.77,2.9-4.75c0-1.78-.66-3.17-1.97-4.16s-3.5-1.73-6.57-2.23l-10.32-1.78c-4.45-.74-7.83-2.3-10.14-4.68s-3.45-5.44-3.45-9.21c0-4.85,1.84-8.69,5.53-11.51,3.69-2.82,8.68-4.23,14.96-4.23,3.76,0,7.56.64,11.4,1.93,3.84,1.28,7.19,3.07,10.06,5.34l-5.79,8.02c-2.77-2.13-5.49-3.7-8.17-4.71-2.67-1.01-5.42-1.52-8.24-1.52s-5.17.53-6.91,1.6-2.6,2.49-2.6,4.27c0,1.58.57,2.82,1.71,3.71,1.14.89,3.04,1.54,5.72,1.93l9.8,1.64c5.15.84,9.02,2.49,11.62,4.94,2.6,2.45,3.9,5.68,3.9,9.69,0,5.05-1.99,9.09-5.98,12.1-3.99,3.02-9.29,4.53-15.93,4.53-4.16,0-8.26-.79-12.29-2.37-4.04-1.59-7.61-3.79-10.73-6.61Z"/><path class="cls-1" d="M114.02,783.28c11.09,0,21.47-2.32,31.15-6.96,9.68-4.64,18.25-11.29,25.71-19.96l28.73,28.43c-10.08,11.9-22.94,21.38-38.56,28.43-15.63,7.06-31.71,10.59-48.24,10.59s-30.8-2.83-44.61-8.47c-13.81-5.65-25.76-13.31-35.84-22.99-10.09-9.68-18-21.17-23.74-34.48-5.75-13.31-8.62-27.62-8.62-42.95s2.92-29.69,8.77-43.1c5.85-13.41,13.81-24.95,23.89-34.63,10.08-9.68,22.03-17.34,35.84-22.99,13.81-5.64,28.58-8.47,44.31-8.47,16.94,0,33.37,3.58,49.3,10.74,15.93,7.16,28.83,16.79,38.71,28.88l-29.64,29.34c-7.46-9.27-16.23-16.38-26.31-21.32-10.08-4.94-20.77-7.41-32.06-7.41-9.48,0-18.4,1.77-26.77,5.29-8.37,3.53-15.58,8.37-21.63,14.51-6.05,6.15-10.79,13.41-14.21,21.78-3.43,8.37-5.14,17.5-5.14,27.37s1.76,18.71,5.29,27.07c3.53,8.37,8.36,15.57,14.52,21.63,6.15,6.05,13.41,10.84,21.78,14.37,8.36,3.53,17.49,5.29,27.37,5.29Z"/><path class="cls-1" d="M268.81,828.04l2.42-5.74-61.4-159.09h45.67l39.02,107.37,44.76-107.37h44.76l-72.59,169.98c-8.07,18.95-17.44,32.47-28.13,40.53-10.69,8.06-24.6,12.1-41.74,12.1-3.63,0-7.11-.15-10.43-.46-3.33-.3-6-.76-8.02-1.36v-35.69c2.01.4,4.13.7,6.35.91,2.22.2,4.94.31,8.17.31,7.46,0,13.76-1.82,18.9-5.45,5.14-3.63,9.23-8.97,12.25-16.03Z"/><path class="cls-1" d="M466.31,821.69c-11.09,0-21.53-2.11-31.3-6.35-9.78-4.23-18.25-9.98-25.41-17.24-7.16-7.26-12.81-15.78-16.94-25.56-4.13-9.78-6.2-20.31-6.2-31.61s2.12-21.52,6.35-31.3c4.23-9.78,9.98-18.3,17.24-25.56,7.26-7.26,15.83-12.95,25.71-17.09,9.88-4.13,20.46-6.2,31.76-6.2,7.86,0,15.37,1.11,22.53,3.33,7.15,2.22,13.86,5.34,20.11,9.37v-10.29h40.83v157.58c0,20.76-6.71,36.8-20.11,48.09-13.41,11.29-32.72,16.94-57.92,16.94-12.1,0-23.74-1.21-34.93-3.63-11.19-2.42-21.43-5.95-30.7-10.59l14.52-32.36c8.67,4.23,17.14,7.41,25.41,9.53,8.27,2.11,16.53,3.17,24.8,3.17,12.3,0,21.63-2.67,27.98-8.01,6.35-5.35,9.53-13.16,9.53-23.44v-13c-6.25,4.64-13.06,8.17-20.42,10.59-7.36,2.42-14.97,3.63-22.83,3.63ZM427.29,740.93c0,12.7,4.39,23.49,13.16,32.36,8.77,8.87,19.51,13.31,32.21,13.31,7.46,0,14.31-1.26,20.57-3.78,6.25-2.52,11.69-6,16.33-10.43v-62c-4.44-4.43-9.88-7.91-16.33-10.43-6.45-2.52-13.21-3.78-20.26-3.78-12.7,0-23.49,4.34-32.36,13-8.87,8.67-13.31,19.26-13.31,31.76Z"/><path class="cls-1" d="M587.22,820.78v-157.58h41.44v12.4c6.05-5.04,12.75-8.87,20.11-11.49,7.36-2.62,15.37-3.93,24.04-3.93,18.15,0,33.07,5.85,44.76,17.54,11.69,11.7,17.54,26.72,17.54,45.06v97.99h-41.44v-91.94c0-9.88-2.98-17.85-8.92-23.89-5.95-6.05-13.87-9.07-23.74-9.07-6.86,0-13.06,1.36-18.6,4.08-5.55,2.72-10.13,6.61-13.76,11.65v109.18h-41.44Z"/><path class="cls-1" d="M807.89,663.2v91.65c0,10.08,2.97,18.14,8.92,24.2,5.95,6.05,13.86,9.07,23.74,9.07,7.06,0,13.36-1.36,18.9-4.09,5.54-2.72,10.13-6.6,13.76-11.64v-109.19h41.44v157.58h-41.44v-12.7c-6.05,5.04-12.81,8.92-20.26,11.64-7.46,2.72-15.53,4.09-24.2,4.09-18.15,0-33.07-5.9-44.76-17.69-11.7-11.8-17.54-26.86-17.54-45.22v-97.69h41.44Z"/><path class="cls-1" d="M938.76,802.03l20.57-27.52c9.27,6.05,18.04,10.54,26.31,13.45,8.27,2.93,16.53,4.39,24.8,4.39,9.27,0,16.68-1.51,22.23-4.54,5.54-3.03,8.32-7.06,8.32-12.1,0-4.03-1.56-7.26-4.69-9.68-3.13-2.42-8.12-4.13-14.97-5.14l-30.25-4.54c-15.53-2.42-27.37-7.46-35.54-15.12-8.17-7.66-12.25-17.84-12.25-30.55,0-15.12,5.95-27.22,17.84-36.29,11.89-9.07,27.83-13.61,47.79-13.61,11.49,0,22.68,1.66,33.57,4.99,10.89,3.33,21.27,8.22,31.15,14.67l-19.96,26.61c-8.67-5.04-16.94-8.82-24.8-11.34-7.86-2.52-15.83-3.78-23.89-3.78-7.46,0-13.46,1.41-18,4.23-4.54,2.82-6.81,6.55-6.81,11.19,0,4.23,1.66,7.51,4.99,9.83,3.33,2.32,8.82,3.98,16.48,4.99l30.24,4.54c15.32,2.22,27.17,7.26,35.54,15.12,8.37,7.86,12.55,17.85,12.55,29.94,0,7.46-1.77,14.37-5.29,20.72-3.53,6.35-8.32,11.85-14.37,16.48-6.05,4.64-13.31,8.27-21.78,10.89-8.47,2.62-17.65,3.93-27.52,3.93-14.32,0-27.73-1.87-40.23-5.6-12.5-3.73-23.19-9.12-32.06-16.18Z"/></svg>