<?xml version="1.0" encoding="UTF-8"?><svg id="Layer_1" xmlns="http://www.w3.org/2000/svg" viewBox="0 0 1080 1080"><defs><style>.cls-1{fill:#403b65;}.cls-1,.cls-2,.cls-3{stroke-width:0px;}.cls-2{fill:#da841d;}.cls-3{fill:#f7f7f8;}</style></defs><rect class="cls-3" width="1080" height="1080"/><path class="cls-2" d="M518.7,251.67l5.23,16.09c.07.23.29.39.53.39h16.92c.54,0,.77.69.33,1.01l-13.68,9.94c-.2.14-.28.39-.2.62l5.23,16.09c.17.51-.42.94-.86.62l-13.68-9.94c-.2-.14-.46-.14-.66,0l-13.68,9.94c-.44.32-1.03-.11-.86-.62l5.23-16.09c.07-.23,0-.48-.2-.62l-13.68-9.94c-.44-.32-.21-1.01.33-1.01h16.92c.24,0,.46-.16.53-.39l5.23-16.09c.17-.51.89-.51,1.06,0Z"/><path class="cls-2" d="M623.75,370.23c38.47,38.47,38.47,100.85,0,139.32-38.47,38.47-100.85,38.47-139.32,0l-49.76-49.76c-10.99-10.99-10.99-28.81,0-39.81h0s69.66,69.66,69.66,69.66c27.48,27.48,72.03,27.48,99.51,0,27.48-27.48,27.48-72.03,0-99.51l-.03-.03-.05-.05-39.7-39.7s-5.05-5.78-6.85-8.93c-9.25-16.13-6.98-37.06,6.79-50.84,16.49-16.49,43.22-16.49,59.71,0,8.84,8.84,12.94,20.63,12.3,32.2l17.55,17.55c-5.5,5.5-14.41,5.5-19.9,0l-29.85-29.85c-5.5-5.5-14.41-5.5-19.9,0-5.5,5.5-5.5,14.41,0,19.9l28.16,28.16h0s11.68,11.68,11.68,11.68Z"/><path class="cls-2" d="M583.94,469.74c-16.49,16.49-43.22,16.49-59.71,0l-89.56-89.56c-10.99-10.99-10.99-28.81,0-39.81h0s109.47,109.47,109.47,109.47c5.5,5.5,14.41,5.5,19.9,0,5.5-5.5,5.5-14.41,0-19.9l-129.37-129.37c-10.99-10.99-10.99-28.81,0-39.81h0s149.27,149.27,149.27,149.27c16.49,16.49,16.49,43.22,0,59.71Z"/><path class="cls-2" d="M213.82,828.21v-31.9h6.61v31.9h-6.61Z"/><path class="cls-2" d="M249.73,796.32h6.29l15.86,20.64v-20.64h6.2v31.9h-5.83l-16.27-21.33v21.33h-6.24v-31.9Z"/><path class="cls-2" d="M317.26,828.21l-12.94-31.9h7.16l9.75,25.2,9.98-25.2h6.84l-13.12,31.9h-7.65Z"/><path class="cls-2" d="M364.24,828.21v-31.9h24.52v5.74h-17.91v7.29h11.8v5.56h-11.8v7.56h18.09v5.74h-24.7Z"/><path class="cls-2" d="M414.42,823.16l3.78-4.74c1.85,1.61,3.64,2.79,5.36,3.53,1.71.74,3.53,1.12,5.45,1.12s3.55-.36,4.74-1.09c1.19-.73,1.78-1.7,1.78-2.91,0-1.09-.4-1.94-1.21-2.55-.81-.61-2.15-1.06-4.03-1.37l-6.33-1.09c-2.73-.45-4.81-1.41-6.22-2.87s-2.12-3.34-2.12-5.65c0-2.98,1.13-5.33,3.4-7.06,2.26-1.73,5.32-2.6,9.18-2.6,2.31,0,4.64.4,6.99,1.19,2.36.79,4.41,1.88,6.17,3.28l-3.55,4.92c-1.7-1.31-3.37-2.27-5.01-2.89s-3.33-.94-5.06-.94-3.18.33-4.24.98c-1.07.65-1.6,1.53-1.6,2.62,0,.97.35,1.73,1.05,2.28.7.55,1.87.94,3.51,1.18l6.01,1c3.16.52,5.54,1.53,7.13,3.03,1.6,1.5,2.39,3.49,2.39,5.95,0,3.1-1.22,5.58-3.67,7.43-2.45,1.85-5.7,2.78-9.77,2.78-2.55,0-5.07-.49-7.54-1.46-2.48-.97-4.67-2.33-6.58-4.06Z"/><path class="cls-2" d="M466.5,802.15v-5.83h28.07v5.83h-10.71v26.07h-6.61v-26.07h-10.76Z"/><path class="cls-2" d="M521.78,828.21v-31.9h6.61v31.9h-6.61Z"/><path class="cls-2" d="M574.82,825.94l-11.03-21.19v23.47h-6.1v-31.9h8.47l8.75,17.13,8.75-17.13h8.48v31.9h-6.24v-23.42l-11.07,21.15Z"/><path class="cls-2" d="M621.39,828.21v-31.9h24.52v5.74h-17.91v7.29h11.8v5.56h-11.8v7.56h18.09v5.74h-24.7Z"/><path class="cls-2" d="M674.29,796.32h6.29l15.86,20.64v-20.64h6.2v31.9h-5.83l-16.27-21.33v21.33h-6.24v-31.9Z"/><path class="cls-2" d="M729.88,802.15v-5.83h28.07v5.83h-10.71v26.07h-6.61v-26.07h-10.76Z"/><path class="cls-2" d="M815.74,812.26c0,2.28-.44,4.43-1.32,6.45-.88,2.02-2.07,3.77-3.58,5.24-1.5,1.48-3.29,2.64-5.35,3.49-2.07.85-4.28,1.28-6.65,1.28s-4.54-.43-6.61-1.28c-2.06-.85-3.85-2.01-5.35-3.49-1.5-1.47-2.7-3.22-3.58-5.24-.88-2.02-1.32-4.17-1.32-6.45s.44-4.43,1.32-6.45c.88-2.02,2.07-3.77,3.58-5.24,1.5-1.47,3.29-2.64,5.35-3.49,2.07-.85,4.27-1.28,6.61-1.28s4.59.43,6.65,1.28c2.06.85,3.85,2.01,5.35,3.49,1.5,1.48,2.7,3.22,3.58,5.24.88,2.02,1.32,4.17,1.32,6.45ZM808.95,812.26c0-1.49-.26-2.86-.78-4.12-.52-1.26-1.22-2.35-2.12-3.28-.89-.93-1.97-1.66-3.21-2.19-1.25-.53-2.58-.8-4.01-.8s-2.76.27-3.99.8c-1.23.53-2.29,1.26-3.19,2.19-.9.93-1.6,2.02-2.12,3.28-.52,1.26-.77,2.64-.77,4.12s.26,2.82.77,4.1c.52,1.28,1.22,2.38,2.12,3.3.89.93,1.96,1.66,3.19,2.19,1.23.53,2.56.8,3.99.8s2.76-.27,4.01-.8c1.25-.53,2.32-1.26,3.21-2.19.9-.93,1.6-2.03,2.12-3.3s.78-2.64.78-4.1Z"/><path class="cls-2" d="M841.03,823.16l3.78-4.74c1.85,1.61,3.64,2.79,5.36,3.53,1.71.74,3.53,1.12,5.45,1.12s3.55-.36,4.74-1.09c1.19-.73,1.78-1.7,1.78-2.91,0-1.09-.4-1.94-1.21-2.55-.81-.61-2.15-1.06-4.03-1.37l-6.33-1.09c-2.73-.45-4.81-1.41-6.22-2.87s-2.12-3.34-2.12-5.65c0-2.98,1.13-5.33,3.4-7.06,2.26-1.73,5.32-2.6,9.18-2.6,2.31,0,4.64.4,6.99,1.19,2.36.79,4.41,1.88,6.17,3.28l-3.55,4.92c-1.7-1.31-3.37-2.27-5.01-2.89s-3.33-.94-5.06-.94-3.18.33-4.24.98c-1.07.65-1.6,1.53-1.6,2.62,0,.97.35,1.73,1.05,2.28.7.55,1.87.94,3.51,1.18l6.01,1c3.16.52,5.54,1.53,7.13,3.03,1.6,1.5,2.39,3.49,2.39,5.95,0,3.1-1.22,5.58-3.67,7.43-2.45,1.85-5.7,2.78-9.77,2.78-2.55,0-5.07-.49-7.54-1.46-2.48-.97-4.67-2.33-6.58-4.06Z"/><path class="cls-1" d="M278.6,689.29c6.8,0,13.18-1.42,19.12-4.27,5.94-2.84,11.2-6.93,15.78-12.25l17.63,17.45c-6.19,7.3-14.08,13.12-23.66,17.45-9.59,4.33-19.46,6.5-29.6,6.5s-18.9-1.73-27.38-5.2c-8.48-3.46-15.81-8.17-21.99-14.11-6.19-5.94-11.04-12.99-14.57-21.16-3.53-8.17-5.29-16.95-5.29-26.36s1.79-18.22,5.38-26.45c3.59-8.23,8.47-15.31,14.66-21.25,6.19-5.94,13.52-10.64,21.99-14.11,8.47-3.46,17.54-5.2,27.19-5.2,10.39,0,20.48,2.2,30.25,6.59,9.77,4.39,17.69,10.3,23.76,17.73l-18.19,18c-4.58-5.69-9.96-10.05-16.15-13.08-6.19-3.03-12.75-4.55-19.67-4.55-5.82,0-11.29,1.08-16.43,3.25-5.14,2.17-9.56,5.14-13.27,8.91-3.71,3.78-6.62,8.23-8.72,13.36-2.11,5.14-3.16,10.74-3.16,16.8s1.08,11.48,3.25,16.61c2.16,5.14,5.13,9.56,8.91,13.27,3.77,3.71,8.23,6.65,13.36,8.82,5.13,2.17,10.73,3.25,16.8,3.25Z"/><path class="cls-1" d="M373.58,716.75l1.48-3.53-37.68-97.63h28.02l23.94,65.89,27.47-65.89h27.47l-44.54,104.31c-4.95,11.63-10.7,19.92-17.26,24.87-6.56,4.95-15.1,7.42-25.61,7.42-2.23,0-4.36-.09-6.4-.28-2.04-.19-3.68-.46-4.92-.84v-21.9c1.24.25,2.54.43,3.9.56,1.36.12,3.03.19,5.01.19,4.58,0,8.44-1.12,11.6-3.34,3.16-2.23,5.66-5.51,7.52-9.84Z"/><path class="cls-1" d="M494.78,712.86c-6.81,0-13.21-1.3-19.21-3.9-6-2.6-11.2-6.13-15.59-10.58-4.39-4.45-7.86-9.68-10.39-15.68-2.54-6-3.8-12.47-3.8-19.4s1.3-13.21,3.9-19.21c2.6-6,6.12-11.23,10.58-15.68,4.45-4.45,9.71-7.95,15.78-10.49,6.06-2.53,12.56-3.8,19.49-3.8,4.83,0,9.43.68,13.83,2.04,4.39,1.36,8.51,3.28,12.34,5.75v-6.31h25.06v96.7c0,12.74-4.12,22.58-12.34,29.51-8.23,6.93-20.08,10.4-35.54,10.4-7.42,0-14.57-.74-21.44-2.23-6.87-1.49-13.15-3.65-18.84-6.5l8.91-19.86c5.32,2.6,10.52,4.55,15.59,5.85,5.07,1.3,10.14,1.95,15.22,1.95,7.55,0,13.27-1.64,17.17-4.92,3.9-3.28,5.85-8.07,5.85-14.39v-7.98c-3.84,2.85-8.01,5.01-12.53,6.5-4.52,1.48-9.19,2.22-14.01,2.22ZM470.84,663.3c0,7.79,2.69,14.42,8.07,19.86,5.38,5.45,11.97,8.17,19.77,8.17,4.58,0,8.78-.77,12.62-2.32,3.83-1.54,7.17-3.68,10.02-6.4v-38.05c-2.72-2.72-6.06-4.85-10.02-6.4-3.96-1.54-8.11-2.32-12.43-2.32-7.8,0-14.42,2.66-19.86,7.98-5.45,5.32-8.17,11.82-8.17,19.49Z"/><path class="cls-1" d="M568.98,712.3v-96.7h25.43v7.61c3.71-3.09,7.82-5.44,12.34-7.05,4.51-1.61,9.43-2.41,14.75-2.41,11.14,0,20.29,3.59,27.47,10.76,7.17,7.18,10.76,16.4,10.76,27.65v60.13h-25.43v-56.42c0-6.06-1.83-10.95-5.48-14.66-3.65-3.71-8.51-5.57-14.57-5.57-4.21,0-8.01.83-11.41,2.5-3.4,1.67-6.22,4.05-8.44,7.15v67h-25.43Z"/><path class="cls-1" d="M704.39,615.6v56.24c0,6.19,1.82,11.13,5.48,14.85,3.65,3.71,8.51,5.57,14.57,5.57,4.33,0,8.2-.84,11.6-2.51,3.4-1.67,6.22-4.05,8.44-7.14v-67h25.43v96.7h-25.43v-7.79c-3.71,3.09-7.86,5.48-12.44,7.14-4.58,1.67-9.53,2.51-14.85,2.51-11.14,0-20.29-3.62-27.47-10.86-7.18-7.24-10.76-16.49-10.76-27.75v-59.95h25.43Z"/><path class="cls-1" d="M784.69,700.79l12.62-16.89c5.69,3.71,11.07,6.47,16.15,8.26,5.07,1.8,10.14,2.69,15.22,2.69,5.69,0,10.24-.93,13.64-2.78,3.4-1.86,5.1-4.33,5.1-7.42,0-2.47-.96-4.45-2.88-5.94-1.92-1.48-4.98-2.53-9.19-3.15l-18.56-2.78c-9.53-1.49-16.8-4.58-21.81-9.28-5.01-4.7-7.52-10.95-7.52-18.75,0-9.28,3.65-16.7,10.95-22.27,7.3-5.57,17.07-8.35,29.32-8.35,7.05,0,13.92,1.02,20.6,3.06,6.68,2.04,13.05,5.04,19.12,9l-12.25,16.33c-5.32-3.09-10.39-5.41-15.22-6.96-4.83-1.55-9.71-2.32-14.66-2.32-4.58,0-8.26.87-11.04,2.6-2.78,1.73-4.18,4.02-4.18,6.87,0,2.6,1.02,4.61,3.06,6.03,2.04,1.42,5.41,2.44,10.12,3.06l18.56,2.78c9.4,1.36,16.67,4.45,21.81,9.28,5.13,4.83,7.7,10.95,7.7,18.38,0,4.58-1.08,8.82-3.25,12.71-2.17,3.9-5.1,7.27-8.82,10.11-3.71,2.85-8.17,5.07-13.36,6.68-5.2,1.61-10.83,2.41-16.89,2.41-8.79,0-17.01-1.15-24.68-3.43-7.67-2.29-14.23-5.6-19.67-9.93Z"/></svg>