<?xml version="1.0" encoding="UTF-8"?><svg id="Layer_1" xmlns="http://www.w3.org/2000/svg" viewBox="0 0 1080 1080"><defs><style>.cls-1{fill:#afb700;}.cls-1,.cls-2,.cls-3{stroke-width:0px;}.cls-2{fill:#696d6f;}.cls-3{fill:#f7f7f8;}</style></defs><rect class="cls-3" width="1080" height="1080"/><path class="cls-2" d="M374.66,508.17h43.91c40.65,0,64.23,23.42,64.23,56.26v.32c0,32.85-23.9,57.24-64.88,57.24h-43.26v-113.83ZM419.05,594.03c18.86,0,31.38-10.41,31.38-28.78v-.32c0-18.21-12.52-28.78-31.38-28.78h-12.85v57.89h12.85Z"/><path class="cls-2" d="M529.54,535.82h-34.15v-27.64h99.84v27.64h-34.15v86.18h-31.55v-86.18Z"/><path class="cls-2" d="M606.94,605.09l17.56-20.98c11.22,8.94,23.74,13.66,36.91,13.66,8.46,0,13.01-2.93,13.01-7.81v-.33c0-4.72-3.74-7.32-19.19-10.9-24.23-5.53-42.93-12.36-42.93-35.77v-.32c0-21.14,16.75-36.43,44.07-36.43,19.35,0,34.47,5.2,46.83,15.12l-15.77,22.28c-10.41-7.32-21.79-11.22-31.87-11.22-7.64,0-11.38,3.25-11.38,7.32v.32c0,5.2,3.9,7.48,19.68,11.06,26.18,5.69,42.44,14.15,42.44,35.45v.32c0,23.25-18.37,37.08-46.02,37.08-20.16,0-39.35-6.34-53.34-18.86Z"/><path class="cls-1" d="M374.66,649.48h31.51v83.85h52.81v26.89h-84.32v-110.74Z"/><path class="cls-1" d="M464.6,705.17v-.32c0-31.8,25.63-57.59,59.8-57.59s59.48,25.47,59.48,57.27v.32c0,31.8-25.63,57.59-59.8,57.59s-59.48-25.47-59.48-57.27ZM552.57,705.17v-.32c0-15.98-11.55-29.9-28.48-29.9s-28,13.61-28,29.58v.32c0,15.98,11.55,29.9,28.32,29.9s28.16-13.61,28.16-29.58Z"/><path class="cls-1" d="M594.84,705.17v-.32c0-32.27,25.31-57.59,59.64-57.59,19.46,0,33.22,6.01,44.93,16.14l-18.04,21.67c-7.91-6.64-15.82-10.44-26.74-10.44-15.98,0-28.32,13.45-28.32,30.38v.32c0,17.88,12.5,30.69,30.06,30.69,7.44,0,13.13-1.58,17.72-4.59v-13.45h-21.83v-22.46h50.94v49.83c-11.71,9.65-28,17.09-48.09,17.09-34.49,0-60.28-23.73-60.28-57.27Z"/><polygon class="cls-1" points="595.24 193.13 595.24 287.67 563.73 287.67 563.73 246.92 491.48 319.18 532.22 319.18 532.22 350.69 437.68 350.69 437.68 256.16 469.19 256.16 469.19 296.9 541.45 224.64 500.7 224.64 500.7 193.13 595.24 193.13"/><path class="cls-2" d="M469.19,193.13v31.51h-63.02v63.03h-31.51v-94.54h94.53ZM406.17,382.2v-63.02h-31.51v94.53h94.53v-31.51h-63.02ZM563.73,319.18v63.02h-63.03v31.51h94.54v-94.53h-31.51Z"/><path class="cls-2" d="M388.78,836.91c-8.78,0-15.08-6.54-15.08-14.63v-.08c0-8.09,6.38-14.71,15.16-14.71s15.08,6.54,15.08,14.63v.08c0,8.09-6.38,14.71-15.16,14.71ZM397.4,822.2c0-4.88-3.58-8.94-8.61-8.94s-8.53,3.98-8.53,8.86v.08c0,4.88,3.58,8.94,8.61,8.94s8.53-3.98,8.53-8.86v-.08Z"/><path class="cls-2" d="M430.42,827.89h-4.75v8.53h-6.26v-28.45h11.62c6.79,0,10.89,4.02,10.89,9.83v.08c0,6.58-5.12,10-11.5,10ZM435.58,817.93c0-2.8-1.95-4.31-5.08-4.31h-4.84v8.7h4.96c3.13,0,4.96-1.87,4.96-4.31v-.08Z"/><path class="cls-2" d="M455.46,836.42v-28.45h21.46v5.57h-15.24v5.77h13.41v5.57h-13.41v5.97h15.44v5.57h-21.66Z"/><path class="cls-2" d="M510,836.42l-6.1-9.1h-4.92v9.1h-6.26v-28.45h13c6.71,0,10.73,3.54,10.73,9.39v.08c0,4.59-2.48,7.48-6.1,8.82l6.95,10.16h-7.31ZM510.12,817.69c0-2.68-1.87-4.06-4.92-4.06h-6.22v8.17h6.34c3.05,0,4.8-1.63,4.8-4.02v-.08Z"/><path class="cls-2" d="M550.16,836.42l-2.6-6.38h-12.03l-2.6,6.38h-6.38l12.19-28.65h5.77l12.19,28.65h-6.54ZM541.55,815.29l-3.78,9.22h7.56l-3.78-9.22Z"/><path class="cls-2" d="M565.54,822.24c0-8.13,6.1-14.75,14.83-14.75,5.36,0,8.57,1.79,11.22,4.39l-3.98,4.59c-2.19-1.99-4.43-3.21-7.27-3.21-4.8,0-8.25,3.98-8.25,8.9s3.37,8.98,8.25,8.98c3.25,0,5.24-1.3,7.48-3.33l3.98,4.02c-2.72,2.93-5.73,4.8-10.61,5.04l-2.64,6.58-5.16-2.15,3.25-4.8c-6.54-1.5-11.09-7.23-11.09-14.26Z"/><path class="cls-2" d="M617.96,836.91c-8.78,0-15.08-6.54-15.08-14.63v-.08c0-8.09,6.38-14.71,15.16-14.71s15.08,6.54,15.08,14.63v.08c0,8.09-6.38,14.71-15.16,14.71ZM626.57,822.2c0-4.88-3.58-8.94-8.61-8.94s-8.53,3.98-8.53,8.86v.08c0,4.88,3.58,8.94,8.61,8.94s8.53-3.98,8.53-8.86v-.08ZM621.33,805.74c-2.52,0-4.63-1.58-6.1-1.58-1.26,0-1.75.69-2.32,1.99l-3.29-1.02c.93-3.41,2.19-5.61,5.04-5.61,2.52,0,4.63,1.58,6.1,1.58,1.26,0,1.75-.69,2.32-1.99l3.29,1.02c-.93,3.41-2.19,5.61-5.04,5.61Z"/><path class="cls-2" d="M647.94,836.42v-28.45h21.46v5.57h-15.24v5.77h13.41v5.57h-13.41v5.97h15.44v5.57h-21.66Z"/><path class="cls-2" d="M694.38,836.83c-4.31,0-8.66-1.5-12.07-4.55l3.7-4.43c2.56,2.11,5.24,3.45,8.49,3.45,2.56,0,4.1-1.02,4.1-2.68v-.08c0-1.58-.98-2.4-5.73-3.62-5.73-1.46-9.43-3.05-9.43-8.7v-.08c0-5.16,4.14-8.57,9.96-8.57,4.14,0,7.68,1.3,10.57,3.62l-3.25,4.71c-2.52-1.75-5-2.8-7.4-2.8s-3.66,1.1-3.66,2.48v.08c0,1.87,1.22,2.48,6.14,3.74,5.77,1.5,9.02,3.58,9.02,8.53v.08c0,5.65-4.31,8.82-10.44,8.82Z"/><path class="cls-2" d="M385.68,877.85h-4.75v8.53h-6.26v-28.45h11.62c6.79,0,10.89,4.02,10.89,9.83v.08c0,6.58-5.12,10-11.5,10ZM390.84,867.89c0-2.8-1.95-4.31-5.08-4.31h-4.84v8.7h4.96c3.13,0,4.96-1.87,4.96-4.31v-.08Z"/><path class="cls-2" d="M422.11,886.87c-8.78,0-15.08-6.54-15.08-14.63v-.08c0-8.09,6.38-14.71,15.16-14.71s15.08,6.54,15.08,14.63v.08c0,8.09-6.38,14.71-15.16,14.71ZM430.72,872.16c0-4.88-3.58-8.94-8.62-8.94s-8.53,3.98-8.53,8.86v.08c0,4.88,3.58,8.94,8.61,8.94s8.53-3.98,8.53-8.86v-.08Z"/><path class="cls-2" d="M466.4,886.38l-6.1-9.1h-4.92v9.1h-6.26v-28.45h13c6.71,0,10.73,3.54,10.73,9.39v.08c0,4.59-2.48,7.48-6.1,8.82l6.95,10.16h-7.31ZM466.52,867.65c0-2.68-1.87-4.06-4.92-4.06h-6.22v8.17h6.34c3.05,0,4.8-1.63,4.8-4.02v-.08Z"/><path class="cls-2" d="M497.6,863.71v22.68h-6.26v-22.68h-8.66v-5.77h23.57v5.77h-8.66Z"/><path class="cls-2" d="M528.97,886.83c-7.64,0-12.31-4.27-12.31-12.64v-16.25h6.26v16.09c0,4.63,2.32,7.03,6.14,7.03s6.14-2.32,6.14-6.83v-16.3h6.26v16.05c0,8.61-4.84,12.84-12.48,12.84Z"/><path class="cls-2" d="M573.74,886.38l-2.6-6.38h-12.03l-2.6,6.38h-6.38l12.19-28.65h5.77l12.19,28.65h-6.54ZM565.13,865.25l-3.78,9.22h7.56l-3.78-9.22ZM562.61,855.7l4.59-7.19,5.32,2.32-5.2,4.88h-4.71Z"/><path class="cls-2" d="M607.99,886.38l-6.1-9.1h-4.92v9.1h-6.26v-28.45h13c6.71,0,10.73,3.54,10.73,9.39v.08c0,4.59-2.48,7.48-6.1,8.82l6.95,10.16h-7.31ZM608.12,867.65c0-2.68-1.87-4.06-4.92-4.06h-6.22v8.17h6.34c3.05,0,4.8-1.63,4.8-4.02v-.08Z"/><path class="cls-2" d="M626.71,886.38v-28.45h6.26v28.45h-6.26Z"/><path class="cls-2" d="M667.06,886.38l-2.6-6.38h-12.03l-2.6,6.38h-6.38l12.19-28.65h5.77l12.19,28.65h-6.54ZM658.44,865.25l-3.78,9.22h7.56l-3.78-9.22Z"/><path class="cls-2" d="M694.41,886.79c-4.31,0-8.66-1.5-12.07-4.55l3.7-4.43c2.56,2.11,5.24,3.45,8.49,3.45,2.56,0,4.1-1.02,4.1-2.68v-.08c0-1.58-.98-2.4-5.73-3.62-5.73-1.46-9.43-3.05-9.43-8.7v-.08c0-5.16,4.14-8.57,9.96-8.57,4.14,0,7.68,1.3,10.57,3.62l-3.25,4.71c-2.52-1.75-5-2.8-7.4-2.8s-3.66,1.1-3.66,2.48v.08c0,1.87,1.22,2.48,6.14,3.74,5.77,1.5,9.02,3.58,9.02,8.53v.08c0,5.65-4.31,8.82-10.44,8.82Z"/></svg>