<?xml version="1.0" encoding="UTF-8"?><svg id="Layer_1" xmlns="http://www.w3.org/2000/svg" viewBox="0 0 1080 1080"><defs><style>.cls-1{fill:#4f6524;}.cls-1,.cls-2,.cls-3{stroke-width:0px;}.cls-2{fill:#f7f7f8;}.cls-3{fill:#c0b400;}</style></defs><rect class="cls-2" y="0" width="1080" height="1080"/><path class="cls-1" d="M376.98,785.61v28.52c0,.68-.55,1.23-1.23,1.23h-13.12c-.68,0-1.23-.55-1.23-1.23v-77.66c0-.68.55-1.23,1.23-1.23h14.72c.56,0,1.05.38,1.19.92l7.3,28.27c.32,1.23,2.07,1.23,2.39,0l7.3-28.27c.14-.54.63-.92,1.19-.92h14.83c.68,0,1.23.55,1.23,1.23v77.66c0,.68-.55,1.23-1.23,1.23h-13.12c-.68,0-1.23-.55-1.23-1.23v-28.6c0-1.41-1.98-1.72-2.41-.37l-6.58,20.73c-.36,1.15-1.99,1.15-2.35,0l-6.48-20.64c-.42-1.35-2.41-1.04-2.41.37Z"/><path class="cls-1" d="M476.98,803.98c0,6.08-2.54,11.38-11.49,11.38h-18.57c-8.95,0-11.49-5.3-11.49-11.38v-58.35c0-6.3,3.32-10.39,10.83-10.39h19.89c7.52,0,10.83,4.09,10.83,10.39v58.35ZM452.99,749.27c-1.11,0-1.44.55-1.44,1.55v48.85c0,1.22.22,1.66,1.55,1.66h6.08c1.33,0,1.55-.44,1.55-1.66v-48.85c0-1-.33-1.55-1.44-1.55h-6.3Z"/><path class="cls-1" d="M532.62,736.15l3.32,12.45c.21.78-.38,1.55-1.19,1.55h-7.88c-.68,0-1.23.55-1.23,1.23v62.74c0,.68-.55,1.23-1.23,1.23h-13.89c-.68,0-1.23-.55-1.23-1.23v-62.74c0-.68-.55-1.23-1.23-1.23h-7.86c-.82,0-1.41-.78-1.19-1.57l3.51-12.45c.15-.53.63-.9,1.19-.9h27.74c.56,0,1.05.38,1.19.92Z"/><path class="cls-1" d="M599.5,803.98c0,6.08-2.54,11.38-11.49,11.38h-18.57c-8.95,0-11.49-5.3-11.49-11.38v-58.35c0-6.3,3.32-10.39,10.83-10.39h19.89c7.52,0,10.83,4.09,10.83,10.39v58.35ZM575.51,749.27c-1.11,0-1.44.55-1.44,1.55v48.85c0,1.22.22,1.66,1.55,1.66h6.08c1.33,0,1.55-.44,1.55-1.66v-48.85c0-1-.33-1.55-1.44-1.55h-6.3Z"/><path class="cls-1" d="M663.3,782.76c0,3.16-2.03,6.32-5.76,6.96-.73.12-1.17.88-.94,1.58l7.38,22.45c.26.8-.33,1.62-1.17,1.62h-13.96c-.54,0-1.02-.36-1.18-.88l-7.47-24.65h-2.1v24.3c0,.68-.55,1.23-1.23,1.23h-13.56c-.68,0-1.23-.55-1.23-1.23v-77.66c0-.68.55-1.23,1.23-1.23h29.16c7.52,0,10.83,4.09,10.83,10.39v37.13ZM638.1,750.51v25.16c0,.68.55,1.23,1.23,1.23h5.38c1.54,0,2.78-1.24,2.78-2.78v-23.19c0-.99-.44-1.66-1.55-1.66h-6.61c-.68,0-1.23.55-1.23,1.23Z"/><path class="cls-1" d="M689.76,814.36l-2.4-12.45c-.15-.76.44-1.47,1.21-1.47h15.75c1.44,0,1.88-.44,1.88-1.66v-13.36c0-1.96-1.59-3.55-3.55-3.55h-7.72c-4.75,0-8.95-1.11-8.95-9.06v-27.19c0-6.3,3.32-10.39,10.83-10.39h21.08c.59,0,1.1.42,1.21,1.01l2.31,12.45c.14.76-.44,1.46-1.21,1.46h-16.64c-1.33,0-1.99.55-1.99,1.77v13.35c0,1.84,1.49,3.33,3.33,3.33h9.16c5.08,0,7.96,2.21,7.96,8.18v26.41c0,8.84-3.09,12.16-12.27,12.16h-18.76c-.59,0-1.1-.42-1.21-1Z"/><path class="cls-1" d="M223.73,586.53h41.98c1.49,0,2.77,1.06,3.04,2.53l3.08,16.62c.35,1.9-1.11,3.66-3.04,3.66h-19.88c-1.71,0-3.1,1.39-3.1,3.1v22.87c0,1.71,1.39,3.1,3.1,3.1h14.09c1.71,0,3.1,1.39,3.1,3.1v14.93c0,1.71-1.39,3.1-3.1,3.1h-14.09c-1.71,0-3.1,1.39-3.1,3.1v20.51c0,1.71,1.39,3.1,3.1,3.1h18.87c1.94,0,3.4,1.76,3.04,3.66l-3.08,16.62c-.27,1.47-1.55,2.53-3.04,2.53h-40.97c-1.71,0-3.1-1.39-3.1-3.1v-116.33c0-1.71,1.39-3.1,3.1-3.1Z"/><path class="cls-1" d="M280.28,586.53h23.11c.57,0,1.04.46,1.04,1.04v97.63c0,.57.46,1.04,1.04,1.04h22.39c.65,0,1.14.59,1.02,1.22l-3.84,20.74c-.09.49-.52.85-1.02.85h-43.73c-.57,0-1.04-.46-1.04-1.04v-120.45c0-.57.46-1.04,1.04-1.04Z"/><path class="cls-1" d="M336.47,586.53h45.76c.5,0,.93.36,1.02.85l3.84,20.74c.12.64-.37,1.22-1.02,1.22h-24.42c-.57,0-1.04.46-1.04,1.04v27c0,.57.46,1.04,1.04,1.04h18.21c.57,0,1.04.46,1.04,1.04v19.05c0,.57-.46,1.04-1.04,1.04h-18.21c-.57,0-1.04.46-1.04,1.04v24.63c0,.57.46,1.04,1.04,1.04h23.41c.65,0,1.14.59,1.02,1.22l-3.84,20.74c-.09.49-.52.85-1.02.85h-44.75c-.57,0-1.04-.46-1.04-1.04v-120.45c0-.57.46-1.04,1.04-1.04Z"/><path class="cls-1" d="M413.14,709.05c-14.03,0-19.1-5.41-19.1-18.93v-88.55c0-9.63,6.25-15.04,14.36-15.04h31.42c.5,0,.93.36,1.02.85l3.84,20.74c.12.64-.37,1.22-1.02,1.22h-22.25c-1.69,0-2.2.84-2.2,2.37v72.16c0,1.52.51,2.37,2.2,2.37h22.24c.65,0,1.14.59,1.02,1.23l-3.99,20.74c-.09.49-.52.84-1.02.84h-26.52Z"/><path class="cls-1" d="M502.33,587.3l5.53,20.74c.18.66-.32,1.3-1,1.3h-14.01c-.57,0-1.04.46-1.04,1.04v97.63c0,.57-.46,1.04-1.04,1.04h-22.94c-.57,0-1.04-.46-1.04-1.04v-97.63c0-.57-.46-1.04-1.04-1.04h-13.99c-.69,0-1.18-.66-1-1.32l5.84-20.74c.13-.45.53-.75,1-.75h43.71c.47,0,.88.32,1,.77Z"/><path class="cls-1" d="M578.27,659.19c0,5.05-3.39,10.11-9.63,10.75-.68.07-1.14.7-.93,1.35l11.98,36.4c.22.67-.28,1.36-.98,1.36h-23.15c-.46,0-.86-.3-.99-.73l-11.61-38.3h-3.21v38c0,.57-.46,1.04-1.04,1.04h-22.43c-.57,0-1.04-.46-1.04-1.04v-120.45c0-.57.46-1.04,1.04-1.04h45.44c11.49,0,16.56,6.25,16.56,15.88v56.78ZM539.74,609.02v40.18c0,.57.46,1.04,1.04,1.04h9.93c1.88,0,3.4-1.52,3.4-3.4v-36.31c0-1.52-.68-2.53-2.37-2.53h-10.96c-.57,0-1.04.46-1.04,1.04Z"/><path class="cls-1" d="M610.18,694.72l-1.94,13.44c-.07.51-.51.89-1.02.89h-22.54c-.65,0-1.13-.58-1.02-1.22l21.76-120.45c.09-.49.52-.85,1.02-.85h24.46c.5,0,.93.36,1.02.85l21.76,120.45c.11.64-.37,1.22-1.02,1.22h-22.54c-.51,0-.95-.38-1.02-.89l-1.94-13.44c-.07-.51-.51-.89-1.02-.89h-14.94c-.51,0-.95.38-1.02.89ZM614.2,674.4h8.96c.62,0,1.11-.55,1.03-1.17l-4.42-34.39c-.15-1.2-1.89-1.21-2.05,0l-4.55,34.39c-.08.62.4,1.17,1.03,1.17Z"/><path class="cls-1" d="M733.13,632.83c0,6.25-1.86,9.29-7.44,13.01l-23.15,18.42c-1.01.68-1.18,1.69-1.18,2.87v18.06c0,.57.46,1.04,1.04,1.04h27.29c.65,0,1.14.59,1.02,1.23l-4,20.74c-.09.49-.52.84-1.02.84h-47.79c-.57,0-1.04-.46-1.04-1.04v-43.07c0-7.77,1.86-13.01,7.94-16.9l23.15-17.74c1.52-1.01,1.69-1.69,1.69-2.7v-16.05c0-1.52-1.01-2.2-2.37-2.2h-28.67c-.65,0-1.14-.59-1.02-1.22l3.84-20.74c.09-.49.52-.85,1.02-.85h36.32c8.11,0,14.36,5.41,14.36,15.04v31.26Z"/><path class="cls-1" d="M796.62,632.83c0,6.25-1.86,9.29-7.44,13.01l-23.15,18.42c-1.01.68-1.18,1.69-1.18,2.87v18.06c0,.57.46,1.04,1.04,1.04h27.28c.65,0,1.14.59,1.02,1.23l-3.99,20.74c-.09.49-.52.84-1.02.84h-47.79c-.57,0-1.04-.46-1.04-1.04v-43.07c0-7.77,1.86-13.01,7.94-16.9l23.15-17.74c1.52-1.01,1.69-1.69,1.69-2.7v-16.05c0-1.52-1.01-2.2-2.37-2.2h-28.67c-.65,0-1.14-.59-1.02-1.22l3.84-20.74c.09-.49.52-.85,1.02-.85h36.32c8.11,0,14.36,5.41,14.36,15.04v31.26Z"/><path class="cls-1" d="M809.36,708.2l-3.84-20.74c-.12-.64.37-1.22,1.02-1.22h25.27c1.6,0,2.89-1.3,2.89-2.89v-26.51c0-1.18-.84-1.69-1.69-1.69h-22.01c-.3,0-.58-.13-.78-.35l-5.85-6.62c-.17-.19-.26-.43-.26-.69v-59.75c0-.57.46-1.04,1.04-1.04h46.61c.5,0,.93.36,1.02.85l3.84,20.58c.12.64-.37,1.22-1.02,1.22h-26.45c-.57,0-1.04.46-1.04,1.04v23.95c0,.57.46,1.04,1.04,1.04h17.39c7.44,0,12.84,5.41,12.84,11.83v43.43c0,13.52-4.9,18.42-18.93,18.42h-30.06c-.5,0-.93-.36-1.02-.85Z"/><polygon class="cls-1" points="272.87 764.86 267.75 763.7 267.28 765.27 261.64 765.27 261.64 758.96 267.59 758.96 268.43 756.6 267.6 754.2 261.64 754.2 261.64 748.14 267.29 748.14 267.79 749.77 272.91 748.66 271.33 743.49 256.56 743.49 256.56 769.99 271.34 769.99 272.87 764.86"/><path class="cls-1" d="M294.74,761.82l-1.1-3.57c-.26-.82-.78-1.97-2.25-2.48l-8.59-3.01c-.06-.08-.16-.28-.29-.75l-.23-.88.49-1.85c.06-.26.22-.87.32-1.14h5.71l.5,1.63,5.12-1.1-1.58-5.17h-10.98c-1.23,0-2.57.29-3.22,2.47l-1.49,5.18.96,3.18c.27.89.77,1.98,2.21,2.52l8.71,3.2c.05.07.12.24.25.66l.34,1.18-.43,2c-.06.28-.21,1.04-.35,1.39h-5.84l-.47-1.56-5.12,1.15,1.54,5.13h10.88c1.86,0,3.09-.96,3.55-2.78l1.37-5.38Z"/><polygon class="cls-1" points="315.63 743.49 299.85 743.49 298.84 748.14 305.24 748.14 305.24 769.99 310.31 769.99 310.31 748.14 316.64 748.14 315.63 743.49"/><path class="cls-1" d="M319.12,769.05c.19.43.62.94,1.51.94h1.29c1.02,0,1.39-.62,1.53-1.01l.59-1.68-.59-1.69c-.24-.65-.81-1.03-1.53-1.03h-1.29c-.91,0-1.33.54-1.53,1.04l-.59,1.68.59,1.68.03.06Z"/><path class="cls-1" d="M258.93,802.39h-6.11v-3.32l.25-.96c.13-.45.21-.61.26-.67l7.93-3.45c1.42-.64,1.89-1.62,2.16-2.5l1-3.21-1.49-5.19c-.65-2.17-1.99-2.47-3.22-2.47h-10.34l-1.58,5.17,5.12,1.1.5-1.63h5.05c.12.28.27.89.33,1.15l.48,1.83-.27.92c-.13.5-.24.69-.3.76l-7.81,3.27c-1.12.48-1.82,1.26-2.21,2.47l-.96,3.18v8.26h15.24l1.54-5.13-5.12-1.15-.47,1.56Z"/><path class="cls-1" d="M282.25,780.61h-7.43c-1.57,0-3.11.4-3.74,3.31l-2.18,9.94,2.11,9.66c.56,2.52,1.69,3.59,3.81,3.59h7.43c2.09,0,3.26-1.11,3.81-3.59l2.11-9.66-2.18-9.94c-.63-2.91-2.17-3.31-3.74-3.31ZM283.02,793.86l-1.57,7.38c-.12.61-.27.96-.38,1.14h-5.04c-.11-.18-.26-.54-.38-1.15l-1.57-7.37,1.75-7.85c.08-.41.16-.63.2-.76h5.04c.05.12.12.35.21.77l1.75,7.84Z"/><path class="cls-1" d="M303.99,802.39h-6.11v-3.32l.25-.96c.13-.45.21-.61.26-.67l7.93-3.45c1.42-.64,1.89-1.62,2.16-2.5l1-3.21-1.49-5.19c-.65-2.17-1.99-2.47-3.22-2.47h-10.34l-1.58,5.17,5.12,1.1.5-1.63h5.05c.12.28.27.89.33,1.15l.48,1.83-.27.92c-.13.5-.24.69-.3.76l-7.81,3.27c-1.12.48-1.82,1.26-2.21,2.47l-.96,3.18v8.26h15.24l1.54-5.13-5.12-1.15-.47,1.56Z"/><path class="cls-1" d="M329.45,793.95c-.11-.41-.24-.76-.41-1.08.15-.31.26-.62.33-.92l1.06-3.78-1.49-5.1c-.65-2.19-2.06-2.47-3.22-2.47h-10.34l-1.58,5.17,5.12,1.1.5-1.63h5.11c.09.22.22.69.28.91l.55,2.02-.52,1.97c-.06.22-.19.67-.3.92h-7.12l-.84,2.4.84,2.32h7.45c.07.15.16.42.27.89l.56,2.22-.57,2.6c-.11.48-.2.74-.26.88h-5.48l-.47-1.56-5.12,1.15,1.54,5.13h10.59c1.89,0,3.06-.94,3.55-2.89l1.33-5.34-1.41-4.93Z"/><path class="cls-1" d="M754.5,748.14h5.12l.86,2.55,5.11-1.05-1.91-6.14h-10.37c-1.57,0-3.11.4-3.74,3.31l-2.18,9.94,2.11,9.66c.55,2.48,1.72,3.59,3.81,3.59h10.37l1.91-6.15-5.11-1.05-.82,2.48h-5.15c-.11-.18-.26-.54-.38-1.15l-1.57-7.37,1.75-7.85c.08-.41.16-.63.2-.76Z"/><polygon class="cls-1" points="774.66 769.99 779.74 769.99 779.74 748.14 786.06 748.14 785.06 743.49 769.28 743.49 768.27 748.14 774.66 748.14 774.66 769.99"/><path class="cls-1" d="M805.85,767.1l1.33-5.34-1.41-4.93c-.11-.4-.24-.76-.41-1.08.15-.31.26-.62.33-.92l1.06-3.78-1.49-5.1c-.65-2.19-2.06-2.47-3.22-2.47h-12.36v26.5h12.61c1.89,0,3.06-.94,3.55-2.89ZM802.06,761.79l-.57,2.6c-.11.48-.2.74-.26.88h-6.46v-6.6h6.45c.07.15.16.42.27.89l.56,2.22ZM801.18,753.03c-.06.22-.19.67-.3.92h-6.11v-5.81h6.09c.09.22.22.69.28.91l.55,2.02-.52,1.97Z"/><path class="cls-1" d="M823.69,743.49h-7.53l-6.74,26.5h5.31l1.64-6.82h7.09l1.64,6.82h5.31l-6.74-26.5ZM822.36,758.45h-4.87l2.43-10.14,2.43,10.14Z"/><path class="cls-1" d="M781.65,780.61h-11.32v26.46h5.08v-8.1h6.24c1.43,0,2.97-.35,3.62-2.96l1.66-6.55-1.73-6.23c-.62-2.2-1.72-2.62-3.55-2.62ZM775.41,785.26h5.25c.05.1.11.26.15.46l.92,3.76-.92,4.34c-.04.18-.11.33-.15.43h-5.25v-8.99Z"/><path class="cls-1" d="M806.27,796.01l1.66-6.55-1.73-6.23c-.62-2.2-1.72-2.62-3.55-2.62h-11.46v26.46h5.08v-8.1h4.57l1.82,8.14h5.54l-2.48-9.66c.23-.4.41-.87.56-1.44ZM796.26,785.26h5.39c.05.1.11.26.15.46l.92,3.76-.92,4.35c-.04.17-.1.32-.15.42h-5.39v-8.99Z"/><path class="cls-3" d="M640.54,362.21c2.67-55.69-40.97-103.25-96.68-105.4-22.39-.86-43.37,5.68-60.59,17.44l-9.34-14.57c20.38-13.8,45.23-21.36,71.7-20.1,65.07,3.11,115.29,58.38,112.18,123.45-2.18,45.58-29.97,83.85-68.78,101.63l-14.35-12.74c36.83-13.53,63.86-48.06,65.86-89.71ZM702.17,346.32c-.08-1.2-.92-2.19-2.06-2.56-5.44-1.76-9.74-6.38-10.79-12.41-1.05-6.03,1.44-11.84,5.97-15.35.95-.73,1.41-1.95,1.08-3.11-.79-2.75-1.65-5.48-2.57-8.17-.39-1.14-1.45-1.87-2.66-1.94-5.71-.29-11.08-3.64-13.65-9.19-2.59-5.57-1.67-11.83,1.81-16.39.71-.93.84-2.18.24-3.18-1.5-2.5-3.06-4.96-4.69-7.37-.65-.96-1.84-1.38-2.97-1.13-5.6,1.21-11.66-.64-15.59-5.34-3.93-4.7-4.68-10.99-2.5-16.29.44-1.08.25-2.32-.59-3.13-2.07-2.01-4.19-3.97-6.37-5.87-.91-.79-2.2-.9-3.27-.35-5.09,2.6-11.41,2.37-16.41-1.14-5.01-3.52-7.36-9.4-6.63-15.08.15-1.19-.38-2.37-1.43-2.96-2.49-1.39-5.02-2.72-7.58-3.97-1.08-.53-2.36-.3-3.25.51-4.25,3.84-10.41,5.27-16.17,3.16-5.75-2.1-9.53-7.16-10.3-12.83-.16-1.19-.99-2.2-2.15-2.49-2.76-.69-5.56-1.32-8.38-1.86-1.18-.23-2.35.32-3,1.33-3.12,4.8-8.69,7.76-14.78,7.21-6.09-.54-11.05-4.45-13.27-9.72-.46-1.1-1.52-1.86-2.72-1.84-2.87.04-5.73.15-8.57.35-1.2.08-2.19.92-2.56,2.07-1.76,5.44-6.38,9.75-12.41,10.8-6.05,1.06-11.88-1.46-15.38-6.02-.71-.93-1.89-1.38-3.01-1.06-2.78.79-5.52,1.65-8.24,2.59-1.14.39-1.87,1.46-1.93,2.66-.29,5.72-3.64,11.09-9.2,13.66-5.55,2.58-11.8,1.68-16.35-1.78-.96-.73-2.25-.85-3.28-.23-2.26,1.36-4.47,2.78-6.66,4.24l13.89,21.66c23.56-15.84,52.23-24.52,82.77-23.06,75.46,3.61,133.71,67.71,130.1,143.17-2.39,49.93-31.27,92.31-72.4,114.23l20.3,18.03c2.08-1.27,4.15-2.56,6.16-3.92.99-.67,1.43-1.88,1.18-3.06-1.18-5.58.68-11.6,5.36-15.52,4.68-3.91,10.94-4.67,16.22-2.52,1.11.45,2.39.23,3.22-.62,2-2.06,3.95-4.17,5.84-6.33.79-.91.89-2.19.35-3.26-2.58-5.09-2.36-11.39,1.16-16.39,3.51-5,9.38-7.35,15.05-6.63,1.19.15,2.37-.39,2.95-1.43,1.39-2.5,2.72-5.03,3.98-7.6.53-1.08.3-2.36-.51-3.25-3.83-4.24-5.26-10.4-3.15-16.14,2.1-5.74,7.15-9.53,12.81-10.3,1.19-.17,2.19-.99,2.48-2.15.69-2.77,1.32-5.57,1.86-8.4.23-1.18-.32-2.35-1.33-3-4.79-3.12-7.74-8.68-7.2-14.77.54-6.09,4.44-11.04,9.7-13.26,1.1-.46,1.85-1.52,1.84-2.72-.04-2.88-.15-5.74-.35-8.59ZM589.47,486.25c-.64-.57-1.55-.74-2.36-.44-16.67,6.13-34.79,9.13-53.65,8.22-75.46-3.61-133.71-67.71-130.1-143.17,1.85-38.77,19.69-72.98,46.81-96.61.56-.49.69-1.32.28-1.95l-6.47-10.07c-.47-.74-1.48-.92-2.18-.39-.3.23-.59.44-.8.57-4.45,2.8-9.89,3.14-14.56,1.22-1.11-.46-2.39-.15-3.22.71-1.97,2.03-3.89,4.12-5.76,6.25-.79.91-.89,2.2-.35,3.27,2.6,5.09,2.37,11.4-1.14,16.41-3.52,5.01-9.39,7.35-15.07,6.63-1.19-.15-2.37.38-2.96,1.44-1.4,2.51-2.74,5.06-4.01,7.65-.51,1.05-.28,2.29.51,3.15,3.86,4.25,5.3,10.43,3.19,16.2-2.1,5.74-7.15,9.53-12.82,10.3-1.19.16-2.19.98-2.48,2.15-.7,2.79-1.32,5.61-1.87,8.46-.22,1.14.32,2.27,1.3,2.9,4.81,3.1,7.78,8.69,7.24,14.79-.54,6.09-4.44,11.04-9.7,13.26-1.1.46-1.85,1.52-1.84,2.72.04,2.91.16,5.8.36,8.67.08,1.16.9,2.11,2,2.47,5.46,1.75,9.78,6.38,10.83,12.42,1.05,6.03-1.44,11.84-5.96,15.34-.95.73-1.41,1.95-1.08,3.1.79,2.76,1.65,5.49,2.58,8.19.39,1.13,1.45,1.87,2.65,1.93,5.71.3,11.06,3.65,13.64,9.19,2.57,5.54,1.68,11.78-1.76,16.33-.72.96-.85,2.25-.23,3.28,1.47,2.46,3.02,4.88,4.62,7.26.67.99,1.88,1.43,3.06,1.18,5.58-1.18,11.6.67,15.52,5.36,3.92,4.68,4.67,10.94,2.53,16.22-.45,1.11-.24,2.39.62,3.22,2.07,2.02,4.21,3.98,6.39,5.89.88.77,2.13.86,3.16.33,5.09-2.61,11.42-2.39,16.43,1.13,5.02,3.53,7.36,9.41,6.63,15.09-.15,1.15.36,2.3,1.38,2.87,2.52,1.4,5.07,2.74,7.67,4.02,1.08.53,2.35.29,3.24-.51,4.25-3.82,10.4-5.24,16.14-3.14,5.73,2.1,9.52,7.14,10.3,12.8.16,1.19.99,2.19,2.15,2.48,2.77.7,5.58,1.32,8.41,1.87,1.17.23,2.34-.32,3-1.33,3.12-4.78,8.68-7.73,14.75-7.18,6.08.54,11.03,4.43,13.25,9.68.47,1.1,1.52,1.85,2.72,1.84,2.91-.04,5.8-.16,8.68-.36,1.16-.08,2.11-.89,2.47-2,1.76-5.45,6.39-9.76,12.42-10.82,6.02-1.05,11.83,1.43,15.33,5.95.73.95,1.95,1.4,3.11,1.08,2.76-.79,5.5-1.65,8.21-2.59,1.13-.39,1.86-1.45,1.92-2.64.22-4.12,2.02-8.04,5.09-10.88.68-.63.7-1.69,0-2.3l-10.25-9.1ZM557.07,457.48c-.53-.47-1.25-.68-1.95-.57-6.47.98-13.13,1.36-19.92,1.04-55.53-2.66-98.39-49.82-95.73-105.35,1.27-26.65,12.82-50.36,30.6-67.54.51-.5.61-1.28.22-1.88l-7.85-12.23c-.5-.78-1.59-.93-2.27-.3-22.36,20.57-36.85,49.7-38.03,82.55-2.22,61.72,44.15,115.14,105.58,121.52,14.45,1.5,28.48.32,41.67-3.08,1.2-.31,1.57-1.82.65-2.64l-12.96-11.51Z"/><path class="cls-3" d="M459.9,349.71l58.22-.04c2.81,0,4.48-3.13,2.93-5.46l-98.37-153.45c-2.29-3.45,2.22-7.33,5.29-4.55l194.5,172.76c2.38,2.16.85,6.12-2.36,6.12l-58.22.04c-2.81,0-4.48,3.13-2.93,5.46l98.37,153.45c2.29,3.45-2.22,7.33-5.29,4.55l-194.49-172.76c-2.38-2.16-.85-6.12,2.36-6.12Z"/></svg>