<?xml version="1.0" encoding="UTF-8"?><svg id="Layer_1" xmlns="http://www.w3.org/2000/svg" viewBox="0 0 1080 1080"><defs><style>.cls-1{fill:#055931;}.cls-1,.cls-2,.cls-3{stroke-width:0px;}.cls-2{fill:#f7f7f8;}.cls-3{fill:#f7aa05;}</style></defs><rect class="cls-2" x="-3.8" width="1080" height="1080"/><path class="cls-1" d="M205.15,705.7c-5.18,0-9.93-.87-14.25-2.6-4.32-1.74-8.06-4.14-11.2-7.22-3.15-3.08-5.59-6.77-7.32-11.06-1.74-4.29-2.6-8.99-2.6-14.1s.85-9.81,2.56-14.1c1.7-4.29,4.11-7.98,7.22-11.06,3.11-3.08,6.81-5.49,11.11-7.22,4.29-1.74,8.99-2.6,14.1-2.6,7.34,0,14.61,1.8,21.82,5.41v14.84c-6.55-4.59-12.97-6.88-19.26-6.88-3.08,0-5.91.52-8.5,1.57-2.59,1.05-4.82,2.52-6.68,4.42s-3.33,4.18-4.37,6.83-1.57,5.59-1.57,8.8.49,6.04,1.47,8.7c.98,2.65,2.38,4.95,4.18,6.88,1.8,1.93,3.93,3.42,6.39,4.47,2.46,1.05,5.16,1.57,8.11,1.57,1.31,0,2.64-.13,3.98-.39s2.74-.66,4.18-1.18v-11.7h-13.17v-12.09h28.31v33.32c-8.19,3.6-16.35,5.41-24.47,5.41Z"/><path class="cls-1" d="M273.1,636.9c4.91,0,9.42.84,13.51,2.51s7.62,4,10.57,6.98c2.95,2.98,5.24,6.55,6.88,10.71,1.64,4.16,2.46,8.7,2.46,13.61s-.82,9.45-2.46,13.61c-1.64,4.16-3.93,7.73-6.88,10.71-2.95,2.98-6.47,5.31-10.57,6.98-4.1,1.67-8.6,2.51-13.51,2.51h-26.83v-67.62h26.83ZM272.32,691.16c2.56,0,4.92-.49,7.08-1.47,2.16-.98,4.01-2.38,5.55-4.18,1.54-1.8,2.74-3.96,3.59-6.49.85-2.52,1.28-5.29,1.28-8.31s-.43-5.78-1.28-8.31c-.85-2.52-2.05-4.68-3.59-6.49-1.54-1.8-3.39-3.19-5.55-4.18-2.16-.98-4.52-1.47-7.08-1.47h-9.63v40.89h9.63Z"/><path class="cls-1" d="M362.45,636.9c3.01,0,5.77.46,8.26,1.38,2.49.92,4.65,2.2,6.49,3.83,1.84,1.64,3.26,3.57,4.28,5.8,1.02,2.23,1.52,4.65,1.52,7.27,0,3.34-.79,6.32-2.36,8.94-1.57,2.62-3.73,4.55-6.49,5.8,3.54,1.31,6.27,3.36,8.21,6.14,1.93,2.78,2.9,5.98,2.9,9.58,0,2.75-.52,5.29-1.57,7.62-1.05,2.33-2.51,4.32-4.37,6-1.87,1.67-4.1,2.97-6.68,3.88-2.59.92-5.42,1.38-8.5,1.38h-29.49v-67.62h27.82ZM359.41,664.03c2.29,0,4.19-.69,5.7-2.06,1.51-1.38,2.26-3.11,2.26-5.21s-.75-3.92-2.26-5.26c-1.51-1.34-3.41-2.02-5.7-2.02h-9.14v14.55h9.14ZM360.78,691.94c2.49,0,4.54-.74,6.14-2.21,1.6-1.47,2.41-3.36,2.41-5.65s-.8-4.18-2.41-5.65c-1.61-1.47-3.65-2.21-6.14-2.21h-10.52v15.73h10.52Z"/><path class="cls-1" d="M397.82,656.61c1.67-4.29,4.03-7.98,7.08-11.06,3.05-3.08,6.65-5.49,10.81-7.22,4.16-1.74,8.76-2.6,13.81-2.6s9.57.87,13.76,2.6c4.19,1.74,7.8,4.14,10.81,7.22,3.01,3.08,5.36,6.77,7.03,11.06,1.67,4.29,2.51,8.99,2.51,14.1s-.84,9.81-2.51,14.1c-1.67,4.29-4.01,7.98-7.03,11.06-3.01,3.08-6.62,5.49-10.81,7.22-4.19,1.74-8.78,2.6-13.76,2.6s-9.65-.87-13.81-2.6c-4.16-1.74-7.76-4.14-10.81-7.22-3.05-3.08-5.41-6.77-7.08-11.06-1.67-4.29-2.51-8.99-2.51-14.1s.84-9.81,2.51-14.1ZM413.4,679.31c.85,2.59,2.03,4.82,3.54,6.68,1.51,1.87,3.34,3.33,5.5,4.37,2.16,1.05,4.52,1.57,7.08,1.57s4.9-.52,7.03-1.57c2.13-1.05,3.96-2.51,5.5-4.37,1.54-1.87,2.74-4.1,3.59-6.68.85-2.59,1.28-5.46,1.28-8.6s-.43-6.01-1.28-8.6c-.85-2.59-2.05-4.82-3.59-6.68-1.54-1.87-3.37-3.33-5.5-4.37-2.13-1.05-4.47-1.57-7.03-1.57s-4.91.52-7.08,1.57c-2.16,1.05-4,2.51-5.5,4.37-1.51,1.87-2.69,4.1-3.54,6.68-.85,2.59-1.28,5.45-1.28,8.6s.43,6.01,1.28,8.6Z"/><path class="cls-1" d="M484.89,691.25c3.24.98,6.44,1.47,9.58,1.47s5.68-.72,7.62-2.16c1.93-1.44,2.9-3.31,2.9-5.6,0-1.9-.77-3.39-2.31-4.47-1.54-1.08-3.47-2.05-5.8-2.9-2.33-.85-4.83-1.72-7.52-2.6-2.69-.88-5.19-2.06-7.52-3.54-2.33-1.47-4.26-3.42-5.8-5.85-1.54-2.42-2.31-5.6-2.31-9.53,0-3.01.62-5.77,1.87-8.26,1.24-2.49,2.98-4.64,5.21-6.44s4.9-3.19,8.01-4.18c3.11-.98,6.54-1.47,10.27-1.47,3.15,0,6.27.29,9.39.88,3.11.59,6.24,1.51,9.39,2.75v14.35c-2.95-1.7-5.9-2.96-8.85-3.78-2.95-.82-5.86-1.23-8.75-1.23s-5.46.66-7.32,1.97c-1.87,1.31-2.8,3.05-2.8,5.21,0,1.84.77,3.28,2.31,4.32,1.54,1.05,3.46,1.98,5.75,2.8,2.29.82,4.8,1.67,7.52,2.56,2.72.88,5.23,2.08,7.52,3.59,2.29,1.51,4.21,3.49,5.75,5.95,1.54,2.46,2.31,5.68,2.31,9.68,0,3.08-.64,5.91-1.92,8.5-1.28,2.59-3.05,4.8-5.31,6.63-2.26,1.84-4.96,3.26-8.11,4.28-3.14,1.02-6.59,1.52-10.32,1.52-6.88,0-13.66-1.47-20.35-4.42v-14.55c3.14,2.03,6.34,3.54,9.58,4.52Z"/><path class="cls-1" d="M533.36,656.61c1.67-4.29,4.01-7.98,7.03-11.06,3.01-3.08,6.6-5.49,10.76-7.22,4.16-1.74,8.73-2.6,13.71-2.6,6.68,0,13.4,1.6,20.15,4.82v14.55c-5.83-3.73-11.57-5.6-17.2-5.6-2.95,0-5.67.52-8.16,1.57-2.49,1.05-4.62,2.51-6.39,4.37-1.77,1.87-3.15,4.1-4.13,6.68-.98,2.59-1.47,5.45-1.47,8.6s.49,6.01,1.47,8.6c.98,2.59,2.36,4.82,4.13,6.68,1.77,1.87,3.9,3.33,6.39,4.37,2.49,1.05,5.21,1.57,8.16,1.57,5.64,0,11.37-1.87,17.2-5.6v14.55c-6.75,3.21-13.47,4.82-20.15,4.82-4.98,0-9.55-.87-13.71-2.6-4.16-1.74-7.75-4.14-10.76-7.22-3.01-3.08-5.36-6.77-7.03-11.06-1.67-4.29-2.51-8.99-2.51-14.1s.84-9.81,2.51-14.1Z"/><path class="cls-1" d="M633.48,636.9l26.44,67.62h-15.92l-5.21-13.96h-24.87l-5.11,13.96h-16.02l26.54-67.62h14.15ZM634.27,678.38l-7.86-21.72-7.96,21.72h15.82Z"/><path class="cls-1" d="M695.46,636.9c3.47,0,6.67.54,9.58,1.62,2.92,1.08,5.44,2.59,7.57,4.52,2.13,1.93,3.78,4.24,4.96,6.93,1.18,2.69,1.77,5.64,1.77,8.85,0,4.39-1.08,8.27-3.24,11.65s-5.21,6.01-9.14,7.91l15.04,26.15h-17.5l-13.17-23.88h-5.5v23.88h-16.02v-67.62h25.65ZM693.29,667.76c2.82,0,5.13-.85,6.93-2.56,1.8-1.7,2.7-3.83,2.7-6.39,0-2.69-.9-4.85-2.7-6.49-1.8-1.64-4.11-2.46-6.93-2.46h-7.47v17.89h7.47Z"/><path class="cls-1" d="M761.19,636.9c4.91,0,9.42.84,13.51,2.51,4.1,1.67,7.62,4,10.57,6.98,2.95,2.98,5.24,6.55,6.88,10.71,1.64,4.16,2.46,8.7,2.46,13.61s-.82,9.45-2.46,13.61c-1.64,4.16-3.93,7.73-6.88,10.71-2.95,2.98-6.47,5.31-10.57,6.98-4.1,1.67-8.6,2.51-13.51,2.51h-26.83v-67.62h26.83ZM760.41,691.16c2.56,0,4.91-.49,7.08-1.47,2.16-.98,4.01-2.38,5.55-4.18,1.54-1.8,2.74-3.96,3.59-6.49.85-2.52,1.28-5.29,1.28-8.31s-.43-5.78-1.28-8.31-2.05-4.68-3.59-6.49c-1.54-1.8-3.39-3.19-5.55-4.18-2.16-.98-4.52-1.47-7.08-1.47h-9.63v40.89h9.63Z"/><path class="cls-1" d="M825.05,636.9v67.62h-16.41v-67.62h16.41Z"/><path class="cls-1" d="M856.92,636.9l30.47,41.67v-41.67h15.23v67.62h-14.15l-30.37-41.67v41.67h-15.33v-67.62h14.15Z"/><path class="cls-1" d="M256.42,736.44l12.83,32.57h-6.11l-2.98-7.81h-12.83l-2.98,7.81h-6.06l12.83-32.57h5.3ZM258.46,756.55l-4.69-12.35-4.69,12.35h9.37Z"/><path class="cls-1" d="M294.16,768.89c-1.88.46-3.76.69-5.66.69-2.43,0-4.65-.42-6.67-1.25-2.02-.84-3.76-2-5.23-3.48-1.47-1.48-2.6-3.26-3.41-5.33-.81-2.07-1.21-4.33-1.21-6.79s.4-4.73,1.21-6.79c.8-2.07,1.93-3.84,3.38-5.33,1.45-1.48,3.18-2.64,5.18-3.48,2-.84,4.21-1.25,6.6-1.25,3.41,0,6.77.87,10.08,2.6v5.77c-3.12-2.21-6.19-3.31-9.18-3.31-1.61,0-3.09.29-4.45.88-1.36.58-2.52,1.4-3.5,2.44-.98,1.04-1.74,2.28-2.27,3.72-.54,1.44-.81,3.02-.81,4.76s.26,3.32.78,4.76c.52,1.44,1.25,2.67,2.2,3.72.95,1.04,2.07,1.85,3.38,2.44,1.31.58,2.75.88,4.33.88.82,0,1.66-.1,2.51-.31s1.7-.48,2.56-.83v-7.24h-6.91v-4.69h12.73v15.48c-1.89.85-3.78,1.51-5.66,1.97Z"/><path class="cls-1" d="M320.34,736.44c1.64,0,3.15.25,4.52.76,1.37.51,2.56,1.21,3.55,2.11.99.9,1.77,1.98,2.32,3.24.55,1.26.83,2.65.83,4.17,0,2.21-.58,4.13-1.73,5.78-1.15,1.64-2.77,2.84-4.85,3.6l7.72,12.92h-6.72l-7.01-12.07h-3.88v12.07h-6.06v-32.57h11.31ZM319.49,752.01c1.7,0,3.09-.5,4.17-1.49,1.07-.99,1.61-2.26,1.61-3.81s-.54-2.86-1.61-3.86c-1.07-.99-2.46-1.49-4.17-1.49h-4.4v10.65h4.4Z"/><path class="cls-1" d="M338.98,745.93c.79-2.07,1.89-3.84,3.29-5.33,1.4-1.48,3.08-2.64,5.02-3.48,1.94-.84,4.08-1.25,6.41-1.25s4.47.42,6.41,1.25c1.94.84,3.61,2,5.02,3.48,1.4,1.48,2.5,3.26,3.29,5.33.79,2.07,1.18,4.33,1.18,6.79s-.39,4.73-1.18,6.79c-.79,2.07-1.89,3.84-3.29,5.33-1.4,1.48-3.08,2.64-5.02,3.48-1.94.84-4.08,1.25-6.41,1.25s-4.47-.42-6.41-1.25c-1.94-.84-3.61-2-5.02-3.48-1.4-1.48-2.5-3.26-3.29-5.33-.79-2.07-1.18-4.33-1.18-6.79s.39-4.73,1.18-6.79ZM344.87,757.41c.46,1.42,1.1,2.65,1.94,3.69.84,1.04,1.84,1.85,3.01,2.41,1.17.57,2.46.85,3.88.85s2.71-.28,3.88-.85c1.17-.57,2.17-1.37,3.01-2.41.84-1.04,1.48-2.27,1.94-3.69.46-1.42.69-2.98.69-4.69s-.23-3.27-.69-4.69c-.46-1.42-1.1-2.65-1.94-3.69-.84-1.04-1.84-1.85-3.01-2.41-1.17-.57-2.46-.85-3.88-.85s-2.71.28-3.88.85c-1.17.57-2.17,1.37-3.01,2.41-.84,1.04-1.48,2.27-1.94,3.69-.46,1.42-.69,2.98-.69,4.69s.23,3.27.69,4.69Z"/><path class="cls-1" d="M381.7,763.47l-4.83,11.46h-5.11l4.12-11.46h5.82Z"/><path class="cls-1" d="M420.19,736.44l12.83,32.57h-6.11l-2.98-7.81h-12.83l-2.98,7.81h-6.06l12.83-32.57h5.3ZM422.22,756.55l-4.69-12.35-4.69,12.35h9.37Z"/><path class="cls-1" d="M445.37,769l-12.83-32.57h6.34l9.14,24.05,9.09-24.05h6.39l-12.83,32.57h-5.3Z"/><path class="cls-1" d="M489.42,736.44v5.07h-13.54v8.47h11.69v4.97h-11.69v8.99h13.92v5.07h-20.07v-32.57h19.69Z"/><path class="cls-1" d="M505.67,764.6c1.8,0,3.26-.43,4.38-1.28,1.12-.85,1.68-1.97,1.68-3.36,0-1.1-.39-1.98-1.16-2.63-.77-.65-1.75-1.2-2.93-1.66-1.18-.46-2.45-.9-3.81-1.33-1.36-.43-2.63-1-3.81-1.73-1.18-.73-2.16-1.66-2.93-2.79-.77-1.14-1.16-2.65-1.16-4.54,0-1.39.28-2.66.85-3.81s1.37-2.15,2.39-2.98c1.03-.84,2.26-1.48,3.69-1.94,1.44-.46,3.01-.69,4.71-.69,2.9,0,5.82.6,8.76,1.8v5.63c-1.39-.82-2.79-1.44-4.19-1.85-1.4-.41-2.78-.62-4.14-.62-1.74,0-3.15.4-4.24,1.18-1.09.79-1.63,1.85-1.63,3.17,0,1.07.39,1.92,1.16,2.53s1.75,1.15,2.93,1.61c1.18.46,2.45.9,3.81,1.33,1.36.43,2.63,1.01,3.81,1.75,1.18.74,2.16,1.7,2.93,2.86.77,1.17,1.16,2.7,1.16,4.59,0,1.42-.29,2.73-.88,3.93-.58,1.2-1.4,2.22-2.44,3.08-1.04.85-2.29,1.51-3.74,1.99-1.45.47-3.05.71-4.78.71-1.58,0-3.16-.18-4.76-.54-1.59-.36-3.18-.91-4.76-1.63v-5.73c3.06,1.96,6.09,2.94,9.09,2.94Z"/><path class="cls-1" d="M562.38,754.8v11.98c-1.74.92-3.54,1.61-5.42,2.08-1.88.47-3.72.71-5.51.71-1.7,0-3.27-.23-4.71-.69-1.44-.46-2.67-1.09-3.69-1.89-1.03-.81-1.82-1.78-2.39-2.91s-.85-2.38-.85-3.74c0-1.89.52-3.57,1.56-5.02,1.04-1.45,2.46-2.49,4.26-3.12-1.61-.6-2.86-1.56-3.74-2.89s-1.33-2.84-1.33-4.54c0-1.33.26-2.53.78-3.62.52-1.09,1.24-2.03,2.15-2.82s2.02-1.4,3.31-1.82c1.29-.43,2.71-.64,4.26-.64,2.65,0,5.37.63,8.14,1.89v5.49c-2.56-1.55-5.03-2.32-7.43-2.32-1.51,0-2.75.4-3.69,1.21-.95.81-1.42,1.85-1.42,3.15,0,1.42.58,2.58,1.73,3.48,1.15.9,2.66,1.35,4.52,1.35h15.38v4.69h-5.92ZM547.73,763.21c1.12.87,2.58,1.3,4.38,1.3.73,0,1.45-.09,2.18-.26.73-.17,1.45-.4,2.18-.69v-8.76h-3.83c-1.99,0-3.58.46-4.78,1.37-1.2.92-1.8,2.12-1.8,3.6s.56,2.56,1.68,3.43Z"/><path class="cls-1" d="M595.89,736.44l16.28,22.67v-22.67h5.82v32.57h-5.4l-16.24-22.67v22.67h-5.82v-32.57h5.35Z"/><path class="cls-1" d="M647.63,736.44v5.07h-13.54v8.47h11.69v4.97h-11.69v8.99h13.92v5.07h-20.07v-32.57h19.69Z"/><path class="cls-1" d="M675.76,768.89c-1.88.46-3.76.69-5.66.69-2.43,0-4.65-.42-6.67-1.25-2.02-.84-3.76-2-5.23-3.48-1.47-1.48-2.6-3.26-3.41-5.33-.81-2.07-1.21-4.33-1.21-6.79s.4-4.73,1.21-6.79c.8-2.07,1.93-3.84,3.38-5.33,1.45-1.48,3.18-2.64,5.18-3.48,2-.84,4.21-1.25,6.6-1.25,3.41,0,6.77.87,10.08,2.6v5.77c-3.12-2.21-6.19-3.31-9.18-3.31-1.61,0-3.09.29-4.45.88-1.36.58-2.52,1.4-3.5,2.44-.98,1.04-1.74,2.28-2.27,3.72-.54,1.44-.8,3.02-.8,4.76s.26,3.32.78,4.76c.52,1.44,1.25,2.67,2.2,3.72.95,1.04,2.07,1.85,3.38,2.44,1.31.58,2.75.88,4.33.88.82,0,1.66-.1,2.51-.31.85-.21,1.7-.48,2.56-.83v-7.24h-6.91v-4.69h12.73v15.48c-1.89.85-3.78,1.51-5.66,1.97Z"/><path class="cls-1" d="M689.67,745.93c.79-2.07,1.89-3.84,3.29-5.33,1.4-1.48,3.08-2.64,5.02-3.48,1.94-.84,4.08-1.25,6.41-1.25s4.47.42,6.41,1.25c1.94.84,3.61,2,5.02,3.48,1.4,1.48,2.5,3.26,3.29,5.33.79,2.07,1.18,4.33,1.18,6.79s-.39,4.73-1.18,6.79c-.79,2.07-1.89,3.84-3.29,5.33s-3.08,2.64-5.02,3.48c-1.94.84-4.08,1.25-6.41,1.25s-4.47-.42-6.41-1.25c-1.94-.84-3.61-2-5.02-3.48-1.4-1.48-2.5-3.26-3.29-5.33-.79-2.07-1.18-4.33-1.18-6.79s.39-4.73,1.18-6.79ZM695.57,757.41c.46,1.42,1.1,2.65,1.94,3.69.84,1.04,1.84,1.85,3.01,2.41s2.46.85,3.88.85,2.71-.28,3.88-.85,2.17-1.37,3.01-2.41c.84-1.04,1.48-2.27,1.94-3.69.46-1.42.69-2.98.69-4.69s-.23-3.27-.69-4.69c-.46-1.42-1.1-2.65-1.94-3.69-.84-1.04-1.84-1.85-3.01-2.41s-2.46-.85-3.88-.85-2.71.28-3.88.85-2.17,1.37-3.01,2.41c-.84,1.04-1.48,2.27-1.94,3.69-.46,1.42-.69,2.98-.69,4.69s.23,3.27.69,4.69ZM711.97,726.07l-6.06,7.67h-4.88l5.11-7.67h5.82Z"/><path class="cls-1" d="M727.59,745.93c.79-2.07,1.89-3.84,3.31-5.33,1.42-1.48,3.11-2.64,5.06-3.48,1.96-.84,4.1-1.25,6.44-1.25,3.19,0,6.31.79,9.37,2.37v5.59c-1.42-.88-2.83-1.56-4.24-2.04-1.4-.47-2.77-.71-4.09-.71-1.58,0-3.02.28-4.33.85s-2.43,1.36-3.36,2.39c-.93,1.03-1.66,2.26-2.18,3.69-.52,1.44-.78,3.01-.78,4.71s.26,3.27.78,4.69c.52,1.42,1.25,2.65,2.18,3.69.93,1.04,2.05,1.85,3.36,2.41s2.75.85,4.33.85c1.33,0,2.69-.24,4.09-.71,1.4-.47,2.82-1.15,4.24-2.04v5.59c-3.06,1.58-6.19,2.37-9.37,2.37-2.34,0-4.48-.42-6.44-1.25-1.96-.84-3.65-2-5.06-3.48-1.42-1.48-2.52-3.26-3.31-5.33-.79-2.07-1.18-4.33-1.18-6.79s.39-4.73,1.18-6.79Z"/><path class="cls-1" d="M766.34,736.44v32.57h-6.15v-32.57h6.15Z"/><path class="cls-1" d="M775.56,745.93c.79-2.07,1.89-3.84,3.29-5.33,1.4-1.48,3.08-2.64,5.02-3.48,1.94-.84,4.08-1.25,6.41-1.25s4.47.42,6.41,1.25c1.94.84,3.61,2,5.02,3.48,1.4,1.48,2.5,3.26,3.29,5.33.79,2.07,1.18,4.33,1.18,6.79s-.39,4.73-1.18,6.79c-.79,2.07-1.89,3.84-3.29,5.33-1.4,1.48-3.08,2.64-5.02,3.48-1.94.84-4.08,1.25-6.41,1.25s-4.47-.42-6.41-1.25c-1.94-.84-3.61-2-5.02-3.48-1.4-1.48-2.5-3.26-3.29-5.33-.79-2.07-1.18-4.33-1.18-6.79s.39-4.73,1.18-6.79ZM781.46,757.41c.46,1.42,1.1,2.65,1.94,3.69.84,1.04,1.84,1.85,3.01,2.41s2.46.85,3.88.85,2.71-.28,3.88-.85,2.17-1.37,3.01-2.41c.84-1.04,1.48-2.27,1.94-3.69.46-1.42.69-2.98.69-4.69s-.23-3.27-.69-4.69c-.46-1.42-1.1-2.65-1.94-3.69-.84-1.04-1.84-1.85-3.01-2.41s-2.46-.85-3.88-.85-2.71.28-3.88.85-2.17,1.37-3.01,2.41c-.84,1.04-1.48,2.27-1.94,3.69-.46,1.42-.69,2.98-.69,4.69s.23,3.27.69,4.69Z"/><path class="cls-1" d="M821.84,764.6c1.8,0,3.26-.43,4.38-1.28,1.12-.85,1.68-1.97,1.68-3.36,0-1.1-.39-1.98-1.16-2.63-.77-.65-1.75-1.2-2.93-1.66-1.18-.46-2.45-.9-3.81-1.33-1.36-.43-2.63-1-3.81-1.73-1.18-.73-2.16-1.66-2.93-2.79s-1.16-2.65-1.16-4.54c0-1.39.28-2.66.85-3.81s1.36-2.15,2.39-2.98c1.03-.84,2.26-1.48,3.69-1.94,1.44-.46,3.01-.69,4.71-.69,2.9,0,5.82.6,8.76,1.8v5.63c-1.39-.82-2.78-1.44-4.19-1.85-1.4-.41-2.78-.62-4.14-.62-1.74,0-3.15.4-4.24,1.18-1.09.79-1.63,1.85-1.63,3.17,0,1.07.39,1.92,1.16,2.53s1.75,1.15,2.93,1.61c1.18.46,2.45.9,3.81,1.33,1.36.43,2.63,1.01,3.81,1.75,1.18.74,2.16,1.7,2.93,2.86.77,1.17,1.16,2.7,1.16,4.59,0,1.42-.29,2.73-.88,3.93-.58,1.2-1.4,2.22-2.44,3.08-1.04.85-2.29,1.51-3.74,1.99-1.45.47-3.05.71-4.78.71-1.58,0-3.16-.18-4.76-.54s-3.18-.91-4.76-1.63v-5.73c3.06,1.96,6.09,2.94,9.09,2.94Z"/><path class="cls-3" d="M598.24,468.86l50.97,50.97,9.23-9.23c1.03-1.03,1.03-2.69,0-3.72l-40.97-40.97c-.99-.99-2.32-1.54-3.72-1.54h-13.66c-2.34,0-3.51,2.83-1.86,4.49Z"/><path class="cls-3" d="M474.15,412.83l-50.97-50.97-9.23,9.23c-1.03,1.03-1.03,2.69,0,3.72l40.97,40.97c.99.99,2.32,1.54,3.72,1.54h13.66c2.34,0,3.51-2.83,1.86-4.49Z"/><path class="cls-3" d="M470.16,563.09l40.97-40.97c.99-.99,1.54-2.32,1.54-3.72v-13.66c0-2.34-2.83-3.51-4.49-1.86l-50.97,50.97,9.23,9.23c1.03,1.03,2.69,1.03,3.72,0Z"/><path class="cls-3" d="M602.24,318.6l-40.97,40.97c-.99.99-1.54,2.32-1.54,3.72v13.66c0,2.34,2.83,3.51,4.49,1.86l50.97-50.97-9.23-9.23c-1.03-1.03-2.69-1.03-3.72,0Z"/><path class="cls-3" d="M560.26,576.61h13.06c1.45,0,2.63-1.18,2.63-2.63v-57.94c0-1.39-.55-2.73-1.54-3.72l-9.66-9.66c-1.66-1.66-4.49-.48-4.49,1.86v72.09Z"/><path class="cls-3" d="M512.14,305.08h-13.06c-1.45,0-2.63,1.18-2.63,2.63v57.94c0,1.39.55,2.73,1.54,3.72l9.66,9.66c1.66,1.66,4.49.48,4.49-1.86v-72.09Z"/><path class="cls-3" d="M472.52,464.91h-72.09v13.06c0,1.45,1.18,2.63,2.63,2.63h57.94c1.39,0,2.73-.55,3.72-1.54l9.66-9.66c1.66-1.66.48-4.49-1.86-4.49Z"/><path class="cls-3" d="M583.24,404.9l47.07-47.07c4.11-4.11,4.11-10.76,0-14.87l-3.66-3.66-54.5,54.51c-10.37,10.37-28.11,3.03-28.11-11.64v-66.57c0-5.81-4.71-10.51-10.51-10.51h-5.17v77.08c0,14.67-17.74,22.02-28.11,11.64l-47.07-47.07c-4.11-4.11-10.76-4.11-14.87,0l-3.66,3.66,54.51,54.51c10.37,10.37,3.03,28.11-11.64,28.11h-66.57c-5.81,0-10.51,4.71-10.51,10.51v5.17h77.08c14.67,0,22.02,17.74,11.64,28.11l-47.07,47.07c-4.11,4.11-4.11,10.76,0,14.87l3.66,3.66,54.5-54.5c10.37-10.37,28.11-3.03,28.11,11.64v66.57c0,5.81,4.71,10.51,10.51,10.51h5.17v-77.08c0-14.67,17.74-22.02,28.11-11.64l47.07,47.07c4.11,4.11,10.76,4.11,14.87,0l3.66-3.66-54.51-54.5c-10.37-10.37-3.03-28.11,11.64-28.11h66.57c5.81,0,10.51-4.71,10.51-10.51v-5.17h-77.08c-14.67,0-22.02-17.74-11.64-28.11Z"/><path class="cls-3" d="M607.68,402.64l-9.66,9.66c-1.66,1.66-.48,4.49,1.86,4.49h72.09v-13.06c0-1.45-1.18-2.63-2.63-2.63h-57.94c-1.39,0-2.73.55-3.72,1.54Z"/></svg>