<?xml version="1.0" encoding="UTF-8"?><svg id="Layer_1" xmlns="http://www.w3.org/2000/svg" viewBox="0 0 1080 1080"><defs><style>.cls-1{fill:#a69d70;}.cls-1,.cls-2,.cls-3{stroke-width:0px;}.cls-2{fill:#343735;}.cls-3{fill:#f7f7f8;}</style></defs><rect class="cls-3" y="0" width="1080" height="1080"/><path class="cls-1" d="M274.56,507.53c4.8-3.42,10.38-5.78,16.43-6.8v-13.45s0,0,0,0v-80.14h-13.29v28.45c-14.55,2.74-27.99,8.46-39.78,16.49h-.03c-3.7,2.49-7.22,5.24-10.57,8.21l47.24,47.24ZM277.69,449.17v42.7l-.81-.81-29.4-29.4c9.11-5.81,19.31-10.12,30.21-12.49Z"/><path class="cls-1" d="M330.21,581.97l-9.5-9.5c-4.8,3.42-10.38,5.78-16.43,6.8v13.45s0,0,0,0v80.14h13.27v-28.45c14.55-2.74,28.04-8.46,39.83-16.49,3.7-2.52,7.22-5.26,10.57-8.21l-37.74-37.74s0,0,0,0ZM347.78,618.32c-9.11,5.84-19.31,10.15-30.24,12.54v-42.77l.86.86,29.38,29.38Z"/><path class="cls-1" d="M402.01,520.06c-2.74-14.53-8.43-28.02-16.46-39.8-2.52-3.7-5.26-7.23-8.21-10.57l-22.54,22.54-24.7,24.7c3.42,4.8,5.78,10.38,6.8,16.43h13.45s0,0,0,0h80.14v-13.29h-28.48ZM345.74,520.06l30.21-30.21c5.87,9.09,10.15,19.28,12.51,30.21h-42.72Z"/><path class="cls-1" d="M304.27,500.73c6.05,1.02,11.63,3.38,16.43,6.8l24.7-24.7h0s41.47-41.47,41.47-41.47l-9.39-9.42-20.11,20.11c-11.78-8.01-25.28-13.75-39.83-16.46-4.33-.86-8.76-1.41-13.27-1.69v53.37h0v13.45ZM317.55,449.14c10.9,2.39,21.1,6.67,30.21,12.51l-29.38,29.4-.83.83v-42.75Z"/><path class="cls-1" d="M217.93,610.29l37.71-37.71s0,0,0,.01l9.52-9.52c-3.42-4.8-5.78-10.38-6.8-16.43h-13.45s0,0,0,0h-80.14v13.27h28.43c2.77,14.55,8.48,28.02,16.51,39.8,2.52,3.7,5.26,7.23,8.21,10.57ZM249.52,559.91l-.83.83-29.4,29.38c-5.84-9.09-10.15-19.28-12.51-30.21h42.75Z"/><path class="cls-1" d="M290.99,579.27c-6.05-1.02-11.64-3.38-16.44-6.8l-24.69,24.69h0l-41.48,41.48,9.39,9.39,20.12-20.12c11.78,8.03,25.25,13.75,39.8,16.49,4.33.86,8.79,1.41,13.29,1.69v-53.37s0,0,0,0v-13.45ZM277.69,630.83c-10.9-2.37-21.1-6.67-30.21-12.51l29.38-29.38.83-.83v42.72Z"/><path class="cls-1" d="M193.23,520.06c-.86,4.33-1.41,8.76-1.69,13.29h53.37s0,0,0,0h13.45c1.02-6.05,3.38-11.64,6.8-16.44l-9.51-9.51s0,0-.01.01l-56.66-56.66-9.39,9.39,20.1,20.1c-8.01,11.78-13.72,25.28-16.46,39.8ZM249.5,520.06h-42.7c2.37-10.93,6.65-21.12,12.49-30.21l30.21,30.21Z"/><path class="cls-1" d="M385.54,599.71c8.03-11.78,13.75-25.25,16.49-39.8.83-4.33,1.38-8.76,1.66-13.27h-53.35s0,0,0,0h-13.45c-1.02,6.05-3.38,11.63-6.8,16.43l64.9,64.9h0s1.28,1.28,1.28,1.28l9.39-9.39-20.12-20.12v-.03ZM346.57,560.77l-.86-.86h42.77c-2.37,10.93-6.67,21.12-12.54,30.24l-29.38-29.38Z"/><path class="cls-2" d="M475.63,589.58v-100.75h20.69v47.6l35.3-47.6h22.99l-35.16,43.55,38.68,57.21h-25.97l-28.27-42.47-7.57,8.38v34.08h-20.69Z"/><path class="cls-2" d="M563.99,589.58v-100.75h32.05c26.37,0,40.17,10.95,40.17,31.92,0,13.93-6.9,24.07-19.2,29.08l6.76,10.41c6.76,9.47,9.77,15.41,16.64,15.15h2.84v14.2c-14.22,4.9-24.08-2.03-30.98-12.98l-14.61-23.26h-12.98v36.24h-20.69ZM584.68,504.78v33.27h11.63c12.44,0,18.93-5.82,18.93-16.63,0-9.87-6.22-16.63-19.2-16.63h-11.36Z"/><path class="cls-2" d="M658.3,589.58l36.52-100.75h11.63l36.51,100.75h-10.95l-10.28-28.94h-42.19l-10.28,28.94h-10.95ZM718.48,551.44l-17.85-50.44-17.85,50.44h35.7Z"/><path class="cls-2" d="M750.45,589.58v-100.75h32.73c32.05,0,50.17,16.63,50.17,50.85,0,31.51-18.66,49.9-50.99,49.9h-31.92ZM761.27,497.88v82.63h20.56c25.15,0,40.44-13.79,40.44-40.3,0-28.4-14.74-42.33-39.35-42.33h-21.64Z"/><path class="cls-2" d="M880.87,589.58h-11.9l-34.35-100.75h11.36l28.94,87.23,28.94-87.23h11.36l-34.35,100.75Z"/></svg>