<?xml version="1.0" encoding="UTF-8"?><svg id="Layer_1" xmlns="http://www.w3.org/2000/svg" viewBox="0 0 1080 1080"><defs><style>.cls-1{fill:#7cc3e9;}.cls-1,.cls-2,.cls-3{stroke-width:0px;}.cls-2{fill:#5c5c5d;}.cls-3{fill:#f7f7f8;}</style></defs><rect class="cls-3" y="0" width="1080" height="1080"/><polygon class="cls-1" points="424.29 511.13 275.78 511.13 275.78 659.63 184 567.85 184 419.35 332.5 419.35 424.29 511.13"/><rect class="cls-1" x="332.5" y="567.85" width="91.78" height="91.78"/><path class="cls-2" d="M506.53,467.86l-2.9,7.12s-1.69-.94-4.96-.94c-6.84,0-9.93,7.3-9.93,7.3v29.78h-7.87v-43.26h7.3v6.65s3.84-7.77,12.08-7.77c3.56,0,6.27,1.12,6.27,1.12Z"/><path class="cls-2" d="M511.07,495.67v-27.81h7.87v26.5c0,7.4,4.59,10.58,10.39,10.58,7.3,0,10.77-7.12,10.77-7.12v-29.97h7.87v43.26h-7.3v-6.65s-3.93,7.77-13.3,7.77c-8.62,0-16.29-5.9-16.29-16.57Z"/><path class="cls-2" d="M601.43,489.49c0,12.74-9.27,22.75-20.98,22.75-10.39,0-14.61-7.4-14.61-7.4v6.27h-7.21v-70.79h7.87v32.87s4.4-6.46,13.95-6.46c11.71,0,20.98,10.02,20.98,22.76ZM566.5,497.45s4.12,7.49,12.74,7.49,14.33-6.93,14.33-15.45-5.71-15.45-14.33-15.45-12.74,7.49-12.74,7.49v15.92Z"/><path class="cls-2" d="M648.86,489.77c0,.84,0,1.5-.09,2.53h-34.93c.47,6.56,6.74,12.64,14.89,12.64s13.02-6.37,13.02-6.37l4.96,5.15s-6.56,8.52-17.98,8.52c-13.11,0-22.57-9.93-22.57-22.75s8.62-22.76,21.63-22.76c12.08,0,21.07,9.08,21.07,23.04ZM641.18,485.75c-.28-4.87-4.68-11.71-13.39-11.71-9.36,0-13.2,7.21-13.77,11.71h27.16Z"/><path class="cls-2" d="M693,483.31v27.81h-7.87v-26.5c0-7.4-4.59-10.58-10.39-10.58-7.02,0-10.77,7.3-10.77,7.3v29.78h-7.87v-43.26h7.3v6.09s3.93-7.21,13.3-7.21c8.62,0,16.29,5.9,16.29,16.57Z"/><path class="cls-2" d="M704.81,498.11s4.59,7.02,13.11,7.02c4.4,0,9.36-1.87,9.36-5.34,0-3.75-3.18-5.62-9.83-6.93-9.27-1.87-15.83-5.53-15.83-13.67,0-6.27,6.27-12.45,15.92-12.45,10.21,0,16.01,6.55,16.01,6.55l-5.15,5.34s-4.31-4.78-10.86-4.78c-5.53,0-8.24,2.72-8.24,5.52,0,3.28,3.37,5.06,10.49,6.55,8.24,1.78,15.26,4.87,15.26,13.67,0,8.33-8.8,12.64-17.14,12.64-12.17,0-18.54-9.08-18.54-9.08l5.43-5.06Z"/><path class="cls-2" d="M517.86,582.84s-6.27,8.33-17.7,8.33c-12.74,0-22.29-10.02-22.29-22.75s9.55-22.76,22.29-22.76c11.05,0,17.23,7.77,17.23,7.77l-5.34,4.78s-4.21-5.24-11.89-5.24c-8.71,0-14.42,6.93-14.42,15.45s5.71,15.45,14.42,15.45,12.64-6.18,12.64-6.18l5.06,5.15Z"/><path class="cls-2" d="M559.69,561.58v28.47h-7.21v-6.27s-4.87,7.4-14.7,7.4c-7.77,0-16.11-5.43-16.11-14.8,0-8.43,7.4-14.42,17.14-14.42,7.96,0,13.02,3.56,13.02,3.56v-2.34c0-8.99-7.49-10.21-10.96-10.21-6.56,0-12.92,3.65-12.92,3.65l-3.28-6.55s6.74-4.4,16.2-4.4c12.74,0,18.82,7.87,18.82,15.92ZM551.83,577.69v-6.09s-4.31-3.09-11.33-3.09-10.96,3.37-10.96,7.87c0,5.62,5.06,7.87,9.93,7.87,7.68,0,12.36-6.55,12.36-6.55Z"/><path class="cls-2" d="M571.5,577.03s4.59,7.02,13.11,7.02c4.4,0,9.36-1.87,9.36-5.34,0-3.75-3.18-5.62-9.83-6.93-9.27-1.87-15.83-5.53-15.83-13.67,0-6.27,6.27-12.45,15.92-12.45,10.21,0,16.01,6.55,16.01,6.55l-5.15,5.34s-4.31-4.78-10.86-4.78c-5.52,0-8.24,2.72-8.24,5.52,0,3.28,3.37,5.06,10.49,6.55,8.24,1.78,15.26,4.87,15.26,13.67,0,8.33-8.8,12.64-17.14,12.64-12.17,0-18.54-9.08-18.54-9.08l5.43-5.06Z"/><path class="cls-2" d="M611.95,577.03s4.59,7.02,13.11,7.02c4.4,0,9.36-1.87,9.36-5.34,0-3.75-3.18-5.62-9.83-6.93-9.27-1.87-15.83-5.53-15.83-13.67,0-6.27,6.27-12.45,15.92-12.45,10.21,0,16.01,6.55,16.01,6.55l-5.15,5.34s-4.31-4.78-10.86-4.78c-5.52,0-8.24,2.72-8.24,5.52,0,3.28,3.37,5.06,10.49,6.55,8.24,1.78,15.26,4.87,15.26,13.67,0,8.33-8.8,12.64-17.14,12.64-12.17,0-18.54-9.08-18.54-9.08l5.43-5.06Z"/><path class="cls-2" d="M653.9,531.46c2.9,0,5.34,2.43,5.34,5.34s-2.43,5.34-5.34,5.34-5.34-2.43-5.34-5.34,2.43-5.34,5.34-5.34ZM649.96,546.78h7.87v43.26h-7.87v-43.26Z"/><path class="cls-2" d="M728.99,562.23v27.81h-7.87v-26.59c0-7.02-3.65-10.49-9.27-10.49-6.46,0-9.27,6.93-9.27,6.93v30.15h-7.87v-26.59c0-7.02-3.65-10.49-9.27-10.49-6.37,0-9.27,6.93-9.27,6.93v30.15h-7.87v-43.26h7.3v6.37s3.18-7.49,11.99-7.49c10.77,0,13.48,8.05,13.48,8.05,0,0,3.46-8.05,12.92-8.05s14.98,5.9,14.98,16.57Z"/><path class="cls-2" d="M743.33,531.46c2.9,0,5.34,2.43,5.34,5.34s-2.43,5.34-5.34,5.34-5.34-2.43-5.34-5.34,2.43-5.34,5.34-5.34ZM739.4,546.78h7.87v43.26h-7.87v-43.26Z"/><path class="cls-2" d="M783.4,546.78l-2.9,7.12s-1.69-.94-4.96-.94c-6.84,0-9.93,7.3-9.93,7.3v29.78h-7.87v-43.26h7.3v6.65s3.84-7.77,12.08-7.77c3.56,0,6.27,1.12,6.27,1.12Z"/><path class="cls-2" d="M827.55,568.41c0,12.74-9.55,22.75-22.29,22.75s-22.29-10.02-22.29-22.75,9.55-22.76,22.29-22.76,22.29,10.02,22.29,22.76ZM819.69,568.41c0-8.52-5.71-15.45-14.42-15.45s-14.42,6.93-14.42,15.45,5.71,15.45,14.42,15.45,14.42-6.93,14.42-15.45Z"/><path class="cls-2" d="M842.82,595.72c.66.37,2.15,1.22,3.28,1.22,2.15,0,4.96-.56,4.96-6.65v-43.5h7.87v44.25c0,10.3-6.93,13.2-11.61,13.2-2.15,0-4.59-.37-7.3-1.97l2.81-6.56ZM854.99,531.46c2.9,0,5.34,2.43,5.34,5.34s-2.43,5.34-5.34,5.34-5.34-2.43-5.34-5.34,2.43-5.34,5.34-5.34Z"/><path class="cls-2" d="M895.06,546.78l-2.9,7.12s-1.69-.94-4.96-.94c-6.84,0-9.93,7.3-9.93,7.3v29.78h-7.87v-43.26h7.3v6.65s3.84-7.77,12.08-7.77c3.56,0,6.27,1.12,6.27,1.12Z"/><path class="cls-2" d="M890.66,580.49c2.9,0,5.34,2.43,5.34,5.34s-2.43,5.34-5.34,5.34-5.34-2.43-5.34-5.34,2.43-5.34,5.34-5.34Z"/><path class="cls-1" d="M490.48,634.97h4.27l9.52,24.49h-4.23l-2.24-5.81h-10.36l-2.24,5.81h-4.23l9.52-24.49ZM488.94,649.81h7.35l-3.67-9.55-3.67,9.55Z"/><path class="cls-1" d="M514.13,634.97h8.05c4.86,0,8.12,3.15,8.12,7.63,0,3.67-1.96,6.47-5.46,7.35l6.12,9.52h-4.9l-5.81-9.24h-1.92v9.24h-4.2v-24.49ZM526.02,642.6c0-2.41-1.68-3.64-4.37-3.64h-3.32v7.28h3.32c2.69,0,4.37-1.22,4.37-3.64Z"/><path class="cls-1" d="M564.76,647.22c0,2.8-.8,5.32-2.17,7.38l3.46,2.97-2.69,3.08-3.6-3.11c-2.03,1.5-4.55,2.34-7.38,2.34-7.14,0-12.38-5.42-12.38-12.66s5.25-12.66,12.38-12.66,12.38,5.42,12.38,12.66ZM555.04,648.02l4.34,3.78c.73-1.33,1.12-2.9,1.12-4.58,0-4.72-3.22-8.68-8.12-8.68s-8.12,3.95-8.12,8.68,3.22,8.68,8.12,8.68c1.57,0,3.01-.42,4.2-1.12l-4.23-3.71,2.69-3.04Z"/><path class="cls-1" d="M590.72,634.97h4.2v15.6c0,5.39-3.67,9.3-9.45,9.3s-9.45-3.92-9.45-9.3v-15.6h4.2v15.08c0,3.5,1.75,5.84,5.25,5.84s5.25-2.34,5.25-5.84v-15.08Z"/><path class="cls-1" d="M607.53,634.97h4.2v24.49h-4.2v-24.49Z"/><path class="cls-1" d="M628.64,638.96h-6.75v-3.99h17.7v3.99h-6.75v20.5h-4.2v-20.5Z"/><path class="cls-1" d="M653.76,644.91h9.8v3.99h-9.8v6.58h10.84v3.99h-15.04v-24.49h14.83v3.99h-10.64v5.95Z"/><path class="cls-1" d="M680.69,638.96h-6.75v-3.99h17.7v3.99h-6.75v20.5h-4.2v-20.5Z"/><path class="cls-1" d="M716.3,634.97h4.2v15.6c0,5.39-3.67,9.3-9.45,9.3s-9.45-3.92-9.45-9.3v-15.6h4.2v15.08c0,3.5,1.75,5.84,5.25,5.84s5.25-2.34,5.25-5.84v-15.08Z"/><path class="cls-1" d="M732.87,634.97h8.05c4.86,0,8.12,3.15,8.12,7.63,0,3.67-1.96,6.47-5.46,7.35l6.12,9.52h-4.9l-5.81-9.24h-1.92v9.24h-4.2v-24.49ZM744.76,642.6c0-2.41-1.68-3.64-4.37-3.64h-3.32v7.28h3.32c2.69,0,4.37-1.22,4.37-3.64Z"/><path class="cls-1" d="M768.3,634.97h4.27l9.52,24.49h-4.23l-2.24-5.81h-10.36l-2.24,5.81h-4.23l9.52-24.49ZM766.76,649.81h7.35l-3.67-9.55-3.67,9.55Z"/></svg>