<?xml version="1.0" encoding="UTF-8"?><svg id="Layer_1" xmlns="http://www.w3.org/2000/svg" viewBox="0 0 1080 1080"><defs><style>.cls-1{fill:#2eb9d5;}.cls-1,.cls-2,.cls-3{stroke-width:0px;}.cls-2{fill:#005173;}.cls-3{fill:#f7f7f8;}</style></defs><rect class="cls-3" y="0" width="1080" height="1080"/><path class="cls-1" d="M862.49,485.16c.04-2.88-.46-5.64-1.4-8.18-1.46-3.94-.4-8.38,2.58-11.36l2.14-2.14c1.51-1.51,3.78-2.03,5.78-1.25,1.8.7,3.76,1.09,5.81,1.09s4.05-.39,5.87-1.11c2-.79,4.27-.27,5.79,1.25l2.19,2.19c2.97,2.97,4.04,7.41,2.58,11.35-.94,2.54-1.44,5.3-1.39,8.17.18,11.78,9.6,21.57,21.37,22.17,13.38.68,24.36-10.31,23.69-23.68-.59-11.74-10.34-21.16-22.1-21.38-2.87-.05-5.61.43-8.15,1.36-3.93,1.44-8.34.36-11.3-2.6l-2.3-2.3c-1.51-1.51-2.02-3.76-1.26-5.75.67-1.77,1.04-3.69,1.04-5.69s-.39-4.01-1.09-5.81c-.78-1.99-.26-4.26,1.25-5.78l2.14-2.14c2.97-2.97,7.41-4.04,11.36-2.58,2.79,1.04,5.85,1.54,9.04,1.38,11.47-.58,20.79-9.9,21.37-21.37.16-3.19-.34-6.24-1.38-9.04-1.47-3.94-.4-8.38,2.58-11.36l.82-.82c2.57-2.57,6.26-3.76,9.81-3,1.29.28,2.64.39,4.03.3,7.47-.44,13.55-6.49,14.02-13.96.56-9-6.86-16.42-15.86-15.86-7.47.46-13.52,6.55-13.95,14.02-.08,1.39.03,2.74.3,4.02.76,3.55-.43,7.25-3,9.82l-.88.88c-2.96,2.96-7.37,4.03-11.3,2.6-2.79-1.02-5.83-1.5-9.01-1.33-11.4.62-20.65,9.88-21.27,21.28-.17,3.17.31,6.21,1.33,9,1.43,3.93.36,8.34-2.6,11.3l-2.23,2.23c-1.51,1.51-3.77,2.02-5.76,1.26-1.78-.69-3.72-1.06-5.74-1.06s-3.92.37-5.69,1.04c-1.99.76-4.24.24-5.75-1.26l-2.34-2.34c-2.96-2.96-4.03-7.38-2.59-11.32.92-2.52,1.41-5.25,1.36-8.1-.2-11.72-9.58-21.44-21.29-22.03-13.32-.67-24.25,10.27-23.58,23.59.59,11.7,10.32,21.08,22.03,21.28,2.85.05,5.58-.43,8.1-1.36,3.94-1.44,8.35-.37,11.32,2.59l2.27,2.27c1.52,1.52,2.03,3.79,1.25,5.79-.72,1.82-1.11,3.79-1.11,5.87s.38,3.96,1.06,5.74c.77,1.99.25,4.25-1.26,5.76l-2.23,2.23c-2.96,2.96-7.37,4.03-11.29,2.6-2.53-.92-5.28-1.41-8.15-1.35-11.75.22-21.5,9.64-22.09,21.38-.67,13.37,10.31,24.36,23.69,23.68,11.77-.6,21.2-10.39,21.37-22.18Z"/><path class="cls-2" d="M250.44,634.43c-1.91,1.67-4.36,2.51-7.28,2.51-6.69-.02-9.82-4.58-9.79-14.3.03-9.56,3.27-14.26,9.84-14.24,2.68,0,4.94.79,6.68,2.24l-1.41,2.17c-1.51-1.17-2.99-1.68-4.74-1.69-4.78-.01-6.89,3.52-6.92,11.53-.02,8.01,1.99,11.55,6.61,11.57,2.14,0,3.89-.65,5.6-2.08l1.39,2.3Z"/><path class="cls-2" d="M269.48,627.38c0,2.84-.56,5.25-1.61,6.88-1.09,1.75-3.24,2.75-5.92,2.74-5.13-.02-7.57-3.17-7.55-9.78,0-2.72.6-5.17,1.61-6.76,1.13-1.79,3.27-2.75,5.96-2.74,5.05.02,7.53,3.21,7.51,9.67ZM258.61,622.02c-.59,1.2-.9,3.07-.91,5.25-.02,5.17,1.18,7.2,4.22,7.21,3.03,0,4.24-2.05,4.26-7.1s-1.18-7.12-4.22-7.13c-1.67,0-2.76.57-3.35,1.78Z"/><path class="cls-2" d="M275.37,618.18h2.92s.15,2.26.15,2.26c1.29-1.9,2.77-2.67,5.18-2.67,4.16.01,5.67,2.27,5.65,8.45l-.03,10.42h-3.23s.03-9.65.03-9.65c.02-5.05-.76-6.61-3.28-6.62-1.67,0-2.92.89-3.55,2.48-.43,1.2-.63,2.76-.64,5.29l-.03,8.48h-3.23s.06-18.44.06-18.44Z"/><path class="cls-2" d="M295.88,606.89h3.23s-.04,13.42-.04,13.42c1.29-1.78,2.69-2.48,5.02-2.47,2.49,0,4.24,1.06,4.97,2.97.46,1.21.69,3.03.68,5.48l-.03,10.42h-3.23s.03-9.65.03-9.65c.02-5.05-.76-6.61-3.28-6.62-1.67,0-2.92.89-3.55,2.48-.43,1.17-.63,2.76-.64,5.21l-.03,8.55h-3.23s.09-29.79.09-29.79Z"/><path class="cls-2" d="M318.64,628.22c.03,4.35,1.61,6.42,4.96,6.43,1.71,0,3.03-.46,4.36-1.54l1.39,2.06c-1.56,1.4-3.39,2.01-5.84,2-5.44-.02-8.08-3.17-8.06-9.63.02-6.38,2.52-9.67,7.34-9.66,2.57,0,4.55.99,5.63,2.82.93,1.6,1.47,3.81,1.46,6.26,0,.39,0,.62-.04,1.28l-11.2-.03ZM326.81,625.92c-.14-3.89-1.27-5.49-3.95-5.49-2.72,0-4.05,1.7-4.14,5.47l8.09.02Z"/><path class="cls-2" d="M347.98,635.31c-1.52,1.32-3.35,1.93-5.68,1.93-4.98-.01-7.38-3.13-7.36-9.63.02-6.49,2.4-9.67,7.18-9.66,2.22,0,4,.63,5.44,1.92l-1.44,2.1c-1.12-1.05-2.17-1.48-3.61-1.49-2.99,0-4.24,2.05-4.26,7.1-.01,5.05,1.18,7.12,4.22,7.13,1.63,0,2.88-.5,4.05-1.62l1.47,2.22Z"/><path class="cls-2" d="M354.96,628.33c.03,4.35,1.61,6.42,4.96,6.43,1.71,0,3.03-.46,4.36-1.54l1.39,2.06c-1.56,1.4-3.39,2.01-5.84,2-5.44-.02-8.08-3.17-8.06-9.63.02-6.38,2.52-9.67,7.34-9.66,2.57,0,4.55.99,5.63,2.82.93,1.6,1.47,3.81,1.46,6.26,0,.39,0,.62-.04,1.28l-11.2-.03ZM363.13,626.03c-.14-3.89-1.27-5.49-3.95-5.49-2.72,0-4.05,1.7-4.14,5.47l8.09.02Z"/><path class="cls-2" d="M371.97,618.47h2.92s.15,2.61.15,2.61c.59-.93.82-1.24,1.21-1.63.82-.85,2.03-1.35,3.27-1.35.27,0,.51,0,1.05.08l-.4,2.76c-.66-.2-.97-.24-1.4-.24-1.28,0-2.45.96-3,2.56-.43,1.2-.59,2.72-.6,5.17l-.03,8.48h-3.23s.06-18.44.06-18.44Z"/><path class="cls-2" d="M387.64,632.9l-3.49,9.98h-2.45s2.6-9.99,2.6-9.99h3.34Z"/><path class="cls-2" d="M415.82,635.52c-1.52,1.32-3.35,1.93-5.68,1.93-4.98-.02-7.38-3.13-7.36-9.63.02-6.49,2.4-9.67,7.18-9.66,2.22,0,4,.63,5.44,1.92l-1.44,2.1c-1.12-1.05-2.17-1.48-3.61-1.49-2.99,0-4.24,2.05-4.26,7.1-.01,5.05,1.18,7.12,4.22,7.13,1.63,0,2.88-.5,4.05-1.62l1.47,2.22Z"/><path class="cls-2" d="M434.74,627.88c0,2.84-.56,5.25-1.61,6.88-1.09,1.75-3.24,2.75-5.92,2.74-5.13-.02-7.57-3.17-7.55-9.78,0-2.72.6-5.17,1.61-6.76,1.13-1.79,3.27-2.75,5.96-2.74,5.05.02,7.53,3.21,7.51,9.67ZM423.87,622.52c-.59,1.2-.9,3.07-.91,5.25-.02,5.17,1.18,7.2,4.22,7.21,3.03,0,4.24-2.05,4.26-7.1.02-5.05-1.18-7.12-4.22-7.13-1.67,0-2.76.57-3.35,1.78Z"/><path class="cls-2" d="M440.64,618.68h2.92s.15,2.26.15,2.26c1.29-1.9,2.77-2.67,5.18-2.67,4.16.01,5.67,2.27,5.65,8.45l-.03,10.42h-3.23s.03-9.65.03-9.65c.02-5.05-.76-6.61-3.28-6.62-1.67,0-2.92.89-3.55,2.48-.43,1.2-.63,2.76-.64,5.29l-.03,8.48h-3.23s.06-18.44.06-18.44Z"/><path class="cls-2" d="M463.43,628.66c.03,4.35,1.61,6.42,4.96,6.43,1.71,0,3.03-.46,4.36-1.54l1.39,2.06c-1.56,1.4-3.39,2.01-5.84,2-5.44-.02-8.08-3.17-8.06-9.63.02-6.38,2.52-9.67,7.34-9.66,2.57,0,4.55.99,5.63,2.82.93,1.6,1.47,3.81,1.46,6.26,0,.39,0,.62-.04,1.28l-11.2-.03ZM471.61,626.35c-.14-3.89-1.27-5.49-3.95-5.49-2.72,0-4.05,1.7-4.14,5.47l8.09.02Z"/><path class="cls-2" d="M492.78,635.75c-1.52,1.32-3.35,1.93-5.68,1.93-4.98-.01-7.38-3.13-7.36-9.63.02-6.49,2.4-9.67,7.18-9.66,2.22,0,4,.63,5.44,1.92l-1.44,2.1c-1.12-1.05-2.17-1.48-3.61-1.49-2.99,0-4.24,2.05-4.26,7.1-.01,5.05,1.18,7.12,4.22,7.13,1.63,0,2.88-.5,4.05-1.62l1.47,2.22Z"/><path class="cls-2" d="M496.68,621.41v-2.57s2.61,0,2.61,0l.21-5.6,2.84-.54-.02,6.14h4.2s0,2.58,0,2.58h-4.2s-.03,9.79-.03,9.79c0,2.92.46,3.66,2.24,3.66.51,0,.82-.04,1.52-.15l.42,2.41c-1.13.31-1.83.38-2.8.38-2.02,0-3.26-.59-3.88-1.8-.5-.97-.66-2.1-.65-4.75l.03-9.56h-2.49Z"/><path class="cls-2" d="M521.94,634.98c-.9,1.86-2.57,2.79-4.87,2.78-4.47-.01-6.68-3.21-6.66-9.66.02-6.42,2.24-9.64,6.68-9.62,2.33,0,3.85.79,4.89,2.5l.12-2.06h2.68s-.06,18.44-.06,18.44h-2.68s-.11-2.38-.11-2.38ZM513.71,628.11c0,2.26.26,4.04.84,5.33.5,1.21,1.51,1.79,3.03,1.8,1.56,0,2.57-.58,3.12-1.78.59-1.24.87-3.03.87-5.25.02-5.13-1.11-7.2-3.94-7.2-2.76,0-3.89,2.05-3.91,7.1Z"/><path class="cls-2" d="M531.42,618.95h2.92s.15,2.61.15,2.61c.59-.93.82-1.24,1.21-1.63.82-.85,2.03-1.35,3.27-1.35.27,0,.51,0,1.05.08l-.4,2.76c-.66-.2-.97-.24-1.4-.24-1.28,0-2.45.96-3,2.56-.43,1.2-.59,2.72-.6,5.17l-.03,8.48h-3.23s.06-18.44.06-18.44Z"/><path class="cls-2" d="M547.1,633.39l-3.49,9.98h-2.45s2.6-9.99,2.6-9.99h3.34Z"/><path class="cls-2" d="M561.13,621.61v-2.57s2.61,0,2.61,0l.21-5.6,2.84-.54-.02,6.14h4.2s0,2.58,0,2.58h-4.2s-.03,9.79-.03,9.79c0,2.92.46,3.66,2.24,3.66.51,0,.82-.04,1.52-.15l.42,2.41c-1.13.31-1.83.38-2.8.38-2.02,0-3.26-.59-3.88-1.8-.5-.97-.66-2.1-.65-4.75l.03-9.56h-2.49Z"/><path class="cls-2" d="M575.92,619.09h2.92s.15,2.61.15,2.61c.59-.93.82-1.24,1.21-1.63.82-.85,2.03-1.35,3.27-1.35.27,0,.51,0,1.05.08l-.4,2.76c-.66-.2-.97-.24-1.4-.24-1.28,0-2.45.96-3,2.56-.43,1.2-.59,2.72-.6,5.17l-.03,8.48h-3.23s.06-18.44.06-18.44Z"/><path class="cls-2" d="M599.92,635.22c-.9,1.86-2.57,2.79-4.87,2.78-4.47-.01-6.68-3.21-6.66-9.66.02-6.42,2.24-9.64,6.68-9.62,2.33,0,3.85.79,4.89,2.5l.12-2.06h2.68s-.06,18.44-.06,18.44h-2.68s-.11-2.38-.11-2.38ZM591.7,628.35c0,2.26.26,4.04.84,5.33.5,1.21,1.51,1.79,3.03,1.8,1.56,0,2.57-.58,3.12-1.78.59-1.24.87-3.03.87-5.25.02-5.13-1.11-7.2-3.94-7.2-2.76,0-3.89,2.05-3.91,7.1Z"/><path class="cls-2" d="M609.41,619.19h2.92s.15,2.26.15,2.26c1.29-1.9,2.77-2.67,5.18-2.67,4.16.01,5.67,2.27,5.65,8.45l-.03,10.42h-3.23s.03-9.65.03-9.65c.02-5.05-.76-6.61-3.28-6.62-1.67,0-2.92.89-3.55,2.48-.43,1.2-.63,2.76-.64,5.29l-.03,8.48h-3.23s.06-18.44.06-18.44Z"/><path class="cls-2" d="M629.91,634.06c1.43,1.13,2.52,1.52,4.08,1.53,2.14,0,3.19-.88,3.2-2.67,0-.82-.23-1.48-.65-1.95-.58-.62-.7-.7-3.07-1.84-3.11-1.53-4.19-2.93-4.18-5.42,0-3.03,2.04-4.89,5.34-4.88,2.06,0,3.73.59,5.13,1.88l-1.48,2.06c-1.16-1.01-2.09-1.41-3.42-1.41-1.67,0-2.57.77-2.57,2.17,0,1.56.54,2.14,3.26,3.43,2.17,1.06,2.64,1.33,3.3,1.95.93.86,1.39,2.14,1.39,3.78-.01,3.54-2.19,5.44-6.16,5.42-2.41,0-4.12-.6-5.63-1.88l1.48-2.17Z"/><path class="cls-2" d="M644.42,621.86v-2.57s2.61,0,2.61,0v-4.28c.02-2.84.26-4.12,1-5.36.78-1.24,2.26-1.94,4.28-1.93.7,0,1.2.08,2.1.24l-.36,2.37c-.5-.12-.78-.16-1.2-.16-2.06,0-2.65,1.04-2.66,4.7v4.43s3.95.01,3.95.01v2.57s-3.97-.01-3.97-.01l-.05,15.86h-3.15s.05-15.87.05-15.87h-2.61Z"/><path class="cls-2" d="M672.86,628.59c0,2.84-.56,5.25-1.61,6.88-1.09,1.75-3.24,2.75-5.92,2.74-5.13-.02-7.57-3.17-7.55-9.78,0-2.72.6-5.17,1.61-6.76,1.13-1.79,3.27-2.75,5.96-2.74,5.05.02,7.53,3.21,7.51,9.67ZM661.99,623.23c-.59,1.2-.9,3.07-.91,5.25-.02,5.17,1.18,7.2,4.22,7.21,3.03,0,4.24-2.05,4.26-7.1.02-5.05-1.18-7.12-4.22-7.13-1.67,0-2.76.57-3.35,1.78Z"/><path class="cls-2" d="M678.75,619.4h2.92s.15,2.61.15,2.61c.59-.93.82-1.24,1.21-1.63.82-.85,2.03-1.35,3.27-1.35.27,0,.51,0,1.05.08l-.4,2.76c-.66-.2-.97-.24-1.4-.24-1.28,0-2.45.96-3,2.56-.43,1.2-.59,2.72-.6,5.17l-.03,8.48h-3.23s.06-18.44.06-18.44Z"/><path class="cls-2" d="M692.49,619.44h2.92s.15,2.26.15,2.26c1.21-1.9,2.57-2.67,4.87-2.67,2.49,0,3.85.91,4.66,3.01,1.41-2.13,2.89-2.99,5.26-2.98,3.85.01,5.28,2.27,5.26,8.45l-.03,10.42h-3.23s.03-9.65.03-9.65c.02-5.05-.68-6.61-2.93-6.62-2.68,0-3.78,2.2-3.79,7.69l-.03,8.55h-3.23s.03-9.65.03-9.65c.02-5.05-.68-6.61-2.93-6.62-1.52,0-2.65.89-3.2,2.48-.43,1.2-.59,2.76-.6,5.29l-.03,8.48h-3.23s.06-18.44.06-18.44Z"/><path class="cls-2" d="M732.91,635.62c-.9,1.86-2.57,2.79-4.87,2.78-4.47-.01-6.68-3.21-6.66-9.66.02-6.42,2.24-9.64,6.68-9.62,2.33,0,3.85.79,4.89,2.5l.12-2.06h2.68s-.06,18.44-.06,18.44h-2.68s-.11-2.38-.11-2.38ZM724.69,628.75c0,2.26.26,4.04.84,5.33.5,1.21,1.51,1.79,3.03,1.8,1.56,0,2.57-.58,3.12-1.78.59-1.24.87-3.03.87-5.25.02-5.13-1.11-7.2-3.94-7.2-2.76,0-3.89,2.05-3.91,7.1Z"/><path class="cls-2" d="M742.39,619.59h2.92s.15,2.61.15,2.61c.59-.93.82-1.24,1.21-1.63.82-.85,2.03-1.35,3.27-1.35.27,0,.51,0,1.05.08l-.4,2.76c-.66-.2-.97-.24-1.4-.24-1.28,0-2.45.96-3,2.56-.43,1.2-.59,2.72-.6,5.17l-.03,8.48h-3.23s.06-18.44.06-18.44Z"/><path class="cls-2" d="M758.12,636.16c0,1.4-.9,2.33-2.3,2.33-1.4,0-2.29-.94-2.29-2.34,0-1.36.94-2.29,2.3-2.29,1.4,0,2.29.94,2.29,2.3Z"/><path class="cls-2" d="M392.11,566.23l-7.5,15.5h-16.93s37.48-75.3,37.48-75.3h12.39l36.78,75.3h-16.75s-7.38-15.5-7.38-15.5h-38.1ZM411.36,522.92l-15.13,31.49h29.92l-14.79-31.49Z"/><path class="cls-2" d="M755.91,566.13l-7.54,15.6h-16.93s37.48-75.3,37.48-75.3h12.39l36.78,75.3h-16.75s-7.37-15.48-7.37-15.48l-38.06-.11ZM775.12,522.92l-15.11,31.44,29.92.09-14.81-31.53Z"/><path class="cls-2" d="M174.7,564.25c6.76,4.43,14.57,6.44,25.66,6.44,9.5,0,14.05-3.17,14.05-9.61,0-3.8-1.37-6.12-4.86-7.92q-2.64-1.37-13.62-4.75c-16.9-5.18-24.4-12.14-24.4-22.71,0-12.89,10.88-20.7,28.83-20.7,10.35,0,18.69,2,25.98,6.23l-5.38,11.19c-5.49-3.28-12.25-4.86-19.96-4.86-8.55,0-13.62,2.95-13.62,8.02,0,2.54,1.37,4.96,3.8,6.55q2.43,1.47,12.36,4.64c20.91,6.55,26.93,11.94,26.93,24.4,0,14.46-10.45,21.97-30.52,21.97-12.78,0-23.34-2.43-30.63-7.08l5.39-11.82Z"/><path class="cls-2" d="M246.75,506.43h16.79v75.3h-16.79v-75.3Z"/><path class="cls-2" d="M620.54,506.43h16.79v75.3h-16.79v-75.3Z"/><path class="cls-2" d="M284.93,506.43h12.04l45.52,51.32v-51.32h15.84v75.3h-10.98l-46.58-52.7v52.7h-15.84v-75.3Z"/><polygon class="cls-2" points="414.34 488.66 426.99 488.71 417.7 501.1 406.93 501.07 414.34 488.66"/><path class="cls-2" d="M564.54,518.73l-25.13-.08.04-12.23h67.06s-.04,12.44-.04,12.44l-25.14-.08-.19,62.94h-16.79l.19-62.99Z"/><path class="cls-2" d="M726.61,576.48c-5.83,4.21-17.13,6.71-29.81,6.67-13.2-.04-24.7-3.67-32.28-10.13-7.59-6.46-11.57-16.3-11.53-28.86.08-25.03,15.75-39.24,43.31-39.15,10.88.03,19.85,2.06,27.75,6.31l-5.42,11.18c-4.85-3.08-12.45-4.89-21-4.92-17.1-.05-27.27,9.84-27.33,26.63-.05,16.79,10.17,26.43,28.01,26.49,9.4.03,16.69-1.85,23.04-5.95l5.25,11.74Z"/><path class="cls-2" d="M480.86,581.73l-16.37-.05.23-75.4,31.89.1c12.14.04,19.64,1.64,25.54,5.57,6.11,4.03,9.58,11.12,9.55,19.25-.03,8.87-4.17,16.25-11.36,20.24-5.4,2.94-12.05,4.3-21.56,4.27l-17.85-.05-.08,26.08ZM497.87,543.65c6.34.02,10.24-.82,12.89-2.81,2.54-1.89,4.35-5.9,4.36-9.8.01-4.33-2.09-8.46-5.25-10.48-2.43-1.49-6.22-2.13-11.93-2.15l-16.9-.05-.08,25.24,16.9.05Z"/></svg>