<?xml version="1.0" encoding="UTF-8"?><svg id="Layer_1" xmlns="http://www.w3.org/2000/svg" viewBox="0 0 1080 1080"><defs><style>.cls-1{fill:#56716b;}.cls-1,.cls-2,.cls-3{stroke-width:0px;}.cls-2{fill:#fbba00;}.cls-3{fill:#f7f7f8;}</style></defs><rect class="cls-3" y="0" width="1080" height="1080"/><path class="cls-1" d="M208.31,717.71l15.51-2.05c2.26,6.68,7.91,10.27,15.92,10.27s12.84-3.29,12.74-8.83c-.21-14.58-41.49-5.03-41.49-32.97,0-13.04,11.09-21.77,27.01-21.77s27.01,6.88,29.89,20.13l-14.89,2.05c-2.36-5.96-7.09-9.04-14.48-9.04s-11.71,3.18-11.71,8.32c0,15.82,42.01,4.52,42.01,32.76,0,13.45-11.4,22.29-28.96,22.29-16.43,0-28.35-7.6-31.53-21.16Z"/><path class="cls-1" d="M277.11,663.59c0-5.14,3.8-7.91,8.94-7.91,4.83,0,8.94,2.77,8.94,7.91s-4.11,7.91-8.94,7.91c-5.14,0-8.94-2.88-8.94-7.91ZM278.24,679.1h15.51v58.75h-15.51v-58.75Z"/><path class="cls-1" d="M299.71,679.1h16.95l15.61,41.18,15.51-41.18h17.15l-24.75,58.85h-15.92l-24.55-58.85Z"/><path class="cls-1" d="M365.55,708.47c0-19.72,11.4-30.5,25.98-30.5,8.32,0,15.82,4.11,18.79,11.09v-9.96h15.61v58.64h-15.61v-9.55c-2.88,6.78-10.48,10.99-18.69,10.99-14.58,0-26.09-10.99-26.09-30.71ZM410.84,708.47c0-10.99-6.16-17.56-14.89-17.56s-14.79,6.47-14.79,17.56,6.16,17.66,14.89,17.66,14.79-6.57,14.79-17.66Z"/><path class="cls-1" d="M438.61,679.1h15.61v9.45c2.67-6.47,9.24-10.58,18.18-10.58,15.71,0,22.8,9.04,22.8,27.52v32.35h-15.61v-30.91c0-10.78-4.01-15.71-12.74-15.71s-12.63,5.75-12.63,16.64v29.99h-15.61v-58.75Z"/><path class="cls-1" d="M536.33,663.48h19.72l17.25,57.41,17.25-57.41h19.82l12.02,74.36h-16.43l-8.42-52.99-16.33,52.99h-15.71l-16.43-52.99-8.42,52.99h-16.33l12.02-74.36Z"/><path class="cls-1" d="M628.37,708.47c0-19.72,11.4-30.5,25.98-30.5,8.32,0,15.82,4.11,18.79,11.09v-9.96h15.61v58.64h-15.61v-9.55c-2.88,6.78-10.48,10.99-18.69,10.99-14.58,0-26.09-10.99-26.09-30.71ZM673.66,708.47c0-10.99-6.16-17.56-14.89-17.56s-14.79,6.47-14.79,17.56,6.16,17.66,14.89,17.66,14.79-6.57,14.79-17.66Z"/><path class="cls-1" d="M700.76,711.55v-32.45h15.61v31.02c0,10.68,3.59,15.61,12.73,15.61s12.53-5.75,12.53-16.64v-29.99h15.61v58.75h-15.61v-9.35c-2.57,6.37-9.24,10.58-18.08,10.58-15.71,0-22.8-9.04-22.8-27.52Z"/><path class="cls-1" d="M767.21,708.47c0-18.08,12.32-30.5,30.09-30.5,19.41,0,30.81,13.56,28.96,34.1h-43.44c.31,9.55,6.06,15.1,15.41,15.1,6.68,0,11.09-2.46,13.25-7.29l14.28,1.75c-4.21,11.4-13.76,17.36-27.94,17.36-18.49,0-30.61-12.12-30.61-30.5ZM811.99,701.79c-.62-7.81-5.96-12.84-14.28-12.84s-13.66,4.52-14.58,12.84h28.86Z"/><path class="cls-1" d="M836.25,679.1h15.61v8.83c2.05-5.44,8.11-10.89,19.82-9.55l-1.54,14.79c-11.71-2.16-18.28,3.29-18.28,16.95v27.73h-15.61v-58.75Z"/><path class="cls-1" d="M310.47,782.08h5.26l7.52,22.63,7.52-22.63h5.26l4.89,27.21h-4.4l-3.87-21.35-7.22,21.35h-4.36l-7.22-21.35-3.87,21.35h-4.4l4.89-27.21Z"/><path class="cls-1" d="M351.06,798.55c0-6.62,4.43-11.16,10.86-11.16,6.84,0,10.98,5.04,10.45,12.25h-17.1c.15,4.17,2.74,6.54,6.92,6.54,3.01,0,4.96-1.02,6.01-3.08l3.87.6c-1.73,3.98-5.11,6.01-9.96,6.01-6.69,0-11.05-4.44-11.05-11.16ZM368.42,796.33c-.3-3.42-2.63-5.6-6.43-5.6s-6.13,1.88-6.62,5.6h13.04ZM363.2,778.78h3.95l-3.76,6.47h-3.23l3.05-6.47Z"/><path class="cls-1" d="M383.15,798.55c0-7.4,4.51-11.16,9.85-11.16,3.38,0,6.43,1.65,7.63,4.62v-11.2h4.21v28.45h-4.21v-4.06c-1.2,2.89-4.25,4.59-7.59,4.59-5.34,0-9.89-3.8-9.89-11.24ZM400.74,798.55c0-4.7-2.71-7.59-6.73-7.59s-6.65,2.86-6.65,7.59,2.71,7.63,6.73,7.63,6.65-2.89,6.65-7.63Z"/><path class="cls-1" d="M417.14,782.42c0-1.43,1.05-2.26,2.48-2.26,1.35,0,2.52.83,2.52,2.26s-1.17,2.26-2.52,2.26c-1.43,0-2.48-.86-2.48-2.26ZM417.52,787.8h4.17v21.5h-4.17v-21.5Z"/><path class="cls-1" d="M433.18,798.55c0-6.5,4.44-11.16,10.64-11.16,5.41,0,8.65,2.48,10,7.37l-3.61.71c-1.05-3.04-3.05-4.51-6.2-4.51-3.91,0-6.62,3.08-6.62,7.59s2.71,7.56,6.62,7.56c2.93,0,5.19-1.65,6.13-4.47l3.61.71c-1.17,4.62-4.77,7.37-9.92,7.37-6.2,0-10.64-4.66-10.64-11.16Z"/><path class="cls-1" d="M464.32,798.55c0-7.74,5.38-11.16,10.86-11.16s10.9,3.42,10.9,11.16-5.38,11.24-10.86,11.24-10.9-3.42-10.9-11.24ZM481.87,798.55c0-4.7-2.71-7.59-6.69-7.59s-6.65,2.86-6.65,7.59,2.67,7.63,6.69,7.63,6.65-2.89,6.65-7.63Z"/><path class="cls-1" d="M516.19,782.08h7.37c8.91,0,12.78,2.44,12.78,9.58s-3.87,9.59-12.74,9.59h-3.05v8.04h-4.36v-27.21ZM524.2,797.27c5.15,0,7.71-1.2,7.71-5.68s-2.56-5.64-7.71-5.64h-3.65v11.31h3.65Z"/><path class="cls-1" d="M546.17,804.11l3.83-1.05c1.05,1.95,3.27,3.01,6.28,3.01,3.35,0,5.15-1.05,5.15-3.01,0-4.92-14.32-.45-14.32-9.47,0-3.68,3.91-6.16,8.87-6.16,3.91,0,7.86,1.95,9.13,4.92l-3.76,1.01c-.9-1.58-3.01-2.48-5.3-2.48-3.01,0-4.81,1.02-4.81,2.78,0,4.89,14.43.38,14.43,9.28,0,4.13-3.65,6.73-9.4,6.73-4.85,0-8.79-2.18-10.11-5.56Z"/><path class="cls-1" d="M576.52,782.42c0-1.43,1.05-2.26,2.48-2.26,1.35,0,2.52.83,2.52,2.26s-1.17,2.26-2.52,2.26c-1.43,0-2.48-.86-2.48-2.26ZM576.89,787.8h4.17v21.5h-4.17v-21.5Z"/><path class="cls-1" d="M610.12,805.09c-1.13,2.74-4.02,4.59-7.59,4.59-5.04,0-9.89-3.38-9.89-11.13s4.81-11.2,9.85-11.2c3.61,0,6.5,1.8,7.63,4.55v-4.06h4.21v28.45h-4.21v-11.2ZM610.24,798.55c0-4.77-2.71-7.63-6.73-7.63s-6.65,2.89-6.65,7.63,2.71,7.56,6.73,7.56,6.65-2.82,6.65-7.56Z"/><path class="cls-1" d="M626.63,799.49v-11.69h4.21v11.35c0,4.66,1.69,6.88,5.75,6.88s5.71-2.67,5.71-7.4v-10.83h4.21v21.5h-4.21v-3.91c-.94,2.67-3.42,4.32-6.99,4.32-5.94,0-8.68-3.46-8.68-10.22Z"/><path class="cls-1" d="M658.82,782.42c0-1.43,1.05-2.26,2.48-2.26,1.35,0,2.52.83,2.52,2.26s-1.17,2.26-2.52,2.26c-1.43,0-2.48-.86-2.48-2.26ZM659.2,787.8h4.17v21.5h-4.17v-21.5Z"/><path class="cls-1" d="M674.95,798.55c0-7.4,4.51-11.16,9.85-11.16,3.38,0,6.39,1.65,7.63,4.62v-4.21h4.21v21.46h-4.21v-4.06c-1.2,2.89-4.25,4.59-7.59,4.59-5.34,0-9.89-3.8-9.89-11.24ZM692.54,798.55c0-4.7-2.74-7.59-6.73-7.59s-6.65,2.86-6.65,7.59,2.71,7.63,6.73,7.63,6.65-2.89,6.65-7.63Z"/><path class="cls-1" d="M710.41,800.73v-9.66h-3.12v-3.27h3.12v-3.95l4.25-.9v4.85h6.35v3.27h-6.35v9.17c0,4.44,1.17,5.98,4.44,5.98.41,0,.9-.08,1.73-.19l.56,3.27c-.83.19-2.03.3-2.93.3-5.53,0-8.05-2.29-8.05-8.87Z"/><path class="cls-1" d="M731.92,787.8h4.21v3.61c.83-2.29,3.08-4.4,7.56-3.76l-.45,4.06c-4.81-.9-7.1,1.69-7.1,6.95v10.64h-4.21v-21.5Z"/><path class="cls-1" d="M752.73,798.55c0-7.4,4.51-11.16,9.85-11.16,3.38,0,6.39,1.65,7.63,4.62v-4.21h4.21v21.46h-4.21v-4.06c-1.2,2.89-4.25,4.59-7.59,4.59-5.34,0-9.89-3.8-9.89-11.24ZM770.32,798.55c0-4.7-2.74-7.59-6.73-7.59s-6.65,2.86-6.65,7.59,2.71,7.63,6.73,7.63,6.65-2.89,6.65-7.63Z"/><path class="cls-2" d="M674.98,341.65c-12.16-21.05-39.08-28.27-60.13-16.11-13.96,8.06-21.84,22.61-22.01,37.64,0,.16,0,.32,0,.48,0,.15,0,.3,0,.46-.16,6.93-3.83,13.62-10.28,17.34-6.37,3.68-13.89,3.56-19.95.34,0,0,0,0-.01,0-.2-.11-.4-.22-.59-.33-.2-.11-.4-.23-.59-.35-13.07-7.26-29.53-7.68-43.42.34-13.92,8.03-21.79,22.52-22.01,37.5,0,.21,0,.42,0,.62s0,.41,0,.61c-.21,6.88-3.88,13.49-10.27,17.18-6.4,3.7-13.96,3.56-20.03.3-.18-.09-.35-.19-.52-.29-.18-.1-.35-.21-.53-.31-13.09-7.3-29.57-7.73-43.49.31-21.05,12.16-28.27,39.08-16.11,60.13,12.16,21.05,39.08,28.27,60.13,16.11,13.9-8.02,21.77-22.49,22.01-37.45h0c0-.23-.01-.45-.01-.68s0-.44.01-.67c.23-6.86,3.89-13.45,10.27-17.14,6.39-3.69,13.93-3.56,19.99-.32.19.1.38.21.57.32.19.11.38.22.56.34,13.08,7.28,29.55,7.7,43.45-.33,13.88-8.01,21.74-22.44,22.01-37.37,0-.25-.01-.5-.01-.75s0-.49.02-.74c0,0,0,0,0,0,.25-6.83,3.91-13.39,10.27-17.06,6.41-3.7,13.99-3.56,20.06-.28.17.09.34.18.5.28.16.09.32.19.48.29,13.09,7.33,29.6,7.77,43.54-.28,21.05-12.16,28.27-39.08,16.11-60.13ZM456.75,499.05c-13.01,7.51-29.65,3.05-37.16-9.96-7.51-13.01-3.05-29.65,9.96-37.16,13.01-7.51,29.65-3.05,37.16,9.96,7.51,13.01,3.05,29.65-9.96,37.16ZM553.6,443.13c-13.01,7.51-29.65,3.05-37.16-9.96-7.51-13.01-3.05-29.65,9.96-37.16,13.01-7.51,29.65-3.05,37.16,9.96,7.51,13.01,3.05,29.65-9.96,37.16ZM650.46,387.21c-13.01,7.51-29.65,3.05-37.16-9.96-7.51-13.01-3.05-29.65,9.96-37.16,13.01-7.51,29.65-3.05,37.16,9.96,7.51,13.01,3.05,29.65-9.96,37.16Z"/><path class="cls-2" d="M578.12,285.73c-12.16-21.05-39.08-28.27-60.13-16.11-13.9,8.03-21.77,22.49-22.01,37.45h0c0,.23.01.45.01.68s0,.44-.01.66c-.23,6.86-3.89,13.45-10.27,17.14-6.39,3.69-13.93,3.56-19.99.32-.19-.1-.38-.2-.56-.31-.19-.11-.37-.22-.56-.33-13.08-7.28-29.55-7.71-43.46.32-21.05,12.16-28.27,39.08-16.11,60.13,12.16,21.05,39.08,28.27,60.13,16.11,13.9-8.02,21.77-22.49,22.01-37.45h0c0-.23-.01-.45-.01-.68s0-.44.01-.67c.23-6.86,3.89-13.45,10.27-17.14,6.39-3.69,13.93-3.56,19.99-.32.19.1.38.21.57.32.19.11.38.22.56.34,13.08,7.28,29.55,7.7,43.45-.33,21.05-12.16,28.27-39.08,16.11-60.13ZM456.75,387.21c-13.01,7.51-29.65,3.05-37.16-9.96-7.51-13.01-3.05-29.65,9.96-37.16,13.01-7.51,29.65-3.05,37.16,9.96,7.51,13.01,3.05,29.65-9.96,37.16ZM553.6,331.3c-13.01,7.51-29.65,3.05-37.16-9.96-7.51-13.01-3.05-29.65,9.96-37.16,13.01-7.51,29.65-3.05,37.16,9.96,7.51,13.01,3.05,29.65-9.96,37.16Z"/><path class="cls-2" d="M495.98,307.06c0,.22.01.45.01.68s0,.44-.01.66c0-.22,0-.44,0-.66s0-.46,0-.68Z"/><path class="cls-2" d="M517.99,345.85c.19.11.38.22.56.34-.19-.11-.39-.22-.58-.33-.19-.11-.37-.22-.55-.33.19.1.38.21.57.32Z"/><path class="cls-2" d="M465.15,325.54c-.19-.11-.37-.22-.56-.33.19.11.38.21.57.32.18.1.37.21.55.32-.19-.1-.38-.2-.56-.31Z"/><path class="cls-2" d="M487.17,363.64c0,.23,0,.45,0,.68,0-.22-.01-.45-.01-.67s0-.44.01-.67c0,.22,0,.44,0,.66Z"/><path class="cls-2" d="M592.84,474.82c0,.22.01.45.01.67s0,.44-.01.67c0-.22,0-.44,0-.66,0-.23,0-.45,0-.68Z"/><path class="cls-2" d="M614.85,513.61c.19.11.38.22.57.34-.2-.11-.39-.22-.59-.33-.19-.11-.38-.22-.56-.33.19.1.39.21.58.32Z"/><path class="cls-2" d="M674.98,453.49c-12.16-21.05-39.08-28.27-60.13-16.11-13.9,8.02-21.77,22.49-22.01,37.45h0c0,.23.01.45.01.68s0,.44-.01.67c-.23,6.86-3.89,13.45-10.27,17.14-6.39,3.69-13.93,3.56-19.99.32-.19-.1-.38-.21-.57-.32-.19-.11-.38-.22-.56-.34-13.08-7.28-29.55-7.7-43.45.33-21.05,12.16-28.27,39.08-16.11,60.13,12.16,21.05,39.08,28.27,60.13,16.11,13.9-8.03,21.77-22.49,22.01-37.45h0c0-.23-.01-.45-.01-.68s0-.44.01-.67c.23-6.86,3.89-13.45,10.27-17.14,6.38-3.69,13.92-3.56,19.98-.33.19.1.39.21.58.32.19.11.38.22.57.34,13.08,7.27,29.54,7.69,43.44-.33,21.05-12.16,28.27-39.08,16.11-60.13ZM553.6,554.97c-13.01,7.51-29.65,3.05-37.16-9.96-7.51-13.01-3.05-29.65,9.96-37.16,13.01-7.51,29.65-3.05,37.16,9.96,7.51,13.01,3.05,29.65-9.96,37.16ZM650.46,499.05c-13.01,7.51-29.65,3.05-37.16-9.96-7.51-13.01-3.05-29.65,9.96-37.16,13.01-7.51,29.65-3.05,37.16,9.96,7.51,13.01,3.05,29.65-9.96,37.16Z"/><path class="cls-2" d="M562.01,493.3c-.19-.11-.38-.22-.56-.34.19.11.39.22.58.33.19.11.37.22.55.33-.19-.1-.38-.21-.57-.32Z"/><path class="cls-2" d="M584.03,531.4c0,.23,0,.46,0,.68,0-.22-.01-.45-.01-.67s0-.44.01-.67c0,.22,0,.44,0,.66Z"/></svg>